%TF.GenerationSoftware,KiCad,Pcbnew,7.0.1*%
%TF.CreationDate,2023-05-29T21:51:14-06:00*%
%TF.ProjectId,Over_Voltage_Latch,4f766572-5f56-46f6-9c74-6167655f4c61,1*%
%TF.SameCoordinates,Original*%
%TF.FileFunction,Soldermask,Top*%
%TF.FilePolarity,Negative*%
%FSLAX46Y46*%
G04 Gerber Fmt 4.6, Leading zero omitted, Abs format (unit mm)*
G04 Created by KiCad (PCBNEW 7.0.1) date 2023-05-29 21:51:14*
%MOMM*%
%LPD*%
G01*
G04 APERTURE LIST*
G04 Aperture macros list*
%AMRoundRect*
0 Rectangle with rounded corners*
0 $1 Rounding radius*
0 $2 $3 $4 $5 $6 $7 $8 $9 X,Y pos of 4 corners*
0 Add a 4 corners polygon primitive as box body*
4,1,4,$2,$3,$4,$5,$6,$7,$8,$9,$2,$3,0*
0 Add four circle primitives for the rounded corners*
1,1,$1+$1,$2,$3*
1,1,$1+$1,$4,$5*
1,1,$1+$1,$6,$7*
1,1,$1+$1,$8,$9*
0 Add four rect primitives between the rounded corners*
20,1,$1+$1,$2,$3,$4,$5,0*
20,1,$1+$1,$4,$5,$6,$7,0*
20,1,$1+$1,$6,$7,$8,$9,0*
20,1,$1+$1,$8,$9,$2,$3,0*%
G04 Aperture macros list end*
%ADD10C,0.836200*%
%ADD11C,1.576200*%
%ADD12C,0.010000*%
%ADD13RoundRect,0.250000X-0.475000X0.250000X-0.475000X-0.250000X0.475000X-0.250000X0.475000X0.250000X0*%
%ADD14RoundRect,0.225000X-0.225000X-0.375000X0.225000X-0.375000X0.225000X0.375000X-0.225000X0.375000X0*%
%ADD15RoundRect,0.150000X0.150000X-0.587500X0.150000X0.587500X-0.150000X0.587500X-0.150000X-0.587500X0*%
%ADD16C,0.800000*%
%ADD17C,6.400000*%
%ADD18C,2.000000*%
%ADD19RoundRect,0.250000X0.475000X-0.250000X0.475000X0.250000X-0.475000X0.250000X-0.475000X-0.250000X0*%
%ADD20RoundRect,0.250000X-0.450000X0.262500X-0.450000X-0.262500X0.450000X-0.262500X0.450000X0.262500X0*%
%ADD21RoundRect,0.150000X-0.825000X-0.150000X0.825000X-0.150000X0.825000X0.150000X-0.825000X0.150000X0*%
%ADD22RoundRect,0.250000X-0.262500X-0.450000X0.262500X-0.450000X0.262500X0.450000X-0.262500X0.450000X0*%
%ADD23R,2.300000X2.300000*%
%ADD24C,2.300000*%
%ADD25C,3.000000*%
%ADD26RoundRect,0.250000X0.300000X-0.300000X0.300000X0.300000X-0.300000X0.300000X-0.300000X-0.300000X0*%
%ADD27C,1.440000*%
%ADD28RoundRect,0.250000X-0.300000X-0.300000X0.300000X-0.300000X0.300000X0.300000X-0.300000X0.300000X0*%
G04 APERTURE END LIST*
D10*
%TO.C,J3*%
X161808100Y-92000000D02*
G75*
G03*
X161808100Y-92000000I-418100J0D01*
G01*
D11*
X169478100Y-92000000D02*
G75*
G03*
X169478100Y-92000000I-788100J0D01*
G01*
D12*
X165226200Y-92836200D02*
X163553800Y-92836200D01*
X163553800Y-91163800D01*
X165226200Y-91163800D01*
X165226200Y-92836200D01*
G36*
X165226200Y-92836200D02*
G01*
X163553800Y-92836200D01*
X163553800Y-91163800D01*
X165226200Y-91163800D01*
X165226200Y-92836200D01*
G37*
D10*
%TO.C,J2*%
X124428100Y-98000000D02*
G75*
G03*
X124428100Y-98000000I-418100J0D01*
G01*
D11*
X117498100Y-98000000D02*
G75*
G03*
X117498100Y-98000000I-788100J0D01*
G01*
D12*
X121846200Y-98836200D02*
X120173800Y-98836200D01*
X120173800Y-97163800D01*
X121846200Y-97163800D01*
X121846200Y-98836200D01*
G36*
X121846200Y-98836200D02*
G01*
X120173800Y-98836200D01*
X120173800Y-97163800D01*
X121846200Y-97163800D01*
X121846200Y-98836200D01*
G37*
D10*
%TO.C,J1*%
X124428100Y-91000000D02*
G75*
G03*
X124428100Y-91000000I-418100J0D01*
G01*
D11*
X117498100Y-91000000D02*
G75*
G03*
X117498100Y-91000000I-788100J0D01*
G01*
D12*
X121846200Y-91836200D02*
X120173800Y-91836200D01*
X120173800Y-90163800D01*
X121846200Y-90163800D01*
X121846200Y-91836200D01*
G36*
X121846200Y-91836200D02*
G01*
X120173800Y-91836200D01*
X120173800Y-90163800D01*
X121846200Y-90163800D01*
X121846200Y-91836200D01*
G37*
%TD*%
D13*
%TO.C,C3*%
X138700000Y-100450000D03*
X138700000Y-102350000D03*
%TD*%
D14*
%TO.C,D1*%
X149550000Y-106500000D03*
X152850000Y-106500000D03*
%TD*%
D15*
%TO.C,Q1*%
X151850000Y-112037500D03*
X153750000Y-112037500D03*
X152800000Y-110162500D03*
%TD*%
D16*
%TO.C,H1*%
X110800000Y-83000000D03*
X111502944Y-81302944D03*
X111502944Y-84697056D03*
X113200000Y-80600000D03*
D17*
X113200000Y-83000000D03*
D16*
X113200000Y-85400000D03*
X114897056Y-81302944D03*
X114897056Y-84697056D03*
X115600000Y-83000000D03*
%TD*%
D18*
%TO.C,TP2*%
X117500000Y-115900000D03*
%TD*%
D19*
%TO.C,C2*%
X143800000Y-104850000D03*
X143800000Y-102950000D03*
%TD*%
D20*
%TO.C,R6*%
X135200000Y-106487500D03*
X135200000Y-108312500D03*
%TD*%
D21*
%TO.C,U1*%
X126200000Y-106980000D03*
X126200000Y-108250000D03*
X126200000Y-109520000D03*
X126200000Y-110790000D03*
X131150000Y-110790000D03*
X131150000Y-109520000D03*
X131150000Y-108250000D03*
X131150000Y-106980000D03*
%TD*%
D22*
%TO.C,R7*%
X134887500Y-102300000D03*
X136712500Y-102300000D03*
%TD*%
D23*
%TO.C,K1*%
X155000000Y-103160000D03*
D24*
X155000000Y-93000000D03*
X155000000Y-85380000D03*
X147380000Y-103160000D03*
%TD*%
D16*
%TO.C,H2*%
X110800000Y-121000000D03*
X111502944Y-119302944D03*
X111502944Y-122697056D03*
X113200000Y-118600000D03*
D17*
X113200000Y-121000000D03*
D16*
X113200000Y-123400000D03*
X114897056Y-119302944D03*
X114897056Y-122697056D03*
X115600000Y-121000000D03*
%TD*%
D19*
%TO.C,C1*%
X131300000Y-105050000D03*
X131300000Y-103150000D03*
%TD*%
D22*
%TO.C,R1*%
X126537500Y-98000000D03*
X128362500Y-98000000D03*
%TD*%
D25*
%TO.C,J3*%
X168690000Y-92000000D03*
%TD*%
D16*
%TO.C,H4*%
X168800000Y-121000000D03*
X169502944Y-119302944D03*
X169502944Y-122697056D03*
X171200000Y-118600000D03*
D17*
X171200000Y-121000000D03*
D16*
X171200000Y-123400000D03*
X172897056Y-119302944D03*
X172897056Y-122697056D03*
X173600000Y-121000000D03*
%TD*%
D26*
%TO.C,D3*%
X124100000Y-86700000D03*
X124100000Y-83900000D03*
%TD*%
D16*
%TO.C,H3*%
X168800000Y-83000000D03*
X169502944Y-81302944D03*
X169502944Y-84697056D03*
X171200000Y-80600000D03*
D17*
X171200000Y-83000000D03*
D16*
X171200000Y-85400000D03*
X172897056Y-81302944D03*
X172897056Y-84697056D03*
X173600000Y-83000000D03*
%TD*%
D27*
%TO.C,RV1*%
X128200000Y-118000000D03*
X125660000Y-120540000D03*
X123120000Y-118000000D03*
%TD*%
D20*
%TO.C,R3*%
X121600000Y-107387500D03*
X121600000Y-109212500D03*
%TD*%
D21*
%TO.C,U3*%
X138725000Y-106595000D03*
X138725000Y-107865000D03*
X138725000Y-109135000D03*
X138725000Y-110405000D03*
X143675000Y-110405000D03*
X143675000Y-109135000D03*
X143675000Y-107865000D03*
X143675000Y-106595000D03*
%TD*%
D20*
%TO.C,R2*%
X128700000Y-94087500D03*
X128700000Y-95912500D03*
%TD*%
D15*
%TO.C,U2*%
X121450000Y-113137500D03*
X123350000Y-113137500D03*
X122400000Y-111262500D03*
%TD*%
D25*
%TO.C,J2*%
X116710000Y-98000000D03*
%TD*%
D20*
%TO.C,R5*%
X148400000Y-113975000D03*
X148400000Y-115800000D03*
%TD*%
D28*
%TO.C,D2*%
X131000000Y-97000000D03*
X133800000Y-97000000D03*
%TD*%
D18*
%TO.C,TP1*%
X120600000Y-104300000D03*
%TD*%
D25*
%TO.C,J1*%
X116710000Y-91000000D03*
%TD*%
D22*
%TO.C,R4*%
X148187500Y-112100000D03*
X150012500Y-112100000D03*
%TD*%
M02*
