%TF.GenerationSoftware,KiCad,Pcbnew,7.0.1*%
%TF.CreationDate,2023-05-29T21:51:14-06:00*%
%TF.ProjectId,Over_Voltage_Latch,4f766572-5f56-46f6-9c74-6167655f4c61,1*%
%TF.SameCoordinates,Original*%
%TF.FileFunction,Copper,L1,Top*%
%TF.FilePolarity,Positive*%
%FSLAX46Y46*%
G04 Gerber Fmt 4.6, Leading zero omitted, Abs format (unit mm)*
G04 Created by KiCad (PCBNEW 7.0.1) date 2023-05-29 21:51:14*
%MOMM*%
%LPD*%
G01*
G04 APERTURE LIST*
G04 Aperture macros list*
%AMRoundRect*
0 Rectangle with rounded corners*
0 $1 Rounding radius*
0 $2 $3 $4 $5 $6 $7 $8 $9 X,Y pos of 4 corners*
0 Add a 4 corners polygon primitive as box body*
4,1,4,$2,$3,$4,$5,$6,$7,$8,$9,$2,$3,0*
0 Add four circle primitives for the rounded corners*
1,1,$1+$1,$2,$3*
1,1,$1+$1,$4,$5*
1,1,$1+$1,$6,$7*
1,1,$1+$1,$8,$9*
0 Add four rect primitives between the rounded corners*
20,1,$1+$1,$2,$3,$4,$5,0*
20,1,$1+$1,$4,$5,$6,$7,0*
20,1,$1+$1,$6,$7,$8,$9,0*
20,1,$1+$1,$8,$9,$2,$3,0*%
G04 Aperture macros list end*
%TA.AperFunction,SMDPad,CuDef*%
%ADD10RoundRect,0.250000X-0.475000X0.250000X-0.475000X-0.250000X0.475000X-0.250000X0.475000X0.250000X0*%
%TD*%
%TA.AperFunction,SMDPad,CuDef*%
%ADD11RoundRect,0.225000X-0.225000X-0.375000X0.225000X-0.375000X0.225000X0.375000X-0.225000X0.375000X0*%
%TD*%
%TA.AperFunction,SMDPad,CuDef*%
%ADD12RoundRect,0.150000X0.150000X-0.587500X0.150000X0.587500X-0.150000X0.587500X-0.150000X-0.587500X0*%
%TD*%
%TA.AperFunction,ComponentPad*%
%ADD13C,0.800000*%
%TD*%
%TA.AperFunction,ComponentPad*%
%ADD14C,6.400000*%
%TD*%
%TA.AperFunction,ComponentPad*%
%ADD15C,2.000000*%
%TD*%
%TA.AperFunction,SMDPad,CuDef*%
%ADD16RoundRect,0.250000X0.475000X-0.250000X0.475000X0.250000X-0.475000X0.250000X-0.475000X-0.250000X0*%
%TD*%
%TA.AperFunction,SMDPad,CuDef*%
%ADD17RoundRect,0.250000X-0.450000X0.262500X-0.450000X-0.262500X0.450000X-0.262500X0.450000X0.262500X0*%
%TD*%
%TA.AperFunction,SMDPad,CuDef*%
%ADD18RoundRect,0.150000X-0.825000X-0.150000X0.825000X-0.150000X0.825000X0.150000X-0.825000X0.150000X0*%
%TD*%
%TA.AperFunction,SMDPad,CuDef*%
%ADD19RoundRect,0.250000X-0.262500X-0.450000X0.262500X-0.450000X0.262500X0.450000X-0.262500X0.450000X0*%
%TD*%
%TA.AperFunction,ComponentPad*%
%ADD20R,2.300000X2.300000*%
%TD*%
%TA.AperFunction,ComponentPad*%
%ADD21C,2.300000*%
%TD*%
%TA.AperFunction,ComponentPad*%
%ADD22R,1.520000X1.520000*%
%TD*%
%TA.AperFunction,ComponentPad*%
%ADD23C,1.520000*%
%TD*%
%TA.AperFunction,SMDPad,CuDef*%
%ADD24RoundRect,0.250000X0.300000X-0.300000X0.300000X0.300000X-0.300000X0.300000X-0.300000X-0.300000X0*%
%TD*%
%TA.AperFunction,ComponentPad*%
%ADD25C,1.440000*%
%TD*%
%TA.AperFunction,SMDPad,CuDef*%
%ADD26RoundRect,0.250000X-0.300000X-0.300000X0.300000X-0.300000X0.300000X0.300000X-0.300000X0.300000X0*%
%TD*%
%TA.AperFunction,ViaPad*%
%ADD27C,0.800000*%
%TD*%
%TA.AperFunction,Conductor*%
%ADD28C,0.250000*%
%TD*%
%TA.AperFunction,Conductor*%
%ADD29C,0.500000*%
%TD*%
G04 APERTURE END LIST*
D10*
%TO.P,C3,1*%
%TO.N,GND*%
X138700000Y-100450000D03*
%TO.P,C3,2*%
%TO.N,Net-(U3-TR)*%
X138700000Y-102350000D03*
%TD*%
D11*
%TO.P,D1,1,K*%
%TO.N,+12V*%
X149550000Y-106500000D03*
%TO.P,D1,2,A*%
%TO.N,Net-(D1-A)*%
X152850000Y-106500000D03*
%TD*%
D12*
%TO.P,Q1,1,G*%
%TO.N,Net-(Q1-G)*%
X151850000Y-112037500D03*
%TO.P,Q1,2,S*%
%TO.N,GND*%
X153750000Y-112037500D03*
%TO.P,Q1,3,D*%
%TO.N,Net-(D1-A)*%
X152800000Y-110162500D03*
%TD*%
D13*
%TO.P,H1,1,1*%
%TO.N,GND*%
X110800000Y-83000000D03*
X111502944Y-81302944D03*
X111502944Y-84697056D03*
X113200000Y-80600000D03*
D14*
X113200000Y-83000000D03*
D13*
X113200000Y-85400000D03*
X114897056Y-81302944D03*
X114897056Y-84697056D03*
X115600000Y-83000000D03*
%TD*%
D15*
%TO.P,TP2,1,1*%
%TO.N,GND*%
X117500000Y-115900000D03*
%TD*%
D16*
%TO.P,C2,1*%
%TO.N,+12V*%
X143800000Y-104850000D03*
%TO.P,C2,2*%
%TO.N,GND*%
X143800000Y-102950000D03*
%TD*%
D17*
%TO.P,R6,1*%
%TO.N,+12V*%
X135200000Y-106487500D03*
%TO.P,R6,2*%
%TO.N,Net-(U3-R)*%
X135200000Y-108312500D03*
%TD*%
D18*
%TO.P,U1,1,GND*%
%TO.N,GND*%
X126200000Y-106980000D03*
%TO.P,U1,2,+*%
%TO.N,Net-(U1-+)*%
X126200000Y-108250000D03*
%TO.P,U1,3,-*%
%TO.N,Net-(D2-K)*%
X126200000Y-109520000D03*
%TO.P,U1,4,V-*%
%TO.N,GND*%
X126200000Y-110790000D03*
%TO.P,U1,5,BAL*%
%TO.N,unconnected-(U1-BAL-Pad5)*%
X131150000Y-110790000D03*
%TO.P,U1,6,STRB*%
%TO.N,unconnected-(U1-STRB-Pad6)*%
X131150000Y-109520000D03*
%TO.P,U1,7*%
%TO.N,Net-(U3-R)*%
X131150000Y-108250000D03*
%TO.P,U1,8,V+*%
%TO.N,+12V*%
X131150000Y-106980000D03*
%TD*%
D19*
%TO.P,R7,1*%
%TO.N,+12V*%
X134887500Y-102300000D03*
%TO.P,R7,2*%
%TO.N,Net-(U3-TR)*%
X136712500Y-102300000D03*
%TD*%
D20*
%TO.P,K1,1*%
%TO.N,Net-(D1-A)*%
X155000000Y-103160000D03*
D21*
%TO.P,K1,2*%
%TO.N,Net-(J3-Pin_2)*%
X155000000Y-93000000D03*
%TO.P,K1,3*%
%TO.N,Net-(J3-Pin_1)*%
X155000000Y-85380000D03*
%TO.P,K1,5*%
%TO.N,+12V*%
X147380000Y-103160000D03*
%TD*%
D13*
%TO.P,H2,1,1*%
%TO.N,GND*%
X110800000Y-121000000D03*
X111502944Y-119302944D03*
X111502944Y-122697056D03*
X113200000Y-118600000D03*
D14*
X113200000Y-121000000D03*
D13*
X113200000Y-123400000D03*
X114897056Y-119302944D03*
X114897056Y-122697056D03*
X115600000Y-121000000D03*
%TD*%
D16*
%TO.P,C1,1*%
%TO.N,+12V*%
X131300000Y-105050000D03*
%TO.P,C1,2*%
%TO.N,GND*%
X131300000Y-103150000D03*
%TD*%
D19*
%TO.P,R1,1*%
%TO.N,Net-(J2-Pin_2)*%
X126537500Y-98000000D03*
%TO.P,R1,2*%
%TO.N,Net-(D2-K)*%
X128362500Y-98000000D03*
%TD*%
D22*
%TO.P,J3,1,Pin_1*%
%TO.N,Net-(J3-Pin_1)*%
X164390000Y-92000000D03*
D23*
%TO.P,J3,2,Pin_2*%
%TO.N,Net-(J3-Pin_2)*%
X161390000Y-92000000D03*
%TD*%
D13*
%TO.P,H4,1,1*%
%TO.N,GND*%
X168800000Y-121000000D03*
X169502944Y-119302944D03*
X169502944Y-122697056D03*
X171200000Y-118600000D03*
D14*
X171200000Y-121000000D03*
D13*
X171200000Y-123400000D03*
X172897056Y-119302944D03*
X172897056Y-122697056D03*
X173600000Y-121000000D03*
%TD*%
D24*
%TO.P,D3,1,K*%
%TO.N,+12V*%
X124100000Y-86700000D03*
%TO.P,D3,2,A*%
%TO.N,GND*%
X124100000Y-83900000D03*
%TD*%
D13*
%TO.P,H3,1,1*%
%TO.N,GND*%
X168800000Y-83000000D03*
X169502944Y-81302944D03*
X169502944Y-84697056D03*
X171200000Y-80600000D03*
D14*
X171200000Y-83000000D03*
D13*
X171200000Y-85400000D03*
X172897056Y-81302944D03*
X172897056Y-84697056D03*
X173600000Y-83000000D03*
%TD*%
D25*
%TO.P,RV1,1,1*%
%TO.N,GND*%
X128200000Y-118000000D03*
%TO.P,RV1,2,2*%
%TO.N,Net-(U1-+)*%
X125660000Y-120540000D03*
%TO.P,RV1,3,3*%
%TO.N,Net-(U2-K)*%
X123120000Y-118000000D03*
%TD*%
D17*
%TO.P,R3,1*%
%TO.N,+12V*%
X121600000Y-107387500D03*
%TO.P,R3,2*%
%TO.N,Net-(U2-K)*%
X121600000Y-109212500D03*
%TD*%
D18*
%TO.P,U3,1,GND*%
%TO.N,GND*%
X138725000Y-106595000D03*
%TO.P,U3,2,TR*%
%TO.N,Net-(U3-TR)*%
X138725000Y-107865000D03*
%TO.P,U3,3,Q*%
%TO.N,Net-(U3-Q)*%
X138725000Y-109135000D03*
%TO.P,U3,4,R*%
%TO.N,Net-(U3-R)*%
X138725000Y-110405000D03*
%TO.P,U3,5,CV*%
%TO.N,unconnected-(U3-CV-Pad5)*%
X143675000Y-110405000D03*
%TO.P,U3,6,THR*%
%TO.N,unconnected-(U3-THR-Pad6)*%
X143675000Y-109135000D03*
%TO.P,U3,7,DIS*%
%TO.N,unconnected-(U3-DIS-Pad7)*%
X143675000Y-107865000D03*
%TO.P,U3,8,VCC*%
%TO.N,+12V*%
X143675000Y-106595000D03*
%TD*%
D17*
%TO.P,R2,1*%
%TO.N,GND*%
X128700000Y-94087500D03*
%TO.P,R2,2*%
%TO.N,Net-(D2-K)*%
X128700000Y-95912500D03*
%TD*%
D12*
%TO.P,U2,1,K*%
%TO.N,Net-(U2-K)*%
X121450000Y-113137500D03*
%TO.P,U2,2,A*%
%TO.N,GND*%
X123350000Y-113137500D03*
%TO.P,U2,3*%
%TO.N,N/C*%
X122400000Y-111262500D03*
%TD*%
D22*
%TO.P,J2,1,Pin_1*%
%TO.N,GND*%
X121010000Y-98000000D03*
D23*
%TO.P,J2,2,Pin_2*%
%TO.N,Net-(J2-Pin_2)*%
X124010000Y-98000000D03*
%TD*%
D17*
%TO.P,R5,1*%
%TO.N,Net-(U3-Q)*%
X148400000Y-113975000D03*
%TO.P,R5,2*%
%TO.N,GND*%
X148400000Y-115800000D03*
%TD*%
D26*
%TO.P,D2,1,K*%
%TO.N,Net-(D2-K)*%
X131000000Y-97000000D03*
%TO.P,D2,2,A*%
%TO.N,GND*%
X133800000Y-97000000D03*
%TD*%
D15*
%TO.P,TP1,1,1*%
%TO.N,Net-(U1-+)*%
X120600000Y-104300000D03*
%TD*%
D22*
%TO.P,J1,1,Pin_1*%
%TO.N,GND*%
X121010000Y-91000000D03*
D23*
%TO.P,J1,2,Pin_2*%
%TO.N,+12V*%
X124010000Y-91000000D03*
%TD*%
D19*
%TO.P,R4,1*%
%TO.N,Net-(U3-Q)*%
X148187500Y-112100000D03*
%TO.P,R4,2*%
%TO.N,Net-(Q1-G)*%
X150012500Y-112100000D03*
%TD*%
D27*
%TO.N,GND*%
X155200000Y-112000000D03*
X135200000Y-97000000D03*
X128700000Y-92700000D03*
X126200000Y-105500000D03*
X143800000Y-101500000D03*
X126300000Y-112100000D03*
X124100000Y-82400000D03*
X132900000Y-103200000D03*
X140700000Y-104900000D03*
X123400000Y-114900000D03*
X138700000Y-99000000D03*
X148400000Y-117200000D03*
%TD*%
D28*
%TO.N,GND*%
X148400000Y-115800000D02*
X148400000Y-117200000D01*
X138725000Y-106595000D02*
X139905000Y-106595000D01*
X128700000Y-94087500D02*
X128700000Y-92700000D01*
X126200000Y-110790000D02*
X126200000Y-112000000D01*
X155162500Y-112037500D02*
X155200000Y-112000000D01*
X124100000Y-83900000D02*
X124100000Y-82400000D01*
X123350000Y-113137500D02*
X123350000Y-114850000D01*
X153750000Y-112037500D02*
X155162500Y-112037500D01*
X138700000Y-100450000D02*
X138700000Y-99000000D01*
X132850000Y-103150000D02*
X132900000Y-103200000D01*
X140500000Y-106000000D02*
X140500000Y-105100000D01*
X131300000Y-103150000D02*
X132850000Y-103150000D01*
X139905000Y-106595000D02*
X140500000Y-106000000D01*
X133800000Y-97000000D02*
X135200000Y-97000000D01*
X143800000Y-102950000D02*
X143800000Y-101500000D01*
X123350000Y-114850000D02*
X123400000Y-114900000D01*
X126200000Y-112000000D02*
X126300000Y-112100000D01*
X140500000Y-105100000D02*
X140700000Y-104900000D01*
X126200000Y-106980000D02*
X126200000Y-105500000D01*
%TO.N,Net-(U3-TR)*%
X138660000Y-107800000D02*
X138725000Y-107865000D01*
X136712500Y-102300000D02*
X136712500Y-107412500D01*
X136712500Y-107412500D02*
X137100000Y-107800000D01*
X138700000Y-102350000D02*
X136762500Y-102350000D01*
X136762500Y-102350000D02*
X136712500Y-102300000D01*
X137100000Y-107800000D02*
X138660000Y-107800000D01*
%TO.N,Net-(J2-Pin_2)*%
X124010000Y-98000000D02*
X126537500Y-98000000D01*
D29*
%TO.N,Net-(J3-Pin_1)*%
X162380000Y-85380000D02*
X164390000Y-87390000D01*
X164390000Y-87390000D02*
X164390000Y-92000000D01*
X155000000Y-85380000D02*
X162380000Y-85380000D01*
%TO.N,Net-(J3-Pin_2)*%
X161390000Y-92000000D02*
X156000000Y-92000000D01*
X156000000Y-92000000D02*
X155000000Y-93000000D01*
D28*
%TO.N,Net-(D1-A)*%
X152850000Y-106500000D02*
X154100000Y-106500000D01*
X152800000Y-106550000D02*
X152850000Y-106500000D01*
X154100000Y-106500000D02*
X155000000Y-105600000D01*
X155000000Y-105600000D02*
X155000000Y-103160000D01*
X152800000Y-110162500D02*
X152800000Y-106550000D01*
%TO.N,Net-(Q1-G)*%
X151787500Y-112100000D02*
X151850000Y-112037500D01*
X150012500Y-112100000D02*
X151787500Y-112100000D01*
%TO.N,Net-(U3-Q)*%
X140635000Y-109135000D02*
X141300000Y-109800000D01*
X147987500Y-111900000D02*
X148187500Y-112100000D01*
X138725000Y-109135000D02*
X140635000Y-109135000D01*
X148187500Y-112100000D02*
X148187500Y-113762500D01*
X141300000Y-109800000D02*
X141300000Y-111700000D01*
X141500000Y-111900000D02*
X147987500Y-111900000D01*
X141300000Y-111700000D02*
X141500000Y-111900000D01*
X148187500Y-113762500D02*
X148400000Y-113975000D01*
%TO.N,Net-(U3-R)*%
X136105000Y-110405000D02*
X135500000Y-109800000D01*
X135500000Y-109800000D02*
X135500000Y-108612500D01*
X135500000Y-108612500D02*
X135200000Y-108312500D01*
X135137500Y-108250000D02*
X135200000Y-108312500D01*
X138725000Y-110405000D02*
X136105000Y-110405000D01*
X131150000Y-108250000D02*
X135137500Y-108250000D01*
%TO.N,Net-(D2-K)*%
X129900000Y-96200000D02*
X129900000Y-96900000D01*
X128700000Y-95912500D02*
X129612500Y-95912500D01*
X129900000Y-96900000D02*
X130000000Y-97000000D01*
X127480000Y-109520000D02*
X126200000Y-109520000D01*
X128362500Y-98000000D02*
X128362500Y-96250000D01*
X128362500Y-98000000D02*
X128362500Y-99837500D01*
X130000000Y-97000000D02*
X131000000Y-97000000D01*
X128362500Y-99837500D02*
X127800000Y-100400000D01*
X129612500Y-95912500D02*
X129900000Y-96200000D01*
X127800000Y-109200000D02*
X127480000Y-109520000D01*
X127800000Y-100400000D02*
X127800000Y-109200000D01*
%TO.N,Net-(U2-K)*%
X121450000Y-109362500D02*
X121450000Y-113137500D01*
X121450000Y-114750000D02*
X123120000Y-116420000D01*
X121450000Y-113137500D02*
X121450000Y-114750000D01*
X123120000Y-116420000D02*
X123120000Y-118000000D01*
%TO.N,Net-(U1-+)*%
X123600000Y-108000000D02*
X123600000Y-105000000D01*
X126200000Y-108250000D02*
X124500000Y-108250000D01*
X124500000Y-108250000D02*
X124500000Y-116500000D01*
X124500000Y-116500000D02*
X125660000Y-117660000D01*
X123600000Y-105000000D02*
X122900000Y-104300000D01*
X125660000Y-117660000D02*
X125660000Y-120540000D01*
X124500000Y-108250000D02*
X123850000Y-108250000D01*
X122900000Y-104300000D02*
X120600000Y-104300000D01*
X123850000Y-108250000D02*
X123600000Y-108000000D01*
%TD*%
%TA.AperFunction,Conductor*%
%TO.N,+12V*%
G36*
X168732970Y-80014718D02*
G01*
X168777656Y-80055379D01*
X168797824Y-80112330D01*
X168788685Y-80172051D01*
X168752410Y-80220366D01*
X168720481Y-80246221D01*
X168446222Y-80520480D01*
X168202121Y-80821919D01*
X167990876Y-81147206D01*
X167814785Y-81492806D01*
X167675785Y-81854913D01*
X167575396Y-82229570D01*
X167514722Y-82612659D01*
X167494422Y-82999999D01*
X167514722Y-83387340D01*
X167575396Y-83770429D01*
X167675785Y-84145086D01*
X167814785Y-84507193D01*
X167990876Y-84852793D01*
X168200358Y-85175365D01*
X168202124Y-85178084D01*
X168446219Y-85479516D01*
X168720484Y-85753781D01*
X169021916Y-85997876D01*
X169021918Y-85997877D01*
X169021919Y-85997878D01*
X169347206Y-86209123D01*
X169692806Y-86385214D01*
X170054913Y-86524214D01*
X170429570Y-86624603D01*
X170621114Y-86654939D01*
X170812662Y-86685278D01*
X171200000Y-86705578D01*
X171587338Y-86685278D01*
X171836686Y-86645785D01*
X171970429Y-86624603D01*
X171970433Y-86624602D01*
X172345087Y-86524214D01*
X172707194Y-86385214D01*
X173052789Y-86209125D01*
X173052788Y-86209125D01*
X173052793Y-86209123D01*
X173215436Y-86103500D01*
X173378084Y-85997876D01*
X173679516Y-85753781D01*
X173788319Y-85644977D01*
X173837682Y-85614728D01*
X173895398Y-85610186D01*
X173948885Y-85632341D01*
X173986485Y-85676364D01*
X174000000Y-85732659D01*
X174000000Y-118267341D01*
X173986485Y-118323636D01*
X173948885Y-118367659D01*
X173895398Y-118389814D01*
X173837682Y-118385272D01*
X173788319Y-118355022D01*
X173679519Y-118246222D01*
X173679518Y-118246221D01*
X173679516Y-118246219D01*
X173378084Y-118002124D01*
X173378082Y-118002123D01*
X173378080Y-118002121D01*
X173052793Y-117790876D01*
X172707193Y-117614785D01*
X172345086Y-117475785D01*
X171970429Y-117375396D01*
X171587340Y-117314722D01*
X171200000Y-117294422D01*
X170812659Y-117314722D01*
X170429570Y-117375396D01*
X170054913Y-117475785D01*
X169692806Y-117614785D01*
X169347206Y-117790876D01*
X169021919Y-118002121D01*
X168720480Y-118246222D01*
X168446222Y-118520480D01*
X168202121Y-118821919D01*
X167990876Y-119147206D01*
X167814785Y-119492806D01*
X167675785Y-119854913D01*
X167575396Y-120229570D01*
X167514722Y-120612659D01*
X167494422Y-121000000D01*
X167514722Y-121387340D01*
X167575396Y-121770429D01*
X167675785Y-122145086D01*
X167814785Y-122507193D01*
X167990876Y-122852793D01*
X168200358Y-123175365D01*
X168202124Y-123178084D01*
X168446219Y-123479516D01*
X168720484Y-123753781D01*
X168752410Y-123779634D01*
X168788685Y-123827949D01*
X168797824Y-123887670D01*
X168777656Y-123944621D01*
X168732970Y-123985282D01*
X168674374Y-124000000D01*
X115725626Y-124000000D01*
X115667030Y-123985282D01*
X115622344Y-123944621D01*
X115602176Y-123887670D01*
X115611315Y-123827949D01*
X115647590Y-123779634D01*
X115679516Y-123753781D01*
X115953781Y-123479516D01*
X116197876Y-123178084D01*
X116303500Y-123015436D01*
X116409123Y-122852793D01*
X116421373Y-122828750D01*
X116585214Y-122507194D01*
X116724214Y-122145087D01*
X116824602Y-121770433D01*
X116885278Y-121387338D01*
X116905578Y-121000000D01*
X116885278Y-120612662D01*
X116840074Y-120327253D01*
X116824603Y-120229570D01*
X116724214Y-119854913D01*
X116585214Y-119492806D01*
X116409123Y-119147206D01*
X116197878Y-118821919D01*
X116179634Y-118799389D01*
X115953781Y-118520484D01*
X115679516Y-118246219D01*
X115378084Y-118002124D01*
X115378082Y-118002123D01*
X115378080Y-118002121D01*
X115052793Y-117790876D01*
X114707193Y-117614785D01*
X114345086Y-117475785D01*
X113970429Y-117375396D01*
X113587340Y-117314722D01*
X113200000Y-117294422D01*
X112812659Y-117314722D01*
X112429570Y-117375396D01*
X112054913Y-117475785D01*
X111692806Y-117614785D01*
X111347206Y-117790876D01*
X111021919Y-118002121D01*
X110720480Y-118246222D01*
X110446222Y-118520480D01*
X110220366Y-118799389D01*
X110172052Y-118835664D01*
X110112330Y-118844803D01*
X110055379Y-118824635D01*
X110014718Y-118779949D01*
X110000000Y-118721353D01*
X110000000Y-115900000D01*
X115994356Y-115900000D01*
X116014891Y-116147816D01*
X116014891Y-116147819D01*
X116014892Y-116147821D01*
X116075937Y-116388881D01*
X116115613Y-116479333D01*
X116175825Y-116616604D01*
X116175827Y-116616607D01*
X116311836Y-116824785D01*
X116480256Y-117007738D01*
X116485403Y-117011744D01*
X116676485Y-117160470D01*
X116676487Y-117160471D01*
X116676491Y-117160474D01*
X116895190Y-117278828D01*
X117130386Y-117359571D01*
X117375665Y-117400500D01*
X117624335Y-117400500D01*
X117869614Y-117359571D01*
X118104810Y-117278828D01*
X118323509Y-117160474D01*
X118519744Y-117007738D01*
X118688164Y-116824785D01*
X118824173Y-116616607D01*
X118924063Y-116388881D01*
X118985108Y-116147821D01*
X119005643Y-115900000D01*
X118985108Y-115652179D01*
X118924063Y-115411119D01*
X118824173Y-115183393D01*
X118688164Y-114975215D01*
X118519744Y-114792262D01*
X118475561Y-114757873D01*
X118323514Y-114639529D01*
X118323510Y-114639526D01*
X118323509Y-114639526D01*
X118104810Y-114521172D01*
X118104806Y-114521170D01*
X118104805Y-114521170D01*
X117869615Y-114440429D01*
X117624335Y-114399500D01*
X117375665Y-114399500D01*
X117130384Y-114440429D01*
X116895194Y-114521170D01*
X116895190Y-114521171D01*
X116895190Y-114521172D01*
X116829292Y-114556834D01*
X116676485Y-114639529D01*
X116480259Y-114792259D01*
X116480256Y-114792261D01*
X116480256Y-114792262D01*
X116311836Y-114975215D01*
X116295388Y-115000391D01*
X116175825Y-115183395D01*
X116075938Y-115411117D01*
X116014891Y-115652183D01*
X115994356Y-115900000D01*
X110000000Y-115900000D01*
X110000000Y-107137500D01*
X120400000Y-107137500D01*
X121350000Y-107137500D01*
X121350000Y-106375001D01*
X121100021Y-106375001D01*
X120997304Y-106385493D01*
X120830877Y-106440642D01*
X120681654Y-106532683D01*
X120557683Y-106656654D01*
X120465642Y-106805877D01*
X120410493Y-106972303D01*
X120400000Y-107075021D01*
X120400000Y-107137500D01*
X110000000Y-107137500D01*
X110000000Y-104299999D01*
X119094356Y-104299999D01*
X119114891Y-104547816D01*
X119114891Y-104547819D01*
X119114892Y-104547821D01*
X119175937Y-104788881D01*
X119192706Y-104827110D01*
X119275825Y-105016604D01*
X119275827Y-105016607D01*
X119411836Y-105224785D01*
X119580256Y-105407738D01*
X119638017Y-105452695D01*
X119776485Y-105560470D01*
X119776487Y-105560471D01*
X119776491Y-105560474D01*
X119995190Y-105678828D01*
X120230386Y-105759571D01*
X120475665Y-105800500D01*
X120724335Y-105800500D01*
X120969614Y-105759571D01*
X121204810Y-105678828D01*
X121423509Y-105560474D01*
X121619744Y-105407738D01*
X121788164Y-105224785D01*
X121924173Y-105016607D01*
X121926851Y-105010500D01*
X121931594Y-104999690D01*
X121958685Y-104960619D01*
X121998488Y-104934615D01*
X122045150Y-104925500D01*
X122589548Y-104925500D01*
X122637001Y-104934939D01*
X122677229Y-104961819D01*
X122938181Y-105222772D01*
X122965061Y-105263000D01*
X122974500Y-105310453D01*
X122974500Y-106762155D01*
X122955274Y-106828475D01*
X122903558Y-106874230D01*
X122835389Y-106885231D01*
X122771906Y-106858066D01*
X122743755Y-106817109D01*
X122741966Y-106818213D01*
X122642316Y-106656654D01*
X122518345Y-106532683D01*
X122369122Y-106440642D01*
X122202696Y-106385493D01*
X122099979Y-106375000D01*
X121850000Y-106375000D01*
X121850000Y-107513500D01*
X121833387Y-107575500D01*
X121788000Y-107620887D01*
X121726000Y-107637500D01*
X120400001Y-107637500D01*
X120400001Y-107699979D01*
X120410493Y-107802695D01*
X120465642Y-107969122D01*
X120557683Y-108118345D01*
X120651303Y-108211965D01*
X120683397Y-108267552D01*
X120683397Y-108331739D01*
X120651304Y-108387327D01*
X120557287Y-108481344D01*
X120465186Y-108630665D01*
X120410000Y-108797202D01*
X120399500Y-108899991D01*
X120399500Y-109525008D01*
X120410000Y-109627796D01*
X120465186Y-109794334D01*
X120557288Y-109943657D01*
X120681342Y-110067711D01*
X120765596Y-110119679D01*
X120808777Y-110164786D01*
X120824500Y-110225218D01*
X120824500Y-112054192D01*
X120815061Y-112101645D01*
X120788181Y-112141873D01*
X120781919Y-112148134D01*
X120698255Y-112289602D01*
X120652402Y-112447427D01*
X120649500Y-112484308D01*
X120649500Y-113790692D01*
X120652402Y-113827572D01*
X120698255Y-113985397D01*
X120781919Y-114126865D01*
X120788181Y-114133127D01*
X120815061Y-114173355D01*
X120824500Y-114220808D01*
X120824500Y-114667256D01*
X120822235Y-114687762D01*
X120824439Y-114757873D01*
X120824500Y-114761768D01*
X120824500Y-114789349D01*
X120825003Y-114793334D01*
X120825918Y-114804967D01*
X120827290Y-114848626D01*
X120832879Y-114867860D01*
X120836825Y-114886916D01*
X120839335Y-114906792D01*
X120855414Y-114947404D01*
X120859197Y-114958451D01*
X120871382Y-115000391D01*
X120881580Y-115017635D01*
X120890136Y-115035100D01*
X120897514Y-115053732D01*
X120897515Y-115053733D01*
X120923180Y-115089059D01*
X120929593Y-115098822D01*
X120951826Y-115136416D01*
X120951829Y-115136419D01*
X120951830Y-115136420D01*
X120965995Y-115150585D01*
X120978627Y-115165375D01*
X120990406Y-115181587D01*
X121024058Y-115209426D01*
X121032699Y-115217289D01*
X122458181Y-116642771D01*
X122485061Y-116682999D01*
X122494500Y-116730452D01*
X122494500Y-116883474D01*
X122480489Y-116940731D01*
X122441623Y-116985049D01*
X122332479Y-117061471D01*
X122181471Y-117212479D01*
X122058979Y-117387417D01*
X121968724Y-117580968D01*
X121913450Y-117787255D01*
X121894837Y-118000000D01*
X121913450Y-118212744D01*
X121968724Y-118419031D01*
X122058979Y-118612582D01*
X122181471Y-118787520D01*
X122332479Y-118938528D01*
X122507417Y-119061020D01*
X122507418Y-119061020D01*
X122507419Y-119061021D01*
X122700970Y-119151276D01*
X122907253Y-119206549D01*
X123120000Y-119225162D01*
X123332747Y-119206549D01*
X123539030Y-119151276D01*
X123732581Y-119061021D01*
X123907519Y-118938529D01*
X124058529Y-118787519D01*
X124181021Y-118612581D01*
X124271276Y-118419030D01*
X124326549Y-118212747D01*
X124345162Y-118000000D01*
X124326549Y-117787253D01*
X124271276Y-117580970D01*
X124197045Y-117421784D01*
X124186352Y-117354269D01*
X124213062Y-117291345D01*
X124269057Y-117252136D01*
X124337322Y-117248558D01*
X124397109Y-117281699D01*
X124998181Y-117882771D01*
X125025061Y-117922999D01*
X125034500Y-117970452D01*
X125034500Y-119423474D01*
X125020489Y-119480731D01*
X124981623Y-119525049D01*
X124872479Y-119601471D01*
X124721471Y-119752479D01*
X124598979Y-119927417D01*
X124508724Y-120120968D01*
X124453450Y-120327255D01*
X124434837Y-120539999D01*
X124453450Y-120752744D01*
X124508724Y-120959031D01*
X124598979Y-121152582D01*
X124721471Y-121327520D01*
X124872479Y-121478528D01*
X125047417Y-121601020D01*
X125047418Y-121601020D01*
X125047419Y-121601021D01*
X125240970Y-121691276D01*
X125447253Y-121746549D01*
X125660000Y-121765162D01*
X125872747Y-121746549D01*
X126079030Y-121691276D01*
X126272581Y-121601021D01*
X126447519Y-121478529D01*
X126598529Y-121327519D01*
X126721021Y-121152581D01*
X126811276Y-120959030D01*
X126866549Y-120752747D01*
X126885162Y-120540000D01*
X126866549Y-120327253D01*
X126811276Y-120120970D01*
X126721021Y-119927419D01*
X126670252Y-119854913D01*
X126598528Y-119752479D01*
X126447520Y-119601471D01*
X126338377Y-119525049D01*
X126299511Y-119480731D01*
X126285500Y-119423474D01*
X126285500Y-117999999D01*
X126974837Y-117999999D01*
X126993450Y-118212744D01*
X127048724Y-118419031D01*
X127138979Y-118612582D01*
X127261471Y-118787520D01*
X127412479Y-118938528D01*
X127587417Y-119061020D01*
X127587418Y-119061020D01*
X127587419Y-119061021D01*
X127780970Y-119151276D01*
X127987253Y-119206549D01*
X128200000Y-119225162D01*
X128412747Y-119206549D01*
X128619030Y-119151276D01*
X128812581Y-119061021D01*
X128987519Y-118938529D01*
X129138529Y-118787519D01*
X129261021Y-118612581D01*
X129351276Y-118419030D01*
X129406549Y-118212747D01*
X129425162Y-118000000D01*
X129406549Y-117787253D01*
X129351276Y-117580970D01*
X129261021Y-117387419D01*
X129252602Y-117375396D01*
X129138528Y-117212479D01*
X128987520Y-117061471D01*
X128812582Y-116938979D01*
X128619031Y-116848724D01*
X128412744Y-116793450D01*
X128200000Y-116774837D01*
X127987255Y-116793450D01*
X127780968Y-116848724D01*
X127587417Y-116938979D01*
X127412479Y-117061471D01*
X127261471Y-117212479D01*
X127138979Y-117387417D01*
X127048724Y-117580968D01*
X126993450Y-117787255D01*
X126974837Y-117999999D01*
X126285500Y-117999999D01*
X126285500Y-117742744D01*
X126287764Y-117722236D01*
X126285561Y-117652113D01*
X126285500Y-117648219D01*
X126285500Y-117620654D01*
X126285500Y-117620650D01*
X126284997Y-117616670D01*
X126284081Y-117605028D01*
X126282710Y-117561373D01*
X126277118Y-117542126D01*
X126273174Y-117523085D01*
X126270664Y-117503208D01*
X126254579Y-117462583D01*
X126250808Y-117451568D01*
X126238618Y-117409610D01*
X126228414Y-117392355D01*
X126219861Y-117374895D01*
X126212486Y-117356268D01*
X126186808Y-117320925D01*
X126180401Y-117311171D01*
X126168676Y-117291345D01*
X126158170Y-117273580D01*
X126144006Y-117259416D01*
X126131367Y-117244617D01*
X126119595Y-117228413D01*
X126085941Y-117200573D01*
X126077299Y-117192709D01*
X125161819Y-116277228D01*
X125134939Y-116237000D01*
X125125500Y-116189547D01*
X125125500Y-111710063D01*
X125138583Y-111654624D01*
X125175072Y-111610884D01*
X125227266Y-111588073D01*
X125259517Y-111589734D01*
X125259764Y-111586601D01*
X125272430Y-111587597D01*
X125272431Y-111587598D01*
X125309306Y-111590500D01*
X125348033Y-111590500D01*
X125404328Y-111604015D01*
X125448351Y-111641614D01*
X125470506Y-111695102D01*
X125465964Y-111752818D01*
X125414326Y-111911742D01*
X125394540Y-112099999D01*
X125414326Y-112288257D01*
X125472820Y-112468284D01*
X125567466Y-112632216D01*
X125694129Y-112772889D01*
X125847269Y-112884151D01*
X126020197Y-112961144D01*
X126205352Y-113000500D01*
X126205354Y-113000500D01*
X126394646Y-113000500D01*
X126394648Y-113000500D01*
X126518084Y-112974262D01*
X126579803Y-112961144D01*
X126752730Y-112884151D01*
X126905871Y-112772888D01*
X127032533Y-112632216D01*
X127127179Y-112468284D01*
X127185674Y-112288256D01*
X127205460Y-112100000D01*
X127185674Y-111911744D01*
X127134734Y-111754967D01*
X127123966Y-111721827D01*
X127120883Y-111656459D01*
X127151505Y-111598625D01*
X127207300Y-111564433D01*
X127285398Y-111541744D01*
X127426865Y-111458081D01*
X127543081Y-111341865D01*
X127626744Y-111200398D01*
X127672598Y-111042569D01*
X127675500Y-111005694D01*
X127675500Y-111005692D01*
X129674500Y-111005692D01*
X129677402Y-111042572D01*
X129723255Y-111200397D01*
X129768656Y-111277166D01*
X129806919Y-111341865D01*
X129923135Y-111458081D01*
X130035444Y-111524500D01*
X130064602Y-111541744D01*
X130222427Y-111587597D01*
X130222431Y-111587598D01*
X130259306Y-111590500D01*
X132040692Y-111590500D01*
X132040694Y-111590500D01*
X132077569Y-111587598D01*
X132235398Y-111541744D01*
X132376865Y-111458081D01*
X132493081Y-111341865D01*
X132576744Y-111200398D01*
X132622598Y-111042569D01*
X132625500Y-111005694D01*
X132625500Y-110574306D01*
X132622598Y-110537431D01*
X132576744Y-110379602D01*
X132493081Y-110238135D01*
X132493080Y-110238134D01*
X132485107Y-110224652D01*
X132486680Y-110223721D01*
X132465533Y-110187094D01*
X132465533Y-110122906D01*
X132486680Y-110086278D01*
X132485107Y-110085348D01*
X132495537Y-110067712D01*
X132576744Y-109930398D01*
X132622598Y-109772569D01*
X132625500Y-109735694D01*
X132625500Y-109304306D01*
X132622598Y-109267431D01*
X132606560Y-109212230D01*
X132576744Y-109109602D01*
X132548960Y-109062621D01*
X132531696Y-109000474D01*
X132547982Y-108938063D01*
X132593411Y-108892275D01*
X132655692Y-108875500D01*
X133984362Y-108875500D01*
X134044794Y-108891223D01*
X134089901Y-108934404D01*
X134157288Y-109043657D01*
X134281342Y-109167711D01*
X134290136Y-109173135D01*
X134430666Y-109259814D01*
X134542016Y-109296712D01*
X134597202Y-109314999D01*
X134699991Y-109325500D01*
X134750500Y-109325500D01*
X134812500Y-109342113D01*
X134857887Y-109387500D01*
X134874500Y-109449500D01*
X134874500Y-109717256D01*
X134872235Y-109737762D01*
X134874439Y-109807873D01*
X134874500Y-109811768D01*
X134874500Y-109839349D01*
X134875003Y-109843334D01*
X134875918Y-109854967D01*
X134877290Y-109898626D01*
X134882879Y-109917860D01*
X134886825Y-109936916D01*
X134889335Y-109956792D01*
X134905414Y-109997404D01*
X134909197Y-110008451D01*
X134921382Y-110050391D01*
X134931580Y-110067635D01*
X134940136Y-110085100D01*
X134947514Y-110103732D01*
X134947515Y-110103733D01*
X134973180Y-110139059D01*
X134979593Y-110148822D01*
X135001826Y-110186416D01*
X135001829Y-110186419D01*
X135001830Y-110186420D01*
X135015995Y-110200585D01*
X135028627Y-110215375D01*
X135040406Y-110231587D01*
X135074058Y-110259426D01*
X135082699Y-110267289D01*
X135604196Y-110788787D01*
X135617096Y-110804888D01*
X135668223Y-110852900D01*
X135671019Y-110855610D01*
X135690529Y-110875120D01*
X135693711Y-110877588D01*
X135702571Y-110885155D01*
X135729029Y-110910001D01*
X135734418Y-110915062D01*
X135751970Y-110924711D01*
X135768238Y-110935397D01*
X135784064Y-110947673D01*
X135824146Y-110965017D01*
X135834633Y-110970155D01*
X135872907Y-110991197D01*
X135881410Y-110993379D01*
X135892308Y-110996178D01*
X135910713Y-111002478D01*
X135929104Y-111010437D01*
X135972250Y-111017270D01*
X135983668Y-111019635D01*
X136025981Y-111030500D01*
X136046016Y-111030500D01*
X136065415Y-111032027D01*
X136085196Y-111035160D01*
X136128674Y-111031050D01*
X136140344Y-111030500D01*
X137404192Y-111030500D01*
X137451645Y-111039939D01*
X137491873Y-111066818D01*
X137498135Y-111073081D01*
X137609353Y-111138855D01*
X137639602Y-111156744D01*
X137797427Y-111202597D01*
X137797431Y-111202598D01*
X137834306Y-111205500D01*
X139615692Y-111205500D01*
X139615694Y-111205500D01*
X139652569Y-111202598D01*
X139810398Y-111156744D01*
X139951865Y-111073081D01*
X140068081Y-110956865D01*
X140151744Y-110815398D01*
X140197598Y-110657569D01*
X140200500Y-110620694D01*
X140200500Y-110189306D01*
X140197598Y-110152431D01*
X140196549Y-110148822D01*
X140151744Y-109994602D01*
X140123960Y-109947621D01*
X140106696Y-109885474D01*
X140122982Y-109823063D01*
X140168411Y-109777275D01*
X140230692Y-109760500D01*
X140324548Y-109760500D01*
X140372001Y-109769939D01*
X140412229Y-109796819D01*
X140638181Y-110022772D01*
X140665061Y-110063000D01*
X140674500Y-110110453D01*
X140674500Y-111617256D01*
X140672235Y-111637762D01*
X140674439Y-111707873D01*
X140674500Y-111711768D01*
X140674500Y-111739349D01*
X140675003Y-111743334D01*
X140675918Y-111754967D01*
X140677290Y-111798626D01*
X140682879Y-111817860D01*
X140686825Y-111836916D01*
X140689335Y-111856792D01*
X140705414Y-111897404D01*
X140709197Y-111908451D01*
X140721382Y-111950391D01*
X140731580Y-111967635D01*
X140740136Y-111985100D01*
X140747514Y-112003732D01*
X140747515Y-112003733D01*
X140773180Y-112039059D01*
X140779593Y-112048822D01*
X140801826Y-112086416D01*
X140801829Y-112086419D01*
X140801830Y-112086420D01*
X140815995Y-112100585D01*
X140828627Y-112115375D01*
X140840406Y-112131587D01*
X140874058Y-112159426D01*
X140882699Y-112167289D01*
X140999197Y-112283787D01*
X141012098Y-112299889D01*
X141014212Y-112301874D01*
X141014214Y-112301877D01*
X141061561Y-112346339D01*
X141063240Y-112347916D01*
X141066035Y-112350625D01*
X141085530Y-112370120D01*
X141088704Y-112372582D01*
X141097568Y-112380153D01*
X141129418Y-112410062D01*
X141139914Y-112415832D01*
X141146974Y-112419714D01*
X141163231Y-112430392D01*
X141179064Y-112442674D01*
X141195185Y-112449649D01*
X141219156Y-112460023D01*
X141229643Y-112465160D01*
X141267908Y-112486197D01*
X141287316Y-112491180D01*
X141305710Y-112497478D01*
X141324105Y-112505438D01*
X141367254Y-112512271D01*
X141378680Y-112514638D01*
X141388318Y-112517113D01*
X141420980Y-112525500D01*
X141420981Y-112525500D01*
X141441016Y-112525500D01*
X141460413Y-112527026D01*
X141480196Y-112530160D01*
X141523674Y-112526050D01*
X141535344Y-112525500D01*
X147054911Y-112525500D01*
X147113232Y-112540071D01*
X147157846Y-112580360D01*
X147178269Y-112636898D01*
X147185000Y-112702796D01*
X147240186Y-112869334D01*
X147332288Y-113018657D01*
X147369700Y-113056069D01*
X147401794Y-113111656D01*
X147401794Y-113175842D01*
X147369702Y-113231429D01*
X147357289Y-113243842D01*
X147265186Y-113393165D01*
X147210000Y-113559702D01*
X147199500Y-113662491D01*
X147199500Y-114287508D01*
X147210000Y-114390296D01*
X147265186Y-114556834D01*
X147357288Y-114706157D01*
X147450950Y-114799819D01*
X147483044Y-114855406D01*
X147483044Y-114919594D01*
X147450950Y-114975181D01*
X147357288Y-115068842D01*
X147265186Y-115218165D01*
X147210000Y-115384702D01*
X147199500Y-115487491D01*
X147199500Y-116112508D01*
X147210000Y-116215296D01*
X147265186Y-116381834D01*
X147357286Y-116531154D01*
X147357287Y-116531155D01*
X147357288Y-116531156D01*
X147481344Y-116655212D01*
X147520057Y-116679090D01*
X147522371Y-116680517D01*
X147561400Y-116718722D01*
X147580230Y-116769989D01*
X147575206Y-116824374D01*
X147514326Y-117011742D01*
X147494540Y-117200000D01*
X147514326Y-117388257D01*
X147572820Y-117568284D01*
X147667466Y-117732216D01*
X147794129Y-117872889D01*
X147947269Y-117984151D01*
X148120197Y-118061144D01*
X148305352Y-118100500D01*
X148305354Y-118100500D01*
X148494646Y-118100500D01*
X148494648Y-118100500D01*
X148618084Y-118074262D01*
X148679803Y-118061144D01*
X148852730Y-117984151D01*
X148942279Y-117919090D01*
X149005870Y-117872889D01*
X149082976Y-117787255D01*
X149132533Y-117732216D01*
X149227179Y-117568284D01*
X149285674Y-117388256D01*
X149305460Y-117200000D01*
X149285674Y-117011744D01*
X149227179Y-116831716D01*
X149227178Y-116831714D01*
X149224793Y-116824374D01*
X149219769Y-116769989D01*
X149238599Y-116718721D01*
X149277626Y-116680518D01*
X149318656Y-116655212D01*
X149442712Y-116531156D01*
X149534814Y-116381834D01*
X149589999Y-116215297D01*
X149600500Y-116112509D01*
X149600499Y-115487492D01*
X149589999Y-115384703D01*
X149534814Y-115218166D01*
X149484393Y-115136420D01*
X149442713Y-115068845D01*
X149399900Y-115026032D01*
X149349047Y-114975179D01*
X149316955Y-114919594D01*
X149316955Y-114855406D01*
X149349047Y-114799820D01*
X149442712Y-114706156D01*
X149534814Y-114556834D01*
X149589999Y-114390297D01*
X149600500Y-114287509D01*
X149600499Y-113662492D01*
X149589999Y-113559703D01*
X149557495Y-113461615D01*
X149553165Y-113400635D01*
X149578498Y-113344996D01*
X149627337Y-113308223D01*
X149687807Y-113299255D01*
X149699991Y-113300500D01*
X150325008Y-113300499D01*
X150427797Y-113289999D01*
X150594334Y-113234814D01*
X150743656Y-113142712D01*
X150867712Y-113018656D01*
X150917870Y-112937335D01*
X150963480Y-112893876D01*
X151024561Y-112878438D01*
X151085345Y-112895009D01*
X151130139Y-112939310D01*
X151181919Y-113026865D01*
X151298135Y-113143081D01*
X151298849Y-113143503D01*
X151439602Y-113226744D01*
X151597427Y-113272597D01*
X151597431Y-113272598D01*
X151634306Y-113275500D01*
X152065692Y-113275500D01*
X152065694Y-113275500D01*
X152102569Y-113272598D01*
X152260398Y-113226744D01*
X152401865Y-113143081D01*
X152518081Y-113026865D01*
X152601744Y-112885398D01*
X152647598Y-112727569D01*
X152650500Y-112690694D01*
X152650500Y-111524500D01*
X152667113Y-111462500D01*
X152712500Y-111417113D01*
X152774500Y-111400500D01*
X152825500Y-111400500D01*
X152887500Y-111417113D01*
X152932887Y-111462500D01*
X152949500Y-111524500D01*
X152949500Y-112690694D01*
X152950660Y-112705443D01*
X152952402Y-112727572D01*
X152998255Y-112885397D01*
X153030140Y-112939311D01*
X153081919Y-113026865D01*
X153198135Y-113143081D01*
X153198849Y-113143503D01*
X153339602Y-113226744D01*
X153497427Y-113272597D01*
X153497431Y-113272598D01*
X153534306Y-113275500D01*
X153965692Y-113275500D01*
X153965694Y-113275500D01*
X154002569Y-113272598D01*
X154160398Y-113226744D01*
X154301865Y-113143081D01*
X154418081Y-113026865D01*
X154501744Y-112885398D01*
X154519602Y-112823932D01*
X154548956Y-112772936D01*
X154598513Y-112741212D01*
X154657114Y-112735905D01*
X154711564Y-112758209D01*
X154747272Y-112784153D01*
X154920197Y-112861144D01*
X155105352Y-112900500D01*
X155105354Y-112900500D01*
X155294646Y-112900500D01*
X155294648Y-112900500D01*
X155418084Y-112874262D01*
X155479803Y-112861144D01*
X155652730Y-112784151D01*
X155805871Y-112672888D01*
X155932533Y-112532216D01*
X156027179Y-112368284D01*
X156085674Y-112188256D01*
X156105460Y-112000000D01*
X156085674Y-111811744D01*
X156051924Y-111707873D01*
X156027179Y-111631715D01*
X155932533Y-111467783D01*
X155805870Y-111327110D01*
X155652730Y-111215848D01*
X155479802Y-111138855D01*
X155294648Y-111099500D01*
X155294646Y-111099500D01*
X155105354Y-111099500D01*
X155105352Y-111099500D01*
X154920197Y-111138855D01*
X154747272Y-111215846D01*
X154693571Y-111254863D01*
X154639121Y-111277166D01*
X154580520Y-111271859D01*
X154530964Y-111240136D01*
X154506680Y-111197949D01*
X154501744Y-111189602D01*
X154418081Y-111048135D01*
X154301865Y-110931919D01*
X154247049Y-110899501D01*
X154160397Y-110848255D01*
X154002572Y-110802402D01*
X153980444Y-110800660D01*
X153965694Y-110799500D01*
X153965692Y-110799500D01*
X153724500Y-110799500D01*
X153662500Y-110782887D01*
X153617113Y-110737500D01*
X153600500Y-110675500D01*
X153600500Y-109509308D01*
X153598945Y-109489547D01*
X153597598Y-109472431D01*
X153594258Y-109460936D01*
X153551744Y-109314602D01*
X153523845Y-109267427D01*
X153468081Y-109173135D01*
X153461819Y-109166873D01*
X153434939Y-109126645D01*
X153425500Y-109079192D01*
X153425500Y-107580425D01*
X153441223Y-107519993D01*
X153484403Y-107474886D01*
X153528044Y-107447968D01*
X153647968Y-107328044D01*
X153666015Y-107298786D01*
X153736568Y-107184403D01*
X153781674Y-107141222D01*
X153842106Y-107125500D01*
X154017256Y-107125500D01*
X154037762Y-107127764D01*
X154040665Y-107127672D01*
X154040667Y-107127673D01*
X154107872Y-107125561D01*
X154111768Y-107125500D01*
X154139349Y-107125500D01*
X154139350Y-107125500D01*
X154143319Y-107124998D01*
X154154965Y-107124080D01*
X154198627Y-107122709D01*
X154217859Y-107117120D01*
X154236918Y-107113174D01*
X154243196Y-107112381D01*
X154256792Y-107110664D01*
X154297407Y-107094582D01*
X154308444Y-107090803D01*
X154350390Y-107078618D01*
X154367629Y-107068422D01*
X154385102Y-107059862D01*
X154403732Y-107052486D01*
X154439064Y-107026814D01*
X154448830Y-107020400D01*
X154462530Y-107012298D01*
X154486420Y-106998170D01*
X154500585Y-106984004D01*
X154515373Y-106971373D01*
X154531587Y-106959594D01*
X154559438Y-106925926D01*
X154567279Y-106917309D01*
X155383788Y-106100801D01*
X155399885Y-106087906D01*
X155401873Y-106085787D01*
X155401877Y-106085786D01*
X155447948Y-106036723D01*
X155450566Y-106034023D01*
X155470120Y-106014471D01*
X155472581Y-106011298D01*
X155480156Y-106002427D01*
X155510062Y-105970582D01*
X155519717Y-105953018D01*
X155530394Y-105936764D01*
X155542673Y-105920936D01*
X155560018Y-105880852D01*
X155565160Y-105870356D01*
X155586197Y-105832092D01*
X155591179Y-105812684D01*
X155597481Y-105794280D01*
X155605437Y-105775896D01*
X155612269Y-105732752D01*
X155614633Y-105721338D01*
X155625500Y-105679019D01*
X155625500Y-105658984D01*
X155627027Y-105639585D01*
X155628120Y-105632683D01*
X155630160Y-105619804D01*
X155626050Y-105576325D01*
X155625500Y-105564656D01*
X155625500Y-104934499D01*
X155642113Y-104872499D01*
X155687500Y-104827112D01*
X155749500Y-104810499D01*
X156197870Y-104810499D01*
X156197872Y-104810499D01*
X156257483Y-104804091D01*
X156392331Y-104753796D01*
X156507546Y-104667546D01*
X156593796Y-104552331D01*
X156644091Y-104417483D01*
X156650500Y-104357873D01*
X156650499Y-101962128D01*
X156644091Y-101902517D01*
X156593796Y-101767669D01*
X156507546Y-101652454D01*
X156392331Y-101566204D01*
X156257483Y-101515909D01*
X156197873Y-101509500D01*
X156197869Y-101509500D01*
X153802130Y-101509500D01*
X153742515Y-101515909D01*
X153607669Y-101566204D01*
X153492454Y-101652454D01*
X153406204Y-101767668D01*
X153355909Y-101902516D01*
X153349500Y-101962130D01*
X153349500Y-104357869D01*
X153355909Y-104417484D01*
X153379553Y-104480877D01*
X153406204Y-104552331D01*
X153492454Y-104667546D01*
X153607669Y-104753796D01*
X153742517Y-104804091D01*
X153802127Y-104810500D01*
X154250500Y-104810500D01*
X154312500Y-104827113D01*
X154357887Y-104872500D01*
X154374500Y-104934500D01*
X154374500Y-105289547D01*
X154365061Y-105337000D01*
X154338181Y-105377228D01*
X153909735Y-105805673D01*
X153862765Y-105835118D01*
X153807658Y-105841154D01*
X153755428Y-105822572D01*
X153716518Y-105783092D01*
X153647968Y-105671956D01*
X153647967Y-105671955D01*
X153647966Y-105671953D01*
X153528044Y-105552031D01*
X153383699Y-105462997D01*
X153222707Y-105409650D01*
X153128239Y-105400000D01*
X153123344Y-105399500D01*
X152576655Y-105399500D01*
X152477292Y-105409650D01*
X152316300Y-105462997D01*
X152171955Y-105552031D01*
X152052031Y-105671955D01*
X151962997Y-105816300D01*
X151909650Y-105977292D01*
X151899500Y-106076655D01*
X151899500Y-106923344D01*
X151909650Y-107022707D01*
X151962997Y-107183699D01*
X152052031Y-107328044D01*
X152138181Y-107414194D01*
X152165061Y-107454422D01*
X152174500Y-107501875D01*
X152174500Y-109079192D01*
X152165061Y-109126645D01*
X152138181Y-109166873D01*
X152131919Y-109173134D01*
X152048255Y-109314602D01*
X152002402Y-109472427D01*
X151999500Y-109509308D01*
X151999500Y-110675500D01*
X151982887Y-110737500D01*
X151937500Y-110782887D01*
X151875500Y-110799500D01*
X151634306Y-110799500D01*
X151622014Y-110800467D01*
X151597427Y-110802402D01*
X151439602Y-110848255D01*
X151298134Y-110931919D01*
X151181919Y-111048134D01*
X151092401Y-111199501D01*
X151047606Y-111243803D01*
X150986823Y-111260375D01*
X150925742Y-111244937D01*
X150880130Y-111201477D01*
X150867712Y-111181344D01*
X150867711Y-111181343D01*
X150867710Y-111181341D01*
X150743657Y-111057288D01*
X150594334Y-110965186D01*
X150427797Y-110910000D01*
X150334535Y-110900473D01*
X150325008Y-110899500D01*
X149699991Y-110899500D01*
X149597203Y-110910000D01*
X149430665Y-110965186D01*
X149281342Y-111057288D01*
X149187681Y-111150950D01*
X149132094Y-111183044D01*
X149067906Y-111183044D01*
X149012319Y-111150950D01*
X148918657Y-111057288D01*
X148769334Y-110965186D01*
X148602797Y-110910000D01*
X148509535Y-110900473D01*
X148500008Y-110899500D01*
X147874991Y-110899500D01*
X147772203Y-110910000D01*
X147605665Y-110965186D01*
X147456342Y-111057288D01*
X147332288Y-111181342D01*
X147311161Y-111215596D01*
X147266054Y-111258777D01*
X147205622Y-111274500D01*
X144999808Y-111274500D01*
X144943513Y-111260985D01*
X144899490Y-111223385D01*
X144877335Y-111169898D01*
X144881877Y-111112182D01*
X144912127Y-111062819D01*
X144964510Y-111010436D01*
X145018081Y-110956865D01*
X145101744Y-110815398D01*
X145147598Y-110657569D01*
X145150500Y-110620694D01*
X145150500Y-110189306D01*
X145147598Y-110152431D01*
X145146549Y-110148822D01*
X145101744Y-109994602D01*
X145037206Y-109885474D01*
X145018081Y-109853135D01*
X145018080Y-109853134D01*
X145010107Y-109839652D01*
X145011680Y-109838721D01*
X144990533Y-109802094D01*
X144990533Y-109737906D01*
X145011680Y-109701278D01*
X145010107Y-109700348D01*
X145037206Y-109654526D01*
X145101744Y-109545398D01*
X145147598Y-109387569D01*
X145150500Y-109350694D01*
X145150500Y-108919306D01*
X145147598Y-108882431D01*
X145145721Y-108875972D01*
X145101744Y-108724602D01*
X145042845Y-108625009D01*
X145018081Y-108583135D01*
X145018080Y-108583134D01*
X145010107Y-108569652D01*
X145011680Y-108568721D01*
X144990533Y-108532094D01*
X144990533Y-108467906D01*
X145011680Y-108431278D01*
X145010107Y-108430348D01*
X145020258Y-108413184D01*
X145101744Y-108275398D01*
X145147598Y-108117569D01*
X145150500Y-108080694D01*
X145150500Y-107649306D01*
X145147598Y-107612431D01*
X145146230Y-107607724D01*
X145101744Y-107454602D01*
X145026898Y-107328044D01*
X145018081Y-107313135D01*
X145018080Y-107313134D01*
X145010107Y-107299652D01*
X145011569Y-107298786D01*
X144990178Y-107261733D01*
X144990182Y-107197540D01*
X145011296Y-107160979D01*
X145009709Y-107160040D01*
X145101280Y-107005200D01*
X145147099Y-106847488D01*
X145147295Y-106845000D01*
X142202704Y-106845000D01*
X142202900Y-106847488D01*
X142248719Y-107005200D01*
X142340291Y-107160040D01*
X142338703Y-107160978D01*
X142359817Y-107197547D01*
X142359822Y-107261728D01*
X142338431Y-107298787D01*
X142339893Y-107299652D01*
X142248255Y-107454602D01*
X142202402Y-107612427D01*
X142199500Y-107649308D01*
X142199500Y-108080692D01*
X142202402Y-108117572D01*
X142248255Y-108275397D01*
X142339893Y-108430348D01*
X142338319Y-108431278D01*
X142359467Y-108467906D01*
X142359467Y-108532094D01*
X142338319Y-108568721D01*
X142339893Y-108569652D01*
X142248255Y-108724602D01*
X142202402Y-108882427D01*
X142199500Y-108919308D01*
X142199500Y-109350692D01*
X142202402Y-109387572D01*
X142248255Y-109545397D01*
X142339893Y-109700348D01*
X142338319Y-109701278D01*
X142359467Y-109737906D01*
X142359467Y-109802094D01*
X142338319Y-109838721D01*
X142339893Y-109839652D01*
X142248255Y-109994602D01*
X142202402Y-110152427D01*
X142202402Y-110152431D01*
X142199728Y-110186416D01*
X142199500Y-110189308D01*
X142199500Y-110620692D01*
X142202402Y-110657572D01*
X142248255Y-110815397D01*
X142331919Y-110956865D01*
X142437873Y-111062819D01*
X142468123Y-111112182D01*
X142472665Y-111169898D01*
X142450510Y-111223385D01*
X142406487Y-111260985D01*
X142350192Y-111274500D01*
X142049500Y-111274500D01*
X141987500Y-111257887D01*
X141942113Y-111212500D01*
X141925500Y-111150500D01*
X141925500Y-109882744D01*
X141927764Y-109862237D01*
X141927054Y-109839652D01*
X141925561Y-109792127D01*
X141925500Y-109788232D01*
X141925500Y-109760653D01*
X141924997Y-109756672D01*
X141924080Y-109745019D01*
X141923943Y-109740667D01*
X141922709Y-109701373D01*
X141917120Y-109682140D01*
X141913174Y-109663082D01*
X141910664Y-109643206D01*
X141894588Y-109602604D01*
X141890804Y-109591553D01*
X141879611Y-109553029D01*
X141878618Y-109549610D01*
X141868414Y-109532355D01*
X141859861Y-109514895D01*
X141852486Y-109496269D01*
X141852486Y-109496268D01*
X141826808Y-109460925D01*
X141820401Y-109451171D01*
X141798169Y-109413579D01*
X141784006Y-109399416D01*
X141771367Y-109384617D01*
X141759595Y-109368413D01*
X141725941Y-109340573D01*
X141717299Y-109332709D01*
X141135802Y-108751211D01*
X141122906Y-108735113D01*
X141071775Y-108687098D01*
X141068978Y-108684387D01*
X141049470Y-108664879D01*
X141046290Y-108662412D01*
X141037424Y-108654839D01*
X141005582Y-108624938D01*
X140988024Y-108615285D01*
X140971764Y-108604604D01*
X140955936Y-108592327D01*
X140915851Y-108574980D01*
X140905361Y-108569841D01*
X140867091Y-108548802D01*
X140847691Y-108543821D01*
X140829284Y-108537519D01*
X140810897Y-108529562D01*
X140767758Y-108522729D01*
X140756324Y-108520361D01*
X140714019Y-108509500D01*
X140693984Y-108509500D01*
X140674586Y-108507973D01*
X140667162Y-108506797D01*
X140654805Y-108504840D01*
X140654804Y-108504840D01*
X140621751Y-108507964D01*
X140611325Y-108508950D01*
X140599656Y-108509500D01*
X140230692Y-108509500D01*
X140168411Y-108492725D01*
X140122982Y-108446937D01*
X140106696Y-108384526D01*
X140123960Y-108322379D01*
X140134987Y-108303732D01*
X140151744Y-108275398D01*
X140197598Y-108117569D01*
X140200500Y-108080694D01*
X140200500Y-107649306D01*
X140197598Y-107612431D01*
X140196230Y-107607724D01*
X140151745Y-107454605D01*
X140151744Y-107454604D01*
X140151744Y-107454602D01*
X140091843Y-107353315D01*
X140074959Y-107299926D01*
X140083285Y-107244549D01*
X140115125Y-107198482D01*
X140142744Y-107183015D01*
X140141904Y-107181594D01*
X140155390Y-107173618D01*
X140172629Y-107163422D01*
X140190102Y-107154862D01*
X140208732Y-107147486D01*
X140244064Y-107121814D01*
X140253830Y-107115400D01*
X140261838Y-107110664D01*
X140291420Y-107093170D01*
X140305585Y-107079004D01*
X140320373Y-107066373D01*
X140336587Y-107054594D01*
X140364438Y-107020926D01*
X140372279Y-107012309D01*
X140634589Y-106750000D01*
X148600001Y-106750000D01*
X148600001Y-106923315D01*
X148610143Y-107022605D01*
X148663453Y-107183486D01*
X148752426Y-107327732D01*
X148872267Y-107447573D01*
X149016513Y-107536546D01*
X149177393Y-107589856D01*
X149276685Y-107600000D01*
X149300000Y-107600000D01*
X149300000Y-106750000D01*
X149800000Y-106750000D01*
X149800000Y-107599999D01*
X149823315Y-107599999D01*
X149922605Y-107589856D01*
X150083486Y-107536546D01*
X150227732Y-107447573D01*
X150347573Y-107327732D01*
X150436546Y-107183486D01*
X150489856Y-107022606D01*
X150500000Y-106923315D01*
X150500000Y-106750000D01*
X149800000Y-106750000D01*
X149300000Y-106750000D01*
X148600001Y-106750000D01*
X140634589Y-106750000D01*
X140883792Y-106500797D01*
X140899885Y-106487906D01*
X140901873Y-106485787D01*
X140901877Y-106485786D01*
X140947948Y-106436723D01*
X140950566Y-106434023D01*
X140970120Y-106414471D01*
X140972581Y-106411298D01*
X140980156Y-106402427D01*
X141010062Y-106370582D01*
X141019712Y-106353027D01*
X141024986Y-106344999D01*
X142202704Y-106344999D01*
X142202705Y-106345000D01*
X143425000Y-106345000D01*
X143925000Y-106345000D01*
X145147295Y-106345000D01*
X145147295Y-106344999D01*
X145147099Y-106342511D01*
X145120222Y-106250000D01*
X148600000Y-106250000D01*
X149300000Y-106250000D01*
X149300000Y-105400001D01*
X149276685Y-105400001D01*
X149177394Y-105410143D01*
X149016513Y-105463453D01*
X148872267Y-105552426D01*
X148752426Y-105672267D01*
X148663453Y-105816513D01*
X148610143Y-105977393D01*
X148600000Y-106076685D01*
X148600000Y-106250000D01*
X145120222Y-106250000D01*
X145101280Y-106184799D01*
X145017682Y-106043442D01*
X144901557Y-105927317D01*
X144792068Y-105862566D01*
X144751549Y-105823913D01*
X144732167Y-105771375D01*
X144737875Y-105715668D01*
X144767508Y-105668152D01*
X144867318Y-105568342D01*
X144959357Y-105419122D01*
X144965694Y-105400000D01*
X149800000Y-105400000D01*
X149800000Y-106250000D01*
X150499999Y-106250000D01*
X150499999Y-106076685D01*
X150489856Y-105977394D01*
X150436546Y-105816513D01*
X150347573Y-105672267D01*
X150227732Y-105552426D01*
X150083486Y-105463453D01*
X149922606Y-105410143D01*
X149823315Y-105400000D01*
X149800000Y-105400000D01*
X144965694Y-105400000D01*
X145014506Y-105252696D01*
X145025000Y-105149979D01*
X145025000Y-105100000D01*
X144050000Y-105100000D01*
X144050000Y-105766000D01*
X144033387Y-105828000D01*
X143988000Y-105873387D01*
X143926000Y-105890000D01*
X143925000Y-105890000D01*
X143925000Y-106345000D01*
X143425000Y-106345000D01*
X143425000Y-105879000D01*
X143441613Y-105817000D01*
X143487000Y-105771613D01*
X143549000Y-105755000D01*
X143550000Y-105755000D01*
X143550000Y-105100000D01*
X142575001Y-105100000D01*
X142575001Y-105149979D01*
X142585493Y-105252695D01*
X142640642Y-105419122D01*
X142732683Y-105568345D01*
X142765636Y-105601298D01*
X142797560Y-105656259D01*
X142798059Y-105719816D01*
X142767003Y-105775272D01*
X142712551Y-105808055D01*
X142589802Y-105843717D01*
X142448442Y-105927317D01*
X142332317Y-106043442D01*
X142248719Y-106184799D01*
X142202900Y-106342511D01*
X142202704Y-106344999D01*
X141024986Y-106344999D01*
X141030400Y-106336757D01*
X141042671Y-106320938D01*
X141042673Y-106320936D01*
X141060026Y-106280832D01*
X141065157Y-106270362D01*
X141086197Y-106232092D01*
X141091175Y-106212699D01*
X141097481Y-106194282D01*
X141101585Y-106184799D01*
X141105438Y-106175896D01*
X141112272Y-106132745D01*
X141114635Y-106121331D01*
X141125500Y-106079019D01*
X141125500Y-106058984D01*
X141127027Y-106039585D01*
X141127469Y-106036793D01*
X141130160Y-106019804D01*
X141126050Y-105976325D01*
X141125500Y-105964656D01*
X141125500Y-105767116D01*
X141139015Y-105710821D01*
X141176615Y-105666798D01*
X141305870Y-105572889D01*
X141309962Y-105568345D01*
X141432533Y-105432216D01*
X141527179Y-105268284D01*
X141585674Y-105088256D01*
X141605460Y-104900000D01*
X141585674Y-104711744D01*
X141549366Y-104600000D01*
X141527179Y-104531715D01*
X141432533Y-104367783D01*
X141305870Y-104227110D01*
X141152730Y-104115848D01*
X140979802Y-104038855D01*
X140794648Y-103999500D01*
X140794646Y-103999500D01*
X140605354Y-103999500D01*
X140605352Y-103999500D01*
X140420197Y-104038855D01*
X140247269Y-104115848D01*
X140094129Y-104227110D01*
X139967466Y-104367783D01*
X139872820Y-104531715D01*
X139814326Y-104711742D01*
X139794540Y-104900000D01*
X139814326Y-105088257D01*
X139868431Y-105254772D01*
X139874500Y-105293090D01*
X139874500Y-105689547D01*
X139865059Y-105737005D01*
X139838173Y-105777236D01*
X139832609Y-105782799D01*
X139775768Y-105815216D01*
X139710341Y-105814186D01*
X139652571Y-105797402D01*
X139637818Y-105796241D01*
X139615694Y-105794500D01*
X137834306Y-105794500D01*
X137822014Y-105795467D01*
X137797427Y-105797402D01*
X137639603Y-105843255D01*
X137638822Y-105843717D01*
X137525119Y-105910960D01*
X137462974Y-105928224D01*
X137400563Y-105911938D01*
X137354776Y-105866509D01*
X137338000Y-105804228D01*
X137338000Y-103477088D01*
X137353723Y-103416656D01*
X137396904Y-103371549D01*
X137418386Y-103358298D01*
X137443656Y-103342712D01*
X137567712Y-103218656D01*
X137567713Y-103218653D01*
X137577960Y-103208407D01*
X137578027Y-103208474D01*
X137606150Y-103179935D01*
X137658381Y-103161351D01*
X137713490Y-103167385D01*
X137743378Y-103186121D01*
X137744007Y-103185103D01*
X137795074Y-103216601D01*
X137905666Y-103284814D01*
X138017017Y-103321712D01*
X138072202Y-103339999D01*
X138082703Y-103341071D01*
X138174991Y-103350500D01*
X139225008Y-103350499D01*
X139327797Y-103339999D01*
X139494334Y-103284814D01*
X139550764Y-103250008D01*
X142574500Y-103250008D01*
X142585000Y-103352796D01*
X142640186Y-103519334D01*
X142732288Y-103668657D01*
X142856340Y-103792709D01*
X142856342Y-103792710D01*
X142856344Y-103792712D01*
X142859652Y-103794752D01*
X142902834Y-103839857D01*
X142918559Y-103900289D01*
X142902838Y-103960721D01*
X142859659Y-104005830D01*
X142856654Y-104007683D01*
X142732683Y-104131654D01*
X142640642Y-104280877D01*
X142585493Y-104447303D01*
X142575000Y-104550021D01*
X142575000Y-104600000D01*
X145024999Y-104600000D01*
X145024999Y-104550021D01*
X145019194Y-104493198D01*
X146400354Y-104493198D01*
X146407155Y-104499006D01*
X146628597Y-104634705D01*
X146868544Y-104734096D01*
X147121083Y-104794724D01*
X147380000Y-104815101D01*
X147638916Y-104794724D01*
X147891455Y-104734096D01*
X148131397Y-104634707D01*
X148352849Y-104499003D01*
X148359645Y-104493198D01*
X147380000Y-103513553D01*
X146400354Y-104493198D01*
X145019194Y-104493198D01*
X145014506Y-104447304D01*
X144959357Y-104280877D01*
X144867316Y-104131654D01*
X144743344Y-104007682D01*
X144740343Y-104005831D01*
X144697161Y-103960723D01*
X144681440Y-103900289D01*
X144697166Y-103839856D01*
X144740347Y-103794752D01*
X144743656Y-103792712D01*
X144867712Y-103668656D01*
X144959814Y-103519334D01*
X145014999Y-103352797D01*
X145025500Y-103250009D01*
X145025500Y-103159999D01*
X145724898Y-103159999D01*
X145745275Y-103418916D01*
X145805903Y-103671455D01*
X145905294Y-103911402D01*
X146040993Y-104132843D01*
X146046801Y-104139644D01*
X147026447Y-103160001D01*
X147026447Y-103160000D01*
X147733553Y-103160000D01*
X148713198Y-104139645D01*
X148719003Y-104132849D01*
X148854707Y-103911397D01*
X148954096Y-103671455D01*
X149014724Y-103418916D01*
X149035101Y-103159999D01*
X149014724Y-102901083D01*
X148954096Y-102648544D01*
X148854705Y-102408597D01*
X148719006Y-102187155D01*
X148713198Y-102180354D01*
X147733553Y-103160000D01*
X147026447Y-103160000D01*
X146046801Y-102180354D01*
X146040992Y-102187156D01*
X145905294Y-102408597D01*
X145805903Y-102648544D01*
X145745275Y-102901083D01*
X145724898Y-103159999D01*
X145025500Y-103159999D01*
X145025499Y-102649992D01*
X145014999Y-102547203D01*
X144959814Y-102380666D01*
X144867712Y-102231344D01*
X144867711Y-102231342D01*
X144743657Y-102107288D01*
X144658525Y-102054779D01*
X144615052Y-102009146D01*
X144599627Y-101948036D01*
X144616235Y-101887239D01*
X144627179Y-101868284D01*
X144640658Y-101826801D01*
X146400354Y-101826801D01*
X147380000Y-102806447D01*
X147380001Y-102806447D01*
X148359645Y-101826801D01*
X148352843Y-101820993D01*
X148131402Y-101685294D01*
X147891455Y-101585903D01*
X147638916Y-101525275D01*
X147380000Y-101504898D01*
X147121083Y-101525275D01*
X146868544Y-101585903D01*
X146628597Y-101685294D01*
X146407156Y-101820992D01*
X146400354Y-101826801D01*
X144640658Y-101826801D01*
X144685674Y-101688256D01*
X144705460Y-101500000D01*
X144685674Y-101311744D01*
X144655332Y-101218363D01*
X144627179Y-101131715D01*
X144532533Y-100967783D01*
X144405870Y-100827110D01*
X144252730Y-100715848D01*
X144079802Y-100638855D01*
X143894648Y-100599500D01*
X143894646Y-100599500D01*
X143705354Y-100599500D01*
X143705352Y-100599500D01*
X143520197Y-100638855D01*
X143347269Y-100715848D01*
X143194129Y-100827110D01*
X143067466Y-100967783D01*
X142972820Y-101131715D01*
X142914326Y-101311742D01*
X142910168Y-101351303D01*
X142894540Y-101500000D01*
X142897763Y-101530666D01*
X142914326Y-101688257D01*
X142972819Y-101868281D01*
X142983765Y-101887239D01*
X143000372Y-101948037D01*
X142984947Y-102009146D01*
X142941475Y-102054779D01*
X142856341Y-102107289D01*
X142732288Y-102231342D01*
X142640186Y-102380665D01*
X142585000Y-102547202D01*
X142574500Y-102649991D01*
X142574500Y-103250008D01*
X139550764Y-103250008D01*
X139643656Y-103192712D01*
X139767712Y-103068656D01*
X139859814Y-102919334D01*
X139914999Y-102752797D01*
X139925500Y-102650009D01*
X139925499Y-102049992D01*
X139914999Y-101947203D01*
X139859814Y-101780666D01*
X139767712Y-101631344D01*
X139767711Y-101631342D01*
X139643657Y-101507288D01*
X139640821Y-101505539D01*
X139597640Y-101460432D01*
X139581917Y-101400000D01*
X139597640Y-101339568D01*
X139640821Y-101294461D01*
X139642211Y-101293603D01*
X139643656Y-101292712D01*
X139767712Y-101168656D01*
X139859814Y-101019334D01*
X139914999Y-100852797D01*
X139925500Y-100750009D01*
X139925499Y-100149992D01*
X139923420Y-100129644D01*
X139914999Y-100047203D01*
X139898553Y-99997572D01*
X139859814Y-99880666D01*
X139802593Y-99787895D01*
X139767711Y-99731342D01*
X139643657Y-99607288D01*
X139558525Y-99554779D01*
X139515052Y-99509146D01*
X139499627Y-99448036D01*
X139516235Y-99387239D01*
X139527179Y-99368284D01*
X139585674Y-99188256D01*
X139605460Y-99000000D01*
X139585674Y-98811744D01*
X139527179Y-98631716D01*
X139527179Y-98631715D01*
X139432533Y-98467783D01*
X139305870Y-98327110D01*
X139152730Y-98215848D01*
X138979802Y-98138855D01*
X138794648Y-98099500D01*
X138794646Y-98099500D01*
X138605354Y-98099500D01*
X138605352Y-98099500D01*
X138420197Y-98138855D01*
X138247269Y-98215848D01*
X138094129Y-98327110D01*
X137967466Y-98467783D01*
X137872820Y-98631715D01*
X137814326Y-98811742D01*
X137794540Y-99000000D01*
X137814326Y-99188257D01*
X137872819Y-99368281D01*
X137883765Y-99387239D01*
X137900372Y-99448037D01*
X137884947Y-99509146D01*
X137841475Y-99554779D01*
X137756341Y-99607289D01*
X137632288Y-99731342D01*
X137540186Y-99880665D01*
X137485000Y-100047202D01*
X137474500Y-100149991D01*
X137474500Y-100750008D01*
X137485000Y-100852796D01*
X137521899Y-100964148D01*
X137540186Y-101019334D01*
X137555285Y-101043814D01*
X137561701Y-101054216D01*
X137580142Y-101117149D01*
X137563906Y-101180686D01*
X137517535Y-101227057D01*
X137453997Y-101243292D01*
X137391065Y-101224850D01*
X137294334Y-101165186D01*
X137127797Y-101110000D01*
X137029903Y-101100000D01*
X137025008Y-101099500D01*
X136399991Y-101099500D01*
X136297203Y-101110000D01*
X136130665Y-101165186D01*
X135981344Y-101257287D01*
X135887327Y-101351304D01*
X135831739Y-101383397D01*
X135767552Y-101383397D01*
X135711965Y-101351303D01*
X135618345Y-101257683D01*
X135469122Y-101165642D01*
X135302696Y-101110493D01*
X135199979Y-101100000D01*
X135137500Y-101100000D01*
X135137500Y-103499999D01*
X135199979Y-103499999D01*
X135302695Y-103489506D01*
X135469122Y-103434357D01*
X135618344Y-103342316D01*
X135711964Y-103248696D01*
X135767552Y-103216601D01*
X135831740Y-103216601D01*
X135887325Y-103248693D01*
X135978631Y-103339999D01*
X135981345Y-103342713D01*
X136028096Y-103371549D01*
X136071277Y-103416656D01*
X136087000Y-103477088D01*
X136087000Y-105407983D01*
X136073403Y-105464439D01*
X136035593Y-105508513D01*
X135981863Y-105530540D01*
X135923996Y-105525689D01*
X135802695Y-105485493D01*
X135699979Y-105475000D01*
X135450000Y-105475000D01*
X135450000Y-106613500D01*
X135433387Y-106675500D01*
X135388000Y-106720887D01*
X135326000Y-106737500D01*
X134000001Y-106737500D01*
X134000001Y-106799979D01*
X134010493Y-106902695D01*
X134065642Y-107069122D01*
X134157683Y-107218345D01*
X134251303Y-107311965D01*
X134283397Y-107367552D01*
X134283397Y-107431739D01*
X134251304Y-107487327D01*
X134150451Y-107588181D01*
X134110222Y-107615061D01*
X134062769Y-107624500D01*
X132655111Y-107624500D01*
X132592830Y-107607724D01*
X132547401Y-107561937D01*
X132531115Y-107499526D01*
X132548379Y-107437378D01*
X132576281Y-107390198D01*
X132622099Y-107232488D01*
X132622295Y-107230000D01*
X129677704Y-107230000D01*
X129677900Y-107232488D01*
X129723719Y-107390200D01*
X129815291Y-107545040D01*
X129813703Y-107545978D01*
X129834817Y-107582547D01*
X129834822Y-107646728D01*
X129813431Y-107683787D01*
X129814893Y-107684652D01*
X129806919Y-107698134D01*
X129806919Y-107698135D01*
X129799023Y-107711484D01*
X129723255Y-107839602D01*
X129677402Y-107997427D01*
X129677402Y-107997431D01*
X129674500Y-108034306D01*
X129674500Y-108465694D01*
X129674674Y-108467906D01*
X129677402Y-108502572D01*
X129723255Y-108660397D01*
X129814893Y-108815348D01*
X129813319Y-108816278D01*
X129834467Y-108852906D01*
X129834467Y-108917094D01*
X129813319Y-108953721D01*
X129814893Y-108954652D01*
X129723255Y-109109602D01*
X129677402Y-109267427D01*
X129674500Y-109304308D01*
X129674500Y-109735692D01*
X129677402Y-109772572D01*
X129723255Y-109930397D01*
X129738865Y-109956792D01*
X129804417Y-110067635D01*
X129814893Y-110085348D01*
X129813319Y-110086278D01*
X129834467Y-110122906D01*
X129834467Y-110187094D01*
X129813319Y-110223721D01*
X129814893Y-110224652D01*
X129723255Y-110379602D01*
X129677402Y-110537427D01*
X129674500Y-110574308D01*
X129674500Y-111005692D01*
X127675500Y-111005692D01*
X127675500Y-110574306D01*
X127672598Y-110537431D01*
X127626744Y-110379602D01*
X127583266Y-110306084D01*
X127566644Y-110255601D01*
X127572683Y-110202797D01*
X127600275Y-110157372D01*
X127644351Y-110127671D01*
X127677400Y-110114586D01*
X127688444Y-110110803D01*
X127730390Y-110098618D01*
X127747629Y-110088422D01*
X127765102Y-110079862D01*
X127783732Y-110072486D01*
X127819064Y-110046814D01*
X127828830Y-110040400D01*
X127829269Y-110040140D01*
X127866420Y-110018170D01*
X127880587Y-110004002D01*
X127895376Y-109991371D01*
X127911587Y-109979594D01*
X127939436Y-109945929D01*
X127947279Y-109937310D01*
X128183786Y-109700802D01*
X128199882Y-109687909D01*
X128201873Y-109685788D01*
X128201877Y-109685786D01*
X128247934Y-109636739D01*
X128250582Y-109634007D01*
X128270120Y-109614471D01*
X128272581Y-109611298D01*
X128280156Y-109602427D01*
X128310062Y-109570582D01*
X128319717Y-109553018D01*
X128330394Y-109536764D01*
X128342673Y-109520936D01*
X128360018Y-109480852D01*
X128365160Y-109470356D01*
X128372941Y-109456203D01*
X128386197Y-109432092D01*
X128391179Y-109412684D01*
X128397481Y-109394280D01*
X128405437Y-109375896D01*
X128412269Y-109332752D01*
X128414633Y-109321338D01*
X128425500Y-109279019D01*
X128425500Y-109258984D01*
X128427027Y-109239585D01*
X128427068Y-109239321D01*
X128430160Y-109219804D01*
X128426050Y-109176325D01*
X128425500Y-109164656D01*
X128425500Y-106729999D01*
X129677704Y-106729999D01*
X129677705Y-106730000D01*
X132622295Y-106730000D01*
X132622295Y-106729999D01*
X132622099Y-106727511D01*
X132576280Y-106569799D01*
X132492682Y-106428442D01*
X132376557Y-106312317D01*
X132250048Y-106237500D01*
X134000000Y-106237500D01*
X134950000Y-106237500D01*
X134950000Y-105475001D01*
X134700021Y-105475001D01*
X134597304Y-105485493D01*
X134430877Y-105540642D01*
X134281654Y-105632683D01*
X134157683Y-105756654D01*
X134065642Y-105905877D01*
X134010493Y-106072303D01*
X134000000Y-106175021D01*
X134000000Y-106237500D01*
X132250048Y-106237500D01*
X132235197Y-106228717D01*
X132138267Y-106200556D01*
X132088886Y-106172716D01*
X132057056Y-106125809D01*
X132049429Y-106069637D01*
X132067598Y-106015940D01*
X132107766Y-105975941D01*
X132243345Y-105892316D01*
X132367316Y-105768345D01*
X132459357Y-105619122D01*
X132514506Y-105452696D01*
X132525000Y-105349979D01*
X132525000Y-105300000D01*
X130075001Y-105300000D01*
X130075001Y-105349979D01*
X130085493Y-105452695D01*
X130140642Y-105619122D01*
X130232683Y-105768345D01*
X130356653Y-105892315D01*
X130450923Y-105950461D01*
X130494627Y-105996515D01*
X130509807Y-106058164D01*
X130492485Y-106119245D01*
X130447200Y-106163746D01*
X130385826Y-106180000D01*
X130259361Y-106180000D01*
X130222506Y-106182900D01*
X130064802Y-106228717D01*
X129923442Y-106312317D01*
X129807317Y-106428442D01*
X129723719Y-106569799D01*
X129677900Y-106727511D01*
X129677704Y-106729999D01*
X128425500Y-106729999D01*
X128425500Y-103450008D01*
X130074500Y-103450008D01*
X130085000Y-103552796D01*
X130140186Y-103719334D01*
X130232288Y-103868657D01*
X130356340Y-103992709D01*
X130356342Y-103992710D01*
X130356344Y-103992712D01*
X130359652Y-103994752D01*
X130402834Y-104039857D01*
X130418559Y-104100289D01*
X130402838Y-104160721D01*
X130359659Y-104205830D01*
X130356654Y-104207683D01*
X130232683Y-104331654D01*
X130140642Y-104480877D01*
X130085493Y-104647303D01*
X130075000Y-104750021D01*
X130075000Y-104800000D01*
X132524999Y-104800000D01*
X132524999Y-104750021D01*
X132514506Y-104647304D01*
X132459357Y-104480877D01*
X132367316Y-104331654D01*
X132243344Y-104207682D01*
X132240343Y-104205831D01*
X132197161Y-104160723D01*
X132181440Y-104100289D01*
X132197166Y-104039856D01*
X132240347Y-103994752D01*
X132243656Y-103992712D01*
X132259410Y-103976957D01*
X132308772Y-103946708D01*
X132366489Y-103942166D01*
X132419978Y-103964322D01*
X132447271Y-103984152D01*
X132620197Y-104061144D01*
X132805352Y-104100500D01*
X132805354Y-104100500D01*
X132994646Y-104100500D01*
X132994648Y-104100500D01*
X133118083Y-104074262D01*
X133179803Y-104061144D01*
X133352730Y-103984151D01*
X133471138Y-103898123D01*
X133505870Y-103872889D01*
X133509682Y-103868656D01*
X133632533Y-103732216D01*
X133727179Y-103568284D01*
X133785674Y-103388256D01*
X133798893Y-103262482D01*
X133819981Y-103205271D01*
X133865790Y-103165027D01*
X133925243Y-103151483D01*
X133983964Y-103167915D01*
X134027752Y-103210350D01*
X134032683Y-103218345D01*
X134156654Y-103342316D01*
X134305877Y-103434357D01*
X134472303Y-103489506D01*
X134575021Y-103500000D01*
X134637500Y-103500000D01*
X134637500Y-102550000D01*
X133875001Y-102550000D01*
X133875001Y-102624976D01*
X133858388Y-102686976D01*
X133813001Y-102732363D01*
X133751001Y-102748976D01*
X133689001Y-102732363D01*
X133643614Y-102686976D01*
X133632533Y-102667783D01*
X133505870Y-102527110D01*
X133352730Y-102415848D01*
X133179802Y-102338855D01*
X132994648Y-102299500D01*
X132994646Y-102299500D01*
X132805354Y-102299500D01*
X132805352Y-102299500D01*
X132620199Y-102338854D01*
X132459354Y-102410468D01*
X132411083Y-102421169D01*
X132362468Y-102412159D01*
X132321238Y-102384869D01*
X132243657Y-102307288D01*
X132094334Y-102215186D01*
X131927797Y-102160000D01*
X131825009Y-102149500D01*
X130774991Y-102149500D01*
X130672203Y-102160000D01*
X130505665Y-102215186D01*
X130356342Y-102307288D01*
X130232288Y-102431342D01*
X130140186Y-102580665D01*
X130085000Y-102747202D01*
X130074500Y-102849991D01*
X130074500Y-103450008D01*
X128425500Y-103450008D01*
X128425500Y-102050000D01*
X133875000Y-102050000D01*
X134637500Y-102050000D01*
X134637500Y-101100001D01*
X134575021Y-101100001D01*
X134472304Y-101110493D01*
X134305877Y-101165642D01*
X134156654Y-101257683D01*
X134032683Y-101381654D01*
X133940642Y-101530877D01*
X133885493Y-101697303D01*
X133875000Y-101800021D01*
X133875000Y-102050000D01*
X128425500Y-102050000D01*
X128425500Y-100710452D01*
X128434939Y-100662999D01*
X128461819Y-100622771D01*
X128485090Y-100599500D01*
X128746289Y-100338300D01*
X128762385Y-100325406D01*
X128764373Y-100323287D01*
X128764377Y-100323286D01*
X128810448Y-100274223D01*
X128813066Y-100271523D01*
X128832620Y-100251971D01*
X128835081Y-100248798D01*
X128842656Y-100239927D01*
X128872562Y-100208082D01*
X128882217Y-100190518D01*
X128892894Y-100174264D01*
X128905173Y-100158436D01*
X128922518Y-100118352D01*
X128927660Y-100107856D01*
X128948697Y-100069592D01*
X128953679Y-100050184D01*
X128959981Y-100031780D01*
X128967937Y-100013396D01*
X128974769Y-99970252D01*
X128977133Y-99958838D01*
X128988000Y-99916519D01*
X128988000Y-99896484D01*
X128989527Y-99877085D01*
X128989568Y-99876821D01*
X128992660Y-99857304D01*
X128988550Y-99813825D01*
X128988000Y-99802156D01*
X128988000Y-99177088D01*
X129003723Y-99116656D01*
X129046904Y-99071549D01*
X129062863Y-99061704D01*
X129093656Y-99042712D01*
X129217712Y-98918656D01*
X129309814Y-98769334D01*
X129364999Y-98602797D01*
X129375500Y-98500009D01*
X129375499Y-97559451D01*
X129389016Y-97503154D01*
X129426619Y-97459130D01*
X129480111Y-97436977D01*
X129537829Y-97441525D01*
X129578493Y-97466450D01*
X129579359Y-97465334D01*
X129585527Y-97470118D01*
X129585529Y-97470120D01*
X129588700Y-97472580D01*
X129597572Y-97480157D01*
X129622062Y-97503154D01*
X129629418Y-97510062D01*
X129646970Y-97519711D01*
X129663238Y-97530397D01*
X129679064Y-97542673D01*
X129719146Y-97560017D01*
X129729633Y-97565155D01*
X129767907Y-97586197D01*
X129776410Y-97588379D01*
X129787308Y-97591178D01*
X129805713Y-97597478D01*
X129824104Y-97605437D01*
X129867250Y-97612270D01*
X129878668Y-97614635D01*
X129920981Y-97625500D01*
X129941017Y-97625500D01*
X129960407Y-97627025D01*
X129970125Y-97628564D01*
X130019469Y-97647834D01*
X130056269Y-97685941D01*
X130107289Y-97768658D01*
X130231342Y-97892711D01*
X130243970Y-97900500D01*
X130380666Y-97984814D01*
X130492016Y-98021712D01*
X130547202Y-98039999D01*
X130556729Y-98040972D01*
X130649991Y-98050500D01*
X131350008Y-98050499D01*
X131452797Y-98039999D01*
X131619334Y-97984814D01*
X131768656Y-97892712D01*
X131892712Y-97768656D01*
X131984814Y-97619334D01*
X132039999Y-97452797D01*
X132050500Y-97350009D01*
X132050500Y-97350008D01*
X132749500Y-97350008D01*
X132760000Y-97452796D01*
X132815186Y-97619334D01*
X132907288Y-97768657D01*
X133031342Y-97892711D01*
X133043970Y-97900500D01*
X133180666Y-97984814D01*
X133292016Y-98021712D01*
X133347202Y-98039999D01*
X133356729Y-98040972D01*
X133449991Y-98050500D01*
X134150008Y-98050499D01*
X134252797Y-98039999D01*
X134419334Y-97984814D01*
X134568656Y-97892712D01*
X134638538Y-97822829D01*
X134679767Y-97795541D01*
X134728383Y-97786531D01*
X134776649Y-97797231D01*
X134908233Y-97855817D01*
X134920199Y-97861145D01*
X135105352Y-97900500D01*
X135105354Y-97900500D01*
X135294646Y-97900500D01*
X135294648Y-97900500D01*
X135443699Y-97868818D01*
X135479803Y-97861144D01*
X135652730Y-97784151D01*
X135805871Y-97672888D01*
X135932533Y-97532216D01*
X136027179Y-97368284D01*
X136085674Y-97188256D01*
X136105460Y-97000000D01*
X136085674Y-96811744D01*
X136045158Y-96687048D01*
X136027179Y-96631715D01*
X135932533Y-96467783D01*
X135805870Y-96327110D01*
X135652730Y-96215848D01*
X135479802Y-96138855D01*
X135294648Y-96099500D01*
X135294646Y-96099500D01*
X135105354Y-96099500D01*
X135105352Y-96099500D01*
X134920199Y-96138854D01*
X134776652Y-96202766D01*
X134728381Y-96213467D01*
X134679766Y-96204457D01*
X134638536Y-96177167D01*
X134568657Y-96107288D01*
X134419334Y-96015186D01*
X134252797Y-95960000D01*
X134159535Y-95950473D01*
X134150008Y-95949500D01*
X133449991Y-95949500D01*
X133347203Y-95960000D01*
X133180665Y-96015186D01*
X133031342Y-96107288D01*
X132907288Y-96231342D01*
X132815186Y-96380665D01*
X132760000Y-96547202D01*
X132749500Y-96649991D01*
X132749500Y-97350008D01*
X132050500Y-97350008D01*
X132050499Y-96649992D01*
X132039999Y-96547203D01*
X131984814Y-96380666D01*
X131892712Y-96231344D01*
X131892711Y-96231342D01*
X131768657Y-96107288D01*
X131619334Y-96015186D01*
X131452797Y-95960000D01*
X131359535Y-95950473D01*
X131350008Y-95949500D01*
X130649989Y-95949500D01*
X130573114Y-95957353D01*
X130509913Y-95947201D01*
X130460196Y-95906881D01*
X130452487Y-95896270D01*
X130452486Y-95896268D01*
X130426798Y-95860912D01*
X130420409Y-95851184D01*
X130398170Y-95813579D01*
X130384005Y-95799414D01*
X130371369Y-95784620D01*
X130359595Y-95768414D01*
X130359594Y-95768413D01*
X130325935Y-95740568D01*
X130317305Y-95732714D01*
X130113302Y-95528711D01*
X130100406Y-95512613D01*
X130049275Y-95464598D01*
X130046478Y-95461887D01*
X130026970Y-95442379D01*
X130023790Y-95439912D01*
X130014924Y-95432339D01*
X129983082Y-95402438D01*
X129965524Y-95392785D01*
X129949264Y-95382104D01*
X129933435Y-95369826D01*
X129893349Y-95352478D01*
X129882864Y-95347342D01*
X129854371Y-95331679D01*
X129808566Y-95288111D01*
X129742713Y-95181345D01*
X129742712Y-95181344D01*
X129649047Y-95087679D01*
X129616955Y-95032094D01*
X129616955Y-94967906D01*
X129649047Y-94912320D01*
X129742712Y-94818656D01*
X129834814Y-94669334D01*
X129889999Y-94502797D01*
X129900500Y-94400009D01*
X129900499Y-93774992D01*
X129889999Y-93672203D01*
X129834814Y-93505666D01*
X129742712Y-93356344D01*
X129742711Y-93356342D01*
X129618655Y-93232286D01*
X129581011Y-93209067D01*
X129541982Y-93170862D01*
X129523153Y-93119595D01*
X129528177Y-93065211D01*
X129549366Y-93000000D01*
X153344396Y-93000000D01*
X153364779Y-93258995D01*
X153425426Y-93511610D01*
X153485430Y-93656470D01*
X153524846Y-93751628D01*
X153660588Y-93973140D01*
X153660590Y-93973143D01*
X153727567Y-94051563D01*
X153829311Y-94170689D01*
X154026860Y-94339412D01*
X154248372Y-94475154D01*
X154428385Y-94549718D01*
X154488389Y-94574573D01*
X154568197Y-94593733D01*
X154741006Y-94635221D01*
X155000000Y-94655604D01*
X155258994Y-94635221D01*
X155511610Y-94574573D01*
X155751628Y-94475154D01*
X155973140Y-94339412D01*
X156170689Y-94170689D01*
X156339412Y-93973140D01*
X156475154Y-93751628D01*
X156574573Y-93511610D01*
X156635221Y-93258994D01*
X156655604Y-93000000D01*
X156646492Y-92884226D01*
X156659625Y-92818205D01*
X156705320Y-92768773D01*
X156770110Y-92750500D01*
X160312168Y-92750500D01*
X160369425Y-92764511D01*
X160413743Y-92803377D01*
X160420712Y-92813330D01*
X160576670Y-92969287D01*
X160576671Y-92969288D01*
X160757342Y-93095795D01*
X160957237Y-93189007D01*
X161170280Y-93246092D01*
X161390000Y-93265315D01*
X161609720Y-93246092D01*
X161822763Y-93189007D01*
X162022658Y-93095795D01*
X162203329Y-92969288D01*
X162359288Y-92813329D01*
X162485795Y-92632658D01*
X162579007Y-92432763D01*
X162636092Y-92219720D01*
X162655315Y-92000000D01*
X162636092Y-91780280D01*
X162579007Y-91567237D01*
X162485795Y-91367343D01*
X162485535Y-91366971D01*
X162359288Y-91186670D01*
X162203329Y-91030712D01*
X162022657Y-90904204D01*
X161822766Y-90810994D01*
X161822763Y-90810993D01*
X161708477Y-90780370D01*
X161609717Y-90753907D01*
X161390000Y-90734684D01*
X161170282Y-90753907D01*
X160957235Y-90810993D01*
X160757341Y-90904205D01*
X160576669Y-91030712D01*
X160420712Y-91186669D01*
X160413743Y-91196623D01*
X160369425Y-91235489D01*
X160312168Y-91249500D01*
X156063706Y-91249500D01*
X156045736Y-91248191D01*
X156031853Y-91246157D01*
X156021977Y-91244711D01*
X156021976Y-91244711D01*
X155972631Y-91249028D01*
X155961824Y-91249500D01*
X155956291Y-91249500D01*
X155925501Y-91253098D01*
X155921917Y-91253464D01*
X155845961Y-91260109D01*
X155826921Y-91264330D01*
X155755232Y-91290421D01*
X155751831Y-91291603D01*
X155679474Y-91315580D01*
X155661927Y-91324075D01*
X155598221Y-91365975D01*
X155595180Y-91367913D01*
X155548541Y-91396680D01*
X155503020Y-91413586D01*
X155454497Y-91411715D01*
X155258995Y-91364779D01*
X155000000Y-91344396D01*
X154741004Y-91364779D01*
X154488389Y-91425426D01*
X154283524Y-91510285D01*
X154248372Y-91524846D01*
X154110416Y-91609385D01*
X154026856Y-91660590D01*
X153829311Y-91829311D01*
X153660590Y-92026856D01*
X153619151Y-92094479D01*
X153524846Y-92248372D01*
X153518036Y-92264813D01*
X153425426Y-92488389D01*
X153364779Y-92741004D01*
X153344396Y-93000000D01*
X129549366Y-93000000D01*
X129585674Y-92888256D01*
X129605460Y-92700000D01*
X129585674Y-92511744D01*
X129527179Y-92331716D01*
X129527179Y-92331715D01*
X129432533Y-92167783D01*
X129305870Y-92027110D01*
X129152730Y-91915848D01*
X128979802Y-91838855D01*
X128794648Y-91799500D01*
X128794646Y-91799500D01*
X128605354Y-91799500D01*
X128605352Y-91799500D01*
X128420197Y-91838855D01*
X128247269Y-91915848D01*
X128094129Y-92027110D01*
X127967466Y-92167783D01*
X127872820Y-92331715D01*
X127814326Y-92511742D01*
X127794540Y-92700000D01*
X127814326Y-92888257D01*
X127871822Y-93065211D01*
X127876846Y-93119595D01*
X127858017Y-93170862D01*
X127818989Y-93209067D01*
X127781342Y-93232288D01*
X127657288Y-93356342D01*
X127565186Y-93505665D01*
X127510000Y-93672202D01*
X127499500Y-93774991D01*
X127499500Y-94400008D01*
X127510000Y-94502796D01*
X127565186Y-94669334D01*
X127657286Y-94818654D01*
X127657287Y-94818655D01*
X127657288Y-94818656D01*
X127750951Y-94912319D01*
X127783044Y-94967905D01*
X127783044Y-95032092D01*
X127750951Y-95087680D01*
X127657287Y-95181344D01*
X127565186Y-95330665D01*
X127510000Y-95497202D01*
X127499500Y-95599991D01*
X127499500Y-96225008D01*
X127510000Y-96327796D01*
X127565186Y-96494334D01*
X127657288Y-96643656D01*
X127700680Y-96687048D01*
X127727561Y-96727277D01*
X127737000Y-96774730D01*
X127737000Y-96822912D01*
X127721277Y-96883344D01*
X127678096Y-96928451D01*
X127631342Y-96957288D01*
X127537681Y-97050950D01*
X127482094Y-97083044D01*
X127417906Y-97083044D01*
X127362319Y-97050950D01*
X127268657Y-96957288D01*
X127119334Y-96865186D01*
X126952797Y-96810000D01*
X126859535Y-96800473D01*
X126850008Y-96799500D01*
X126224991Y-96799500D01*
X126122203Y-96810000D01*
X125955665Y-96865186D01*
X125806342Y-96957288D01*
X125682288Y-97081342D01*
X125590186Y-97230665D01*
X125570689Y-97289504D01*
X125544810Y-97333829D01*
X125503198Y-97363877D01*
X125452983Y-97374500D01*
X125175357Y-97374500D01*
X125118100Y-97360489D01*
X125073782Y-97321623D01*
X124979288Y-97186670D01*
X124823329Y-97030712D01*
X124642657Y-96904204D01*
X124442766Y-96810994D01*
X124442763Y-96810993D01*
X124336241Y-96782450D01*
X124229717Y-96753907D01*
X124010000Y-96734684D01*
X123790282Y-96753907D01*
X123577235Y-96810993D01*
X123377341Y-96904205D01*
X123196669Y-97030712D01*
X123040712Y-97186669D01*
X122914205Y-97367341D01*
X122820993Y-97567235D01*
X122763907Y-97780282D01*
X122744684Y-97999999D01*
X122763907Y-98219717D01*
X122763908Y-98219720D01*
X122809699Y-98390615D01*
X122820994Y-98432766D01*
X122914204Y-98632657D01*
X123009906Y-98769334D01*
X123040712Y-98813329D01*
X123196671Y-98969288D01*
X123377342Y-99095795D01*
X123577237Y-99189007D01*
X123790280Y-99246092D01*
X124010000Y-99265315D01*
X124229720Y-99246092D01*
X124442763Y-99189007D01*
X124642658Y-99095795D01*
X124823329Y-98969288D01*
X124979288Y-98813329D01*
X125073782Y-98678376D01*
X125118101Y-98639511D01*
X125175358Y-98625500D01*
X125452983Y-98625500D01*
X125503198Y-98636123D01*
X125544810Y-98666171D01*
X125570689Y-98710496D01*
X125590186Y-98769334D01*
X125682288Y-98918657D01*
X125806342Y-99042711D01*
X125806344Y-99042712D01*
X125955666Y-99134814D01*
X126067017Y-99171712D01*
X126122202Y-99189999D01*
X126131729Y-99190972D01*
X126224991Y-99200500D01*
X126850008Y-99200499D01*
X126952797Y-99189999D01*
X127119334Y-99134814D01*
X127268656Y-99042712D01*
X127362319Y-98949048D01*
X127417905Y-98916955D01*
X127482092Y-98916955D01*
X127537680Y-98949049D01*
X127631342Y-99042711D01*
X127678096Y-99071549D01*
X127721277Y-99116656D01*
X127737000Y-99177088D01*
X127737000Y-99527047D01*
X127727561Y-99574500D01*
X127700683Y-99614725D01*
X127458104Y-99857304D01*
X127416208Y-99899200D01*
X127400109Y-99912097D01*
X127352096Y-99963225D01*
X127349391Y-99966017D01*
X127329874Y-99985534D01*
X127327415Y-99988705D01*
X127319842Y-99997572D01*
X127289935Y-100029420D01*
X127280285Y-100046974D01*
X127269609Y-100063228D01*
X127257326Y-100079063D01*
X127239975Y-100119158D01*
X127234838Y-100129644D01*
X127213802Y-100167907D01*
X127208821Y-100187309D01*
X127202520Y-100205711D01*
X127194561Y-100224102D01*
X127187728Y-100267242D01*
X127185360Y-100278674D01*
X127174500Y-100320978D01*
X127174500Y-100341016D01*
X127172973Y-100360415D01*
X127169840Y-100380194D01*
X127173950Y-100423675D01*
X127174500Y-100435344D01*
X127174500Y-104924108D01*
X127157887Y-104986108D01*
X127112500Y-105031495D01*
X127050500Y-105048108D01*
X126988500Y-105031495D01*
X126943113Y-104986108D01*
X126932533Y-104967784D01*
X126805870Y-104827110D01*
X126652730Y-104715848D01*
X126479802Y-104638855D01*
X126294648Y-104599500D01*
X126294646Y-104599500D01*
X126105354Y-104599500D01*
X126105352Y-104599500D01*
X125920197Y-104638855D01*
X125747269Y-104715848D01*
X125594129Y-104827110D01*
X125467466Y-104967783D01*
X125372820Y-105131715D01*
X125314326Y-105311742D01*
X125294540Y-105500000D01*
X125314326Y-105688257D01*
X125372820Y-105868284D01*
X125445114Y-105993500D01*
X125461727Y-106055500D01*
X125445114Y-106117500D01*
X125399727Y-106162887D01*
X125337727Y-106179500D01*
X125309306Y-106179500D01*
X125297014Y-106180467D01*
X125272427Y-106182402D01*
X125114602Y-106228255D01*
X124973134Y-106311919D01*
X124856919Y-106428134D01*
X124773255Y-106569602D01*
X124727402Y-106727427D01*
X124725626Y-106750000D01*
X124724500Y-106764306D01*
X124724500Y-107195694D01*
X124725285Y-107205664D01*
X124727402Y-107232572D01*
X124773255Y-107390397D01*
X124801040Y-107437379D01*
X124818304Y-107499526D01*
X124802018Y-107561937D01*
X124756589Y-107607725D01*
X124694308Y-107624500D01*
X124579019Y-107624500D01*
X124570849Y-107624500D01*
X124547615Y-107622304D01*
X124539587Y-107620772D01*
X124484241Y-107624255D01*
X124476455Y-107624500D01*
X124349500Y-107624500D01*
X124287500Y-107607887D01*
X124242113Y-107562500D01*
X124225500Y-107500500D01*
X124225500Y-105082740D01*
X124227763Y-105062236D01*
X124226329Y-105016604D01*
X124225561Y-104992144D01*
X124225500Y-104988250D01*
X124225500Y-104960657D01*
X124225500Y-104960650D01*
X124224995Y-104956653D01*
X124224080Y-104945023D01*
X124222709Y-104901372D01*
X124217119Y-104882134D01*
X124213174Y-104863082D01*
X124210664Y-104843208D01*
X124204290Y-104827110D01*
X124194578Y-104802581D01*
X124190805Y-104791560D01*
X124178617Y-104749610D01*
X124168421Y-104732369D01*
X124159863Y-104714902D01*
X124152486Y-104696268D01*
X124126798Y-104660912D01*
X124120409Y-104651184D01*
X124098170Y-104613579D01*
X124084005Y-104599414D01*
X124071369Y-104584620D01*
X124059595Y-104568414D01*
X124040154Y-104552331D01*
X124025935Y-104540568D01*
X124017305Y-104532714D01*
X123400802Y-103916211D01*
X123387906Y-103900113D01*
X123336775Y-103852098D01*
X123333978Y-103849387D01*
X123314470Y-103829879D01*
X123311290Y-103827412D01*
X123302424Y-103819839D01*
X123270582Y-103789938D01*
X123253024Y-103780285D01*
X123236764Y-103769604D01*
X123220936Y-103757327D01*
X123180851Y-103739980D01*
X123170361Y-103734841D01*
X123132091Y-103713802D01*
X123112691Y-103708821D01*
X123094284Y-103702519D01*
X123075897Y-103694562D01*
X123032758Y-103687729D01*
X123021324Y-103685361D01*
X122979019Y-103674500D01*
X122958984Y-103674500D01*
X122939586Y-103672973D01*
X122930001Y-103671455D01*
X122919805Y-103669840D01*
X122919804Y-103669840D01*
X122886751Y-103672964D01*
X122876325Y-103673950D01*
X122864656Y-103674500D01*
X122045150Y-103674500D01*
X121998488Y-103665385D01*
X121958685Y-103639381D01*
X121931594Y-103600310D01*
X121924174Y-103583395D01*
X121924173Y-103583393D01*
X121788164Y-103375215D01*
X121619744Y-103192262D01*
X121567351Y-103151483D01*
X121423514Y-103039529D01*
X121423510Y-103039526D01*
X121423509Y-103039526D01*
X121204810Y-102921172D01*
X121204806Y-102921170D01*
X121204805Y-102921170D01*
X120969615Y-102840429D01*
X120724335Y-102799500D01*
X120475665Y-102799500D01*
X120230384Y-102840429D01*
X119995194Y-102921170D01*
X119776485Y-103039529D01*
X119580259Y-103192259D01*
X119580256Y-103192261D01*
X119580256Y-103192262D01*
X119411836Y-103375215D01*
X119390494Y-103407881D01*
X119275825Y-103583395D01*
X119208160Y-103737658D01*
X119175937Y-103811119D01*
X119132119Y-103984151D01*
X119114891Y-104052183D01*
X119094356Y-104299999D01*
X110000000Y-104299999D01*
X110000000Y-98131182D01*
X114959500Y-98131182D01*
X114998604Y-98390615D01*
X115075937Y-98641323D01*
X115189772Y-98877704D01*
X115302272Y-99042711D01*
X115337571Y-99094485D01*
X115496079Y-99265315D01*
X115516019Y-99286805D01*
X115721143Y-99450386D01*
X115948357Y-99581568D01*
X116192584Y-99677420D01*
X116448370Y-99735802D01*
X116504408Y-99740001D01*
X116644501Y-99750500D01*
X116644506Y-99750500D01*
X116775494Y-99750500D01*
X116775499Y-99750500D01*
X116898079Y-99741313D01*
X116971630Y-99735802D01*
X117227416Y-99677420D01*
X117471643Y-99581568D01*
X117698857Y-99450386D01*
X117903981Y-99286805D01*
X118081212Y-99095795D01*
X118082428Y-99094485D01*
X118082429Y-99094482D01*
X118082433Y-99094479D01*
X118230228Y-98877704D01*
X118263859Y-98807869D01*
X119749500Y-98807869D01*
X119755909Y-98867483D01*
X119806204Y-99002331D01*
X119892454Y-99117546D01*
X120007669Y-99203796D01*
X120142517Y-99254091D01*
X120202127Y-99260500D01*
X121817872Y-99260499D01*
X121877483Y-99254091D01*
X122012331Y-99203796D01*
X122127546Y-99117546D01*
X122213796Y-99002331D01*
X122264091Y-98867483D01*
X122270500Y-98807873D01*
X122270499Y-97192128D01*
X122264091Y-97132517D01*
X122213796Y-96997669D01*
X122127546Y-96882454D01*
X122012331Y-96796204D01*
X121877483Y-96745909D01*
X121817873Y-96739500D01*
X121817869Y-96739500D01*
X120202130Y-96739500D01*
X120142515Y-96745909D01*
X120007669Y-96796204D01*
X119892454Y-96882454D01*
X119806204Y-96997668D01*
X119755909Y-97132515D01*
X119755909Y-97132517D01*
X119751231Y-97176032D01*
X119749500Y-97192130D01*
X119749500Y-98807869D01*
X118263859Y-98807869D01*
X118344063Y-98641323D01*
X118421396Y-98390615D01*
X118460500Y-98131182D01*
X118460500Y-97868818D01*
X118421396Y-97609385D01*
X118344063Y-97358677D01*
X118230228Y-97122296D01*
X118082433Y-96905521D01*
X118082432Y-96905520D01*
X118082428Y-96905514D01*
X117903984Y-96713198D01*
X117903983Y-96713197D01*
X117903981Y-96713195D01*
X117698857Y-96549614D01*
X117698856Y-96549613D01*
X117471641Y-96418431D01*
X117227418Y-96322580D01*
X116971627Y-96264197D01*
X116775499Y-96249500D01*
X116775494Y-96249500D01*
X116644506Y-96249500D01*
X116644501Y-96249500D01*
X116448372Y-96264197D01*
X116192581Y-96322580D01*
X115948358Y-96418431D01*
X115721143Y-96549613D01*
X115516015Y-96713198D01*
X115337571Y-96905514D01*
X115189771Y-97122298D01*
X115137584Y-97230665D01*
X115075937Y-97358677D01*
X114998604Y-97609385D01*
X114959500Y-97868818D01*
X114959500Y-98131182D01*
X110000000Y-98131182D01*
X110000000Y-91131182D01*
X114959500Y-91131182D01*
X114998604Y-91390615D01*
X115075937Y-91641323D01*
X115189772Y-91877704D01*
X115291637Y-92027112D01*
X115337571Y-92094485D01*
X115495613Y-92264813D01*
X115516019Y-92286805D01*
X115721143Y-92450386D01*
X115948357Y-92581568D01*
X116192584Y-92677420D01*
X116448370Y-92735802D01*
X116504408Y-92740001D01*
X116644501Y-92750500D01*
X116644506Y-92750500D01*
X116775494Y-92750500D01*
X116775499Y-92750500D01*
X116902212Y-92741004D01*
X116971630Y-92735802D01*
X117227416Y-92677420D01*
X117471643Y-92581568D01*
X117698857Y-92450386D01*
X117903981Y-92286805D01*
X118081616Y-92095360D01*
X118082428Y-92094485D01*
X118082429Y-92094482D01*
X118082433Y-92094479D01*
X118230228Y-91877704D01*
X118263859Y-91807869D01*
X119749500Y-91807869D01*
X119755909Y-91867483D01*
X119806204Y-92002331D01*
X119892454Y-92117546D01*
X120007669Y-92203796D01*
X120142517Y-92254091D01*
X120202127Y-92260500D01*
X121817872Y-92260499D01*
X121877483Y-92254091D01*
X122012331Y-92203796D01*
X122127546Y-92117546D01*
X122177883Y-92050304D01*
X123313247Y-92050304D01*
X123377595Y-92095360D01*
X123577406Y-92188534D01*
X123790370Y-92245598D01*
X124010000Y-92264813D01*
X124229629Y-92245598D01*
X124442593Y-92188534D01*
X124642404Y-92095360D01*
X124706751Y-92050304D01*
X124010001Y-91353553D01*
X124010000Y-91353553D01*
X123313247Y-92050304D01*
X122177883Y-92050304D01*
X122213796Y-92002331D01*
X122264091Y-91867483D01*
X122270500Y-91807873D01*
X122270499Y-90999999D01*
X122745186Y-90999999D01*
X122764401Y-91219629D01*
X122821465Y-91432593D01*
X122914640Y-91632408D01*
X122959694Y-91696751D01*
X123656446Y-91000001D01*
X124363553Y-91000001D01*
X125060304Y-91696750D01*
X125105360Y-91632404D01*
X125198534Y-91432593D01*
X125255598Y-91219629D01*
X125274813Y-90999999D01*
X125255598Y-90780370D01*
X125198534Y-90567406D01*
X125105359Y-90367592D01*
X125060304Y-90303248D01*
X125060304Y-90303247D01*
X124363553Y-91000000D01*
X124363553Y-91000001D01*
X123656446Y-91000001D01*
X123656446Y-91000000D01*
X122959694Y-90303248D01*
X122914639Y-90367594D01*
X122821465Y-90567406D01*
X122764401Y-90780370D01*
X122745186Y-90999999D01*
X122270499Y-90999999D01*
X122270499Y-90192128D01*
X122264091Y-90132517D01*
X122213796Y-89997669D01*
X122177882Y-89949694D01*
X123313248Y-89949694D01*
X124010000Y-90646446D01*
X124010001Y-90646446D01*
X124706751Y-89949694D01*
X124706751Y-89949693D01*
X124642408Y-89904640D01*
X124442593Y-89811465D01*
X124229629Y-89754401D01*
X124010000Y-89735186D01*
X123790370Y-89754401D01*
X123577406Y-89811465D01*
X123377594Y-89904639D01*
X123313248Y-89949694D01*
X122177882Y-89949694D01*
X122127546Y-89882454D01*
X122012331Y-89796204D01*
X121877483Y-89745909D01*
X121817873Y-89739500D01*
X121817869Y-89739500D01*
X120202130Y-89739500D01*
X120142515Y-89745909D01*
X120007669Y-89796204D01*
X119892454Y-89882454D01*
X119806204Y-89997668D01*
X119755909Y-90132516D01*
X119749500Y-90192130D01*
X119749500Y-91807869D01*
X118263859Y-91807869D01*
X118344063Y-91641323D01*
X118421396Y-91390615D01*
X118460500Y-91131182D01*
X118460500Y-90868818D01*
X118421396Y-90609385D01*
X118344063Y-90358677D01*
X118230228Y-90122296D01*
X118082433Y-89905521D01*
X118082432Y-89905520D01*
X118082428Y-89905514D01*
X117903984Y-89713198D01*
X117903983Y-89713197D01*
X117903981Y-89713195D01*
X117698857Y-89549614D01*
X117698856Y-89549613D01*
X117471641Y-89418431D01*
X117227418Y-89322580D01*
X116971627Y-89264197D01*
X116775499Y-89249500D01*
X116775494Y-89249500D01*
X116644506Y-89249500D01*
X116644501Y-89249500D01*
X116448372Y-89264197D01*
X116192581Y-89322580D01*
X115948358Y-89418431D01*
X115721143Y-89549613D01*
X115516015Y-89713198D01*
X115337571Y-89905514D01*
X115307450Y-89949694D01*
X115189772Y-90122296D01*
X115075937Y-90358677D01*
X114998604Y-90609385D01*
X114959500Y-90868818D01*
X114959500Y-91131182D01*
X110000000Y-91131182D01*
X110000000Y-86950000D01*
X123050001Y-86950000D01*
X123050001Y-87049979D01*
X123060493Y-87152695D01*
X123115642Y-87319122D01*
X123207683Y-87468345D01*
X123331654Y-87592316D01*
X123480877Y-87684357D01*
X123647303Y-87739506D01*
X123750021Y-87750000D01*
X123850000Y-87750000D01*
X123850000Y-86950000D01*
X124350000Y-86950000D01*
X124350000Y-87749999D01*
X124449979Y-87749999D01*
X124552695Y-87739506D01*
X124719122Y-87684357D01*
X124868345Y-87592316D01*
X124992316Y-87468345D01*
X125084357Y-87319122D01*
X125139506Y-87152696D01*
X125150000Y-87049979D01*
X125150000Y-86950000D01*
X124350000Y-86950000D01*
X123850000Y-86950000D01*
X123050001Y-86950000D01*
X110000000Y-86950000D01*
X110000000Y-85278647D01*
X110014718Y-85220051D01*
X110055379Y-85175365D01*
X110112330Y-85155197D01*
X110172052Y-85164336D01*
X110220366Y-85200611D01*
X110446219Y-85479516D01*
X110720484Y-85753781D01*
X111021916Y-85997876D01*
X111021918Y-85997877D01*
X111021919Y-85997878D01*
X111347206Y-86209123D01*
X111692806Y-86385214D01*
X112054913Y-86524214D01*
X112429570Y-86624603D01*
X112621114Y-86654939D01*
X112812662Y-86685278D01*
X113200000Y-86705578D01*
X113587338Y-86685278D01*
X113836686Y-86645785D01*
X113970429Y-86624603D01*
X113970433Y-86624602D01*
X114345087Y-86524214D01*
X114538421Y-86450000D01*
X123050000Y-86450000D01*
X123850000Y-86450000D01*
X123850000Y-85650001D01*
X123750021Y-85650001D01*
X123647304Y-85660493D01*
X123480877Y-85715642D01*
X123331654Y-85807683D01*
X123207683Y-85931654D01*
X123115642Y-86080877D01*
X123060493Y-86247303D01*
X123050000Y-86350021D01*
X123050000Y-86450000D01*
X114538421Y-86450000D01*
X114707194Y-86385214D01*
X115052789Y-86209125D01*
X115052788Y-86209125D01*
X115052793Y-86209123D01*
X115215436Y-86103500D01*
X115378084Y-85997876D01*
X115679516Y-85753781D01*
X115783297Y-85650000D01*
X124350000Y-85650000D01*
X124350000Y-86450000D01*
X125149999Y-86450000D01*
X125149999Y-86350021D01*
X125139506Y-86247304D01*
X125084357Y-86080877D01*
X124992316Y-85931654D01*
X124868345Y-85807683D01*
X124719122Y-85715642D01*
X124552696Y-85660493D01*
X124449979Y-85650000D01*
X124350000Y-85650000D01*
X115783297Y-85650000D01*
X115953781Y-85479516D01*
X116034368Y-85380000D01*
X153344396Y-85380000D01*
X153364779Y-85638995D01*
X153425426Y-85891610D01*
X153469444Y-85997876D01*
X153524846Y-86131628D01*
X153658677Y-86350021D01*
X153660590Y-86353143D01*
X153727567Y-86431563D01*
X153829311Y-86550689D01*
X154026860Y-86719412D01*
X154248372Y-86855154D01*
X154428385Y-86929718D01*
X154488389Y-86954573D01*
X154568197Y-86973733D01*
X154741006Y-87015221D01*
X155000000Y-87035604D01*
X155258994Y-87015221D01*
X155511610Y-86954573D01*
X155751628Y-86855154D01*
X155973140Y-86719412D01*
X156170689Y-86550689D01*
X156339412Y-86353140D01*
X156439562Y-86189708D01*
X156484699Y-86146311D01*
X156545288Y-86130500D01*
X162017770Y-86130500D01*
X162065223Y-86139939D01*
X162105451Y-86166819D01*
X163603181Y-87664548D01*
X163630061Y-87704776D01*
X163639500Y-87752229D01*
X163639500Y-90621949D01*
X163625031Y-90680077D01*
X163585001Y-90724640D01*
X163528752Y-90745238D01*
X163525440Y-90745594D01*
X163522515Y-90745909D01*
X163387669Y-90796204D01*
X163272454Y-90882454D01*
X163186204Y-90997668D01*
X163135909Y-91132516D01*
X163129500Y-91192130D01*
X163129500Y-92807869D01*
X163135909Y-92867483D01*
X163186204Y-93002331D01*
X163272454Y-93117546D01*
X163387669Y-93203796D01*
X163522517Y-93254091D01*
X163582127Y-93260500D01*
X165197872Y-93260499D01*
X165257483Y-93254091D01*
X165392331Y-93203796D01*
X165507546Y-93117546D01*
X165593796Y-93002331D01*
X165644091Y-92867483D01*
X165650500Y-92807873D01*
X165650500Y-92131182D01*
X166939500Y-92131182D01*
X166978604Y-92390615D01*
X167055937Y-92641323D01*
X167169772Y-92877704D01*
X167297612Y-93065211D01*
X167317571Y-93094485D01*
X167476079Y-93265315D01*
X167496019Y-93286805D01*
X167701143Y-93450386D01*
X167928357Y-93581568D01*
X168096550Y-93647579D01*
X168159288Y-93672202D01*
X168172584Y-93677420D01*
X168428370Y-93735802D01*
X168484408Y-93740001D01*
X168624501Y-93750500D01*
X168624506Y-93750500D01*
X168755494Y-93750500D01*
X168755499Y-93750500D01*
X168878078Y-93741313D01*
X168951630Y-93735802D01*
X169207416Y-93677420D01*
X169451643Y-93581568D01*
X169678857Y-93450386D01*
X169883981Y-93286805D01*
X170061212Y-93095795D01*
X170062428Y-93094485D01*
X170062429Y-93094482D01*
X170062433Y-93094479D01*
X170210228Y-92877704D01*
X170324063Y-92641323D01*
X170401396Y-92390615D01*
X170440500Y-92131182D01*
X170440500Y-91868818D01*
X170401396Y-91609385D01*
X170324063Y-91358677D01*
X170210228Y-91122296D01*
X170062433Y-90905521D01*
X170062432Y-90905520D01*
X170062428Y-90905514D01*
X169883984Y-90713198D01*
X169883983Y-90713197D01*
X169883981Y-90713195D01*
X169730138Y-90590509D01*
X169678856Y-90549613D01*
X169451641Y-90418431D01*
X169207418Y-90322580D01*
X168951627Y-90264197D01*
X168755499Y-90249500D01*
X168755494Y-90249500D01*
X168624506Y-90249500D01*
X168624501Y-90249500D01*
X168428372Y-90264197D01*
X168172581Y-90322580D01*
X167928358Y-90418431D01*
X167701143Y-90549613D01*
X167496015Y-90713198D01*
X167317571Y-90905514D01*
X167254742Y-90997668D01*
X167169772Y-91122296D01*
X167055937Y-91358677D01*
X166978604Y-91609385D01*
X166939500Y-91868818D01*
X166939500Y-92131182D01*
X165650500Y-92131182D01*
X165650499Y-91192128D01*
X165644091Y-91132517D01*
X165593796Y-90997669D01*
X165507546Y-90882454D01*
X165392331Y-90796204D01*
X165349878Y-90780370D01*
X165257479Y-90745907D01*
X165251243Y-90745237D01*
X165194996Y-90724638D01*
X165154968Y-90680075D01*
X165140500Y-90621948D01*
X165140500Y-87453706D01*
X165141809Y-87435736D01*
X165142338Y-87432118D01*
X165145289Y-87411977D01*
X165140971Y-87362633D01*
X165140500Y-87351827D01*
X165140500Y-87346292D01*
X165140500Y-87346291D01*
X165136893Y-87315436D01*
X165136537Y-87311956D01*
X165129998Y-87237203D01*
X165129888Y-87235943D01*
X165125674Y-87216936D01*
X165102293Y-87152696D01*
X165099569Y-87145211D01*
X165098422Y-87141913D01*
X165074814Y-87070665D01*
X165074812Y-87070662D01*
X165074415Y-87069463D01*
X165065929Y-87051936D01*
X165065237Y-87050884D01*
X165065237Y-87050883D01*
X165024025Y-86988224D01*
X165022106Y-86985212D01*
X164982048Y-86920267D01*
X164969750Y-86905172D01*
X164914290Y-86852848D01*
X164911703Y-86850335D01*
X162955728Y-84894360D01*
X162943946Y-84880727D01*
X162934761Y-84868390D01*
X162929610Y-84861470D01*
X162919264Y-84852789D01*
X162891666Y-84829631D01*
X162883691Y-84822323D01*
X162879782Y-84818414D01*
X162879782Y-84818413D01*
X162879777Y-84818409D01*
X162855423Y-84799152D01*
X162852647Y-84796890D01*
X162794251Y-84747890D01*
X162777821Y-84737422D01*
X162708691Y-84705186D01*
X162705447Y-84703615D01*
X162637306Y-84669394D01*
X162618903Y-84662997D01*
X162544211Y-84647574D01*
X162540692Y-84646794D01*
X162466490Y-84629208D01*
X162447121Y-84627229D01*
X162370869Y-84629448D01*
X162367263Y-84629500D01*
X156545288Y-84629500D01*
X156484699Y-84613689D01*
X156439562Y-84570291D01*
X156339412Y-84406860D01*
X156170689Y-84209311D01*
X156051563Y-84107567D01*
X155973143Y-84040590D01*
X155973140Y-84040588D01*
X155751628Y-83904846D01*
X155656470Y-83865430D01*
X155511610Y-83805426D01*
X155258995Y-83744779D01*
X155000000Y-83724396D01*
X154741004Y-83744779D01*
X154488389Y-83805426D01*
X154283524Y-83890285D01*
X154248372Y-83904846D01*
X154104359Y-83993096D01*
X154026856Y-84040590D01*
X153829311Y-84209311D01*
X153660590Y-84406856D01*
X153660588Y-84406860D01*
X153524846Y-84628372D01*
X153524379Y-84629500D01*
X153425426Y-84868389D01*
X153364779Y-85121004D01*
X153344396Y-85380000D01*
X116034368Y-85380000D01*
X116197876Y-85178084D01*
X116345671Y-84950500D01*
X116409123Y-84852793D01*
X116462162Y-84748698D01*
X116585214Y-84507194D01*
X116683939Y-84250008D01*
X123049500Y-84250008D01*
X123060000Y-84352796D01*
X123115186Y-84519334D01*
X123207288Y-84668657D01*
X123331342Y-84792711D01*
X123340013Y-84798059D01*
X123480666Y-84884814D01*
X123592017Y-84921712D01*
X123647202Y-84939999D01*
X123656729Y-84940972D01*
X123749991Y-84950500D01*
X124450008Y-84950499D01*
X124552797Y-84939999D01*
X124719334Y-84884814D01*
X124868656Y-84792712D01*
X124992712Y-84668656D01*
X125084814Y-84519334D01*
X125139999Y-84352797D01*
X125150500Y-84250009D01*
X125150499Y-83549992D01*
X125139999Y-83447203D01*
X125084814Y-83280666D01*
X124992712Y-83131344D01*
X124992711Y-83131342D01*
X124885557Y-83024188D01*
X124856716Y-82978917D01*
X124849710Y-82925699D01*
X124865851Y-82874507D01*
X124927179Y-82768284D01*
X124927179Y-82768283D01*
X124985674Y-82588256D01*
X125005460Y-82400000D01*
X124985674Y-82211744D01*
X124927179Y-82031716D01*
X124927179Y-82031715D01*
X124832533Y-81867783D01*
X124705870Y-81727110D01*
X124552730Y-81615848D01*
X124379802Y-81538855D01*
X124194648Y-81499500D01*
X124194646Y-81499500D01*
X124005354Y-81499500D01*
X124005352Y-81499500D01*
X123820197Y-81538855D01*
X123647269Y-81615848D01*
X123494129Y-81727110D01*
X123367466Y-81867783D01*
X123272820Y-82031715D01*
X123214326Y-82211742D01*
X123194540Y-82400000D01*
X123214326Y-82588257D01*
X123272820Y-82768284D01*
X123334148Y-82874507D01*
X123350289Y-82925700D01*
X123343283Y-82978917D01*
X123314443Y-83024188D01*
X123207287Y-83131344D01*
X123115186Y-83280665D01*
X123060000Y-83447202D01*
X123049500Y-83549991D01*
X123049500Y-84250008D01*
X116683939Y-84250008D01*
X116724214Y-84145087D01*
X116824602Y-83770433D01*
X116885278Y-83387338D01*
X116905578Y-83000000D01*
X116885278Y-82612662D01*
X116851596Y-82400000D01*
X116824603Y-82229570D01*
X116724214Y-81854913D01*
X116585214Y-81492806D01*
X116409123Y-81147206D01*
X116197878Y-80821919D01*
X116179634Y-80799389D01*
X115953781Y-80520484D01*
X115679516Y-80246219D01*
X115647589Y-80220365D01*
X115611315Y-80172051D01*
X115602176Y-80112330D01*
X115622344Y-80055379D01*
X115667030Y-80014718D01*
X115725626Y-80000000D01*
X168674374Y-80000000D01*
X168732970Y-80014718D01*
G37*
%TD.AperFunction*%
%TD*%
M02*
