M48
; DRILL file {KiCad 7.0.1} date Mon May 29 21:51:17 2023
; FORMAT={-:-/ absolute / inch / decimal}
; #@! TF.CreationDate,2023-05-29T21:51:17-06:00
; #@! TF.GenerationSoftware,Kicad,Pcbnew,7.0.1
; #@! TF.FileFunction,MixedPlating,1,2
FMAT,2
INCH
; #@! TA.AperFunction,Plated,PTH,ViaDrill
T1C0.0157
; #@! TA.AperFunction,Plated,PTH,ComponentDrill
T2C0.0197
; #@! TA.AperFunction,Plated,PTH,ComponentDrill
T3C0.0315
; #@! TA.AperFunction,Plated,PTH,ComponentDrill
T4C0.0394
; #@! TA.AperFunction,Plated,PTH,ComponentDrill
T5C0.0402
; #@! TA.AperFunction,Plated,PTH,ComponentDrill
T6C0.0512
; #@! TA.AperFunction,Plated,PTH,ComponentDrill
T7C0.1260
; #@! TA.AperFunction,NonPlated,NPTH,ComponentDrill
T8C0.1181
%
G90
G05
T1
X4.8583Y-4.5236
X4.8858Y-3.2441
X4.9685Y-4.1535
X4.9724Y-4.4134
X5.0669Y-3.6496
X5.2323Y-4.063
X5.3228Y-3.8189
X5.4606Y-3.8976
X5.5394Y-4.1299
X5.6614Y-3.9961
X5.8425Y-4.6142
X6.1102Y-4.4094
T2
X4.3622Y-3.2677
X4.3622Y-4.7638
X4.3899Y-3.2009
X4.3899Y-3.3345
X4.3899Y-4.697
X4.3899Y-4.8306
X4.4567Y-3.1732
X4.4567Y-3.3622
X4.4567Y-4.6693
X4.4567Y-4.8583
X4.5235Y-3.2009
X4.5235Y-3.3345
X4.5235Y-4.697
X4.5235Y-4.8306
X4.5512Y-3.2677
X4.5512Y-4.7638
X6.6457Y-3.2677
X6.6457Y-4.7638
X6.6733Y-3.2009
X6.6733Y-3.3345
X6.6733Y-4.697
X6.6733Y-4.8306
X6.7402Y-3.1732
X6.7402Y-3.3622
X6.7402Y-4.6693
X6.7402Y-4.8583
X6.807Y-3.2009
X6.807Y-3.3345
X6.807Y-4.697
X6.807Y-4.8306
X6.8346Y-3.2677
X6.8346Y-4.7638
T3
X4.8472Y-4.6457
X4.9472Y-4.7457
X5.0472Y-4.6457
T4
X4.626Y-4.563
X4.748Y-4.1063
T5
X4.7642Y-3.5827
X4.7642Y-3.8583
X4.8823Y-3.5827
X4.8823Y-3.8583
X6.3539Y-3.622
X6.472Y-3.622
T6
X5.8024Y-4.0614
X6.1024Y-3.3614
X6.1024Y-3.6614
X6.1024Y-4.0614
T7
X4.4567Y-3.2677
X4.4567Y-4.7638
X6.7402Y-3.2677
X6.7402Y-4.7638
T8
X4.5949Y-3.5827
X4.5949Y-3.8583
X6.6413Y-3.622
T0
M30
