%TF.GenerationSoftware,KiCad,Pcbnew,7.0.1*%
%TF.CreationDate,2023-05-29T21:51:14-06:00*%
%TF.ProjectId,Over_Voltage_Latch,4f766572-5f56-46f6-9c74-6167655f4c61,1*%
%TF.SameCoordinates,Original*%
%TF.FileFunction,Legend,Top*%
%TF.FilePolarity,Positive*%
%FSLAX46Y46*%
G04 Gerber Fmt 4.6, Leading zero omitted, Abs format (unit mm)*
G04 Created by KiCad (PCBNEW 7.0.1) date 2023-05-29 21:51:14*
%MOMM*%
%LPD*%
G01*
G04 APERTURE LIST*
%ADD10C,0.150000*%
%ADD11C,0.120000*%
%ADD12C,0.127000*%
G04 APERTURE END LIST*
D10*
X167138095Y-89377619D02*
X167138095Y-88377619D01*
X167614285Y-88710952D02*
X167614285Y-89377619D01*
X167614285Y-88806190D02*
X167661904Y-88758571D01*
X167661904Y-88758571D02*
X167757142Y-88710952D01*
X167757142Y-88710952D02*
X167899999Y-88710952D01*
X167899999Y-88710952D02*
X167995237Y-88758571D01*
X167995237Y-88758571D02*
X168042856Y-88853809D01*
X168042856Y-88853809D02*
X168042856Y-89377619D01*
X168376190Y-88710952D02*
X168757142Y-88710952D01*
X168519047Y-88377619D02*
X168519047Y-89234761D01*
X168519047Y-89234761D02*
X168566666Y-89330000D01*
X168566666Y-89330000D02*
X168661904Y-89377619D01*
X168661904Y-89377619D02*
X168757142Y-89377619D01*
X169471428Y-89330000D02*
X169376190Y-89377619D01*
X169376190Y-89377619D02*
X169185714Y-89377619D01*
X169185714Y-89377619D02*
X169090476Y-89330000D01*
X169090476Y-89330000D02*
X169042857Y-89234761D01*
X169042857Y-89234761D02*
X169042857Y-88853809D01*
X169042857Y-88853809D02*
X169090476Y-88758571D01*
X169090476Y-88758571D02*
X169185714Y-88710952D01*
X169185714Y-88710952D02*
X169376190Y-88710952D01*
X169376190Y-88710952D02*
X169471428Y-88758571D01*
X169471428Y-88758571D02*
X169519047Y-88853809D01*
X169519047Y-88853809D02*
X169519047Y-88949047D01*
X169519047Y-88949047D02*
X169042857Y-89044285D01*
X169947619Y-89377619D02*
X169947619Y-88710952D01*
X169947619Y-88901428D02*
X169995238Y-88806190D01*
X169995238Y-88806190D02*
X170042857Y-88758571D01*
X170042857Y-88758571D02*
X170138095Y-88710952D01*
X170138095Y-88710952D02*
X170233333Y-88710952D01*
X170709524Y-89377619D02*
X170614286Y-89330000D01*
X170614286Y-89330000D02*
X170566667Y-89234761D01*
X170566667Y-89234761D02*
X170566667Y-88377619D01*
X171233334Y-89377619D02*
X171138096Y-89330000D01*
X171138096Y-89330000D02*
X171090477Y-89282380D01*
X171090477Y-89282380D02*
X171042858Y-89187142D01*
X171042858Y-89187142D02*
X171042858Y-88901428D01*
X171042858Y-88901428D02*
X171090477Y-88806190D01*
X171090477Y-88806190D02*
X171138096Y-88758571D01*
X171138096Y-88758571D02*
X171233334Y-88710952D01*
X171233334Y-88710952D02*
X171376191Y-88710952D01*
X171376191Y-88710952D02*
X171471429Y-88758571D01*
X171471429Y-88758571D02*
X171519048Y-88806190D01*
X171519048Y-88806190D02*
X171566667Y-88901428D01*
X171566667Y-88901428D02*
X171566667Y-89187142D01*
X171566667Y-89187142D02*
X171519048Y-89282380D01*
X171519048Y-89282380D02*
X171471429Y-89330000D01*
X171471429Y-89330000D02*
X171376191Y-89377619D01*
X171376191Y-89377619D02*
X171233334Y-89377619D01*
X172423810Y-89330000D02*
X172328572Y-89377619D01*
X172328572Y-89377619D02*
X172138096Y-89377619D01*
X172138096Y-89377619D02*
X172042858Y-89330000D01*
X172042858Y-89330000D02*
X171995239Y-89282380D01*
X171995239Y-89282380D02*
X171947620Y-89187142D01*
X171947620Y-89187142D02*
X171947620Y-88901428D01*
X171947620Y-88901428D02*
X171995239Y-88806190D01*
X171995239Y-88806190D02*
X172042858Y-88758571D01*
X172042858Y-88758571D02*
X172138096Y-88710952D01*
X172138096Y-88710952D02*
X172328572Y-88710952D01*
X172328572Y-88710952D02*
X172423810Y-88758571D01*
X172852382Y-89377619D02*
X172852382Y-88377619D01*
X172947620Y-88996666D02*
X173233334Y-89377619D01*
X173233334Y-88710952D02*
X172852382Y-89091904D01*
X112195238Y-94377619D02*
X112528571Y-95377619D01*
X112528571Y-95377619D02*
X112861904Y-94377619D01*
X113338095Y-95377619D02*
X113242857Y-95330000D01*
X113242857Y-95330000D02*
X113195238Y-95282380D01*
X113195238Y-95282380D02*
X113147619Y-95187142D01*
X113147619Y-95187142D02*
X113147619Y-94901428D01*
X113147619Y-94901428D02*
X113195238Y-94806190D01*
X113195238Y-94806190D02*
X113242857Y-94758571D01*
X113242857Y-94758571D02*
X113338095Y-94710952D01*
X113338095Y-94710952D02*
X113480952Y-94710952D01*
X113480952Y-94710952D02*
X113576190Y-94758571D01*
X113576190Y-94758571D02*
X113623809Y-94806190D01*
X113623809Y-94806190D02*
X113671428Y-94901428D01*
X113671428Y-94901428D02*
X113671428Y-95187142D01*
X113671428Y-95187142D02*
X113623809Y-95282380D01*
X113623809Y-95282380D02*
X113576190Y-95330000D01*
X113576190Y-95330000D02*
X113480952Y-95377619D01*
X113480952Y-95377619D02*
X113338095Y-95377619D01*
X114242857Y-95377619D02*
X114147619Y-95330000D01*
X114147619Y-95330000D02*
X114100000Y-95234761D01*
X114100000Y-95234761D02*
X114100000Y-94377619D01*
X114480953Y-94710952D02*
X114861905Y-94710952D01*
X114623810Y-94377619D02*
X114623810Y-95234761D01*
X114623810Y-95234761D02*
X114671429Y-95330000D01*
X114671429Y-95330000D02*
X114766667Y-95377619D01*
X114766667Y-95377619D02*
X114861905Y-95377619D01*
X115623810Y-95377619D02*
X115623810Y-94853809D01*
X115623810Y-94853809D02*
X115576191Y-94758571D01*
X115576191Y-94758571D02*
X115480953Y-94710952D01*
X115480953Y-94710952D02*
X115290477Y-94710952D01*
X115290477Y-94710952D02*
X115195239Y-94758571D01*
X115623810Y-95330000D02*
X115528572Y-95377619D01*
X115528572Y-95377619D02*
X115290477Y-95377619D01*
X115290477Y-95377619D02*
X115195239Y-95330000D01*
X115195239Y-95330000D02*
X115147620Y-95234761D01*
X115147620Y-95234761D02*
X115147620Y-95139523D01*
X115147620Y-95139523D02*
X115195239Y-95044285D01*
X115195239Y-95044285D02*
X115290477Y-94996666D01*
X115290477Y-94996666D02*
X115528572Y-94996666D01*
X115528572Y-94996666D02*
X115623810Y-94949047D01*
X116528572Y-94710952D02*
X116528572Y-95520476D01*
X116528572Y-95520476D02*
X116480953Y-95615714D01*
X116480953Y-95615714D02*
X116433334Y-95663333D01*
X116433334Y-95663333D02*
X116338096Y-95710952D01*
X116338096Y-95710952D02*
X116195239Y-95710952D01*
X116195239Y-95710952D02*
X116100001Y-95663333D01*
X116528572Y-95330000D02*
X116433334Y-95377619D01*
X116433334Y-95377619D02*
X116242858Y-95377619D01*
X116242858Y-95377619D02*
X116147620Y-95330000D01*
X116147620Y-95330000D02*
X116100001Y-95282380D01*
X116100001Y-95282380D02*
X116052382Y-95187142D01*
X116052382Y-95187142D02*
X116052382Y-94901428D01*
X116052382Y-94901428D02*
X116100001Y-94806190D01*
X116100001Y-94806190D02*
X116147620Y-94758571D01*
X116147620Y-94758571D02*
X116242858Y-94710952D01*
X116242858Y-94710952D02*
X116433334Y-94710952D01*
X116433334Y-94710952D02*
X116528572Y-94758571D01*
X117385715Y-95330000D02*
X117290477Y-95377619D01*
X117290477Y-95377619D02*
X117100001Y-95377619D01*
X117100001Y-95377619D02*
X117004763Y-95330000D01*
X117004763Y-95330000D02*
X116957144Y-95234761D01*
X116957144Y-95234761D02*
X116957144Y-94853809D01*
X116957144Y-94853809D02*
X117004763Y-94758571D01*
X117004763Y-94758571D02*
X117100001Y-94710952D01*
X117100001Y-94710952D02*
X117290477Y-94710952D01*
X117290477Y-94710952D02*
X117385715Y-94758571D01*
X117385715Y-94758571D02*
X117433334Y-94853809D01*
X117433334Y-94853809D02*
X117433334Y-94949047D01*
X117433334Y-94949047D02*
X116957144Y-95044285D01*
X118623811Y-95377619D02*
X118623811Y-94377619D01*
X119100001Y-94710952D02*
X119100001Y-95377619D01*
X119100001Y-94806190D02*
X119147620Y-94758571D01*
X119147620Y-94758571D02*
X119242858Y-94710952D01*
X119242858Y-94710952D02*
X119385715Y-94710952D01*
X119385715Y-94710952D02*
X119480953Y-94758571D01*
X119480953Y-94758571D02*
X119528572Y-94853809D01*
X119528572Y-94853809D02*
X119528572Y-95377619D01*
X120004763Y-94710952D02*
X120004763Y-95710952D01*
X120004763Y-94758571D02*
X120100001Y-94710952D01*
X120100001Y-94710952D02*
X120290477Y-94710952D01*
X120290477Y-94710952D02*
X120385715Y-94758571D01*
X120385715Y-94758571D02*
X120433334Y-94806190D01*
X120433334Y-94806190D02*
X120480953Y-94901428D01*
X120480953Y-94901428D02*
X120480953Y-95187142D01*
X120480953Y-95187142D02*
X120433334Y-95282380D01*
X120433334Y-95282380D02*
X120385715Y-95330000D01*
X120385715Y-95330000D02*
X120290477Y-95377619D01*
X120290477Y-95377619D02*
X120100001Y-95377619D01*
X120100001Y-95377619D02*
X120004763Y-95330000D01*
X121338096Y-94710952D02*
X121338096Y-95377619D01*
X120909525Y-94710952D02*
X120909525Y-95234761D01*
X120909525Y-95234761D02*
X120957144Y-95330000D01*
X120957144Y-95330000D02*
X121052382Y-95377619D01*
X121052382Y-95377619D02*
X121195239Y-95377619D01*
X121195239Y-95377619D02*
X121290477Y-95330000D01*
X121290477Y-95330000D02*
X121338096Y-95282380D01*
X121671430Y-94710952D02*
X122052382Y-94710952D01*
X121814287Y-94377619D02*
X121814287Y-95234761D01*
X121814287Y-95234761D02*
X121861906Y-95330000D01*
X121861906Y-95330000D02*
X121957144Y-95377619D01*
X121957144Y-95377619D02*
X122052382Y-95377619D01*
X112761904Y-88377619D02*
X112190476Y-88377619D01*
X112476190Y-88377619D02*
X112476190Y-87377619D01*
X112476190Y-87377619D02*
X112380952Y-87520476D01*
X112380952Y-87520476D02*
X112285714Y-87615714D01*
X112285714Y-87615714D02*
X112190476Y-87663333D01*
X113142857Y-87472857D02*
X113190476Y-87425238D01*
X113190476Y-87425238D02*
X113285714Y-87377619D01*
X113285714Y-87377619D02*
X113523809Y-87377619D01*
X113523809Y-87377619D02*
X113619047Y-87425238D01*
X113619047Y-87425238D02*
X113666666Y-87472857D01*
X113666666Y-87472857D02*
X113714285Y-87568095D01*
X113714285Y-87568095D02*
X113714285Y-87663333D01*
X113714285Y-87663333D02*
X113666666Y-87806190D01*
X113666666Y-87806190D02*
X113095238Y-88377619D01*
X113095238Y-88377619D02*
X113714285Y-88377619D01*
X114000000Y-87377619D02*
X114333333Y-88377619D01*
X114333333Y-88377619D02*
X114666666Y-87377619D01*
X115761905Y-88377619D02*
X115761905Y-87377619D01*
X115761905Y-87377619D02*
X116142857Y-87377619D01*
X116142857Y-87377619D02*
X116238095Y-87425238D01*
X116238095Y-87425238D02*
X116285714Y-87472857D01*
X116285714Y-87472857D02*
X116333333Y-87568095D01*
X116333333Y-87568095D02*
X116333333Y-87710952D01*
X116333333Y-87710952D02*
X116285714Y-87806190D01*
X116285714Y-87806190D02*
X116238095Y-87853809D01*
X116238095Y-87853809D02*
X116142857Y-87901428D01*
X116142857Y-87901428D02*
X115761905Y-87901428D01*
X116904762Y-88377619D02*
X116809524Y-88330000D01*
X116809524Y-88330000D02*
X116761905Y-88282380D01*
X116761905Y-88282380D02*
X116714286Y-88187142D01*
X116714286Y-88187142D02*
X116714286Y-87901428D01*
X116714286Y-87901428D02*
X116761905Y-87806190D01*
X116761905Y-87806190D02*
X116809524Y-87758571D01*
X116809524Y-87758571D02*
X116904762Y-87710952D01*
X116904762Y-87710952D02*
X117047619Y-87710952D01*
X117047619Y-87710952D02*
X117142857Y-87758571D01*
X117142857Y-87758571D02*
X117190476Y-87806190D01*
X117190476Y-87806190D02*
X117238095Y-87901428D01*
X117238095Y-87901428D02*
X117238095Y-88187142D01*
X117238095Y-88187142D02*
X117190476Y-88282380D01*
X117190476Y-88282380D02*
X117142857Y-88330000D01*
X117142857Y-88330000D02*
X117047619Y-88377619D01*
X117047619Y-88377619D02*
X116904762Y-88377619D01*
X117571429Y-87710952D02*
X117761905Y-88377619D01*
X117761905Y-88377619D02*
X117952381Y-87901428D01*
X117952381Y-87901428D02*
X118142857Y-88377619D01*
X118142857Y-88377619D02*
X118333333Y-87710952D01*
X119095238Y-88330000D02*
X119000000Y-88377619D01*
X119000000Y-88377619D02*
X118809524Y-88377619D01*
X118809524Y-88377619D02*
X118714286Y-88330000D01*
X118714286Y-88330000D02*
X118666667Y-88234761D01*
X118666667Y-88234761D02*
X118666667Y-87853809D01*
X118666667Y-87853809D02*
X118714286Y-87758571D01*
X118714286Y-87758571D02*
X118809524Y-87710952D01*
X118809524Y-87710952D02*
X119000000Y-87710952D01*
X119000000Y-87710952D02*
X119095238Y-87758571D01*
X119095238Y-87758571D02*
X119142857Y-87853809D01*
X119142857Y-87853809D02*
X119142857Y-87949047D01*
X119142857Y-87949047D02*
X118666667Y-88044285D01*
X119571429Y-88377619D02*
X119571429Y-87710952D01*
X119571429Y-87901428D02*
X119619048Y-87806190D01*
X119619048Y-87806190D02*
X119666667Y-87758571D01*
X119666667Y-87758571D02*
X119761905Y-87710952D01*
X119761905Y-87710952D02*
X119857143Y-87710952D01*
X116428571Y-123277619D02*
X116619047Y-123277619D01*
X116619047Y-123277619D02*
X116714285Y-123325238D01*
X116714285Y-123325238D02*
X116809523Y-123420476D01*
X116809523Y-123420476D02*
X116857142Y-123610952D01*
X116857142Y-123610952D02*
X116857142Y-123944285D01*
X116857142Y-123944285D02*
X116809523Y-124134761D01*
X116809523Y-124134761D02*
X116714285Y-124230000D01*
X116714285Y-124230000D02*
X116619047Y-124277619D01*
X116619047Y-124277619D02*
X116428571Y-124277619D01*
X116428571Y-124277619D02*
X116333333Y-124230000D01*
X116333333Y-124230000D02*
X116238095Y-124134761D01*
X116238095Y-124134761D02*
X116190476Y-123944285D01*
X116190476Y-123944285D02*
X116190476Y-123610952D01*
X116190476Y-123610952D02*
X116238095Y-123420476D01*
X116238095Y-123420476D02*
X116333333Y-123325238D01*
X116333333Y-123325238D02*
X116428571Y-123277619D01*
X117190476Y-123610952D02*
X117428571Y-124277619D01*
X117428571Y-124277619D02*
X117666666Y-123610952D01*
X118428571Y-124230000D02*
X118333333Y-124277619D01*
X118333333Y-124277619D02*
X118142857Y-124277619D01*
X118142857Y-124277619D02*
X118047619Y-124230000D01*
X118047619Y-124230000D02*
X118000000Y-124134761D01*
X118000000Y-124134761D02*
X118000000Y-123753809D01*
X118000000Y-123753809D02*
X118047619Y-123658571D01*
X118047619Y-123658571D02*
X118142857Y-123610952D01*
X118142857Y-123610952D02*
X118333333Y-123610952D01*
X118333333Y-123610952D02*
X118428571Y-123658571D01*
X118428571Y-123658571D02*
X118476190Y-123753809D01*
X118476190Y-123753809D02*
X118476190Y-123849047D01*
X118476190Y-123849047D02*
X118000000Y-123944285D01*
X118904762Y-124277619D02*
X118904762Y-123610952D01*
X118904762Y-123801428D02*
X118952381Y-123706190D01*
X118952381Y-123706190D02*
X119000000Y-123658571D01*
X119000000Y-123658571D02*
X119095238Y-123610952D01*
X119095238Y-123610952D02*
X119190476Y-123610952D01*
X120142858Y-123277619D02*
X120476191Y-124277619D01*
X120476191Y-124277619D02*
X120809524Y-123277619D01*
X121285715Y-124277619D02*
X121190477Y-124230000D01*
X121190477Y-124230000D02*
X121142858Y-124182380D01*
X121142858Y-124182380D02*
X121095239Y-124087142D01*
X121095239Y-124087142D02*
X121095239Y-123801428D01*
X121095239Y-123801428D02*
X121142858Y-123706190D01*
X121142858Y-123706190D02*
X121190477Y-123658571D01*
X121190477Y-123658571D02*
X121285715Y-123610952D01*
X121285715Y-123610952D02*
X121428572Y-123610952D01*
X121428572Y-123610952D02*
X121523810Y-123658571D01*
X121523810Y-123658571D02*
X121571429Y-123706190D01*
X121571429Y-123706190D02*
X121619048Y-123801428D01*
X121619048Y-123801428D02*
X121619048Y-124087142D01*
X121619048Y-124087142D02*
X121571429Y-124182380D01*
X121571429Y-124182380D02*
X121523810Y-124230000D01*
X121523810Y-124230000D02*
X121428572Y-124277619D01*
X121428572Y-124277619D02*
X121285715Y-124277619D01*
X122190477Y-124277619D02*
X122095239Y-124230000D01*
X122095239Y-124230000D02*
X122047620Y-124134761D01*
X122047620Y-124134761D02*
X122047620Y-123277619D01*
X122428573Y-123610952D02*
X122809525Y-123610952D01*
X122571430Y-123277619D02*
X122571430Y-124134761D01*
X122571430Y-124134761D02*
X122619049Y-124230000D01*
X122619049Y-124230000D02*
X122714287Y-124277619D01*
X122714287Y-124277619D02*
X122809525Y-124277619D01*
X123571430Y-124277619D02*
X123571430Y-123753809D01*
X123571430Y-123753809D02*
X123523811Y-123658571D01*
X123523811Y-123658571D02*
X123428573Y-123610952D01*
X123428573Y-123610952D02*
X123238097Y-123610952D01*
X123238097Y-123610952D02*
X123142859Y-123658571D01*
X123571430Y-124230000D02*
X123476192Y-124277619D01*
X123476192Y-124277619D02*
X123238097Y-124277619D01*
X123238097Y-124277619D02*
X123142859Y-124230000D01*
X123142859Y-124230000D02*
X123095240Y-124134761D01*
X123095240Y-124134761D02*
X123095240Y-124039523D01*
X123095240Y-124039523D02*
X123142859Y-123944285D01*
X123142859Y-123944285D02*
X123238097Y-123896666D01*
X123238097Y-123896666D02*
X123476192Y-123896666D01*
X123476192Y-123896666D02*
X123571430Y-123849047D01*
X124476192Y-123610952D02*
X124476192Y-124420476D01*
X124476192Y-124420476D02*
X124428573Y-124515714D01*
X124428573Y-124515714D02*
X124380954Y-124563333D01*
X124380954Y-124563333D02*
X124285716Y-124610952D01*
X124285716Y-124610952D02*
X124142859Y-124610952D01*
X124142859Y-124610952D02*
X124047621Y-124563333D01*
X124476192Y-124230000D02*
X124380954Y-124277619D01*
X124380954Y-124277619D02*
X124190478Y-124277619D01*
X124190478Y-124277619D02*
X124095240Y-124230000D01*
X124095240Y-124230000D02*
X124047621Y-124182380D01*
X124047621Y-124182380D02*
X124000002Y-124087142D01*
X124000002Y-124087142D02*
X124000002Y-123801428D01*
X124000002Y-123801428D02*
X124047621Y-123706190D01*
X124047621Y-123706190D02*
X124095240Y-123658571D01*
X124095240Y-123658571D02*
X124190478Y-123610952D01*
X124190478Y-123610952D02*
X124380954Y-123610952D01*
X124380954Y-123610952D02*
X124476192Y-123658571D01*
X125333335Y-124230000D02*
X125238097Y-124277619D01*
X125238097Y-124277619D02*
X125047621Y-124277619D01*
X125047621Y-124277619D02*
X124952383Y-124230000D01*
X124952383Y-124230000D02*
X124904764Y-124134761D01*
X124904764Y-124134761D02*
X124904764Y-123753809D01*
X124904764Y-123753809D02*
X124952383Y-123658571D01*
X124952383Y-123658571D02*
X125047621Y-123610952D01*
X125047621Y-123610952D02*
X125238097Y-123610952D01*
X125238097Y-123610952D02*
X125333335Y-123658571D01*
X125333335Y-123658571D02*
X125380954Y-123753809D01*
X125380954Y-123753809D02*
X125380954Y-123849047D01*
X125380954Y-123849047D02*
X124904764Y-123944285D01*
X127047621Y-124277619D02*
X126571431Y-124277619D01*
X126571431Y-124277619D02*
X126571431Y-123277619D01*
X127809526Y-124277619D02*
X127809526Y-123753809D01*
X127809526Y-123753809D02*
X127761907Y-123658571D01*
X127761907Y-123658571D02*
X127666669Y-123610952D01*
X127666669Y-123610952D02*
X127476193Y-123610952D01*
X127476193Y-123610952D02*
X127380955Y-123658571D01*
X127809526Y-124230000D02*
X127714288Y-124277619D01*
X127714288Y-124277619D02*
X127476193Y-124277619D01*
X127476193Y-124277619D02*
X127380955Y-124230000D01*
X127380955Y-124230000D02*
X127333336Y-124134761D01*
X127333336Y-124134761D02*
X127333336Y-124039523D01*
X127333336Y-124039523D02*
X127380955Y-123944285D01*
X127380955Y-123944285D02*
X127476193Y-123896666D01*
X127476193Y-123896666D02*
X127714288Y-123896666D01*
X127714288Y-123896666D02*
X127809526Y-123849047D01*
X128142860Y-123610952D02*
X128523812Y-123610952D01*
X128285717Y-123277619D02*
X128285717Y-124134761D01*
X128285717Y-124134761D02*
X128333336Y-124230000D01*
X128333336Y-124230000D02*
X128428574Y-124277619D01*
X128428574Y-124277619D02*
X128523812Y-124277619D01*
X129285717Y-124230000D02*
X129190479Y-124277619D01*
X129190479Y-124277619D02*
X129000003Y-124277619D01*
X129000003Y-124277619D02*
X128904765Y-124230000D01*
X128904765Y-124230000D02*
X128857146Y-124182380D01*
X128857146Y-124182380D02*
X128809527Y-124087142D01*
X128809527Y-124087142D02*
X128809527Y-123801428D01*
X128809527Y-123801428D02*
X128857146Y-123706190D01*
X128857146Y-123706190D02*
X128904765Y-123658571D01*
X128904765Y-123658571D02*
X129000003Y-123610952D01*
X129000003Y-123610952D02*
X129190479Y-123610952D01*
X129190479Y-123610952D02*
X129285717Y-123658571D01*
X129714289Y-124277619D02*
X129714289Y-123277619D01*
X130142860Y-124277619D02*
X130142860Y-123753809D01*
X130142860Y-123753809D02*
X130095241Y-123658571D01*
X130095241Y-123658571D02*
X130000003Y-123610952D01*
X130000003Y-123610952D02*
X129857146Y-123610952D01*
X129857146Y-123610952D02*
X129761908Y-123658571D01*
X129761908Y-123658571D02*
X129714289Y-123706190D01*
X116661904Y-113025238D02*
X116566666Y-112977619D01*
X116566666Y-112977619D02*
X116423809Y-112977619D01*
X116423809Y-112977619D02*
X116280952Y-113025238D01*
X116280952Y-113025238D02*
X116185714Y-113120476D01*
X116185714Y-113120476D02*
X116138095Y-113215714D01*
X116138095Y-113215714D02*
X116090476Y-113406190D01*
X116090476Y-113406190D02*
X116090476Y-113549047D01*
X116090476Y-113549047D02*
X116138095Y-113739523D01*
X116138095Y-113739523D02*
X116185714Y-113834761D01*
X116185714Y-113834761D02*
X116280952Y-113930000D01*
X116280952Y-113930000D02*
X116423809Y-113977619D01*
X116423809Y-113977619D02*
X116519047Y-113977619D01*
X116519047Y-113977619D02*
X116661904Y-113930000D01*
X116661904Y-113930000D02*
X116709523Y-113882380D01*
X116709523Y-113882380D02*
X116709523Y-113549047D01*
X116709523Y-113549047D02*
X116519047Y-113549047D01*
X117138095Y-113977619D02*
X117138095Y-112977619D01*
X117138095Y-112977619D02*
X117709523Y-113977619D01*
X117709523Y-113977619D02*
X117709523Y-112977619D01*
X118185714Y-113977619D02*
X118185714Y-112977619D01*
X118185714Y-112977619D02*
X118423809Y-112977619D01*
X118423809Y-112977619D02*
X118566666Y-113025238D01*
X118566666Y-113025238D02*
X118661904Y-113120476D01*
X118661904Y-113120476D02*
X118709523Y-113215714D01*
X118709523Y-113215714D02*
X118757142Y-113406190D01*
X118757142Y-113406190D02*
X118757142Y-113549047D01*
X118757142Y-113549047D02*
X118709523Y-113739523D01*
X118709523Y-113739523D02*
X118661904Y-113834761D01*
X118661904Y-113834761D02*
X118566666Y-113930000D01*
X118566666Y-113930000D02*
X118423809Y-113977619D01*
X118423809Y-113977619D02*
X118185714Y-113977619D01*
X116909523Y-80377619D02*
X116576190Y-79901428D01*
X116338095Y-80377619D02*
X116338095Y-79377619D01*
X116338095Y-79377619D02*
X116719047Y-79377619D01*
X116719047Y-79377619D02*
X116814285Y-79425238D01*
X116814285Y-79425238D02*
X116861904Y-79472857D01*
X116861904Y-79472857D02*
X116909523Y-79568095D01*
X116909523Y-79568095D02*
X116909523Y-79710952D01*
X116909523Y-79710952D02*
X116861904Y-79806190D01*
X116861904Y-79806190D02*
X116814285Y-79853809D01*
X116814285Y-79853809D02*
X116719047Y-79901428D01*
X116719047Y-79901428D02*
X116338095Y-79901428D01*
X117338095Y-79853809D02*
X117671428Y-79853809D01*
X117814285Y-80377619D02*
X117338095Y-80377619D01*
X117338095Y-80377619D02*
X117338095Y-79377619D01*
X117338095Y-79377619D02*
X117814285Y-79377619D01*
X118100000Y-79377619D02*
X118433333Y-80377619D01*
X118433333Y-80377619D02*
X118766666Y-79377619D01*
X119623809Y-80377619D02*
X119052381Y-80377619D01*
X119338095Y-80377619D02*
X119338095Y-79377619D01*
X119338095Y-79377619D02*
X119242857Y-79520476D01*
X119242857Y-79520476D02*
X119147619Y-79615714D01*
X119147619Y-79615714D02*
X119052381Y-79663333D01*
X163538095Y-124677619D02*
X163538095Y-123677619D01*
X163538095Y-123677619D02*
X164109523Y-124677619D01*
X164109523Y-124677619D02*
X164109523Y-123677619D01*
X164966666Y-124630000D02*
X164871428Y-124677619D01*
X164871428Y-124677619D02*
X164680952Y-124677619D01*
X164680952Y-124677619D02*
X164585714Y-124630000D01*
X164585714Y-124630000D02*
X164538095Y-124534761D01*
X164538095Y-124534761D02*
X164538095Y-124153809D01*
X164538095Y-124153809D02*
X164585714Y-124058571D01*
X164585714Y-124058571D02*
X164680952Y-124010952D01*
X164680952Y-124010952D02*
X164871428Y-124010952D01*
X164871428Y-124010952D02*
X164966666Y-124058571D01*
X164966666Y-124058571D02*
X165014285Y-124153809D01*
X165014285Y-124153809D02*
X165014285Y-124249047D01*
X165014285Y-124249047D02*
X164538095Y-124344285D01*
X165347619Y-124010952D02*
X165538095Y-124677619D01*
X165538095Y-124677619D02*
X165728571Y-124201428D01*
X165728571Y-124201428D02*
X165919047Y-124677619D01*
X165919047Y-124677619D02*
X166109523Y-124010952D01*
X166347619Y-124010952D02*
X166728571Y-124010952D01*
X166490476Y-123677619D02*
X166490476Y-124534761D01*
X166490476Y-124534761D02*
X166538095Y-124630000D01*
X166538095Y-124630000D02*
X166633333Y-124677619D01*
X166633333Y-124677619D02*
X166728571Y-124677619D01*
X167204762Y-124677619D02*
X167109524Y-124630000D01*
X167109524Y-124630000D02*
X167061905Y-124582380D01*
X167061905Y-124582380D02*
X167014286Y-124487142D01*
X167014286Y-124487142D02*
X167014286Y-124201428D01*
X167014286Y-124201428D02*
X167061905Y-124106190D01*
X167061905Y-124106190D02*
X167109524Y-124058571D01*
X167109524Y-124058571D02*
X167204762Y-124010952D01*
X167204762Y-124010952D02*
X167347619Y-124010952D01*
X167347619Y-124010952D02*
X167442857Y-124058571D01*
X167442857Y-124058571D02*
X167490476Y-124106190D01*
X167490476Y-124106190D02*
X167538095Y-124201428D01*
X167538095Y-124201428D02*
X167538095Y-124487142D01*
X167538095Y-124487142D02*
X167490476Y-124582380D01*
X167490476Y-124582380D02*
X167442857Y-124630000D01*
X167442857Y-124630000D02*
X167347619Y-124677619D01*
X167347619Y-124677619D02*
X167204762Y-124677619D01*
X167966667Y-124010952D02*
X167966667Y-124677619D01*
X167966667Y-124106190D02*
X168014286Y-124058571D01*
X168014286Y-124058571D02*
X168109524Y-124010952D01*
X168109524Y-124010952D02*
X168252381Y-124010952D01*
X168252381Y-124010952D02*
X168347619Y-124058571D01*
X168347619Y-124058571D02*
X168395238Y-124153809D01*
X168395238Y-124153809D02*
X168395238Y-124677619D01*
X116809523Y-104677619D02*
X116476190Y-104201428D01*
X116238095Y-104677619D02*
X116238095Y-103677619D01*
X116238095Y-103677619D02*
X116619047Y-103677619D01*
X116619047Y-103677619D02*
X116714285Y-103725238D01*
X116714285Y-103725238D02*
X116761904Y-103772857D01*
X116761904Y-103772857D02*
X116809523Y-103868095D01*
X116809523Y-103868095D02*
X116809523Y-104010952D01*
X116809523Y-104010952D02*
X116761904Y-104106190D01*
X116761904Y-104106190D02*
X116714285Y-104153809D01*
X116714285Y-104153809D02*
X116619047Y-104201428D01*
X116619047Y-104201428D02*
X116238095Y-104201428D01*
X117238095Y-104153809D02*
X117571428Y-104153809D01*
X117714285Y-104677619D02*
X117238095Y-104677619D01*
X117238095Y-104677619D02*
X117238095Y-103677619D01*
X117238095Y-103677619D02*
X117714285Y-103677619D01*
X118476190Y-104153809D02*
X118142857Y-104153809D01*
X118142857Y-104677619D02*
X118142857Y-103677619D01*
X118142857Y-103677619D02*
X118619047Y-103677619D01*
%TO.C,C3*%
X140747380Y-101566666D02*
X140795000Y-101614285D01*
X140795000Y-101614285D02*
X140842619Y-101757142D01*
X140842619Y-101757142D02*
X140842619Y-101852380D01*
X140842619Y-101852380D02*
X140795000Y-101995237D01*
X140795000Y-101995237D02*
X140699761Y-102090475D01*
X140699761Y-102090475D02*
X140604523Y-102138094D01*
X140604523Y-102138094D02*
X140414047Y-102185713D01*
X140414047Y-102185713D02*
X140271190Y-102185713D01*
X140271190Y-102185713D02*
X140080714Y-102138094D01*
X140080714Y-102138094D02*
X139985476Y-102090475D01*
X139985476Y-102090475D02*
X139890238Y-101995237D01*
X139890238Y-101995237D02*
X139842619Y-101852380D01*
X139842619Y-101852380D02*
X139842619Y-101757142D01*
X139842619Y-101757142D02*
X139890238Y-101614285D01*
X139890238Y-101614285D02*
X139937857Y-101566666D01*
X139842619Y-101233332D02*
X139842619Y-100614285D01*
X139842619Y-100614285D02*
X140223571Y-100947618D01*
X140223571Y-100947618D02*
X140223571Y-100804761D01*
X140223571Y-100804761D02*
X140271190Y-100709523D01*
X140271190Y-100709523D02*
X140318809Y-100661904D01*
X140318809Y-100661904D02*
X140414047Y-100614285D01*
X140414047Y-100614285D02*
X140652142Y-100614285D01*
X140652142Y-100614285D02*
X140747380Y-100661904D01*
X140747380Y-100661904D02*
X140795000Y-100709523D01*
X140795000Y-100709523D02*
X140842619Y-100804761D01*
X140842619Y-100804761D02*
X140842619Y-101090475D01*
X140842619Y-101090475D02*
X140795000Y-101185713D01*
X140795000Y-101185713D02*
X140747380Y-101233332D01*
%TO.C,D1*%
X147061905Y-106862619D02*
X147061905Y-105862619D01*
X147061905Y-105862619D02*
X147300000Y-105862619D01*
X147300000Y-105862619D02*
X147442857Y-105910238D01*
X147442857Y-105910238D02*
X147538095Y-106005476D01*
X147538095Y-106005476D02*
X147585714Y-106100714D01*
X147585714Y-106100714D02*
X147633333Y-106291190D01*
X147633333Y-106291190D02*
X147633333Y-106434047D01*
X147633333Y-106434047D02*
X147585714Y-106624523D01*
X147585714Y-106624523D02*
X147538095Y-106719761D01*
X147538095Y-106719761D02*
X147442857Y-106815000D01*
X147442857Y-106815000D02*
X147300000Y-106862619D01*
X147300000Y-106862619D02*
X147061905Y-106862619D01*
X148585714Y-106862619D02*
X148014286Y-106862619D01*
X148300000Y-106862619D02*
X148300000Y-105862619D01*
X148300000Y-105862619D02*
X148204762Y-106005476D01*
X148204762Y-106005476D02*
X148109524Y-106100714D01*
X148109524Y-106100714D02*
X148014286Y-106148333D01*
%TO.C,Q1*%
X150004761Y-110357857D02*
X149909523Y-110310238D01*
X149909523Y-110310238D02*
X149814285Y-110215000D01*
X149814285Y-110215000D02*
X149671428Y-110072142D01*
X149671428Y-110072142D02*
X149576190Y-110024523D01*
X149576190Y-110024523D02*
X149480952Y-110024523D01*
X149528571Y-110262619D02*
X149433333Y-110215000D01*
X149433333Y-110215000D02*
X149338095Y-110119761D01*
X149338095Y-110119761D02*
X149290476Y-109929285D01*
X149290476Y-109929285D02*
X149290476Y-109595952D01*
X149290476Y-109595952D02*
X149338095Y-109405476D01*
X149338095Y-109405476D02*
X149433333Y-109310238D01*
X149433333Y-109310238D02*
X149528571Y-109262619D01*
X149528571Y-109262619D02*
X149719047Y-109262619D01*
X149719047Y-109262619D02*
X149814285Y-109310238D01*
X149814285Y-109310238D02*
X149909523Y-109405476D01*
X149909523Y-109405476D02*
X149957142Y-109595952D01*
X149957142Y-109595952D02*
X149957142Y-109929285D01*
X149957142Y-109929285D02*
X149909523Y-110119761D01*
X149909523Y-110119761D02*
X149814285Y-110215000D01*
X149814285Y-110215000D02*
X149719047Y-110262619D01*
X149719047Y-110262619D02*
X149528571Y-110262619D01*
X150909523Y-110262619D02*
X150338095Y-110262619D01*
X150623809Y-110262619D02*
X150623809Y-109262619D01*
X150623809Y-109262619D02*
X150528571Y-109405476D01*
X150528571Y-109405476D02*
X150433333Y-109500714D01*
X150433333Y-109500714D02*
X150338095Y-109548333D01*
%TO.C,H1*%
X117038095Y-83462619D02*
X117038095Y-82462619D01*
X117038095Y-82938809D02*
X117609523Y-82938809D01*
X117609523Y-83462619D02*
X117609523Y-82462619D01*
X118609523Y-83462619D02*
X118038095Y-83462619D01*
X118323809Y-83462619D02*
X118323809Y-82462619D01*
X118323809Y-82462619D02*
X118228571Y-82605476D01*
X118228571Y-82605476D02*
X118133333Y-82700714D01*
X118133333Y-82700714D02*
X118038095Y-82748333D01*
%TO.C,TP2*%
X116938095Y-117862619D02*
X117509523Y-117862619D01*
X117223809Y-118862619D02*
X117223809Y-117862619D01*
X117842857Y-118862619D02*
X117842857Y-117862619D01*
X117842857Y-117862619D02*
X118223809Y-117862619D01*
X118223809Y-117862619D02*
X118319047Y-117910238D01*
X118319047Y-117910238D02*
X118366666Y-117957857D01*
X118366666Y-117957857D02*
X118414285Y-118053095D01*
X118414285Y-118053095D02*
X118414285Y-118195952D01*
X118414285Y-118195952D02*
X118366666Y-118291190D01*
X118366666Y-118291190D02*
X118319047Y-118338809D01*
X118319047Y-118338809D02*
X118223809Y-118386428D01*
X118223809Y-118386428D02*
X117842857Y-118386428D01*
X118795238Y-117957857D02*
X118842857Y-117910238D01*
X118842857Y-117910238D02*
X118938095Y-117862619D01*
X118938095Y-117862619D02*
X119176190Y-117862619D01*
X119176190Y-117862619D02*
X119271428Y-117910238D01*
X119271428Y-117910238D02*
X119319047Y-117957857D01*
X119319047Y-117957857D02*
X119366666Y-118053095D01*
X119366666Y-118053095D02*
X119366666Y-118148333D01*
X119366666Y-118148333D02*
X119319047Y-118291190D01*
X119319047Y-118291190D02*
X118747619Y-118862619D01*
X118747619Y-118862619D02*
X119366666Y-118862619D01*
%TO.C,C2*%
X141633333Y-103267380D02*
X141585714Y-103315000D01*
X141585714Y-103315000D02*
X141442857Y-103362619D01*
X141442857Y-103362619D02*
X141347619Y-103362619D01*
X141347619Y-103362619D02*
X141204762Y-103315000D01*
X141204762Y-103315000D02*
X141109524Y-103219761D01*
X141109524Y-103219761D02*
X141061905Y-103124523D01*
X141061905Y-103124523D02*
X141014286Y-102934047D01*
X141014286Y-102934047D02*
X141014286Y-102791190D01*
X141014286Y-102791190D02*
X141061905Y-102600714D01*
X141061905Y-102600714D02*
X141109524Y-102505476D01*
X141109524Y-102505476D02*
X141204762Y-102410238D01*
X141204762Y-102410238D02*
X141347619Y-102362619D01*
X141347619Y-102362619D02*
X141442857Y-102362619D01*
X141442857Y-102362619D02*
X141585714Y-102410238D01*
X141585714Y-102410238D02*
X141633333Y-102457857D01*
X142014286Y-102457857D02*
X142061905Y-102410238D01*
X142061905Y-102410238D02*
X142157143Y-102362619D01*
X142157143Y-102362619D02*
X142395238Y-102362619D01*
X142395238Y-102362619D02*
X142490476Y-102410238D01*
X142490476Y-102410238D02*
X142538095Y-102457857D01*
X142538095Y-102457857D02*
X142585714Y-102553095D01*
X142585714Y-102553095D02*
X142585714Y-102648333D01*
X142585714Y-102648333D02*
X142538095Y-102791190D01*
X142538095Y-102791190D02*
X141966667Y-103362619D01*
X141966667Y-103362619D02*
X142585714Y-103362619D01*
%TO.C,R6*%
X134933333Y-105562619D02*
X134600000Y-105086428D01*
X134361905Y-105562619D02*
X134361905Y-104562619D01*
X134361905Y-104562619D02*
X134742857Y-104562619D01*
X134742857Y-104562619D02*
X134838095Y-104610238D01*
X134838095Y-104610238D02*
X134885714Y-104657857D01*
X134885714Y-104657857D02*
X134933333Y-104753095D01*
X134933333Y-104753095D02*
X134933333Y-104895952D01*
X134933333Y-104895952D02*
X134885714Y-104991190D01*
X134885714Y-104991190D02*
X134838095Y-105038809D01*
X134838095Y-105038809D02*
X134742857Y-105086428D01*
X134742857Y-105086428D02*
X134361905Y-105086428D01*
X135790476Y-104562619D02*
X135600000Y-104562619D01*
X135600000Y-104562619D02*
X135504762Y-104610238D01*
X135504762Y-104610238D02*
X135457143Y-104657857D01*
X135457143Y-104657857D02*
X135361905Y-104800714D01*
X135361905Y-104800714D02*
X135314286Y-104991190D01*
X135314286Y-104991190D02*
X135314286Y-105372142D01*
X135314286Y-105372142D02*
X135361905Y-105467380D01*
X135361905Y-105467380D02*
X135409524Y-105515000D01*
X135409524Y-105515000D02*
X135504762Y-105562619D01*
X135504762Y-105562619D02*
X135695238Y-105562619D01*
X135695238Y-105562619D02*
X135790476Y-105515000D01*
X135790476Y-105515000D02*
X135838095Y-105467380D01*
X135838095Y-105467380D02*
X135885714Y-105372142D01*
X135885714Y-105372142D02*
X135885714Y-105134047D01*
X135885714Y-105134047D02*
X135838095Y-105038809D01*
X135838095Y-105038809D02*
X135790476Y-104991190D01*
X135790476Y-104991190D02*
X135695238Y-104943571D01*
X135695238Y-104943571D02*
X135504762Y-104943571D01*
X135504762Y-104943571D02*
X135409524Y-104991190D01*
X135409524Y-104991190D02*
X135361905Y-105038809D01*
X135361905Y-105038809D02*
X135314286Y-105134047D01*
%TO.C,U1*%
X127913095Y-104947619D02*
X127913095Y-105757142D01*
X127913095Y-105757142D02*
X127960714Y-105852380D01*
X127960714Y-105852380D02*
X128008333Y-105900000D01*
X128008333Y-105900000D02*
X128103571Y-105947619D01*
X128103571Y-105947619D02*
X128294047Y-105947619D01*
X128294047Y-105947619D02*
X128389285Y-105900000D01*
X128389285Y-105900000D02*
X128436904Y-105852380D01*
X128436904Y-105852380D02*
X128484523Y-105757142D01*
X128484523Y-105757142D02*
X128484523Y-104947619D01*
X129484523Y-105947619D02*
X128913095Y-105947619D01*
X129198809Y-105947619D02*
X129198809Y-104947619D01*
X129198809Y-104947619D02*
X129103571Y-105090476D01*
X129103571Y-105090476D02*
X129008333Y-105185714D01*
X129008333Y-105185714D02*
X128913095Y-105233333D01*
%TO.C,R7*%
X135633333Y-101112619D02*
X135300000Y-100636428D01*
X135061905Y-101112619D02*
X135061905Y-100112619D01*
X135061905Y-100112619D02*
X135442857Y-100112619D01*
X135442857Y-100112619D02*
X135538095Y-100160238D01*
X135538095Y-100160238D02*
X135585714Y-100207857D01*
X135585714Y-100207857D02*
X135633333Y-100303095D01*
X135633333Y-100303095D02*
X135633333Y-100445952D01*
X135633333Y-100445952D02*
X135585714Y-100541190D01*
X135585714Y-100541190D02*
X135538095Y-100588809D01*
X135538095Y-100588809D02*
X135442857Y-100636428D01*
X135442857Y-100636428D02*
X135061905Y-100636428D01*
X135966667Y-100112619D02*
X136633333Y-100112619D01*
X136633333Y-100112619D02*
X136204762Y-101112619D01*
%TO.C,K1*%
X145761905Y-83462619D02*
X145761905Y-82462619D01*
X146333333Y-83462619D02*
X145904762Y-82891190D01*
X146333333Y-82462619D02*
X145761905Y-83034047D01*
X147285714Y-83462619D02*
X146714286Y-83462619D01*
X147000000Y-83462619D02*
X147000000Y-82462619D01*
X147000000Y-82462619D02*
X146904762Y-82605476D01*
X146904762Y-82605476D02*
X146809524Y-82700714D01*
X146809524Y-82700714D02*
X146714286Y-82748333D01*
%TO.C,H2*%
X116938095Y-121362619D02*
X116938095Y-120362619D01*
X116938095Y-120838809D02*
X117509523Y-120838809D01*
X117509523Y-121362619D02*
X117509523Y-120362619D01*
X117938095Y-120457857D02*
X117985714Y-120410238D01*
X117985714Y-120410238D02*
X118080952Y-120362619D01*
X118080952Y-120362619D02*
X118319047Y-120362619D01*
X118319047Y-120362619D02*
X118414285Y-120410238D01*
X118414285Y-120410238D02*
X118461904Y-120457857D01*
X118461904Y-120457857D02*
X118509523Y-120553095D01*
X118509523Y-120553095D02*
X118509523Y-120648333D01*
X118509523Y-120648333D02*
X118461904Y-120791190D01*
X118461904Y-120791190D02*
X117890476Y-121362619D01*
X117890476Y-121362619D02*
X118509523Y-121362619D01*
%TO.C,C1*%
X131033333Y-102017380D02*
X130985714Y-102065000D01*
X130985714Y-102065000D02*
X130842857Y-102112619D01*
X130842857Y-102112619D02*
X130747619Y-102112619D01*
X130747619Y-102112619D02*
X130604762Y-102065000D01*
X130604762Y-102065000D02*
X130509524Y-101969761D01*
X130509524Y-101969761D02*
X130461905Y-101874523D01*
X130461905Y-101874523D02*
X130414286Y-101684047D01*
X130414286Y-101684047D02*
X130414286Y-101541190D01*
X130414286Y-101541190D02*
X130461905Y-101350714D01*
X130461905Y-101350714D02*
X130509524Y-101255476D01*
X130509524Y-101255476D02*
X130604762Y-101160238D01*
X130604762Y-101160238D02*
X130747619Y-101112619D01*
X130747619Y-101112619D02*
X130842857Y-101112619D01*
X130842857Y-101112619D02*
X130985714Y-101160238D01*
X130985714Y-101160238D02*
X131033333Y-101207857D01*
X131985714Y-102112619D02*
X131414286Y-102112619D01*
X131700000Y-102112619D02*
X131700000Y-101112619D01*
X131700000Y-101112619D02*
X131604762Y-101255476D01*
X131604762Y-101255476D02*
X131509524Y-101350714D01*
X131509524Y-101350714D02*
X131414286Y-101398333D01*
%TO.C,R1*%
X126433333Y-100162619D02*
X126100000Y-99686428D01*
X125861905Y-100162619D02*
X125861905Y-99162619D01*
X125861905Y-99162619D02*
X126242857Y-99162619D01*
X126242857Y-99162619D02*
X126338095Y-99210238D01*
X126338095Y-99210238D02*
X126385714Y-99257857D01*
X126385714Y-99257857D02*
X126433333Y-99353095D01*
X126433333Y-99353095D02*
X126433333Y-99495952D01*
X126433333Y-99495952D02*
X126385714Y-99591190D01*
X126385714Y-99591190D02*
X126338095Y-99638809D01*
X126338095Y-99638809D02*
X126242857Y-99686428D01*
X126242857Y-99686428D02*
X125861905Y-99686428D01*
X127385714Y-100162619D02*
X126814286Y-100162619D01*
X127100000Y-100162619D02*
X127100000Y-99162619D01*
X127100000Y-99162619D02*
X127004762Y-99305476D01*
X127004762Y-99305476D02*
X126909524Y-99400714D01*
X126909524Y-99400714D02*
X126814286Y-99448333D01*
%TO.C,J3*%
X171866666Y-94462619D02*
X171866666Y-95176904D01*
X171866666Y-95176904D02*
X171819047Y-95319761D01*
X171819047Y-95319761D02*
X171723809Y-95415000D01*
X171723809Y-95415000D02*
X171580952Y-95462619D01*
X171580952Y-95462619D02*
X171485714Y-95462619D01*
X172247619Y-94462619D02*
X172866666Y-94462619D01*
X172866666Y-94462619D02*
X172533333Y-94843571D01*
X172533333Y-94843571D02*
X172676190Y-94843571D01*
X172676190Y-94843571D02*
X172771428Y-94891190D01*
X172771428Y-94891190D02*
X172819047Y-94938809D01*
X172819047Y-94938809D02*
X172866666Y-95034047D01*
X172866666Y-95034047D02*
X172866666Y-95272142D01*
X172866666Y-95272142D02*
X172819047Y-95367380D01*
X172819047Y-95367380D02*
X172771428Y-95415000D01*
X172771428Y-95415000D02*
X172676190Y-95462619D01*
X172676190Y-95462619D02*
X172390476Y-95462619D01*
X172390476Y-95462619D02*
X172295238Y-95415000D01*
X172295238Y-95415000D02*
X172247619Y-95367380D01*
%TO.C,H4*%
X165938095Y-121462619D02*
X165938095Y-120462619D01*
X165938095Y-120938809D02*
X166509523Y-120938809D01*
X166509523Y-121462619D02*
X166509523Y-120462619D01*
X167414285Y-120795952D02*
X167414285Y-121462619D01*
X167176190Y-120415000D02*
X166938095Y-121129285D01*
X166938095Y-121129285D02*
X167557142Y-121129285D01*
%TO.C,D3*%
X121261905Y-87462619D02*
X121261905Y-86462619D01*
X121261905Y-86462619D02*
X121500000Y-86462619D01*
X121500000Y-86462619D02*
X121642857Y-86510238D01*
X121642857Y-86510238D02*
X121738095Y-86605476D01*
X121738095Y-86605476D02*
X121785714Y-86700714D01*
X121785714Y-86700714D02*
X121833333Y-86891190D01*
X121833333Y-86891190D02*
X121833333Y-87034047D01*
X121833333Y-87034047D02*
X121785714Y-87224523D01*
X121785714Y-87224523D02*
X121738095Y-87319761D01*
X121738095Y-87319761D02*
X121642857Y-87415000D01*
X121642857Y-87415000D02*
X121500000Y-87462619D01*
X121500000Y-87462619D02*
X121261905Y-87462619D01*
X122166667Y-86462619D02*
X122785714Y-86462619D01*
X122785714Y-86462619D02*
X122452381Y-86843571D01*
X122452381Y-86843571D02*
X122595238Y-86843571D01*
X122595238Y-86843571D02*
X122690476Y-86891190D01*
X122690476Y-86891190D02*
X122738095Y-86938809D01*
X122738095Y-86938809D02*
X122785714Y-87034047D01*
X122785714Y-87034047D02*
X122785714Y-87272142D01*
X122785714Y-87272142D02*
X122738095Y-87367380D01*
X122738095Y-87367380D02*
X122690476Y-87415000D01*
X122690476Y-87415000D02*
X122595238Y-87462619D01*
X122595238Y-87462619D02*
X122309524Y-87462619D01*
X122309524Y-87462619D02*
X122214286Y-87415000D01*
X122214286Y-87415000D02*
X122166667Y-87367380D01*
%TO.C,H3*%
X165823095Y-83587619D02*
X165823095Y-82587619D01*
X165823095Y-83063809D02*
X166394523Y-83063809D01*
X166394523Y-83587619D02*
X166394523Y-82587619D01*
X166775476Y-82587619D02*
X167394523Y-82587619D01*
X167394523Y-82587619D02*
X167061190Y-82968571D01*
X167061190Y-82968571D02*
X167204047Y-82968571D01*
X167204047Y-82968571D02*
X167299285Y-83016190D01*
X167299285Y-83016190D02*
X167346904Y-83063809D01*
X167346904Y-83063809D02*
X167394523Y-83159047D01*
X167394523Y-83159047D02*
X167394523Y-83397142D01*
X167394523Y-83397142D02*
X167346904Y-83492380D01*
X167346904Y-83492380D02*
X167299285Y-83540000D01*
X167299285Y-83540000D02*
X167204047Y-83587619D01*
X167204047Y-83587619D02*
X166918333Y-83587619D01*
X166918333Y-83587619D02*
X166823095Y-83540000D01*
X166823095Y-83540000D02*
X166775476Y-83492380D01*
%TO.C,RV1*%
X130104761Y-117762619D02*
X129771428Y-117286428D01*
X129533333Y-117762619D02*
X129533333Y-116762619D01*
X129533333Y-116762619D02*
X129914285Y-116762619D01*
X129914285Y-116762619D02*
X130009523Y-116810238D01*
X130009523Y-116810238D02*
X130057142Y-116857857D01*
X130057142Y-116857857D02*
X130104761Y-116953095D01*
X130104761Y-116953095D02*
X130104761Y-117095952D01*
X130104761Y-117095952D02*
X130057142Y-117191190D01*
X130057142Y-117191190D02*
X130009523Y-117238809D01*
X130009523Y-117238809D02*
X129914285Y-117286428D01*
X129914285Y-117286428D02*
X129533333Y-117286428D01*
X130390476Y-116762619D02*
X130723809Y-117762619D01*
X130723809Y-117762619D02*
X131057142Y-116762619D01*
X131914285Y-117762619D02*
X131342857Y-117762619D01*
X131628571Y-117762619D02*
X131628571Y-116762619D01*
X131628571Y-116762619D02*
X131533333Y-116905476D01*
X131533333Y-116905476D02*
X131438095Y-117000714D01*
X131438095Y-117000714D02*
X131342857Y-117048333D01*
%TO.C,R3*%
X119433333Y-108862619D02*
X119100000Y-108386428D01*
X118861905Y-108862619D02*
X118861905Y-107862619D01*
X118861905Y-107862619D02*
X119242857Y-107862619D01*
X119242857Y-107862619D02*
X119338095Y-107910238D01*
X119338095Y-107910238D02*
X119385714Y-107957857D01*
X119385714Y-107957857D02*
X119433333Y-108053095D01*
X119433333Y-108053095D02*
X119433333Y-108195952D01*
X119433333Y-108195952D02*
X119385714Y-108291190D01*
X119385714Y-108291190D02*
X119338095Y-108338809D01*
X119338095Y-108338809D02*
X119242857Y-108386428D01*
X119242857Y-108386428D02*
X118861905Y-108386428D01*
X119766667Y-107862619D02*
X120385714Y-107862619D01*
X120385714Y-107862619D02*
X120052381Y-108243571D01*
X120052381Y-108243571D02*
X120195238Y-108243571D01*
X120195238Y-108243571D02*
X120290476Y-108291190D01*
X120290476Y-108291190D02*
X120338095Y-108338809D01*
X120338095Y-108338809D02*
X120385714Y-108434047D01*
X120385714Y-108434047D02*
X120385714Y-108672142D01*
X120385714Y-108672142D02*
X120338095Y-108767380D01*
X120338095Y-108767380D02*
X120290476Y-108815000D01*
X120290476Y-108815000D02*
X120195238Y-108862619D01*
X120195238Y-108862619D02*
X119909524Y-108862619D01*
X119909524Y-108862619D02*
X119814286Y-108815000D01*
X119814286Y-108815000D02*
X119766667Y-108767380D01*
%TO.C,U3*%
X137638095Y-104562619D02*
X137638095Y-105372142D01*
X137638095Y-105372142D02*
X137685714Y-105467380D01*
X137685714Y-105467380D02*
X137733333Y-105515000D01*
X137733333Y-105515000D02*
X137828571Y-105562619D01*
X137828571Y-105562619D02*
X138019047Y-105562619D01*
X138019047Y-105562619D02*
X138114285Y-105515000D01*
X138114285Y-105515000D02*
X138161904Y-105467380D01*
X138161904Y-105467380D02*
X138209523Y-105372142D01*
X138209523Y-105372142D02*
X138209523Y-104562619D01*
X138590476Y-104562619D02*
X139209523Y-104562619D01*
X139209523Y-104562619D02*
X138876190Y-104943571D01*
X138876190Y-104943571D02*
X139019047Y-104943571D01*
X139019047Y-104943571D02*
X139114285Y-104991190D01*
X139114285Y-104991190D02*
X139161904Y-105038809D01*
X139161904Y-105038809D02*
X139209523Y-105134047D01*
X139209523Y-105134047D02*
X139209523Y-105372142D01*
X139209523Y-105372142D02*
X139161904Y-105467380D01*
X139161904Y-105467380D02*
X139114285Y-105515000D01*
X139114285Y-105515000D02*
X139019047Y-105562619D01*
X139019047Y-105562619D02*
X138733333Y-105562619D01*
X138733333Y-105562619D02*
X138638095Y-105515000D01*
X138638095Y-105515000D02*
X138590476Y-105467380D01*
%TO.C,R2*%
X130433333Y-94262619D02*
X130100000Y-93786428D01*
X129861905Y-94262619D02*
X129861905Y-93262619D01*
X129861905Y-93262619D02*
X130242857Y-93262619D01*
X130242857Y-93262619D02*
X130338095Y-93310238D01*
X130338095Y-93310238D02*
X130385714Y-93357857D01*
X130385714Y-93357857D02*
X130433333Y-93453095D01*
X130433333Y-93453095D02*
X130433333Y-93595952D01*
X130433333Y-93595952D02*
X130385714Y-93691190D01*
X130385714Y-93691190D02*
X130338095Y-93738809D01*
X130338095Y-93738809D02*
X130242857Y-93786428D01*
X130242857Y-93786428D02*
X129861905Y-93786428D01*
X130814286Y-93357857D02*
X130861905Y-93310238D01*
X130861905Y-93310238D02*
X130957143Y-93262619D01*
X130957143Y-93262619D02*
X131195238Y-93262619D01*
X131195238Y-93262619D02*
X131290476Y-93310238D01*
X131290476Y-93310238D02*
X131338095Y-93357857D01*
X131338095Y-93357857D02*
X131385714Y-93453095D01*
X131385714Y-93453095D02*
X131385714Y-93548333D01*
X131385714Y-93548333D02*
X131338095Y-93691190D01*
X131338095Y-93691190D02*
X130766667Y-94262619D01*
X130766667Y-94262619D02*
X131385714Y-94262619D01*
%TO.C,U2*%
X118838095Y-110262619D02*
X118838095Y-111072142D01*
X118838095Y-111072142D02*
X118885714Y-111167380D01*
X118885714Y-111167380D02*
X118933333Y-111215000D01*
X118933333Y-111215000D02*
X119028571Y-111262619D01*
X119028571Y-111262619D02*
X119219047Y-111262619D01*
X119219047Y-111262619D02*
X119314285Y-111215000D01*
X119314285Y-111215000D02*
X119361904Y-111167380D01*
X119361904Y-111167380D02*
X119409523Y-111072142D01*
X119409523Y-111072142D02*
X119409523Y-110262619D01*
X119838095Y-110357857D02*
X119885714Y-110310238D01*
X119885714Y-110310238D02*
X119980952Y-110262619D01*
X119980952Y-110262619D02*
X120219047Y-110262619D01*
X120219047Y-110262619D02*
X120314285Y-110310238D01*
X120314285Y-110310238D02*
X120361904Y-110357857D01*
X120361904Y-110357857D02*
X120409523Y-110453095D01*
X120409523Y-110453095D02*
X120409523Y-110548333D01*
X120409523Y-110548333D02*
X120361904Y-110691190D01*
X120361904Y-110691190D02*
X119790476Y-111262619D01*
X119790476Y-111262619D02*
X120409523Y-111262619D01*
%TO.C,J2*%
X126116666Y-94962619D02*
X126116666Y-95676904D01*
X126116666Y-95676904D02*
X126069047Y-95819761D01*
X126069047Y-95819761D02*
X125973809Y-95915000D01*
X125973809Y-95915000D02*
X125830952Y-95962619D01*
X125830952Y-95962619D02*
X125735714Y-95962619D01*
X126545238Y-95057857D02*
X126592857Y-95010238D01*
X126592857Y-95010238D02*
X126688095Y-94962619D01*
X126688095Y-94962619D02*
X126926190Y-94962619D01*
X126926190Y-94962619D02*
X127021428Y-95010238D01*
X127021428Y-95010238D02*
X127069047Y-95057857D01*
X127069047Y-95057857D02*
X127116666Y-95153095D01*
X127116666Y-95153095D02*
X127116666Y-95248333D01*
X127116666Y-95248333D02*
X127069047Y-95391190D01*
X127069047Y-95391190D02*
X126497619Y-95962619D01*
X126497619Y-95962619D02*
X127116666Y-95962619D01*
%TO.C,R5*%
X150133333Y-115362619D02*
X149800000Y-114886428D01*
X149561905Y-115362619D02*
X149561905Y-114362619D01*
X149561905Y-114362619D02*
X149942857Y-114362619D01*
X149942857Y-114362619D02*
X150038095Y-114410238D01*
X150038095Y-114410238D02*
X150085714Y-114457857D01*
X150085714Y-114457857D02*
X150133333Y-114553095D01*
X150133333Y-114553095D02*
X150133333Y-114695952D01*
X150133333Y-114695952D02*
X150085714Y-114791190D01*
X150085714Y-114791190D02*
X150038095Y-114838809D01*
X150038095Y-114838809D02*
X149942857Y-114886428D01*
X149942857Y-114886428D02*
X149561905Y-114886428D01*
X151038095Y-114362619D02*
X150561905Y-114362619D01*
X150561905Y-114362619D02*
X150514286Y-114838809D01*
X150514286Y-114838809D02*
X150561905Y-114791190D01*
X150561905Y-114791190D02*
X150657143Y-114743571D01*
X150657143Y-114743571D02*
X150895238Y-114743571D01*
X150895238Y-114743571D02*
X150990476Y-114791190D01*
X150990476Y-114791190D02*
X151038095Y-114838809D01*
X151038095Y-114838809D02*
X151085714Y-114934047D01*
X151085714Y-114934047D02*
X151085714Y-115172142D01*
X151085714Y-115172142D02*
X151038095Y-115267380D01*
X151038095Y-115267380D02*
X150990476Y-115315000D01*
X150990476Y-115315000D02*
X150895238Y-115362619D01*
X150895238Y-115362619D02*
X150657143Y-115362619D01*
X150657143Y-115362619D02*
X150561905Y-115315000D01*
X150561905Y-115315000D02*
X150514286Y-115267380D01*
%TO.C,D2*%
X131534905Y-99262619D02*
X131534905Y-98262619D01*
X131534905Y-98262619D02*
X131773000Y-98262619D01*
X131773000Y-98262619D02*
X131915857Y-98310238D01*
X131915857Y-98310238D02*
X132011095Y-98405476D01*
X132011095Y-98405476D02*
X132058714Y-98500714D01*
X132058714Y-98500714D02*
X132106333Y-98691190D01*
X132106333Y-98691190D02*
X132106333Y-98834047D01*
X132106333Y-98834047D02*
X132058714Y-99024523D01*
X132058714Y-99024523D02*
X132011095Y-99119761D01*
X132011095Y-99119761D02*
X131915857Y-99215000D01*
X131915857Y-99215000D02*
X131773000Y-99262619D01*
X131773000Y-99262619D02*
X131534905Y-99262619D01*
X132487286Y-98357857D02*
X132534905Y-98310238D01*
X132534905Y-98310238D02*
X132630143Y-98262619D01*
X132630143Y-98262619D02*
X132868238Y-98262619D01*
X132868238Y-98262619D02*
X132963476Y-98310238D01*
X132963476Y-98310238D02*
X133011095Y-98357857D01*
X133011095Y-98357857D02*
X133058714Y-98453095D01*
X133058714Y-98453095D02*
X133058714Y-98548333D01*
X133058714Y-98548333D02*
X133011095Y-98691190D01*
X133011095Y-98691190D02*
X132439667Y-99262619D01*
X132439667Y-99262619D02*
X133058714Y-99262619D01*
%TO.C,TP1*%
X122538095Y-103462619D02*
X123109523Y-103462619D01*
X122823809Y-104462619D02*
X122823809Y-103462619D01*
X123442857Y-104462619D02*
X123442857Y-103462619D01*
X123442857Y-103462619D02*
X123823809Y-103462619D01*
X123823809Y-103462619D02*
X123919047Y-103510238D01*
X123919047Y-103510238D02*
X123966666Y-103557857D01*
X123966666Y-103557857D02*
X124014285Y-103653095D01*
X124014285Y-103653095D02*
X124014285Y-103795952D01*
X124014285Y-103795952D02*
X123966666Y-103891190D01*
X123966666Y-103891190D02*
X123919047Y-103938809D01*
X123919047Y-103938809D02*
X123823809Y-103986428D01*
X123823809Y-103986428D02*
X123442857Y-103986428D01*
X124966666Y-104462619D02*
X124395238Y-104462619D01*
X124680952Y-104462619D02*
X124680952Y-103462619D01*
X124680952Y-103462619D02*
X124585714Y-103605476D01*
X124585714Y-103605476D02*
X124490476Y-103700714D01*
X124490476Y-103700714D02*
X124395238Y-103748333D01*
%TO.C,J1*%
X126116666Y-87962619D02*
X126116666Y-88676904D01*
X126116666Y-88676904D02*
X126069047Y-88819761D01*
X126069047Y-88819761D02*
X125973809Y-88915000D01*
X125973809Y-88915000D02*
X125830952Y-88962619D01*
X125830952Y-88962619D02*
X125735714Y-88962619D01*
X127116666Y-88962619D02*
X126545238Y-88962619D01*
X126830952Y-88962619D02*
X126830952Y-87962619D01*
X126830952Y-87962619D02*
X126735714Y-88105476D01*
X126735714Y-88105476D02*
X126640476Y-88200714D01*
X126640476Y-88200714D02*
X126545238Y-88248333D01*
%TO.C,R4*%
X146233333Y-112562619D02*
X145900000Y-112086428D01*
X145661905Y-112562619D02*
X145661905Y-111562619D01*
X145661905Y-111562619D02*
X146042857Y-111562619D01*
X146042857Y-111562619D02*
X146138095Y-111610238D01*
X146138095Y-111610238D02*
X146185714Y-111657857D01*
X146185714Y-111657857D02*
X146233333Y-111753095D01*
X146233333Y-111753095D02*
X146233333Y-111895952D01*
X146233333Y-111895952D02*
X146185714Y-111991190D01*
X146185714Y-111991190D02*
X146138095Y-112038809D01*
X146138095Y-112038809D02*
X146042857Y-112086428D01*
X146042857Y-112086428D02*
X145661905Y-112086428D01*
X147090476Y-111895952D02*
X147090476Y-112562619D01*
X146852381Y-111515000D02*
X146614286Y-112229285D01*
X146614286Y-112229285D02*
X147233333Y-112229285D01*
D11*
%TO.C,C3*%
X139435000Y-101138748D02*
X139435000Y-101661252D01*
X137965000Y-101138748D02*
X137965000Y-101661252D01*
%TO.C,D1*%
X148840000Y-105500000D02*
X148840000Y-107500000D01*
X148840000Y-105500000D02*
X152850000Y-105500000D01*
X148840000Y-107500000D02*
X152850000Y-107500000D01*
%TO.C,Q1*%
X151240000Y-111100000D02*
X151240000Y-112775000D01*
X151240000Y-111100000D02*
X151240000Y-110450000D01*
X154360000Y-111100000D02*
X154360000Y-111750000D01*
X154360000Y-111100000D02*
X154360000Y-110450000D01*
%TO.C,TP2*%
X119000000Y-115900000D02*
G75*
G03*
X119000000Y-115900000I-1500000J0D01*
G01*
%TO.C,C2*%
X143065000Y-104161252D02*
X143065000Y-103638748D01*
X144535000Y-104161252D02*
X144535000Y-103638748D01*
%TO.C,R6*%
X135935000Y-107172936D02*
X135935000Y-107627064D01*
X134465000Y-107172936D02*
X134465000Y-107627064D01*
%TO.C,U1*%
X128675000Y-106325000D02*
X125225000Y-106325000D01*
X128675000Y-106325000D02*
X130625000Y-106325000D01*
X128675000Y-111445000D02*
X126725000Y-111445000D01*
X128675000Y-111445000D02*
X130625000Y-111445000D01*
%TO.C,R7*%
X135572936Y-101565000D02*
X136027064Y-101565000D01*
X135572936Y-103035000D02*
X136027064Y-103035000D01*
%TO.C,K1*%
X145690000Y-104840000D02*
X145690000Y-83700000D01*
X156690000Y-104840000D02*
X145690000Y-104840000D01*
X156690000Y-104840000D02*
X156690000Y-83700000D01*
X155000000Y-101890000D02*
X155000000Y-100620000D01*
X150170000Y-101130000D02*
X150170000Y-100620000D01*
X151950000Y-101130000D02*
X150940000Y-100110000D01*
X152710000Y-101130000D02*
X150170000Y-101130000D01*
X147380000Y-100620000D02*
X147380000Y-101890000D01*
X150170000Y-100620000D02*
X147380000Y-100620000D01*
X150170000Y-100620000D02*
X150170000Y-100110000D01*
X152710000Y-100620000D02*
X152710000Y-101130000D01*
X155000000Y-100620000D02*
X152710000Y-100620000D01*
X150170000Y-100110000D02*
X152710000Y-100110000D01*
X152710000Y-100110000D02*
X152710000Y-100620000D01*
X151190000Y-93000000D02*
X151190000Y-87920000D01*
X153730000Y-93000000D02*
X151190000Y-93000000D01*
X151190000Y-87920000D02*
X149790000Y-85130000D01*
X153730000Y-85380000D02*
X152460000Y-85380000D01*
X156690000Y-83700000D02*
X145690000Y-83700000D01*
X151320000Y-87920000D02*
G75*
G03*
X151320000Y-87920000I-130000J0D01*
G01*
%TO.C,C1*%
X130565000Y-104361252D02*
X130565000Y-103838748D01*
X132035000Y-104361252D02*
X132035000Y-103838748D01*
%TO.C,R1*%
X127222936Y-97265000D02*
X127677064Y-97265000D01*
X127222936Y-98735000D02*
X127677064Y-98735000D01*
D12*
%TO.C,J3*%
X163380000Y-93925000D02*
X163380000Y-93200000D01*
X173290000Y-93925000D02*
X163380000Y-93925000D01*
X163380000Y-90075000D02*
X163380000Y-90800000D01*
X163380000Y-90075000D02*
X173290000Y-90075000D01*
X173290000Y-90075000D02*
X173290000Y-93925000D01*
X164390000Y-89600000D02*
X164690000Y-89100000D01*
X164090000Y-89100000D02*
X164390000Y-89600000D01*
X164690000Y-89100000D02*
X164090000Y-89100000D01*
D11*
%TO.C,D3*%
X123100000Y-87510000D02*
X125100000Y-87510000D01*
X123100000Y-87510000D02*
X123100000Y-83650000D01*
X125100000Y-87510000D02*
X125100000Y-83650000D01*
%TO.C,RV1*%
X122185000Y-116860000D02*
X122185000Y-117505000D01*
X122185000Y-116860000D02*
X129135000Y-116860000D01*
X122185000Y-118495000D02*
X122185000Y-121600000D01*
X122185000Y-121600000D02*
X129135000Y-121600000D01*
X129135000Y-116860000D02*
X129135000Y-117505000D01*
X129135000Y-118495000D02*
X129135000Y-121600000D01*
%TO.C,R3*%
X122335000Y-108072936D02*
X122335000Y-108527064D01*
X120865000Y-108072936D02*
X120865000Y-108527064D01*
%TO.C,U3*%
X141200000Y-105940000D02*
X137750000Y-105940000D01*
X141200000Y-105940000D02*
X143150000Y-105940000D01*
X141200000Y-111060000D02*
X139250000Y-111060000D01*
X141200000Y-111060000D02*
X143150000Y-111060000D01*
%TO.C,R2*%
X129435000Y-94772936D02*
X129435000Y-95227064D01*
X127965000Y-94772936D02*
X127965000Y-95227064D01*
%TO.C,U2*%
X120840000Y-112200000D02*
X120840000Y-113875000D01*
X120840000Y-112200000D02*
X120840000Y-111550000D01*
X123960000Y-112200000D02*
X123960000Y-112850000D01*
X123960000Y-112200000D02*
X123960000Y-111550000D01*
D12*
%TO.C,J2*%
X122020000Y-96075000D02*
X122020000Y-96800000D01*
X112110000Y-96075000D02*
X122020000Y-96075000D01*
X122020000Y-99925000D02*
X122020000Y-99200000D01*
X122020000Y-99925000D02*
X112110000Y-99925000D01*
X112110000Y-99925000D02*
X112110000Y-96075000D01*
X121010000Y-100400000D02*
X120710000Y-100900000D01*
X121310000Y-100900000D02*
X121010000Y-100400000D01*
X120710000Y-100900000D02*
X121310000Y-100900000D01*
D11*
%TO.C,R5*%
X149135000Y-114660436D02*
X149135000Y-115114564D01*
X147665000Y-114660436D02*
X147665000Y-115114564D01*
%TO.C,D2*%
X130190000Y-96000000D02*
X130190000Y-98000000D01*
X130190000Y-96000000D02*
X134050000Y-96000000D01*
X130190000Y-98000000D02*
X134050000Y-98000000D01*
%TO.C,TP1*%
X122100000Y-104300000D02*
G75*
G03*
X122100000Y-104300000I-1500000J0D01*
G01*
D12*
%TO.C,J1*%
X122020000Y-89075000D02*
X122020000Y-89800000D01*
X112110000Y-89075000D02*
X122020000Y-89075000D01*
X122020000Y-92925000D02*
X122020000Y-92200000D01*
X122020000Y-92925000D02*
X112110000Y-92925000D01*
X112110000Y-92925000D02*
X112110000Y-89075000D01*
X121010000Y-93400000D02*
X120710000Y-93900000D01*
X121310000Y-93900000D02*
X121010000Y-93400000D01*
X120710000Y-93900000D02*
X121310000Y-93900000D01*
D11*
%TO.C,R4*%
X148872936Y-111365000D02*
X149327064Y-111365000D01*
X148872936Y-112835000D02*
X149327064Y-112835000D01*
%TD*%
M02*
