%TF.GenerationSoftware,KiCad,Pcbnew,7.0.1*%
%TF.CreationDate,2023-05-29T21:51:14-06:00*%
%TF.ProjectId,Over_Voltage_Latch,4f766572-5f56-46f6-9c74-6167655f4c61,1*%
%TF.SameCoordinates,Original*%
%TF.FileFunction,Copper,L2,Bot*%
%TF.FilePolarity,Positive*%
%FSLAX46Y46*%
G04 Gerber Fmt 4.6, Leading zero omitted, Abs format (unit mm)*
G04 Created by KiCad (PCBNEW 7.0.1) date 2023-05-29 21:51:14*
%MOMM*%
%LPD*%
G01*
G04 APERTURE LIST*
%TA.AperFunction,ComponentPad*%
%ADD10C,0.800000*%
%TD*%
%TA.AperFunction,ComponentPad*%
%ADD11C,6.400000*%
%TD*%
%TA.AperFunction,ComponentPad*%
%ADD12C,2.000000*%
%TD*%
%TA.AperFunction,ComponentPad*%
%ADD13R,2.300000X2.300000*%
%TD*%
%TA.AperFunction,ComponentPad*%
%ADD14C,2.300000*%
%TD*%
%TA.AperFunction,ComponentPad*%
%ADD15R,1.520000X1.520000*%
%TD*%
%TA.AperFunction,ComponentPad*%
%ADD16C,1.520000*%
%TD*%
%TA.AperFunction,ComponentPad*%
%ADD17C,1.440000*%
%TD*%
%TA.AperFunction,ViaPad*%
%ADD18C,0.800000*%
%TD*%
G04 APERTURE END LIST*
D10*
%TO.P,H1,1,1*%
%TO.N,GND*%
X110800000Y-83000000D03*
X111502944Y-81302944D03*
X111502944Y-84697056D03*
X113200000Y-80600000D03*
D11*
X113200000Y-83000000D03*
D10*
X113200000Y-85400000D03*
X114897056Y-81302944D03*
X114897056Y-84697056D03*
X115600000Y-83000000D03*
%TD*%
D12*
%TO.P,TP2,1,1*%
%TO.N,GND*%
X117500000Y-115900000D03*
%TD*%
D13*
%TO.P,K1,1*%
%TO.N,Net-(D1-A)*%
X155000000Y-103160000D03*
D14*
%TO.P,K1,2*%
%TO.N,Net-(J3-Pin_2)*%
X155000000Y-93000000D03*
%TO.P,K1,3*%
%TO.N,Net-(J3-Pin_1)*%
X155000000Y-85380000D03*
%TO.P,K1,5*%
%TO.N,+12V*%
X147380000Y-103160000D03*
%TD*%
D10*
%TO.P,H2,1,1*%
%TO.N,GND*%
X110800000Y-121000000D03*
X111502944Y-119302944D03*
X111502944Y-122697056D03*
X113200000Y-118600000D03*
D11*
X113200000Y-121000000D03*
D10*
X113200000Y-123400000D03*
X114897056Y-119302944D03*
X114897056Y-122697056D03*
X115600000Y-121000000D03*
%TD*%
D15*
%TO.P,J3,1,Pin_1*%
%TO.N,Net-(J3-Pin_1)*%
X164390000Y-92000000D03*
D16*
%TO.P,J3,2,Pin_2*%
%TO.N,Net-(J3-Pin_2)*%
X161390000Y-92000000D03*
%TD*%
D10*
%TO.P,H4,1,1*%
%TO.N,GND*%
X168800000Y-121000000D03*
X169502944Y-119302944D03*
X169502944Y-122697056D03*
X171200000Y-118600000D03*
D11*
X171200000Y-121000000D03*
D10*
X171200000Y-123400000D03*
X172897056Y-119302944D03*
X172897056Y-122697056D03*
X173600000Y-121000000D03*
%TD*%
%TO.P,H3,1,1*%
%TO.N,GND*%
X168800000Y-83000000D03*
X169502944Y-81302944D03*
X169502944Y-84697056D03*
X171200000Y-80600000D03*
D11*
X171200000Y-83000000D03*
D10*
X171200000Y-85400000D03*
X172897056Y-81302944D03*
X172897056Y-84697056D03*
X173600000Y-83000000D03*
%TD*%
D17*
%TO.P,RV1,1,1*%
%TO.N,GND*%
X128200000Y-118000000D03*
%TO.P,RV1,2,2*%
%TO.N,Net-(U1-+)*%
X125660000Y-120540000D03*
%TO.P,RV1,3,3*%
%TO.N,Net-(U2-K)*%
X123120000Y-118000000D03*
%TD*%
D15*
%TO.P,J2,1,Pin_1*%
%TO.N,GND*%
X121010000Y-98000000D03*
D16*
%TO.P,J2,2,Pin_2*%
%TO.N,Net-(J2-Pin_2)*%
X124010000Y-98000000D03*
%TD*%
D12*
%TO.P,TP1,1,1*%
%TO.N,Net-(U1-+)*%
X120600000Y-104300000D03*
%TD*%
D15*
%TO.P,J1,1,Pin_1*%
%TO.N,GND*%
X121010000Y-91000000D03*
D16*
%TO.P,J1,2,Pin_2*%
%TO.N,+12V*%
X124010000Y-91000000D03*
%TD*%
D18*
%TO.N,GND*%
X155200000Y-112000000D03*
X135200000Y-97000000D03*
X128700000Y-92700000D03*
X126200000Y-105500000D03*
X143800000Y-101500000D03*
X126300000Y-112100000D03*
X124100000Y-82400000D03*
X132900000Y-103200000D03*
X140700000Y-104900000D03*
X123400000Y-114900000D03*
X138700000Y-99000000D03*
X148400000Y-117200000D03*
%TD*%
%TA.AperFunction,Conductor*%
%TO.N,GND*%
G36*
X110733761Y-80014718D02*
G01*
X110778447Y-80055380D01*
X110798615Y-80112331D01*
X110789476Y-80172053D01*
X110764985Y-80204670D01*
X110764648Y-80211096D01*
X113200000Y-82646447D01*
X113200001Y-82646447D01*
X115635350Y-80211096D01*
X115635013Y-80204670D01*
X115610523Y-80172053D01*
X115601384Y-80112331D01*
X115621552Y-80055380D01*
X115666238Y-80014718D01*
X115724834Y-80000000D01*
X168675165Y-80000000D01*
X168733761Y-80014718D01*
X168778447Y-80055380D01*
X168798615Y-80112331D01*
X168789476Y-80172053D01*
X168764985Y-80204670D01*
X168764648Y-80211096D01*
X171200000Y-82646447D01*
X171200001Y-82646447D01*
X173635350Y-80211096D01*
X173635013Y-80204670D01*
X173610523Y-80172053D01*
X173601384Y-80112331D01*
X173621552Y-80055380D01*
X173666238Y-80014718D01*
X173724834Y-80000000D01*
X173876000Y-80000000D01*
X173938000Y-80016613D01*
X173983387Y-80062000D01*
X174000000Y-80124000D01*
X174000000Y-80502189D01*
X173990561Y-80549642D01*
X173963681Y-80589870D01*
X171553553Y-83000000D01*
X173963681Y-85410129D01*
X173990561Y-85450357D01*
X174000000Y-85497810D01*
X174000000Y-118502189D01*
X173990561Y-118549642D01*
X173963681Y-118589870D01*
X171553553Y-121000000D01*
X173963681Y-123410129D01*
X173990561Y-123450357D01*
X174000000Y-123497810D01*
X174000000Y-123876000D01*
X173983387Y-123938000D01*
X173938000Y-123983387D01*
X173876000Y-124000000D01*
X173724832Y-124000000D01*
X173666236Y-123985282D01*
X173621550Y-123944621D01*
X173601382Y-123887669D01*
X173610521Y-123827948D01*
X173635013Y-123795327D01*
X173635350Y-123788903D01*
X171200000Y-121353553D01*
X168764648Y-123788903D01*
X168764985Y-123795329D01*
X168789477Y-123827948D01*
X168798616Y-123887669D01*
X168778448Y-123944620D01*
X168733762Y-123985282D01*
X168675166Y-124000000D01*
X115724832Y-124000000D01*
X115666236Y-123985282D01*
X115621550Y-123944621D01*
X115601382Y-123887669D01*
X115610521Y-123827948D01*
X115635013Y-123795327D01*
X115635350Y-123788903D01*
X113200000Y-121353553D01*
X110764648Y-123788903D01*
X110764985Y-123795329D01*
X110789477Y-123827948D01*
X110798616Y-123887669D01*
X110778448Y-123944620D01*
X110733762Y-123985282D01*
X110675166Y-124000000D01*
X110124000Y-124000000D01*
X110062000Y-123983387D01*
X110016613Y-123938000D01*
X110000000Y-123876000D01*
X110000000Y-123277853D01*
X110014718Y-123219257D01*
X110055380Y-123174571D01*
X110112331Y-123154403D01*
X110172052Y-123163542D01*
X110220366Y-123199818D01*
X110411095Y-123435350D01*
X110411096Y-123435350D01*
X112846447Y-121000001D01*
X112846447Y-121000000D01*
X113553553Y-121000000D01*
X115988902Y-123435349D01*
X116197473Y-123177786D01*
X116408690Y-122852543D01*
X116584757Y-122506990D01*
X116723739Y-122144931D01*
X116824114Y-121770325D01*
X116884780Y-121387288D01*
X116905077Y-121000000D01*
X116884780Y-120612711D01*
X116873264Y-120539999D01*
X124434837Y-120539999D01*
X124453450Y-120752744D01*
X124508724Y-120959031D01*
X124598979Y-121152582D01*
X124721471Y-121327520D01*
X124872479Y-121478528D01*
X125047417Y-121601020D01*
X125047418Y-121601020D01*
X125047419Y-121601021D01*
X125240970Y-121691276D01*
X125447253Y-121746549D01*
X125660000Y-121765162D01*
X125872747Y-121746549D01*
X126079030Y-121691276D01*
X126272581Y-121601021D01*
X126447519Y-121478529D01*
X126598529Y-121327519D01*
X126721021Y-121152581D01*
X126792171Y-121000000D01*
X167494922Y-121000000D01*
X167515219Y-121387288D01*
X167575885Y-121770325D01*
X167676260Y-122144931D01*
X167815242Y-122506990D01*
X167991309Y-122852543D01*
X168202530Y-123177792D01*
X168411095Y-123435350D01*
X168411096Y-123435350D01*
X170846447Y-121000001D01*
X170846447Y-121000000D01*
X168411096Y-118564648D01*
X168202526Y-118822214D01*
X167991309Y-119147456D01*
X167815242Y-119493009D01*
X167676260Y-119855068D01*
X167575885Y-120229674D01*
X167515219Y-120612711D01*
X167494922Y-121000000D01*
X126792171Y-121000000D01*
X126811276Y-120959030D01*
X126866549Y-120752747D01*
X126885162Y-120540000D01*
X126866549Y-120327253D01*
X126811276Y-120120970D01*
X126721021Y-119927419D01*
X126598529Y-119752481D01*
X126598528Y-119752479D01*
X126447520Y-119601471D01*
X126272582Y-119478979D01*
X126079031Y-119388724D01*
X125872744Y-119333450D01*
X125660000Y-119314837D01*
X125447255Y-119333450D01*
X125240968Y-119388724D01*
X125047417Y-119478979D01*
X124872479Y-119601471D01*
X124721471Y-119752479D01*
X124598979Y-119927417D01*
X124508724Y-120120968D01*
X124453450Y-120327255D01*
X124434837Y-120539999D01*
X116873264Y-120539999D01*
X116824114Y-120229674D01*
X116723739Y-119855068D01*
X116584757Y-119493009D01*
X116408690Y-119147456D01*
X116197469Y-118822207D01*
X115988904Y-118564649D01*
X115988903Y-118564648D01*
X113553553Y-121000000D01*
X112846447Y-121000000D01*
X110411096Y-118564648D01*
X110220367Y-118800182D01*
X110172052Y-118836458D01*
X110112331Y-118845597D01*
X110055380Y-118825429D01*
X110014718Y-118780743D01*
X110000000Y-118722147D01*
X110000000Y-118211096D01*
X110764648Y-118211096D01*
X113200000Y-120646447D01*
X113200001Y-120646447D01*
X115635350Y-118211096D01*
X115635350Y-118211095D01*
X115377792Y-118002530D01*
X115373896Y-118000000D01*
X121894837Y-118000000D01*
X121913450Y-118212744D01*
X121968724Y-118419031D01*
X122058979Y-118612582D01*
X122181471Y-118787520D01*
X122332479Y-118938528D01*
X122507417Y-119061020D01*
X122507418Y-119061020D01*
X122507419Y-119061021D01*
X122700970Y-119151276D01*
X122907253Y-119206549D01*
X123120000Y-119225162D01*
X123332747Y-119206549D01*
X123539030Y-119151276D01*
X123732581Y-119061021D01*
X123788905Y-119021583D01*
X127531967Y-119021583D01*
X127587670Y-119060587D01*
X127781138Y-119150802D01*
X127987342Y-119206055D01*
X128200000Y-119224660D01*
X128412657Y-119206055D01*
X128618861Y-119150802D01*
X128812325Y-119060589D01*
X128868030Y-119021583D01*
X128200001Y-118353553D01*
X128200000Y-118353553D01*
X127531967Y-119021583D01*
X123788905Y-119021583D01*
X123907519Y-118938529D01*
X124058529Y-118787519D01*
X124181021Y-118612581D01*
X124271276Y-118419030D01*
X124326549Y-118212747D01*
X124345162Y-118000000D01*
X124345162Y-117999999D01*
X126975339Y-117999999D01*
X126993944Y-118212657D01*
X127049197Y-118418861D01*
X127139410Y-118612326D01*
X127178415Y-118668030D01*
X127178416Y-118668031D01*
X127846447Y-118000001D01*
X128553553Y-118000001D01*
X129221583Y-118668030D01*
X129260589Y-118612325D01*
X129350802Y-118418861D01*
X129406055Y-118212657D01*
X129406192Y-118211096D01*
X168764648Y-118211096D01*
X171200000Y-120646447D01*
X171200001Y-120646447D01*
X173635350Y-118211096D01*
X173635350Y-118211095D01*
X173377792Y-118002530D01*
X173052543Y-117791309D01*
X172706990Y-117615242D01*
X172344931Y-117476260D01*
X171970325Y-117375885D01*
X171587288Y-117315219D01*
X171200000Y-117294922D01*
X170812711Y-117315219D01*
X170429674Y-117375885D01*
X170055068Y-117476260D01*
X169693009Y-117615242D01*
X169347456Y-117791309D01*
X169022214Y-118002526D01*
X168764648Y-118211096D01*
X129406192Y-118211096D01*
X129424660Y-117999999D01*
X129406055Y-117787342D01*
X129350802Y-117581138D01*
X129260587Y-117387670D01*
X129221583Y-117331967D01*
X128553553Y-118000000D01*
X128553553Y-118000001D01*
X127846447Y-118000001D01*
X127846447Y-117999999D01*
X127178415Y-117331967D01*
X127178414Y-117331967D01*
X127139411Y-117387672D01*
X127049197Y-117581138D01*
X126993944Y-117787342D01*
X126975339Y-117999999D01*
X124345162Y-117999999D01*
X124326549Y-117787253D01*
X124271276Y-117580970D01*
X124181021Y-117387419D01*
X124142193Y-117331967D01*
X124058528Y-117212479D01*
X123907520Y-117061471D01*
X123788901Y-116978414D01*
X127531967Y-116978414D01*
X128200000Y-117646447D01*
X128200001Y-117646447D01*
X128868031Y-116978416D01*
X128868030Y-116978415D01*
X128812326Y-116939410D01*
X128618861Y-116849197D01*
X128412657Y-116793944D01*
X128200000Y-116775339D01*
X127987342Y-116793944D01*
X127781138Y-116849197D01*
X127587672Y-116939411D01*
X127531967Y-116978414D01*
X123788901Y-116978414D01*
X123732582Y-116938979D01*
X123539031Y-116848724D01*
X123332744Y-116793450D01*
X123120000Y-116774837D01*
X122907255Y-116793450D01*
X122700968Y-116848724D01*
X122507417Y-116938979D01*
X122332479Y-117061471D01*
X122181471Y-117212479D01*
X122058979Y-117387417D01*
X121968724Y-117580968D01*
X121913450Y-117787255D01*
X121894837Y-118000000D01*
X115373896Y-118000000D01*
X115052543Y-117791309D01*
X114706990Y-117615242D01*
X114344931Y-117476260D01*
X113970325Y-117375885D01*
X113587288Y-117315219D01*
X113200000Y-117294922D01*
X112812711Y-117315219D01*
X112429674Y-117375885D01*
X112055068Y-117476260D01*
X111693009Y-117615242D01*
X111347456Y-117791309D01*
X111022214Y-118002526D01*
X110764648Y-118211096D01*
X110000000Y-118211096D01*
X110000000Y-117123610D01*
X116629942Y-117123610D01*
X116676766Y-117160055D01*
X116895393Y-117278368D01*
X117130506Y-117359083D01*
X117375707Y-117400000D01*
X117624293Y-117400000D01*
X117869493Y-117359083D01*
X118104606Y-117278368D01*
X118323233Y-117160053D01*
X118370056Y-117123609D01*
X117500000Y-116253553D01*
X116629942Y-117123609D01*
X116629942Y-117123610D01*
X110000000Y-117123610D01*
X110000000Y-115900000D01*
X115994858Y-115900000D01*
X116015386Y-116147732D01*
X116076413Y-116388721D01*
X116176268Y-116616370D01*
X116276563Y-116769882D01*
X116276564Y-116769882D01*
X117146447Y-115900001D01*
X117853553Y-115900001D01*
X118723434Y-116769882D01*
X118823730Y-116616369D01*
X118923586Y-116388721D01*
X118984613Y-116147732D01*
X119005141Y-115900000D01*
X118984613Y-115652267D01*
X118923586Y-115411278D01*
X118823730Y-115183630D01*
X118723434Y-115030116D01*
X117853553Y-115900000D01*
X117853553Y-115900001D01*
X117146447Y-115900001D01*
X117146447Y-115900000D01*
X116276564Y-115030116D01*
X116176266Y-115183634D01*
X116076413Y-115411278D01*
X116015386Y-115652267D01*
X115994858Y-115900000D01*
X110000000Y-115900000D01*
X110000000Y-114676390D01*
X116629942Y-114676390D01*
X117500000Y-115546447D01*
X117500001Y-115546447D01*
X118370057Y-114676390D01*
X118370056Y-114676388D01*
X118323235Y-114639947D01*
X118104606Y-114521631D01*
X117869493Y-114440916D01*
X117624293Y-114400000D01*
X117375707Y-114400000D01*
X117130506Y-114440916D01*
X116895393Y-114521631D01*
X116676764Y-114639946D01*
X116629942Y-114676388D01*
X116629942Y-114676390D01*
X110000000Y-114676390D01*
X110000000Y-104299999D01*
X119094356Y-104299999D01*
X119114891Y-104547816D01*
X119114891Y-104547819D01*
X119114892Y-104547821D01*
X119175937Y-104788881D01*
X119187659Y-104815604D01*
X119275825Y-105016604D01*
X119275827Y-105016607D01*
X119411836Y-105224785D01*
X119580256Y-105407738D01*
X119580259Y-105407740D01*
X119776485Y-105560470D01*
X119776487Y-105560471D01*
X119776491Y-105560474D01*
X119995190Y-105678828D01*
X120230386Y-105759571D01*
X120475665Y-105800500D01*
X120724335Y-105800500D01*
X120969614Y-105759571D01*
X121204810Y-105678828D01*
X121423509Y-105560474D01*
X121619744Y-105407738D01*
X121788164Y-105224785D01*
X121924173Y-105016607D01*
X122024063Y-104788881D01*
X122085108Y-104547821D01*
X122105643Y-104300000D01*
X122085108Y-104052179D01*
X122024063Y-103811119D01*
X121924173Y-103583393D01*
X121788164Y-103375215D01*
X121619744Y-103192262D01*
X121578294Y-103160000D01*
X145724396Y-103160000D01*
X145744779Y-103418995D01*
X145805426Y-103671610D01*
X145863213Y-103811117D01*
X145904846Y-103911628D01*
X145990978Y-104052183D01*
X146040590Y-104133143D01*
X146107567Y-104211563D01*
X146209311Y-104330689D01*
X146406860Y-104499412D01*
X146628372Y-104635154D01*
X146808385Y-104709718D01*
X146868389Y-104734573D01*
X146948197Y-104753733D01*
X147121006Y-104795221D01*
X147380000Y-104815604D01*
X147638994Y-104795221D01*
X147891610Y-104734573D01*
X148131628Y-104635154D01*
X148353140Y-104499412D01*
X148518865Y-104357869D01*
X153349500Y-104357869D01*
X153355909Y-104417483D01*
X153406204Y-104552331D01*
X153492454Y-104667546D01*
X153607669Y-104753796D01*
X153742517Y-104804091D01*
X153802127Y-104810500D01*
X156197872Y-104810499D01*
X156257483Y-104804091D01*
X156392331Y-104753796D01*
X156507546Y-104667546D01*
X156593796Y-104552331D01*
X156644091Y-104417483D01*
X156650500Y-104357873D01*
X156650499Y-101962128D01*
X156644091Y-101902517D01*
X156593796Y-101767669D01*
X156507546Y-101652454D01*
X156392331Y-101566204D01*
X156257483Y-101515909D01*
X156197873Y-101509500D01*
X156197869Y-101509500D01*
X153802130Y-101509500D01*
X153742515Y-101515909D01*
X153607669Y-101566204D01*
X153492454Y-101652454D01*
X153406204Y-101767668D01*
X153355909Y-101902516D01*
X153349500Y-101962130D01*
X153349500Y-104357869D01*
X148518865Y-104357869D01*
X148550689Y-104330689D01*
X148719412Y-104133140D01*
X148855154Y-103911628D01*
X148954573Y-103671610D01*
X149015221Y-103418994D01*
X149035604Y-103160000D01*
X149015221Y-102901006D01*
X148954573Y-102648390D01*
X148855154Y-102408372D01*
X148719412Y-102186860D01*
X148550689Y-101989311D01*
X148431563Y-101887567D01*
X148353143Y-101820590D01*
X148353140Y-101820588D01*
X148131628Y-101684846D01*
X148036470Y-101645430D01*
X147891610Y-101585426D01*
X147638995Y-101524779D01*
X147380000Y-101504396D01*
X147121004Y-101524779D01*
X146868389Y-101585426D01*
X146663524Y-101670285D01*
X146628372Y-101684846D01*
X146484359Y-101773096D01*
X146406856Y-101820590D01*
X146209311Y-101989311D01*
X146040590Y-102186856D01*
X146040588Y-102186860D01*
X145904846Y-102408372D01*
X145904845Y-102408375D01*
X145805426Y-102648389D01*
X145744779Y-102901004D01*
X145724396Y-103160000D01*
X121578294Y-103160000D01*
X121423514Y-103039529D01*
X121423510Y-103039526D01*
X121423509Y-103039526D01*
X121204810Y-102921172D01*
X121204806Y-102921170D01*
X121204805Y-102921170D01*
X120969615Y-102840429D01*
X120724335Y-102799500D01*
X120475665Y-102799500D01*
X120230384Y-102840429D01*
X119995194Y-102921170D01*
X119776485Y-103039529D01*
X119580259Y-103192259D01*
X119411837Y-103375214D01*
X119275825Y-103583395D01*
X119175938Y-103811117D01*
X119114891Y-104052183D01*
X119094356Y-104299999D01*
X110000000Y-104299999D01*
X110000000Y-98131182D01*
X114959500Y-98131182D01*
X114998604Y-98390615D01*
X115075937Y-98641323D01*
X115189772Y-98877704D01*
X115325766Y-99077170D01*
X115337571Y-99094485D01*
X115496079Y-99265315D01*
X115516019Y-99286805D01*
X115721143Y-99450386D01*
X115948357Y-99581568D01*
X116192584Y-99677420D01*
X116448370Y-99735802D01*
X116504408Y-99740001D01*
X116644501Y-99750500D01*
X116644506Y-99750500D01*
X116775494Y-99750500D01*
X116775499Y-99750500D01*
X116898079Y-99741313D01*
X116971630Y-99735802D01*
X117227416Y-99677420D01*
X117471643Y-99581568D01*
X117698857Y-99450386D01*
X117903981Y-99286805D01*
X118003273Y-99179792D01*
X118082428Y-99094485D01*
X118082429Y-99094482D01*
X118082433Y-99094479D01*
X118230228Y-98877704D01*
X118344063Y-98641323D01*
X118421396Y-98390615D01*
X118442591Y-98250000D01*
X119750000Y-98250000D01*
X119750000Y-98807824D01*
X119756402Y-98867375D01*
X119806647Y-99002089D01*
X119892811Y-99117188D01*
X120007910Y-99203352D01*
X120142624Y-99253597D01*
X120202176Y-99260000D01*
X120760000Y-99260000D01*
X120760000Y-98250000D01*
X121260000Y-98250000D01*
X121260000Y-99260000D01*
X121817824Y-99260000D01*
X121877375Y-99253597D01*
X122012089Y-99203352D01*
X122127188Y-99117188D01*
X122213352Y-99002089D01*
X122263597Y-98867375D01*
X122270000Y-98807824D01*
X122270000Y-98250000D01*
X121260000Y-98250000D01*
X120760000Y-98250000D01*
X119750000Y-98250000D01*
X118442591Y-98250000D01*
X118460500Y-98131182D01*
X118460500Y-97999999D01*
X122744684Y-97999999D01*
X122763907Y-98219717D01*
X122792450Y-98326241D01*
X122809699Y-98390615D01*
X122820994Y-98432766D01*
X122914204Y-98632657D01*
X122920272Y-98641323D01*
X123040712Y-98813329D01*
X123196671Y-98969288D01*
X123377342Y-99095795D01*
X123577237Y-99189007D01*
X123790280Y-99246092D01*
X124010000Y-99265315D01*
X124229720Y-99246092D01*
X124442763Y-99189007D01*
X124642658Y-99095795D01*
X124823329Y-98969288D01*
X124979288Y-98813329D01*
X125105795Y-98632658D01*
X125199007Y-98432763D01*
X125256092Y-98219720D01*
X125275315Y-98000000D01*
X125256092Y-97780280D01*
X125199007Y-97567237D01*
X125105795Y-97367343D01*
X124983143Y-97192176D01*
X124979288Y-97186670D01*
X124823329Y-97030712D01*
X124642657Y-96904204D01*
X124442766Y-96810994D01*
X124442763Y-96810993D01*
X124336241Y-96782450D01*
X124229717Y-96753907D01*
X124010000Y-96734684D01*
X123790282Y-96753907D01*
X123577235Y-96810993D01*
X123377341Y-96904205D01*
X123196669Y-97030712D01*
X123040712Y-97186669D01*
X122914205Y-97367341D01*
X122820993Y-97567235D01*
X122763907Y-97780282D01*
X122744684Y-97999999D01*
X118460500Y-97999999D01*
X118460500Y-97868818D01*
X118442591Y-97750000D01*
X119750000Y-97750000D01*
X120760000Y-97750000D01*
X120760000Y-96740000D01*
X121260000Y-96740000D01*
X121260000Y-97750000D01*
X122270000Y-97750000D01*
X122270000Y-97192176D01*
X122263597Y-97132624D01*
X122213352Y-96997910D01*
X122127188Y-96882811D01*
X122012089Y-96796647D01*
X121877375Y-96746402D01*
X121817824Y-96740000D01*
X121260000Y-96740000D01*
X120760000Y-96740000D01*
X120202176Y-96740000D01*
X120142624Y-96746402D01*
X120007910Y-96796647D01*
X119892811Y-96882811D01*
X119806647Y-96997910D01*
X119756402Y-97132624D01*
X119750000Y-97192176D01*
X119750000Y-97750000D01*
X118442591Y-97750000D01*
X118421396Y-97609385D01*
X118344063Y-97358677D01*
X118230228Y-97122296D01*
X118082433Y-96905521D01*
X118082432Y-96905520D01*
X118082428Y-96905514D01*
X117903984Y-96713198D01*
X117903983Y-96713197D01*
X117903981Y-96713195D01*
X117698857Y-96549614D01*
X117698856Y-96549613D01*
X117471641Y-96418431D01*
X117227418Y-96322580D01*
X116971627Y-96264197D01*
X116775499Y-96249500D01*
X116775494Y-96249500D01*
X116644506Y-96249500D01*
X116644501Y-96249500D01*
X116448372Y-96264197D01*
X116192581Y-96322580D01*
X115948358Y-96418431D01*
X115721143Y-96549613D01*
X115516015Y-96713198D01*
X115337571Y-96905514D01*
X115274577Y-96997910D01*
X115189772Y-97122296D01*
X115075937Y-97358677D01*
X114998604Y-97609385D01*
X114959500Y-97868818D01*
X114959500Y-98131182D01*
X110000000Y-98131182D01*
X110000000Y-93000000D01*
X153344396Y-93000000D01*
X153364779Y-93258995D01*
X153425426Y-93511610D01*
X153485430Y-93656470D01*
X153524846Y-93751628D01*
X153660588Y-93973140D01*
X153660590Y-93973143D01*
X153727567Y-94051563D01*
X153829311Y-94170689D01*
X154026860Y-94339412D01*
X154248372Y-94475154D01*
X154428385Y-94549718D01*
X154488389Y-94574573D01*
X154568197Y-94593733D01*
X154741006Y-94635221D01*
X155000000Y-94655604D01*
X155258994Y-94635221D01*
X155511610Y-94574573D01*
X155751628Y-94475154D01*
X155973140Y-94339412D01*
X156170689Y-94170689D01*
X156339412Y-93973140D01*
X156475154Y-93751628D01*
X156574573Y-93511610D01*
X156635221Y-93258994D01*
X156655604Y-93000000D01*
X156635221Y-92741006D01*
X156574573Y-92488390D01*
X156551531Y-92432763D01*
X156534073Y-92390615D01*
X156475154Y-92248372D01*
X156339412Y-92026860D01*
X156316471Y-92000000D01*
X160124684Y-92000000D01*
X160143907Y-92219717D01*
X160143908Y-92219720D01*
X160189699Y-92390615D01*
X160200994Y-92432766D01*
X160294204Y-92632657D01*
X160370071Y-92741006D01*
X160420712Y-92813329D01*
X160576671Y-92969288D01*
X160757342Y-93095795D01*
X160957237Y-93189007D01*
X161170280Y-93246092D01*
X161390000Y-93265315D01*
X161609720Y-93246092D01*
X161822763Y-93189007D01*
X162022658Y-93095795D01*
X162203329Y-92969288D01*
X162359288Y-92813329D01*
X162363111Y-92807869D01*
X163129500Y-92807869D01*
X163135909Y-92867483D01*
X163186204Y-93002331D01*
X163272454Y-93117546D01*
X163387669Y-93203796D01*
X163522517Y-93254091D01*
X163582127Y-93260500D01*
X165197872Y-93260499D01*
X165257483Y-93254091D01*
X165392331Y-93203796D01*
X165507546Y-93117546D01*
X165593796Y-93002331D01*
X165644091Y-92867483D01*
X165650500Y-92807873D01*
X165650500Y-92131182D01*
X166939500Y-92131182D01*
X166978604Y-92390615D01*
X167055937Y-92641323D01*
X167169772Y-92877704D01*
X167305766Y-93077170D01*
X167317571Y-93094485D01*
X167476079Y-93265315D01*
X167496019Y-93286805D01*
X167701143Y-93450386D01*
X167928357Y-93581568D01*
X168172584Y-93677420D01*
X168428370Y-93735802D01*
X168484408Y-93740001D01*
X168624501Y-93750500D01*
X168624506Y-93750500D01*
X168755494Y-93750500D01*
X168755499Y-93750500D01*
X168878078Y-93741313D01*
X168951630Y-93735802D01*
X169207416Y-93677420D01*
X169451643Y-93581568D01*
X169678857Y-93450386D01*
X169883981Y-93286805D01*
X170061212Y-93095795D01*
X170062428Y-93094485D01*
X170062429Y-93094482D01*
X170062433Y-93094479D01*
X170210228Y-92877704D01*
X170324063Y-92641323D01*
X170401396Y-92390615D01*
X170440500Y-92131182D01*
X170440500Y-91868818D01*
X170401396Y-91609385D01*
X170324063Y-91358677D01*
X170210228Y-91122296D01*
X170062433Y-90905521D01*
X170062432Y-90905520D01*
X170062428Y-90905514D01*
X169883984Y-90713198D01*
X169883983Y-90713197D01*
X169883981Y-90713195D01*
X169678857Y-90549614D01*
X169678856Y-90549613D01*
X169451641Y-90418431D01*
X169207418Y-90322580D01*
X168951627Y-90264197D01*
X168755499Y-90249500D01*
X168755494Y-90249500D01*
X168624506Y-90249500D01*
X168624501Y-90249500D01*
X168428372Y-90264197D01*
X168172581Y-90322580D01*
X167928358Y-90418431D01*
X167701143Y-90549613D01*
X167496015Y-90713198D01*
X167317571Y-90905514D01*
X167254742Y-90997668D01*
X167169772Y-91122296D01*
X167055937Y-91358677D01*
X166978604Y-91609385D01*
X166939500Y-91868818D01*
X166939500Y-92131182D01*
X165650500Y-92131182D01*
X165650499Y-91192128D01*
X165644091Y-91132517D01*
X165593796Y-90997669D01*
X165507546Y-90882454D01*
X165392331Y-90796204D01*
X165257483Y-90745909D01*
X165197873Y-90739500D01*
X165197869Y-90739500D01*
X163582130Y-90739500D01*
X163522515Y-90745909D01*
X163387669Y-90796204D01*
X163272454Y-90882454D01*
X163186204Y-90997668D01*
X163135909Y-91132516D01*
X163129500Y-91192130D01*
X163129500Y-92807869D01*
X162363111Y-92807869D01*
X162485795Y-92632658D01*
X162579007Y-92432763D01*
X162636092Y-92219720D01*
X162655315Y-92000000D01*
X162636092Y-91780280D01*
X162579007Y-91567237D01*
X162485795Y-91367343D01*
X162479727Y-91358677D01*
X162359288Y-91186670D01*
X162203329Y-91030712D01*
X162022657Y-90904204D01*
X161822766Y-90810994D01*
X161822763Y-90810993D01*
X161708141Y-90780280D01*
X161609717Y-90753907D01*
X161390000Y-90734684D01*
X161170282Y-90753907D01*
X160957235Y-90810993D01*
X160757341Y-90904205D01*
X160576669Y-91030712D01*
X160420712Y-91186669D01*
X160294205Y-91367341D01*
X160200993Y-91567235D01*
X160143907Y-91780282D01*
X160124684Y-92000000D01*
X156316471Y-92000000D01*
X156289813Y-91968787D01*
X156170689Y-91829311D01*
X156051563Y-91727567D01*
X155973143Y-91660590D01*
X155941702Y-91641323D01*
X155751628Y-91524846D01*
X155656470Y-91485430D01*
X155511610Y-91425426D01*
X155258995Y-91364779D01*
X155000000Y-91344396D01*
X154741004Y-91364779D01*
X154488389Y-91425426D01*
X154283524Y-91510285D01*
X154248372Y-91524846D01*
X154110416Y-91609385D01*
X154026856Y-91660590D01*
X153829311Y-91829311D01*
X153660590Y-92026856D01*
X153660588Y-92026860D01*
X153524846Y-92248372D01*
X153524845Y-92248375D01*
X153425426Y-92488389D01*
X153364779Y-92741004D01*
X153344396Y-93000000D01*
X110000000Y-93000000D01*
X110000000Y-91131182D01*
X114959500Y-91131182D01*
X114998604Y-91390615D01*
X115075937Y-91641323D01*
X115189772Y-91877704D01*
X115291465Y-92026860D01*
X115337571Y-92094485D01*
X115496079Y-92265315D01*
X115516019Y-92286805D01*
X115721143Y-92450386D01*
X115948357Y-92581568D01*
X116192584Y-92677420D01*
X116448370Y-92735802D01*
X116504408Y-92740001D01*
X116644501Y-92750500D01*
X116644506Y-92750500D01*
X116775494Y-92750500D01*
X116775499Y-92750500D01*
X116902212Y-92741004D01*
X116971630Y-92735802D01*
X117227416Y-92677420D01*
X117471643Y-92581568D01*
X117698857Y-92450386D01*
X117903981Y-92286805D01*
X118048378Y-92131182D01*
X118082428Y-92094485D01*
X118082429Y-92094482D01*
X118082433Y-92094479D01*
X118230228Y-91877704D01*
X118344063Y-91641323D01*
X118421396Y-91390615D01*
X118442591Y-91250000D01*
X119750000Y-91250000D01*
X119750000Y-91807824D01*
X119756402Y-91867375D01*
X119806647Y-92002089D01*
X119892811Y-92117188D01*
X120007910Y-92203352D01*
X120142624Y-92253597D01*
X120202176Y-92260000D01*
X120760000Y-92260000D01*
X120760000Y-91250000D01*
X121260000Y-91250000D01*
X121260000Y-92260000D01*
X121817824Y-92260000D01*
X121877375Y-92253597D01*
X122012089Y-92203352D01*
X122127188Y-92117188D01*
X122213352Y-92002089D01*
X122263597Y-91867375D01*
X122270000Y-91807824D01*
X122270000Y-91250000D01*
X121260000Y-91250000D01*
X120760000Y-91250000D01*
X119750000Y-91250000D01*
X118442591Y-91250000D01*
X118460500Y-91131182D01*
X118460500Y-90999999D01*
X122744684Y-90999999D01*
X122763907Y-91219717D01*
X122792450Y-91326241D01*
X122809699Y-91390615D01*
X122820994Y-91432766D01*
X122914204Y-91632657D01*
X122920272Y-91641323D01*
X123040712Y-91813329D01*
X123196671Y-91969288D01*
X123377342Y-92095795D01*
X123577237Y-92189007D01*
X123790280Y-92246092D01*
X124010000Y-92265315D01*
X124229720Y-92246092D01*
X124442763Y-92189007D01*
X124642658Y-92095795D01*
X124823329Y-91969288D01*
X124979288Y-91813329D01*
X125105795Y-91632658D01*
X125199007Y-91432763D01*
X125256092Y-91219720D01*
X125275315Y-91000000D01*
X125256092Y-90780280D01*
X125199007Y-90567237D01*
X125105795Y-90367343D01*
X125033572Y-90264197D01*
X124979288Y-90186670D01*
X124823329Y-90030712D01*
X124642657Y-89904204D01*
X124442766Y-89810994D01*
X124442763Y-89810993D01*
X124336241Y-89782450D01*
X124229717Y-89753907D01*
X124010000Y-89734684D01*
X123790282Y-89753907D01*
X123577235Y-89810993D01*
X123377341Y-89904205D01*
X123196669Y-90030712D01*
X123040712Y-90186669D01*
X122914205Y-90367341D01*
X122820993Y-90567235D01*
X122763907Y-90780282D01*
X122744684Y-90999999D01*
X118460500Y-90999999D01*
X118460500Y-90868818D01*
X118442591Y-90750000D01*
X119750000Y-90750000D01*
X120760000Y-90750000D01*
X120760000Y-89740000D01*
X121260000Y-89740000D01*
X121260000Y-90750000D01*
X122270000Y-90750000D01*
X122270000Y-90192176D01*
X122263597Y-90132624D01*
X122213352Y-89997910D01*
X122127188Y-89882811D01*
X122012089Y-89796647D01*
X121877375Y-89746402D01*
X121817824Y-89740000D01*
X121260000Y-89740000D01*
X120760000Y-89740000D01*
X120202176Y-89740000D01*
X120142624Y-89746402D01*
X120007910Y-89796647D01*
X119892811Y-89882811D01*
X119806647Y-89997910D01*
X119756402Y-90132624D01*
X119750000Y-90192176D01*
X119750000Y-90750000D01*
X118442591Y-90750000D01*
X118421396Y-90609385D01*
X118344063Y-90358677D01*
X118230228Y-90122296D01*
X118082433Y-89905521D01*
X118082432Y-89905520D01*
X118082428Y-89905514D01*
X117903984Y-89713198D01*
X117903983Y-89713197D01*
X117903981Y-89713195D01*
X117698857Y-89549614D01*
X117698856Y-89549613D01*
X117471641Y-89418431D01*
X117227418Y-89322580D01*
X116971627Y-89264197D01*
X116775499Y-89249500D01*
X116775494Y-89249500D01*
X116644506Y-89249500D01*
X116644501Y-89249500D01*
X116448372Y-89264197D01*
X116192581Y-89322580D01*
X115948358Y-89418431D01*
X115721143Y-89549613D01*
X115516015Y-89713198D01*
X115337571Y-89905514D01*
X115274577Y-89997910D01*
X115189772Y-90122296D01*
X115075937Y-90358677D01*
X114998604Y-90609385D01*
X114959500Y-90868818D01*
X114959500Y-91131182D01*
X110000000Y-91131182D01*
X110000000Y-85788903D01*
X110764648Y-85788903D01*
X110764649Y-85788904D01*
X111022207Y-85997469D01*
X111347456Y-86208690D01*
X111693009Y-86384757D01*
X112055068Y-86523739D01*
X112429674Y-86624114D01*
X112812711Y-86684780D01*
X113200000Y-86705077D01*
X113587288Y-86684780D01*
X113970325Y-86624114D01*
X114344931Y-86523739D01*
X114706990Y-86384757D01*
X115052543Y-86208690D01*
X115377786Y-85997473D01*
X115635349Y-85788902D01*
X113200000Y-83353553D01*
X110764648Y-85788903D01*
X110000000Y-85788903D01*
X110000000Y-85277853D01*
X110014718Y-85219257D01*
X110055380Y-85174571D01*
X110112331Y-85154403D01*
X110172052Y-85163542D01*
X110220366Y-85199818D01*
X110411095Y-85435350D01*
X110411096Y-85435350D01*
X112846447Y-83000001D01*
X112846447Y-83000000D01*
X113553553Y-83000000D01*
X115988902Y-85435349D01*
X116033723Y-85380000D01*
X153344396Y-85380000D01*
X153364779Y-85638995D01*
X153425426Y-85891610D01*
X153469275Y-85997469D01*
X153524846Y-86131628D01*
X153660588Y-86353140D01*
X153660590Y-86353143D01*
X153727567Y-86431563D01*
X153829311Y-86550689D01*
X154026860Y-86719412D01*
X154248372Y-86855154D01*
X154428385Y-86929718D01*
X154488389Y-86954573D01*
X154568197Y-86973733D01*
X154741006Y-87015221D01*
X155000000Y-87035604D01*
X155258994Y-87015221D01*
X155511610Y-86954573D01*
X155751628Y-86855154D01*
X155973140Y-86719412D01*
X156170689Y-86550689D01*
X156339412Y-86353140D01*
X156475154Y-86131628D01*
X156574573Y-85891610D01*
X156599231Y-85788903D01*
X168764648Y-85788903D01*
X168764649Y-85788904D01*
X169022207Y-85997469D01*
X169347456Y-86208690D01*
X169693009Y-86384757D01*
X170055068Y-86523739D01*
X170429674Y-86624114D01*
X170812711Y-86684780D01*
X171200000Y-86705077D01*
X171587288Y-86684780D01*
X171970325Y-86624114D01*
X172344931Y-86523739D01*
X172706990Y-86384757D01*
X173052543Y-86208690D01*
X173377786Y-85997473D01*
X173635349Y-85788902D01*
X171200000Y-83353553D01*
X168764648Y-85788903D01*
X156599231Y-85788903D01*
X156635221Y-85638994D01*
X156655604Y-85380000D01*
X156635221Y-85121006D01*
X156574573Y-84868390D01*
X156475154Y-84628372D01*
X156339412Y-84406860D01*
X156170689Y-84209311D01*
X156051563Y-84107567D01*
X155973143Y-84040590D01*
X155973140Y-84040588D01*
X155751628Y-83904846D01*
X155656470Y-83865430D01*
X155511610Y-83805426D01*
X155258995Y-83744779D01*
X155000000Y-83724396D01*
X154741004Y-83744779D01*
X154488389Y-83805426D01*
X154283524Y-83890285D01*
X154248372Y-83904846D01*
X154104359Y-83993096D01*
X154026856Y-84040590D01*
X153829311Y-84209311D01*
X153660590Y-84406856D01*
X153660588Y-84406860D01*
X153524846Y-84628372D01*
X153524845Y-84628375D01*
X153425426Y-84868389D01*
X153364779Y-85121004D01*
X153344396Y-85380000D01*
X116033723Y-85380000D01*
X116197473Y-85177786D01*
X116408690Y-84852543D01*
X116584757Y-84506990D01*
X116723739Y-84144931D01*
X116824114Y-83770325D01*
X116884780Y-83387288D01*
X116905077Y-83000000D01*
X116905077Y-82999999D01*
X167494922Y-82999999D01*
X167515219Y-83387288D01*
X167575885Y-83770325D01*
X167676260Y-84144931D01*
X167815242Y-84506990D01*
X167991309Y-84852543D01*
X168202530Y-85177792D01*
X168411095Y-85435350D01*
X168411096Y-85435350D01*
X170846447Y-83000001D01*
X170846447Y-83000000D01*
X168411096Y-80564648D01*
X168202526Y-80822214D01*
X167991309Y-81147456D01*
X167815242Y-81493009D01*
X167676260Y-81855068D01*
X167575885Y-82229674D01*
X167515219Y-82612711D01*
X167494922Y-82999999D01*
X116905077Y-82999999D01*
X116884780Y-82612711D01*
X116824114Y-82229674D01*
X116723739Y-81855068D01*
X116584757Y-81493009D01*
X116408690Y-81147456D01*
X116197469Y-80822207D01*
X115988904Y-80564649D01*
X115988903Y-80564648D01*
X113553553Y-83000000D01*
X112846447Y-83000000D01*
X110411096Y-80564648D01*
X110220367Y-80800182D01*
X110172052Y-80836458D01*
X110112331Y-80845597D01*
X110055380Y-80825429D01*
X110014718Y-80780743D01*
X110000000Y-80722147D01*
X110000000Y-80124000D01*
X110016613Y-80062000D01*
X110062000Y-80016613D01*
X110124000Y-80000000D01*
X110675165Y-80000000D01*
X110733761Y-80014718D01*
G37*
%TD.AperFunction*%
%TD*%
M02*
