%TF.GenerationSoftware,KiCad,Pcbnew,7.0.1*%
%TF.CreationDate,2023-05-02T18:28:53-06:00*%
%TF.ProjectId,contactor_controller,636f6e74-6163-4746-9f72-5f636f6e7472,rev?*%
%TF.SameCoordinates,Original*%
%TF.FileFunction,Soldermask,Top*%
%TF.FilePolarity,Negative*%
%FSLAX46Y46*%
G04 Gerber Fmt 4.6, Leading zero omitted, Abs format (unit mm)*
G04 Created by KiCad (PCBNEW 7.0.1) date 2023-05-02 18:28:53*
%MOMM*%
%LPD*%
G01*
G04 APERTURE LIST*
G04 Aperture macros list*
%AMRoundRect*
0 Rectangle with rounded corners*
0 $1 Rounding radius*
0 $2 $3 $4 $5 $6 $7 $8 $9 X,Y pos of 4 corners*
0 Add a 4 corners polygon primitive as box body*
4,1,4,$2,$3,$4,$5,$6,$7,$8,$9,$2,$3,0*
0 Add four circle primitives for the rounded corners*
1,1,$1+$1,$2,$3*
1,1,$1+$1,$4,$5*
1,1,$1+$1,$6,$7*
1,1,$1+$1,$8,$9*
0 Add four rect primitives between the rounded corners*
20,1,$1+$1,$2,$3,$4,$5,0*
20,1,$1+$1,$4,$5,$6,$7,0*
20,1,$1+$1,$6,$7,$8,$9,0*
20,1,$1+$1,$8,$9,$2,$3,0*%
G04 Aperture macros list end*
%ADD10C,0.836200*%
%ADD11C,1.576200*%
%ADD12C,0.010000*%
%ADD13RoundRect,0.250000X-0.300000X0.300000X-0.300000X-0.300000X0.300000X-0.300000X0.300000X0.300000X0*%
%ADD14RoundRect,0.250000X0.300000X-0.300000X0.300000X0.300000X-0.300000X0.300000X-0.300000X-0.300000X0*%
%ADD15RoundRect,0.250000X0.450000X-0.350000X0.450000X0.350000X-0.450000X0.350000X-0.450000X-0.350000X0*%
%ADD16RoundRect,0.250000X1.000000X0.650000X-1.000000X0.650000X-1.000000X-0.650000X1.000000X-0.650000X0*%
%ADD17C,3.000000*%
%ADD18RoundRect,0.150000X-0.587500X-0.150000X0.587500X-0.150000X0.587500X0.150000X-0.587500X0.150000X0*%
%ADD19C,0.800000*%
%ADD20C,6.400000*%
%ADD21RoundRect,0.250000X-0.450000X0.350000X-0.450000X-0.350000X0.450000X-0.350000X0.450000X0.350000X0*%
%ADD22RoundRect,0.250000X-0.350000X-0.450000X0.350000X-0.450000X0.350000X0.450000X-0.350000X0.450000X0*%
G04 APERTURE END LIST*
D10*
%TO.C,J3*%
X144818100Y-100500000D02*
G75*
G03*
X144818100Y-100500000I-418100J0D01*
G01*
D11*
X152488100Y-100500000D02*
G75*
G03*
X152488100Y-100500000I-788100J0D01*
G01*
D12*
X148236200Y-101336200D02*
X146563800Y-101336200D01*
X146563800Y-99663800D01*
X148236200Y-99663800D01*
X148236200Y-101336200D01*
G36*
X148236200Y-101336200D02*
G01*
X146563800Y-101336200D01*
X146563800Y-99663800D01*
X148236200Y-99663800D01*
X148236200Y-101336200D01*
G37*
D10*
%TO.C,J4*%
X144818100Y-93500000D02*
G75*
G03*
X144818100Y-93500000I-418100J0D01*
G01*
D11*
X152488100Y-93500000D02*
G75*
G03*
X152488100Y-93500000I-788100J0D01*
G01*
D12*
X148236200Y-94336200D02*
X146563800Y-94336200D01*
X146563800Y-92663800D01*
X148236200Y-92663800D01*
X148236200Y-94336200D01*
G36*
X148236200Y-94336200D02*
G01*
X146563800Y-94336200D01*
X146563800Y-92663800D01*
X148236200Y-92663800D01*
X148236200Y-94336200D01*
G37*
D10*
%TO.C,J6*%
X124918100Y-99400000D02*
G75*
G03*
X124918100Y-99400000I-418100J0D01*
G01*
D11*
X117988100Y-99400000D02*
G75*
G03*
X117988100Y-99400000I-788100J0D01*
G01*
D12*
X122336200Y-100236200D02*
X120663800Y-100236200D01*
X120663800Y-98563800D01*
X122336200Y-98563800D01*
X122336200Y-100236200D01*
G36*
X122336200Y-100236200D02*
G01*
X120663800Y-100236200D01*
X120663800Y-98563800D01*
X122336200Y-98563800D01*
X122336200Y-100236200D01*
G37*
D10*
%TO.C,J5*%
X124918100Y-106500000D02*
G75*
G03*
X124918100Y-106500000I-418100J0D01*
G01*
D11*
X117988100Y-106500000D02*
G75*
G03*
X117988100Y-106500000I-788100J0D01*
G01*
D12*
X122336200Y-107336200D02*
X120663800Y-107336200D01*
X120663800Y-105663800D01*
X122336200Y-105663800D01*
X122336200Y-107336200D01*
G36*
X122336200Y-107336200D02*
G01*
X120663800Y-107336200D01*
X120663800Y-105663800D01*
X122336200Y-105663800D01*
X122336200Y-107336200D01*
G37*
D10*
%TO.C,J1*%
X124928100Y-92500000D02*
G75*
G03*
X124928100Y-92500000I-418100J0D01*
G01*
D11*
X117998100Y-92500000D02*
G75*
G03*
X117998100Y-92500000I-788100J0D01*
G01*
D12*
X122346200Y-93336200D02*
X120673800Y-93336200D01*
X120673800Y-91663800D01*
X122346200Y-91663800D01*
X122346200Y-93336200D01*
G36*
X122346200Y-93336200D02*
G01*
X120673800Y-93336200D01*
X120673800Y-91663800D01*
X122346200Y-91663800D01*
X122346200Y-93336200D01*
G37*
%TD*%
D13*
%TO.C,D4*%
X129300000Y-111000000D03*
X129300000Y-113800000D03*
%TD*%
D14*
%TO.C,D3*%
X129400000Y-98900000D03*
X129400000Y-96100000D03*
%TD*%
D15*
%TO.C,R5*%
X127800000Y-105300000D03*
X127800000Y-103300000D03*
%TD*%
D16*
%TO.C,D2*%
X147500000Y-87800000D03*
X143500000Y-87800000D03*
%TD*%
D17*
%TO.C,J3*%
X151700000Y-100500000D03*
%TD*%
%TO.C,J4*%
X151700000Y-93500000D03*
%TD*%
D18*
%TO.C,Q1*%
X139725000Y-94050000D03*
X139725000Y-95950000D03*
X141600000Y-95000000D03*
%TD*%
D17*
%TO.C,J6*%
X117200000Y-99400000D03*
%TD*%
D19*
%TO.C,H4*%
X151300000Y-115500000D03*
X152002944Y-113802944D03*
X152002944Y-117197056D03*
X153700000Y-113100000D03*
D20*
X153700000Y-115500000D03*
D19*
X153700000Y-117900000D03*
X155397056Y-113802944D03*
X155397056Y-117197056D03*
X156100000Y-115500000D03*
%TD*%
D21*
%TO.C,R3*%
X133750000Y-108100000D03*
X133750000Y-110100000D03*
%TD*%
D18*
%TO.C,Q2*%
X139725000Y-101050000D03*
X139725000Y-102950000D03*
X141600000Y-102000000D03*
%TD*%
D21*
%TO.C,R4*%
X134200000Y-101000000D03*
X134200000Y-103000000D03*
%TD*%
D19*
%TO.C,H2*%
X112300000Y-115500000D03*
X113002944Y-113802944D03*
X113002944Y-117197056D03*
X114700000Y-113100000D03*
D20*
X114700000Y-115500000D03*
D19*
X114700000Y-117900000D03*
X116397056Y-113802944D03*
X116397056Y-117197056D03*
X117100000Y-115500000D03*
%TD*%
%TO.C,H3*%
X151300000Y-82500000D03*
X152002944Y-80802944D03*
X152002944Y-84197056D03*
X153700000Y-80100000D03*
D20*
X153700000Y-82500000D03*
D19*
X153700000Y-84900000D03*
X155397056Y-80802944D03*
X155397056Y-84197056D03*
X156100000Y-82500000D03*
%TD*%
D22*
%TO.C,R2*%
X129350000Y-108200000D03*
X131350000Y-108200000D03*
%TD*%
%TO.C,R1*%
X129500000Y-101000000D03*
X131500000Y-101000000D03*
%TD*%
D16*
%TO.C,D1*%
X147500000Y-106000000D03*
X143500000Y-106000000D03*
%TD*%
D17*
%TO.C,J5*%
X117200000Y-106500000D03*
%TD*%
%TO.C,J1*%
X117210000Y-92500000D03*
%TD*%
D19*
%TO.C,H1*%
X112300000Y-82500000D03*
X113002944Y-80802944D03*
X113002944Y-84197056D03*
X114700000Y-80100000D03*
D20*
X114700000Y-82500000D03*
D19*
X114700000Y-84900000D03*
X116397056Y-80802944D03*
X116397056Y-84197056D03*
X117100000Y-82500000D03*
%TD*%
M02*
