%TF.GenerationSoftware,KiCad,Pcbnew,7.0.1*%
%TF.CreationDate,2023-05-02T18:28:53-06:00*%
%TF.ProjectId,contactor_controller,636f6e74-6163-4746-9f72-5f636f6e7472,rev?*%
%TF.SameCoordinates,Original*%
%TF.FileFunction,Copper,L2,Bot*%
%TF.FilePolarity,Positive*%
%FSLAX46Y46*%
G04 Gerber Fmt 4.6, Leading zero omitted, Abs format (unit mm)*
G04 Created by KiCad (PCBNEW 7.0.1) date 2023-05-02 18:28:53*
%MOMM*%
%LPD*%
G01*
G04 APERTURE LIST*
%TA.AperFunction,ComponentPad*%
%ADD10R,1.520000X1.520000*%
%TD*%
%TA.AperFunction,ComponentPad*%
%ADD11C,1.520000*%
%TD*%
%TA.AperFunction,ComponentPad*%
%ADD12C,0.800000*%
%TD*%
%TA.AperFunction,ComponentPad*%
%ADD13C,6.400000*%
%TD*%
%TA.AperFunction,ViaPad*%
%ADD14C,0.800000*%
%TD*%
G04 APERTURE END LIST*
D10*
%TO.P,J3,1,Pin_1*%
%TO.N,Net-(D1-K)*%
X147400000Y-100500000D03*
D11*
%TO.P,J3,2,Pin_2*%
%TO.N,Net-(D1-A)*%
X144400000Y-100500000D03*
%TD*%
D10*
%TO.P,J4,1,Pin_1*%
%TO.N,Net-(D1-K)*%
X147400000Y-93500000D03*
D11*
%TO.P,J4,2,Pin_2*%
%TO.N,Net-(D2-A)*%
X144400000Y-93500000D03*
%TD*%
D10*
%TO.P,J6,1,Pin_1*%
%TO.N,GND*%
X121500000Y-99400000D03*
D11*
%TO.P,J6,2,Pin_2*%
%TO.N,Net-(D3-K)*%
X124500000Y-99400000D03*
%TD*%
D12*
%TO.P,H4,1,1*%
%TO.N,GND*%
X151300000Y-115500000D03*
X152002944Y-113802944D03*
X152002944Y-117197056D03*
X153700000Y-113100000D03*
D13*
X153700000Y-115500000D03*
D12*
X153700000Y-117900000D03*
X155397056Y-113802944D03*
X155397056Y-117197056D03*
X156100000Y-115500000D03*
%TD*%
%TO.P,H2,1,1*%
%TO.N,GND*%
X112300000Y-115500000D03*
X113002944Y-113802944D03*
X113002944Y-117197056D03*
X114700000Y-113100000D03*
D13*
X114700000Y-115500000D03*
D12*
X114700000Y-117900000D03*
X116397056Y-113802944D03*
X116397056Y-117197056D03*
X117100000Y-115500000D03*
%TD*%
%TO.P,H3,1,1*%
%TO.N,GND*%
X151300000Y-82500000D03*
X152002944Y-80802944D03*
X152002944Y-84197056D03*
X153700000Y-80100000D03*
D13*
X153700000Y-82500000D03*
D12*
X153700000Y-84900000D03*
X155397056Y-80802944D03*
X155397056Y-84197056D03*
X156100000Y-82500000D03*
%TD*%
D10*
%TO.P,J5,1,Pin_1*%
%TO.N,GND*%
X121500000Y-106500000D03*
D11*
%TO.P,J5,2,Pin_2*%
%TO.N,Net-(D4-K)*%
X124500000Y-106500000D03*
%TD*%
D10*
%TO.P,J1,1,Pin_1*%
%TO.N,GND*%
X121510000Y-92500000D03*
D11*
%TO.P,J1,2,Pin_2*%
%TO.N,Net-(D1-K)*%
X124510000Y-92500000D03*
%TD*%
D12*
%TO.P,H1,1,1*%
%TO.N,GND*%
X112300000Y-82500000D03*
X113002944Y-80802944D03*
X113002944Y-84197056D03*
X114700000Y-80100000D03*
D13*
X114700000Y-82500000D03*
D12*
X114700000Y-84900000D03*
X116397056Y-80802944D03*
X116397056Y-84197056D03*
X117100000Y-82500000D03*
%TD*%
D14*
%TO.N,GND*%
X139800000Y-97300000D03*
X139700000Y-104300000D03*
X136000000Y-103500000D03*
X133800000Y-111600000D03*
X132400000Y-96400000D03*
X131300000Y-114000000D03*
%TD*%
%TA.AperFunction,Conductor*%
%TO.N,GND*%
G36*
X112233761Y-79514718D02*
G01*
X112278447Y-79555380D01*
X112298615Y-79612331D01*
X112289476Y-79672053D01*
X112264985Y-79704670D01*
X112264648Y-79711096D01*
X114700000Y-82146447D01*
X114700001Y-82146447D01*
X117135350Y-79711096D01*
X117135013Y-79704670D01*
X117110523Y-79672053D01*
X117101384Y-79612331D01*
X117121552Y-79555380D01*
X117166238Y-79514718D01*
X117224834Y-79500000D01*
X151175165Y-79500000D01*
X151233761Y-79514718D01*
X151278447Y-79555380D01*
X151298615Y-79612331D01*
X151289476Y-79672053D01*
X151264985Y-79704670D01*
X151264648Y-79711096D01*
X153700000Y-82146447D01*
X153700001Y-82146447D01*
X156135350Y-79711096D01*
X156135013Y-79704670D01*
X156110523Y-79672053D01*
X156101384Y-79612331D01*
X156121552Y-79555380D01*
X156166238Y-79514718D01*
X156224834Y-79500000D01*
X156576000Y-79500000D01*
X156638000Y-79516613D01*
X156683387Y-79562000D01*
X156700000Y-79624000D01*
X156700000Y-79975166D01*
X156685282Y-80033762D01*
X156644620Y-80078448D01*
X156587669Y-80098616D01*
X156527948Y-80089477D01*
X156495329Y-80064985D01*
X156488903Y-80064648D01*
X154053553Y-82500000D01*
X156488903Y-84935350D01*
X156495327Y-84935013D01*
X156527948Y-84910521D01*
X156587669Y-84901382D01*
X156644621Y-84921550D01*
X156685282Y-84966236D01*
X156700000Y-85024832D01*
X156700000Y-112975166D01*
X156685282Y-113033762D01*
X156644620Y-113078448D01*
X156587669Y-113098616D01*
X156527948Y-113089477D01*
X156495329Y-113064985D01*
X156488903Y-113064648D01*
X154053553Y-115500000D01*
X156488903Y-117935350D01*
X156495327Y-117935013D01*
X156527948Y-117910521D01*
X156587669Y-117901382D01*
X156644621Y-117921550D01*
X156685282Y-117966236D01*
X156700000Y-118024832D01*
X156700000Y-118376000D01*
X156683387Y-118438000D01*
X156638000Y-118483387D01*
X156576000Y-118500000D01*
X156224832Y-118500000D01*
X156166236Y-118485282D01*
X156121550Y-118444621D01*
X156101382Y-118387669D01*
X156110521Y-118327948D01*
X156135013Y-118295327D01*
X156135350Y-118288903D01*
X153700000Y-115853553D01*
X151264648Y-118288903D01*
X151264985Y-118295329D01*
X151289477Y-118327948D01*
X151298616Y-118387669D01*
X151278448Y-118444620D01*
X151233762Y-118485282D01*
X151175166Y-118500000D01*
X117224832Y-118500000D01*
X117166236Y-118485282D01*
X117121550Y-118444621D01*
X117101382Y-118387669D01*
X117110521Y-118327948D01*
X117135013Y-118295327D01*
X117135350Y-118288903D01*
X114700000Y-115853553D01*
X112264648Y-118288903D01*
X112264985Y-118295329D01*
X112289477Y-118327948D01*
X112298616Y-118387669D01*
X112278448Y-118444620D01*
X112233762Y-118485282D01*
X112175166Y-118500000D01*
X111824000Y-118500000D01*
X111762000Y-118483387D01*
X111716613Y-118438000D01*
X111700000Y-118376000D01*
X111700000Y-118024834D01*
X111714718Y-117966238D01*
X111755380Y-117921552D01*
X111812331Y-117901384D01*
X111872053Y-117910523D01*
X111904670Y-117935013D01*
X111911096Y-117935350D01*
X114346447Y-115500001D01*
X114346447Y-115500000D01*
X115053553Y-115500000D01*
X117488902Y-117935349D01*
X117697473Y-117677786D01*
X117908690Y-117352543D01*
X118084757Y-117006990D01*
X118223739Y-116644931D01*
X118324114Y-116270325D01*
X118384780Y-115887288D01*
X118405077Y-115500000D01*
X118405077Y-115499999D01*
X149994922Y-115499999D01*
X150015219Y-115887288D01*
X150075885Y-116270325D01*
X150176260Y-116644931D01*
X150315242Y-117006990D01*
X150491309Y-117352543D01*
X150702530Y-117677792D01*
X150911095Y-117935350D01*
X150911096Y-117935350D01*
X153346447Y-115500001D01*
X153346447Y-115500000D01*
X150911096Y-113064648D01*
X150702526Y-113322214D01*
X150491309Y-113647456D01*
X150315242Y-113993009D01*
X150176260Y-114355068D01*
X150075885Y-114729674D01*
X150015219Y-115112711D01*
X149994922Y-115499999D01*
X118405077Y-115499999D01*
X118384780Y-115112711D01*
X118324114Y-114729674D01*
X118223739Y-114355068D01*
X118084757Y-113993009D01*
X117908690Y-113647456D01*
X117697469Y-113322207D01*
X117488904Y-113064649D01*
X117488903Y-113064648D01*
X115053553Y-115500000D01*
X114346447Y-115500000D01*
X111911096Y-113064648D01*
X111904670Y-113064985D01*
X111872053Y-113089476D01*
X111812331Y-113098615D01*
X111755380Y-113078447D01*
X111714718Y-113033761D01*
X111700000Y-112975165D01*
X111700000Y-112711096D01*
X112264648Y-112711096D01*
X114700000Y-115146447D01*
X114700001Y-115146447D01*
X117135350Y-112711096D01*
X151264648Y-112711096D01*
X153700000Y-115146447D01*
X153700001Y-115146447D01*
X156135350Y-112711096D01*
X156135350Y-112711095D01*
X155877792Y-112502530D01*
X155552543Y-112291309D01*
X155206990Y-112115242D01*
X154844931Y-111976260D01*
X154470325Y-111875885D01*
X154087288Y-111815219D01*
X153699999Y-111794922D01*
X153312711Y-111815219D01*
X152929674Y-111875885D01*
X152555068Y-111976260D01*
X152193009Y-112115242D01*
X151847456Y-112291309D01*
X151522214Y-112502526D01*
X151264648Y-112711096D01*
X117135350Y-112711096D01*
X117135350Y-112711095D01*
X116877792Y-112502530D01*
X116552543Y-112291309D01*
X116206990Y-112115242D01*
X115844931Y-111976260D01*
X115470325Y-111875885D01*
X115087288Y-111815219D01*
X114699999Y-111794922D01*
X114312711Y-111815219D01*
X113929674Y-111875885D01*
X113555068Y-111976260D01*
X113193009Y-112115242D01*
X112847456Y-112291309D01*
X112522214Y-112502526D01*
X112264648Y-112711096D01*
X111700000Y-112711096D01*
X111700000Y-106631182D01*
X115449500Y-106631182D01*
X115488604Y-106890615D01*
X115565937Y-107141323D01*
X115679772Y-107377704D01*
X115815766Y-107577170D01*
X115827571Y-107594485D01*
X115986079Y-107765315D01*
X116006019Y-107786805D01*
X116211143Y-107950386D01*
X116438357Y-108081568D01*
X116682584Y-108177420D01*
X116938370Y-108235802D01*
X116994408Y-108240001D01*
X117134501Y-108250500D01*
X117134506Y-108250500D01*
X117265494Y-108250500D01*
X117265499Y-108250500D01*
X117388078Y-108241313D01*
X117461630Y-108235802D01*
X117717416Y-108177420D01*
X117961643Y-108081568D01*
X118188857Y-107950386D01*
X118393981Y-107786805D01*
X118493273Y-107679792D01*
X118572428Y-107594485D01*
X118572429Y-107594482D01*
X118572433Y-107594479D01*
X118720228Y-107377704D01*
X118834063Y-107141323D01*
X118911396Y-106890615D01*
X118932591Y-106750000D01*
X120240000Y-106750000D01*
X120240000Y-107307824D01*
X120246402Y-107367375D01*
X120296647Y-107502089D01*
X120382811Y-107617188D01*
X120497910Y-107703352D01*
X120632624Y-107753597D01*
X120692176Y-107760000D01*
X121250000Y-107760000D01*
X121250000Y-106750000D01*
X121750000Y-106750000D01*
X121750000Y-107760000D01*
X122307824Y-107760000D01*
X122367375Y-107753597D01*
X122502089Y-107703352D01*
X122617188Y-107617188D01*
X122703352Y-107502089D01*
X122753597Y-107367375D01*
X122760000Y-107307824D01*
X122760000Y-106750000D01*
X121750000Y-106750000D01*
X121250000Y-106750000D01*
X120240000Y-106750000D01*
X118932591Y-106750000D01*
X118950500Y-106631182D01*
X118950500Y-106499999D01*
X123234684Y-106499999D01*
X123253907Y-106719717D01*
X123282450Y-106826241D01*
X123299699Y-106890615D01*
X123310994Y-106932766D01*
X123404204Y-107132657D01*
X123410272Y-107141323D01*
X123530712Y-107313329D01*
X123686671Y-107469288D01*
X123867342Y-107595795D01*
X124067237Y-107689007D01*
X124280280Y-107746092D01*
X124500000Y-107765315D01*
X124719720Y-107746092D01*
X124932763Y-107689007D01*
X125132658Y-107595795D01*
X125313329Y-107469288D01*
X125469288Y-107313329D01*
X125595795Y-107132658D01*
X125689007Y-106932763D01*
X125746092Y-106719720D01*
X125765315Y-106500000D01*
X125746092Y-106280280D01*
X125689007Y-106067237D01*
X125595795Y-105867343D01*
X125473143Y-105692176D01*
X125469288Y-105686670D01*
X125313329Y-105530712D01*
X125132657Y-105404204D01*
X124932766Y-105310994D01*
X124932763Y-105310993D01*
X124826241Y-105282450D01*
X124719717Y-105253907D01*
X124500000Y-105234684D01*
X124280282Y-105253907D01*
X124067235Y-105310993D01*
X123867341Y-105404205D01*
X123686669Y-105530712D01*
X123530712Y-105686669D01*
X123404205Y-105867341D01*
X123310993Y-106067235D01*
X123253907Y-106280282D01*
X123234684Y-106499999D01*
X118950500Y-106499999D01*
X118950500Y-106368818D01*
X118932591Y-106250000D01*
X120240000Y-106250000D01*
X121250000Y-106250000D01*
X121250000Y-105240000D01*
X121750000Y-105240000D01*
X121750000Y-106250000D01*
X122760000Y-106250000D01*
X122760000Y-105692176D01*
X122753597Y-105632624D01*
X122703352Y-105497910D01*
X122617188Y-105382811D01*
X122502089Y-105296647D01*
X122367375Y-105246402D01*
X122307824Y-105240000D01*
X121750000Y-105240000D01*
X121250000Y-105240000D01*
X120692176Y-105240000D01*
X120632624Y-105246402D01*
X120497910Y-105296647D01*
X120382811Y-105382811D01*
X120296647Y-105497910D01*
X120246402Y-105632624D01*
X120240000Y-105692176D01*
X120240000Y-106250000D01*
X118932591Y-106250000D01*
X118911396Y-106109385D01*
X118834063Y-105858677D01*
X118720228Y-105622296D01*
X118572433Y-105405521D01*
X118572432Y-105405520D01*
X118572428Y-105405514D01*
X118393984Y-105213198D01*
X118393983Y-105213197D01*
X118393981Y-105213195D01*
X118188857Y-105049614D01*
X118188856Y-105049613D01*
X117961641Y-104918431D01*
X117717418Y-104822580D01*
X117461627Y-104764197D01*
X117265499Y-104749500D01*
X117265494Y-104749500D01*
X117134506Y-104749500D01*
X117134501Y-104749500D01*
X116938372Y-104764197D01*
X116682581Y-104822580D01*
X116438358Y-104918431D01*
X116211143Y-105049613D01*
X116006015Y-105213198D01*
X115827571Y-105405514D01*
X115764577Y-105497910D01*
X115679772Y-105622296D01*
X115565937Y-105858677D01*
X115488604Y-106109385D01*
X115449500Y-106368818D01*
X115449500Y-106631182D01*
X111700000Y-106631182D01*
X111700000Y-99531182D01*
X115449500Y-99531182D01*
X115488604Y-99790615D01*
X115565937Y-100041323D01*
X115679772Y-100277704D01*
X115815766Y-100477170D01*
X115827571Y-100494485D01*
X115986079Y-100665315D01*
X116006019Y-100686805D01*
X116211143Y-100850386D01*
X116438357Y-100981568D01*
X116682584Y-101077420D01*
X116938370Y-101135802D01*
X116994408Y-101140001D01*
X117134501Y-101150500D01*
X117134506Y-101150500D01*
X117265494Y-101150500D01*
X117265499Y-101150500D01*
X117388079Y-101141313D01*
X117461630Y-101135802D01*
X117717416Y-101077420D01*
X117961643Y-100981568D01*
X118188857Y-100850386D01*
X118393981Y-100686805D01*
X118493273Y-100579792D01*
X118572428Y-100494485D01*
X118572429Y-100494482D01*
X118572433Y-100494479D01*
X118720228Y-100277704D01*
X118834063Y-100041323D01*
X118911396Y-99790615D01*
X118932591Y-99650000D01*
X120240000Y-99650000D01*
X120240000Y-100207824D01*
X120246402Y-100267375D01*
X120296647Y-100402089D01*
X120382811Y-100517188D01*
X120497910Y-100603352D01*
X120632624Y-100653597D01*
X120692176Y-100660000D01*
X121250000Y-100660000D01*
X121250000Y-99650000D01*
X121750000Y-99650000D01*
X121750000Y-100660000D01*
X122307824Y-100660000D01*
X122367375Y-100653597D01*
X122502089Y-100603352D01*
X122617188Y-100517188D01*
X122703352Y-100402089D01*
X122753597Y-100267375D01*
X122760000Y-100207824D01*
X122760000Y-99650000D01*
X121750000Y-99650000D01*
X121250000Y-99650000D01*
X120240000Y-99650000D01*
X118932591Y-99650000D01*
X118950500Y-99531182D01*
X118950500Y-99399999D01*
X123234684Y-99399999D01*
X123253907Y-99619717D01*
X123273309Y-99692127D01*
X123299699Y-99790615D01*
X123310994Y-99832766D01*
X123404204Y-100032657D01*
X123410272Y-100041323D01*
X123530712Y-100213329D01*
X123686671Y-100369288D01*
X123867342Y-100495795D01*
X124067237Y-100589007D01*
X124280280Y-100646092D01*
X124500000Y-100665315D01*
X124719720Y-100646092D01*
X124932763Y-100589007D01*
X125123640Y-100500000D01*
X143134684Y-100500000D01*
X143153907Y-100719717D01*
X143153908Y-100719720D01*
X143199699Y-100890615D01*
X143210994Y-100932766D01*
X143304204Y-101132657D01*
X143310272Y-101141323D01*
X143430712Y-101313329D01*
X143586671Y-101469288D01*
X143767342Y-101595795D01*
X143967237Y-101689007D01*
X144180280Y-101746092D01*
X144400000Y-101765315D01*
X144619720Y-101746092D01*
X144832763Y-101689007D01*
X145032658Y-101595795D01*
X145213329Y-101469288D01*
X145369288Y-101313329D01*
X145373111Y-101307869D01*
X146139500Y-101307869D01*
X146145909Y-101367483D01*
X146196204Y-101502331D01*
X146282454Y-101617546D01*
X146397669Y-101703796D01*
X146532517Y-101754091D01*
X146592127Y-101760500D01*
X148207872Y-101760499D01*
X148267483Y-101754091D01*
X148402331Y-101703796D01*
X148517546Y-101617546D01*
X148603796Y-101502331D01*
X148654091Y-101367483D01*
X148660500Y-101307873D01*
X148660500Y-100631182D01*
X149949500Y-100631182D01*
X149988604Y-100890615D01*
X150065937Y-101141323D01*
X150179772Y-101377704D01*
X150315766Y-101577170D01*
X150327571Y-101594485D01*
X150486079Y-101765315D01*
X150506019Y-101786805D01*
X150711143Y-101950386D01*
X150938357Y-102081568D01*
X151182584Y-102177420D01*
X151438370Y-102235802D01*
X151494408Y-102240001D01*
X151634501Y-102250500D01*
X151634506Y-102250500D01*
X151765494Y-102250500D01*
X151765499Y-102250500D01*
X151888078Y-102241313D01*
X151961630Y-102235802D01*
X152217416Y-102177420D01*
X152461643Y-102081568D01*
X152688857Y-101950386D01*
X152893981Y-101786805D01*
X153071212Y-101595795D01*
X153072428Y-101594485D01*
X153072429Y-101594482D01*
X153072433Y-101594479D01*
X153220228Y-101377704D01*
X153334063Y-101141323D01*
X153411396Y-100890615D01*
X153450500Y-100631182D01*
X153450500Y-100368818D01*
X153411396Y-100109385D01*
X153334063Y-99858677D01*
X153220228Y-99622296D01*
X153072433Y-99405521D01*
X153072432Y-99405520D01*
X153072428Y-99405514D01*
X152893984Y-99213198D01*
X152893983Y-99213197D01*
X152893981Y-99213195D01*
X152688857Y-99049614D01*
X152688856Y-99049613D01*
X152461641Y-98918431D01*
X152217418Y-98822580D01*
X151961627Y-98764197D01*
X151765499Y-98749500D01*
X151765494Y-98749500D01*
X151634506Y-98749500D01*
X151634501Y-98749500D01*
X151438372Y-98764197D01*
X151182581Y-98822580D01*
X150938358Y-98918431D01*
X150711143Y-99049613D01*
X150506015Y-99213198D01*
X150327571Y-99405514D01*
X150227070Y-99552922D01*
X150179772Y-99622296D01*
X150065937Y-99858677D01*
X149988604Y-100109385D01*
X149949500Y-100368818D01*
X149949500Y-100631182D01*
X148660500Y-100631182D01*
X148660499Y-99692128D01*
X148654091Y-99632517D01*
X148603796Y-99497669D01*
X148517546Y-99382454D01*
X148402331Y-99296204D01*
X148267483Y-99245909D01*
X148207873Y-99239500D01*
X148207869Y-99239500D01*
X146592130Y-99239500D01*
X146532515Y-99245909D01*
X146397669Y-99296204D01*
X146282454Y-99382454D01*
X146196204Y-99497668D01*
X146145909Y-99632516D01*
X146139500Y-99692130D01*
X146139500Y-101307869D01*
X145373111Y-101307869D01*
X145495795Y-101132658D01*
X145589007Y-100932763D01*
X145646092Y-100719720D01*
X145665315Y-100500000D01*
X145646092Y-100280280D01*
X145589007Y-100067237D01*
X145495795Y-99867343D01*
X145489727Y-99858677D01*
X145369288Y-99686670D01*
X145213329Y-99530712D01*
X145032657Y-99404204D01*
X144832766Y-99310994D01*
X144832763Y-99310993D01*
X144675365Y-99268818D01*
X144619717Y-99253907D01*
X144400000Y-99234684D01*
X144180282Y-99253907D01*
X143967235Y-99310993D01*
X143767341Y-99404205D01*
X143586669Y-99530712D01*
X143430712Y-99686669D01*
X143304205Y-99867341D01*
X143210993Y-100067235D01*
X143153907Y-100280282D01*
X143134684Y-100500000D01*
X125123640Y-100500000D01*
X125132658Y-100495795D01*
X125313329Y-100369288D01*
X125469288Y-100213329D01*
X125595795Y-100032658D01*
X125689007Y-99832763D01*
X125746092Y-99619720D01*
X125765315Y-99400000D01*
X125746092Y-99180280D01*
X125689007Y-98967237D01*
X125595795Y-98767343D01*
X125593593Y-98764198D01*
X125469288Y-98586670D01*
X125313329Y-98430712D01*
X125132657Y-98304204D01*
X124932766Y-98210994D01*
X124932763Y-98210993D01*
X124826241Y-98182450D01*
X124719717Y-98153907D01*
X124500000Y-98134684D01*
X124280282Y-98153907D01*
X124067235Y-98210993D01*
X123867341Y-98304205D01*
X123686669Y-98430712D01*
X123530712Y-98586669D01*
X123404205Y-98767341D01*
X123310993Y-98967235D01*
X123253907Y-99180282D01*
X123234684Y-99399999D01*
X118950500Y-99399999D01*
X118950500Y-99268818D01*
X118932591Y-99150000D01*
X120240000Y-99150000D01*
X121250000Y-99150000D01*
X121250000Y-98140000D01*
X121750000Y-98140000D01*
X121750000Y-99150000D01*
X122760000Y-99150000D01*
X122760000Y-98592176D01*
X122753597Y-98532624D01*
X122703352Y-98397910D01*
X122617188Y-98282811D01*
X122502089Y-98196647D01*
X122367375Y-98146402D01*
X122307824Y-98140000D01*
X121750000Y-98140000D01*
X121250000Y-98140000D01*
X120692176Y-98140000D01*
X120632624Y-98146402D01*
X120497910Y-98196647D01*
X120382811Y-98282811D01*
X120296647Y-98397910D01*
X120246402Y-98532624D01*
X120240000Y-98592176D01*
X120240000Y-99150000D01*
X118932591Y-99150000D01*
X118911396Y-99009385D01*
X118834063Y-98758677D01*
X118720228Y-98522296D01*
X118572433Y-98305521D01*
X118572432Y-98305520D01*
X118572428Y-98305514D01*
X118393984Y-98113198D01*
X118393983Y-98113197D01*
X118393981Y-98113195D01*
X118188857Y-97949614D01*
X118188856Y-97949613D01*
X117961641Y-97818431D01*
X117717418Y-97722580D01*
X117461627Y-97664197D01*
X117265499Y-97649500D01*
X117265494Y-97649500D01*
X117134506Y-97649500D01*
X117134501Y-97649500D01*
X116938372Y-97664197D01*
X116682581Y-97722580D01*
X116438358Y-97818431D01*
X116211143Y-97949613D01*
X116006015Y-98113198D01*
X115827571Y-98305514D01*
X115764577Y-98397910D01*
X115679772Y-98522296D01*
X115565937Y-98758677D01*
X115488604Y-99009385D01*
X115449500Y-99268818D01*
X115449500Y-99531182D01*
X111700000Y-99531182D01*
X111700000Y-92631182D01*
X115459500Y-92631182D01*
X115498604Y-92890615D01*
X115575937Y-93141323D01*
X115689772Y-93377704D01*
X115825766Y-93577170D01*
X115837571Y-93594485D01*
X115996079Y-93765315D01*
X116016019Y-93786805D01*
X116221143Y-93950386D01*
X116448357Y-94081568D01*
X116692584Y-94177420D01*
X116948370Y-94235802D01*
X117004408Y-94240001D01*
X117144501Y-94250500D01*
X117144506Y-94250500D01*
X117275494Y-94250500D01*
X117275499Y-94250500D01*
X117398079Y-94241313D01*
X117471630Y-94235802D01*
X117727416Y-94177420D01*
X117971643Y-94081568D01*
X118198857Y-93950386D01*
X118403981Y-93786805D01*
X118548378Y-93631182D01*
X118582428Y-93594485D01*
X118582429Y-93594482D01*
X118582433Y-93594479D01*
X118730228Y-93377704D01*
X118844063Y-93141323D01*
X118921396Y-92890615D01*
X118942591Y-92750000D01*
X120250000Y-92750000D01*
X120250000Y-93307824D01*
X120256402Y-93367375D01*
X120306647Y-93502089D01*
X120392811Y-93617188D01*
X120507910Y-93703352D01*
X120642624Y-93753597D01*
X120702176Y-93760000D01*
X121260000Y-93760000D01*
X121260000Y-92750000D01*
X121760000Y-92750000D01*
X121760000Y-93760000D01*
X122317824Y-93760000D01*
X122377375Y-93753597D01*
X122512089Y-93703352D01*
X122627188Y-93617188D01*
X122713352Y-93502089D01*
X122763597Y-93367375D01*
X122770000Y-93307824D01*
X122770000Y-92750000D01*
X121760000Y-92750000D01*
X121260000Y-92750000D01*
X120250000Y-92750000D01*
X118942591Y-92750000D01*
X118960500Y-92631182D01*
X118960500Y-92499999D01*
X123244684Y-92499999D01*
X123263907Y-92719717D01*
X123292450Y-92826241D01*
X123309699Y-92890615D01*
X123320994Y-92932766D01*
X123414204Y-93132657D01*
X123420272Y-93141323D01*
X123540712Y-93313329D01*
X123696671Y-93469288D01*
X123877342Y-93595795D01*
X124077237Y-93689007D01*
X124290280Y-93746092D01*
X124510000Y-93765315D01*
X124729720Y-93746092D01*
X124942763Y-93689007D01*
X125142658Y-93595795D01*
X125279468Y-93500000D01*
X143134684Y-93500000D01*
X143153907Y-93719717D01*
X143153908Y-93719720D01*
X143199699Y-93890615D01*
X143210994Y-93932766D01*
X143304204Y-94132657D01*
X143376427Y-94235802D01*
X143430712Y-94313329D01*
X143586671Y-94469288D01*
X143767342Y-94595795D01*
X143967237Y-94689007D01*
X144180280Y-94746092D01*
X144400000Y-94765315D01*
X144619720Y-94746092D01*
X144832763Y-94689007D01*
X145032658Y-94595795D01*
X145213329Y-94469288D01*
X145369288Y-94313329D01*
X145373111Y-94307869D01*
X146139500Y-94307869D01*
X146145909Y-94367483D01*
X146196204Y-94502331D01*
X146282454Y-94617546D01*
X146397669Y-94703796D01*
X146532517Y-94754091D01*
X146592127Y-94760500D01*
X148207872Y-94760499D01*
X148267483Y-94754091D01*
X148402331Y-94703796D01*
X148517546Y-94617546D01*
X148603796Y-94502331D01*
X148654091Y-94367483D01*
X148660500Y-94307873D01*
X148660500Y-93631182D01*
X149949500Y-93631182D01*
X149988604Y-93890615D01*
X150065937Y-94141323D01*
X150179772Y-94377704D01*
X150315766Y-94577170D01*
X150327571Y-94594485D01*
X150486079Y-94765315D01*
X150506019Y-94786805D01*
X150711143Y-94950386D01*
X150938357Y-95081568D01*
X151182584Y-95177420D01*
X151438370Y-95235802D01*
X151494408Y-95240001D01*
X151634501Y-95250500D01*
X151634506Y-95250500D01*
X151765494Y-95250500D01*
X151765499Y-95250500D01*
X151888079Y-95241313D01*
X151961630Y-95235802D01*
X152217416Y-95177420D01*
X152461643Y-95081568D01*
X152688857Y-94950386D01*
X152893981Y-94786805D01*
X153071212Y-94595795D01*
X153072428Y-94594485D01*
X153072429Y-94594482D01*
X153072433Y-94594479D01*
X153220228Y-94377704D01*
X153334063Y-94141323D01*
X153411396Y-93890615D01*
X153450500Y-93631182D01*
X153450500Y-93368818D01*
X153411396Y-93109385D01*
X153334063Y-92858677D01*
X153220228Y-92622296D01*
X153072433Y-92405521D01*
X153072432Y-92405520D01*
X153072428Y-92405514D01*
X152893984Y-92213198D01*
X152893983Y-92213197D01*
X152893981Y-92213195D01*
X152688857Y-92049614D01*
X152688856Y-92049613D01*
X152461641Y-91918431D01*
X152217418Y-91822580D01*
X151961627Y-91764197D01*
X151765499Y-91749500D01*
X151765494Y-91749500D01*
X151634506Y-91749500D01*
X151634501Y-91749500D01*
X151438372Y-91764197D01*
X151182581Y-91822580D01*
X150938358Y-91918431D01*
X150711143Y-92049613D01*
X150506015Y-92213198D01*
X150327571Y-92405514D01*
X150264742Y-92497668D01*
X150179772Y-92622296D01*
X150065937Y-92858677D01*
X149988604Y-93109385D01*
X149949500Y-93368818D01*
X149949500Y-93631182D01*
X148660500Y-93631182D01*
X148660499Y-92692128D01*
X148654091Y-92632517D01*
X148603796Y-92497669D01*
X148517546Y-92382454D01*
X148402331Y-92296204D01*
X148267483Y-92245909D01*
X148207873Y-92239500D01*
X148207869Y-92239500D01*
X146592130Y-92239500D01*
X146532515Y-92245909D01*
X146397669Y-92296204D01*
X146282454Y-92382454D01*
X146196204Y-92497668D01*
X146145909Y-92632516D01*
X146139500Y-92692130D01*
X146139500Y-94307869D01*
X145373111Y-94307869D01*
X145495795Y-94132658D01*
X145589007Y-93932763D01*
X145646092Y-93719720D01*
X145665315Y-93500000D01*
X145646092Y-93280280D01*
X145589007Y-93067237D01*
X145495795Y-92867343D01*
X145489727Y-92858677D01*
X145369288Y-92686670D01*
X145213329Y-92530712D01*
X145032657Y-92404204D01*
X144832766Y-92310994D01*
X144832763Y-92310993D01*
X144718141Y-92280280D01*
X144619717Y-92253907D01*
X144400000Y-92234684D01*
X144180282Y-92253907D01*
X143967235Y-92310993D01*
X143767341Y-92404205D01*
X143586669Y-92530712D01*
X143430712Y-92686669D01*
X143304205Y-92867341D01*
X143210993Y-93067235D01*
X143153907Y-93280282D01*
X143134684Y-93500000D01*
X125279468Y-93500000D01*
X125323329Y-93469288D01*
X125479288Y-93313329D01*
X125605795Y-93132658D01*
X125699007Y-92932763D01*
X125756092Y-92719720D01*
X125775315Y-92500000D01*
X125756092Y-92280280D01*
X125699007Y-92067237D01*
X125605795Y-91867343D01*
X125533572Y-91764197D01*
X125479288Y-91686670D01*
X125323329Y-91530712D01*
X125142657Y-91404204D01*
X124942766Y-91310994D01*
X124942763Y-91310993D01*
X124836241Y-91282450D01*
X124729717Y-91253907D01*
X124509999Y-91234684D01*
X124290282Y-91253907D01*
X124077235Y-91310993D01*
X123877341Y-91404205D01*
X123696669Y-91530712D01*
X123540712Y-91686669D01*
X123414205Y-91867341D01*
X123320993Y-92067235D01*
X123263907Y-92280282D01*
X123244684Y-92499999D01*
X118960500Y-92499999D01*
X118960500Y-92368818D01*
X118942591Y-92250000D01*
X120250000Y-92250000D01*
X121260000Y-92250000D01*
X121260000Y-91240000D01*
X121760000Y-91240000D01*
X121760000Y-92250000D01*
X122770000Y-92250000D01*
X122770000Y-91692176D01*
X122763597Y-91632624D01*
X122713352Y-91497910D01*
X122627188Y-91382811D01*
X122512089Y-91296647D01*
X122377375Y-91246402D01*
X122317824Y-91240000D01*
X121760000Y-91240000D01*
X121260000Y-91240000D01*
X120702176Y-91240000D01*
X120642624Y-91246402D01*
X120507910Y-91296647D01*
X120392811Y-91382811D01*
X120306647Y-91497910D01*
X120256402Y-91632624D01*
X120250000Y-91692176D01*
X120250000Y-92250000D01*
X118942591Y-92250000D01*
X118921396Y-92109385D01*
X118844063Y-91858677D01*
X118730228Y-91622296D01*
X118582433Y-91405521D01*
X118582432Y-91405520D01*
X118582428Y-91405514D01*
X118403984Y-91213198D01*
X118403983Y-91213197D01*
X118403981Y-91213195D01*
X118198857Y-91049614D01*
X118198856Y-91049613D01*
X117971641Y-90918431D01*
X117727418Y-90822580D01*
X117471627Y-90764197D01*
X117275499Y-90749500D01*
X117275494Y-90749500D01*
X117144506Y-90749500D01*
X117144501Y-90749500D01*
X116948372Y-90764197D01*
X116692581Y-90822580D01*
X116448358Y-90918431D01*
X116221143Y-91049613D01*
X116016015Y-91213198D01*
X115837571Y-91405514D01*
X115774577Y-91497910D01*
X115689772Y-91622296D01*
X115575937Y-91858677D01*
X115498604Y-92109385D01*
X115459500Y-92368818D01*
X115459500Y-92631182D01*
X111700000Y-92631182D01*
X111700000Y-85288903D01*
X112264648Y-85288903D01*
X112264649Y-85288904D01*
X112522207Y-85497469D01*
X112847456Y-85708690D01*
X113193009Y-85884757D01*
X113555068Y-86023739D01*
X113929674Y-86124114D01*
X114312711Y-86184780D01*
X114700000Y-86205077D01*
X115087288Y-86184780D01*
X115470325Y-86124114D01*
X115844931Y-86023739D01*
X116206990Y-85884757D01*
X116552543Y-85708690D01*
X116877786Y-85497473D01*
X117135348Y-85288903D01*
X151264648Y-85288903D01*
X151264649Y-85288904D01*
X151522207Y-85497469D01*
X151847456Y-85708690D01*
X152193009Y-85884757D01*
X152555068Y-86023739D01*
X152929674Y-86124114D01*
X153312711Y-86184780D01*
X153700000Y-86205077D01*
X154087288Y-86184780D01*
X154470325Y-86124114D01*
X154844931Y-86023739D01*
X155206990Y-85884757D01*
X155552543Y-85708690D01*
X155877786Y-85497473D01*
X156135349Y-85288902D01*
X153700000Y-82853553D01*
X151264648Y-85288903D01*
X117135348Y-85288903D01*
X117135349Y-85288902D01*
X114700000Y-82853553D01*
X112264648Y-85288903D01*
X111700000Y-85288903D01*
X111700000Y-85024834D01*
X111714718Y-84966238D01*
X111755380Y-84921552D01*
X111812331Y-84901384D01*
X111872053Y-84910523D01*
X111904670Y-84935013D01*
X111911096Y-84935350D01*
X114346447Y-82500001D01*
X114346447Y-82500000D01*
X115053553Y-82500000D01*
X117488902Y-84935349D01*
X117697473Y-84677786D01*
X117908690Y-84352543D01*
X118084757Y-84006990D01*
X118223739Y-83644931D01*
X118324114Y-83270325D01*
X118384780Y-82887288D01*
X118405077Y-82499999D01*
X149994922Y-82499999D01*
X150015219Y-82887288D01*
X150075885Y-83270325D01*
X150176260Y-83644931D01*
X150315242Y-84006990D01*
X150491309Y-84352543D01*
X150702530Y-84677792D01*
X150911095Y-84935350D01*
X150911096Y-84935350D01*
X153346447Y-82500001D01*
X153346447Y-82500000D01*
X150911096Y-80064648D01*
X150702526Y-80322214D01*
X150491309Y-80647456D01*
X150315242Y-80993009D01*
X150176260Y-81355068D01*
X150075885Y-81729674D01*
X150015219Y-82112711D01*
X149994922Y-82499999D01*
X118405077Y-82499999D01*
X118384780Y-82112711D01*
X118324114Y-81729674D01*
X118223739Y-81355068D01*
X118084757Y-80993009D01*
X117908690Y-80647456D01*
X117697469Y-80322207D01*
X117488904Y-80064649D01*
X117488903Y-80064648D01*
X115053553Y-82500000D01*
X114346447Y-82500000D01*
X111911096Y-80064648D01*
X111904670Y-80064985D01*
X111872053Y-80089476D01*
X111812331Y-80098615D01*
X111755380Y-80078447D01*
X111714718Y-80033761D01*
X111700000Y-79975165D01*
X111700000Y-79624000D01*
X111716613Y-79562000D01*
X111762000Y-79516613D01*
X111824000Y-79500000D01*
X112175165Y-79500000D01*
X112233761Y-79514718D01*
G37*
%TD.AperFunction*%
%TD*%
M02*
