%TF.GenerationSoftware,KiCad,Pcbnew,7.0.1*%
%TF.CreationDate,2023-05-02T18:28:53-06:00*%
%TF.ProjectId,contactor_controller,636f6e74-6163-4746-9f72-5f636f6e7472,rev?*%
%TF.SameCoordinates,Original*%
%TF.FileFunction,Copper,L1,Top*%
%TF.FilePolarity,Positive*%
%FSLAX46Y46*%
G04 Gerber Fmt 4.6, Leading zero omitted, Abs format (unit mm)*
G04 Created by KiCad (PCBNEW 7.0.1) date 2023-05-02 18:28:53*
%MOMM*%
%LPD*%
G01*
G04 APERTURE LIST*
G04 Aperture macros list*
%AMRoundRect*
0 Rectangle with rounded corners*
0 $1 Rounding radius*
0 $2 $3 $4 $5 $6 $7 $8 $9 X,Y pos of 4 corners*
0 Add a 4 corners polygon primitive as box body*
4,1,4,$2,$3,$4,$5,$6,$7,$8,$9,$2,$3,0*
0 Add four circle primitives for the rounded corners*
1,1,$1+$1,$2,$3*
1,1,$1+$1,$4,$5*
1,1,$1+$1,$6,$7*
1,1,$1+$1,$8,$9*
0 Add four rect primitives between the rounded corners*
20,1,$1+$1,$2,$3,$4,$5,0*
20,1,$1+$1,$4,$5,$6,$7,0*
20,1,$1+$1,$6,$7,$8,$9,0*
20,1,$1+$1,$8,$9,$2,$3,0*%
G04 Aperture macros list end*
%TA.AperFunction,SMDPad,CuDef*%
%ADD10RoundRect,0.250000X-0.300000X0.300000X-0.300000X-0.300000X0.300000X-0.300000X0.300000X0.300000X0*%
%TD*%
%TA.AperFunction,SMDPad,CuDef*%
%ADD11RoundRect,0.250000X0.300000X-0.300000X0.300000X0.300000X-0.300000X0.300000X-0.300000X-0.300000X0*%
%TD*%
%TA.AperFunction,SMDPad,CuDef*%
%ADD12RoundRect,0.250000X0.450000X-0.350000X0.450000X0.350000X-0.450000X0.350000X-0.450000X-0.350000X0*%
%TD*%
%TA.AperFunction,SMDPad,CuDef*%
%ADD13RoundRect,0.250000X1.000000X0.650000X-1.000000X0.650000X-1.000000X-0.650000X1.000000X-0.650000X0*%
%TD*%
%TA.AperFunction,ComponentPad*%
%ADD14R,1.520000X1.520000*%
%TD*%
%TA.AperFunction,ComponentPad*%
%ADD15C,1.520000*%
%TD*%
%TA.AperFunction,SMDPad,CuDef*%
%ADD16RoundRect,0.150000X-0.587500X-0.150000X0.587500X-0.150000X0.587500X0.150000X-0.587500X0.150000X0*%
%TD*%
%TA.AperFunction,ComponentPad*%
%ADD17C,0.800000*%
%TD*%
%TA.AperFunction,ComponentPad*%
%ADD18C,6.400000*%
%TD*%
%TA.AperFunction,SMDPad,CuDef*%
%ADD19RoundRect,0.250000X-0.450000X0.350000X-0.450000X-0.350000X0.450000X-0.350000X0.450000X0.350000X0*%
%TD*%
%TA.AperFunction,SMDPad,CuDef*%
%ADD20RoundRect,0.250000X-0.350000X-0.450000X0.350000X-0.450000X0.350000X0.450000X-0.350000X0.450000X0*%
%TD*%
%TA.AperFunction,ViaPad*%
%ADD21C,0.800000*%
%TD*%
%TA.AperFunction,Conductor*%
%ADD22C,0.250000*%
%TD*%
%TA.AperFunction,Conductor*%
%ADD23C,0.400000*%
%TD*%
G04 APERTURE END LIST*
D10*
%TO.P,D4,1,K*%
%TO.N,Net-(D4-K)*%
X129300000Y-111000000D03*
%TO.P,D4,2,A*%
%TO.N,GND*%
X129300000Y-113800000D03*
%TD*%
D11*
%TO.P,D3,1,K*%
%TO.N,Net-(D3-K)*%
X129400000Y-98900000D03*
%TO.P,D3,2,A*%
%TO.N,GND*%
X129400000Y-96100000D03*
%TD*%
D12*
%TO.P,R5,1*%
%TO.N,Net-(D4-K)*%
X127800000Y-105300000D03*
%TO.P,R5,2*%
%TO.N,Net-(D3-K)*%
X127800000Y-103300000D03*
%TD*%
D13*
%TO.P,D2,1,K*%
%TO.N,Net-(D1-K)*%
X147500000Y-87800000D03*
%TO.P,D2,2,A*%
%TO.N,Net-(D2-A)*%
X143500000Y-87800000D03*
%TD*%
D14*
%TO.P,J3,1,Pin_1*%
%TO.N,Net-(D1-K)*%
X147400000Y-100500000D03*
D15*
%TO.P,J3,2,Pin_2*%
%TO.N,Net-(D1-A)*%
X144400000Y-100500000D03*
%TD*%
D14*
%TO.P,J4,1,Pin_1*%
%TO.N,Net-(D1-K)*%
X147400000Y-93500000D03*
D15*
%TO.P,J4,2,Pin_2*%
%TO.N,Net-(D2-A)*%
X144400000Y-93500000D03*
%TD*%
D16*
%TO.P,Q1,1,G*%
%TO.N,Net-(Q1-G)*%
X139725000Y-94050000D03*
%TO.P,Q1,2,S*%
%TO.N,GND*%
X139725000Y-95950000D03*
%TO.P,Q1,3,D*%
%TO.N,Net-(D2-A)*%
X141600000Y-95000000D03*
%TD*%
D14*
%TO.P,J6,1,Pin_1*%
%TO.N,GND*%
X121500000Y-99400000D03*
D15*
%TO.P,J6,2,Pin_2*%
%TO.N,Net-(D3-K)*%
X124500000Y-99400000D03*
%TD*%
D17*
%TO.P,H4,1,1*%
%TO.N,GND*%
X151300000Y-115500000D03*
X152002944Y-113802944D03*
X152002944Y-117197056D03*
X153700000Y-113100000D03*
D18*
X153700000Y-115500000D03*
D17*
X153700000Y-117900000D03*
X155397056Y-113802944D03*
X155397056Y-117197056D03*
X156100000Y-115500000D03*
%TD*%
D19*
%TO.P,R3,1*%
%TO.N,Net-(Q2-G)*%
X133750000Y-108100000D03*
%TO.P,R3,2*%
%TO.N,GND*%
X133750000Y-110100000D03*
%TD*%
D16*
%TO.P,Q2,1,G*%
%TO.N,Net-(Q2-G)*%
X139725000Y-101050000D03*
%TO.P,Q2,2,S*%
%TO.N,GND*%
X139725000Y-102950000D03*
%TO.P,Q2,3,D*%
%TO.N,Net-(D1-A)*%
X141600000Y-102000000D03*
%TD*%
D19*
%TO.P,R4,1*%
%TO.N,Net-(Q1-G)*%
X134200000Y-101000000D03*
%TO.P,R4,2*%
%TO.N,GND*%
X134200000Y-103000000D03*
%TD*%
D17*
%TO.P,H2,1,1*%
%TO.N,GND*%
X112300000Y-115500000D03*
X113002944Y-113802944D03*
X113002944Y-117197056D03*
X114700000Y-113100000D03*
D18*
X114700000Y-115500000D03*
D17*
X114700000Y-117900000D03*
X116397056Y-113802944D03*
X116397056Y-117197056D03*
X117100000Y-115500000D03*
%TD*%
%TO.P,H3,1,1*%
%TO.N,GND*%
X151300000Y-82500000D03*
X152002944Y-80802944D03*
X152002944Y-84197056D03*
X153700000Y-80100000D03*
D18*
X153700000Y-82500000D03*
D17*
X153700000Y-84900000D03*
X155397056Y-80802944D03*
X155397056Y-84197056D03*
X156100000Y-82500000D03*
%TD*%
D20*
%TO.P,R2,1*%
%TO.N,Net-(D4-K)*%
X129350000Y-108200000D03*
%TO.P,R2,2*%
%TO.N,Net-(Q2-G)*%
X131350000Y-108200000D03*
%TD*%
%TO.P,R1,1*%
%TO.N,Net-(D3-K)*%
X129500000Y-101000000D03*
%TO.P,R1,2*%
%TO.N,Net-(Q1-G)*%
X131500000Y-101000000D03*
%TD*%
D13*
%TO.P,D1,1,K*%
%TO.N,Net-(D1-K)*%
X147500000Y-106000000D03*
%TO.P,D1,2,A*%
%TO.N,Net-(D1-A)*%
X143500000Y-106000000D03*
%TD*%
D14*
%TO.P,J5,1,Pin_1*%
%TO.N,GND*%
X121500000Y-106500000D03*
D15*
%TO.P,J5,2,Pin_2*%
%TO.N,Net-(D4-K)*%
X124500000Y-106500000D03*
%TD*%
D14*
%TO.P,J1,1,Pin_1*%
%TO.N,GND*%
X121510000Y-92500000D03*
D15*
%TO.P,J1,2,Pin_2*%
%TO.N,Net-(D1-K)*%
X124510000Y-92500000D03*
%TD*%
D17*
%TO.P,H1,1,1*%
%TO.N,GND*%
X112300000Y-82500000D03*
X113002944Y-80802944D03*
X113002944Y-84197056D03*
X114700000Y-80100000D03*
D18*
X114700000Y-82500000D03*
D17*
X114700000Y-84900000D03*
X116397056Y-80802944D03*
X116397056Y-84197056D03*
X117100000Y-82500000D03*
%TD*%
D21*
%TO.N,GND*%
X139800000Y-97300000D03*
X139700000Y-104300000D03*
X136000000Y-103500000D03*
X133800000Y-111600000D03*
X132400000Y-96400000D03*
X131300000Y-114000000D03*
%TD*%
D22*
%TO.N,Net-(D4-K)*%
X129350000Y-110950000D02*
X129300000Y-111000000D01*
X129350000Y-108200000D02*
X129350000Y-110950000D01*
%TO.N,Net-(D3-K)*%
X129400000Y-100900000D02*
X129500000Y-101000000D01*
X129400000Y-98900000D02*
X129400000Y-100900000D01*
%TO.N,GND*%
X129400000Y-96100000D02*
X132100000Y-96100000D01*
X132100000Y-96100000D02*
X132400000Y-96400000D01*
X131100000Y-113800000D02*
X131300000Y-114000000D01*
X129300000Y-113800000D02*
X131100000Y-113800000D01*
D23*
%TO.N,Net-(D1-K)*%
X148000000Y-106000000D02*
X148000000Y-103500000D01*
X124510000Y-92500000D02*
X135500000Y-92500000D01*
X135500000Y-92500000D02*
X136900000Y-91100000D01*
X147900000Y-87900000D02*
X148000000Y-87800000D01*
X147900000Y-89700000D02*
X147900000Y-87900000D01*
X147400000Y-90200000D02*
X147900000Y-89700000D01*
X147400000Y-93500000D02*
X147400000Y-90200000D01*
X147200000Y-84900000D02*
X148000000Y-85700000D01*
X148000000Y-85700000D02*
X148000000Y-87800000D01*
X148000000Y-103500000D02*
X147400000Y-102900000D01*
X147400000Y-93500000D02*
X147400000Y-100500000D01*
X136900000Y-91100000D02*
X136900000Y-85900000D01*
X137900000Y-84900000D02*
X147200000Y-84900000D01*
X147400000Y-102900000D02*
X147400000Y-100500000D01*
X136900000Y-85900000D02*
X137900000Y-84900000D01*
%TO.N,Net-(D1-A)*%
X142800000Y-100800000D02*
X143100000Y-100500000D01*
X143100000Y-100500000D02*
X144400000Y-100500000D01*
X144400000Y-102300000D02*
X143000000Y-103700000D01*
X142600000Y-102000000D02*
X142800000Y-101800000D01*
X143000000Y-103700000D02*
X143000000Y-106000000D01*
X142800000Y-101800000D02*
X142800000Y-100800000D01*
X141600000Y-102000000D02*
X142600000Y-102000000D01*
X144400000Y-100500000D02*
X144400000Y-102300000D01*
%TO.N,Net-(D2-A)*%
X142800000Y-95000000D02*
X143100000Y-94700000D01*
X143000000Y-87800000D02*
X143000000Y-89000000D01*
X144400000Y-90400000D02*
X144400000Y-93500000D01*
X144200000Y-93700000D02*
X144400000Y-93500000D01*
X143100000Y-93800000D02*
X143200000Y-93700000D01*
X143100000Y-94700000D02*
X143100000Y-93800000D01*
X143000000Y-89000000D02*
X144400000Y-90400000D01*
X143200000Y-93700000D02*
X144200000Y-93700000D01*
X141600000Y-95000000D02*
X142800000Y-95000000D01*
D22*
%TO.N,Net-(D3-K)*%
X126600000Y-103200000D02*
X127700000Y-103200000D01*
X127800000Y-103300000D02*
X127800000Y-101500000D01*
X125800000Y-99400000D02*
X126200000Y-99800000D01*
X127700000Y-103200000D02*
X127800000Y-103300000D01*
X126200000Y-99800000D02*
X126200000Y-102800000D01*
X124500000Y-99400000D02*
X125800000Y-99400000D01*
X128200000Y-101100000D02*
X129400000Y-101100000D01*
X129400000Y-101100000D02*
X129500000Y-101000000D01*
X126200000Y-102800000D02*
X126600000Y-103200000D01*
X127800000Y-101500000D02*
X128200000Y-101100000D01*
D23*
%TO.N,GND*%
X139725000Y-95950000D02*
X139725000Y-97225000D01*
X139725000Y-97225000D02*
X139800000Y-97300000D01*
D22*
X133750000Y-111550000D02*
X133800000Y-111600000D01*
D23*
X139725000Y-102950000D02*
X139725000Y-104275000D01*
D22*
X133750000Y-110100000D02*
X133750000Y-111550000D01*
X135500000Y-103000000D02*
X136000000Y-103500000D01*
X134200000Y-103000000D02*
X135500000Y-103000000D01*
D23*
X139725000Y-104275000D02*
X139700000Y-104300000D01*
D22*
%TO.N,Net-(D4-K)*%
X126200000Y-105500000D02*
X126200000Y-106200000D01*
X126400000Y-105300000D02*
X127800000Y-105300000D01*
X126400000Y-105300000D02*
X126200000Y-105500000D01*
X125900000Y-106500000D02*
X124500000Y-106500000D01*
X126200000Y-106200000D02*
X125900000Y-106500000D01*
X127800000Y-105300000D02*
X127800000Y-107700000D01*
X127800000Y-107700000D02*
X128300000Y-108200000D01*
X128300000Y-108200000D02*
X129350000Y-108200000D01*
%TO.N,Net-(Q1-G)*%
X131500000Y-101000000D02*
X134200000Y-101000000D01*
X139725000Y-94050000D02*
X136050000Y-94050000D01*
X134200000Y-95900000D02*
X134200000Y-101000000D01*
X136050000Y-94050000D02*
X134200000Y-95900000D01*
%TO.N,Net-(Q2-G)*%
X137300000Y-102000000D02*
X138300000Y-101000000D01*
X139675000Y-101000000D02*
X139725000Y-101050000D01*
X137300000Y-107200000D02*
X137300000Y-102000000D01*
X133750000Y-108100000D02*
X131450000Y-108100000D01*
X136400000Y-108100000D02*
X137300000Y-107200000D01*
X138300000Y-101000000D02*
X139675000Y-101000000D01*
X131450000Y-108100000D02*
X131350000Y-108200000D01*
X133750000Y-108100000D02*
X136400000Y-108100000D01*
%TD*%
M02*
