M48
; DRILL file {KiCad 7.0.1} date Tue May  2 18:30:01 2023
; FORMAT={-:-/ absolute / inch / decimal}
; #@! TF.CreationDate,2023-05-02T18:30:01-06:00
; #@! TF.GenerationSoftware,Kicad,Pcbnew,7.0.1
; #@! TF.FileFunction,MixedPlating,1,2
FMAT,2
INCH
; #@! TA.AperFunction,Plated,PTH,ViaDrill
T1C0.0157
; #@! TA.AperFunction,Plated,PTH,ComponentDrill
T2C0.0197
; #@! TA.AperFunction,Plated,PTH,ComponentDrill
T3C0.0402
; #@! TA.AperFunction,Plated,PTH,ComponentDrill
T4C0.1260
; #@! TA.AperFunction,NonPlated,NPTH,ComponentDrill
T5C0.1181
%
G90
G05
T1
X5.1693Y-4.4882
X5.2126Y-3.7953
X5.2677Y-4.3937
X5.3543Y-4.0748
X5.5Y-4.1063
X5.5039Y-3.8307
T2
X4.4213Y-3.248
X4.4213Y-4.5472
X4.4489Y-3.1812
X4.4489Y-3.3148
X4.4489Y-4.4804
X4.4489Y-4.6141
X4.5157Y-3.1535
X4.5157Y-3.3425
X4.5157Y-4.4528
X4.5157Y-4.6417
X4.5826Y-3.1812
X4.5826Y-3.3148
X4.5826Y-4.4804
X4.5826Y-4.6141
X4.6102Y-3.248
X4.6102Y-4.5472
X5.9567Y-3.248
X5.9567Y-4.5472
X5.9844Y-3.1812
X5.9844Y-3.3148
X5.9844Y-4.4804
X5.9844Y-4.6141
X6.0512Y-3.1535
X6.0512Y-3.3425
X6.0512Y-4.4528
X6.0512Y-4.6417
X6.118Y-3.1812
X6.118Y-3.3148
X6.118Y-4.4804
X6.118Y-4.6141
X6.1457Y-3.248
X6.1457Y-4.5472
T3
X4.7835Y-3.9134
X4.7835Y-4.1929
X4.7839Y-3.6417
X4.9016Y-3.9134
X4.9016Y-4.1929
X4.902Y-3.6417
X5.685Y-3.6811
X5.685Y-3.9567
X5.8031Y-3.6811
X5.8031Y-3.9567
T4
X4.5157Y-3.248
X4.5157Y-4.5472
X6.0512Y-3.248
X6.0512Y-4.5472
T5
X4.6142Y-3.9134
X4.6142Y-4.1929
X4.6146Y-3.6417
X5.9724Y-3.6811
X5.9724Y-3.9567
T0
M30
