M48
; DRILL file {KiCad 7.0.1} date Wed Jul  5 17:43:09 2023
; FORMAT={-:-/ absolute / inch / decimal}
; #@! TF.CreationDate,2023-07-05T17:43:09-06:00
; #@! TF.GenerationSoftware,Kicad,Pcbnew,7.0.1
; #@! TF.FileFunction,MixedPlating,1,2
FMAT,2
INCH
; #@! TA.AperFunction,Plated,PTH,ViaDrill
T1C0.0157
; #@! TA.AperFunction,Plated,PTH,ComponentDrill
T2C0.0197
; #@! TA.AperFunction,Plated,PTH,ComponentDrill
T3C0.0402
; #@! TA.AperFunction,Plated,PTH,ComponentDrill
T4C0.0591
; #@! TA.AperFunction,Plated,PTH,ComponentDrill
T5C0.1260
; #@! TA.AperFunction,NonPlated,NPTH,ComponentDrill
T6C0.1181
%
G90
G05
T1
X5.4371Y-3.6222
X5.5041Y-3.63
X5.5395Y-3.697
X5.5395Y-3.7915
T2
X3.9726Y-3.0041
X3.9726Y-4.2245
X4.0002Y-2.9372
X4.0002Y-3.0709
X4.0002Y-4.1577
X4.0002Y-4.2913
X4.067Y-2.9096
X4.067Y-3.0985
X4.067Y-4.13
X4.067Y-4.319
X4.1339Y-2.9372
X4.1339Y-3.0709
X4.1339Y-4.1577
X4.1339Y-4.2913
X4.1615Y-3.0041
X4.1615Y-4.2245
X6.7678Y-3.0041
X6.7678Y-4.2245
X6.7955Y-2.9372
X6.7955Y-3.0709
X6.7955Y-4.1577
X6.7955Y-4.2913
X6.8623Y-2.9096
X6.8623Y-3.0985
X6.8623Y-4.13
X6.8623Y-4.319
X6.9291Y-2.9372
X6.9291Y-3.0709
X6.9291Y-4.1577
X6.9291Y-4.2913
X6.9568Y-3.0041
X6.9568Y-4.2245
T3
X4.4411Y-3.3115
X4.4411Y-3.4296
X5.0119Y-3.3115
X5.0119Y-3.4296
X5.8781Y-3.319
X5.8781Y-3.4371
X6.4292Y-3.319
X6.4292Y-3.4371
T4
X4.4292Y-3.9056
X5.4292Y-3.7048
X5.4292Y-4.1064
X6.4292Y-3.9056
T5
X4.067Y-3.0041
X4.067Y-4.2245
X6.8623Y-3.0041
X6.8623Y-4.2245
T6
X4.4411Y-3.1422
X5.0119Y-3.1422
X5.8781Y-3.1497
X6.4292Y-3.1497
T0
M30
