%TF.GenerationSoftware,KiCad,Pcbnew,(6.0.0)*%
%TF.CreationDate,2023-03-29T21:01:20-06:00*%
%TF.ProjectId,isolated_voltage_and_current_sensor,69736f6c-6174-4656-945f-766f6c746167,1*%
%TF.SameCoordinates,Original*%
%TF.FileFunction,Legend,Top*%
%TF.FilePolarity,Positive*%
%FSLAX46Y46*%
G04 Gerber Fmt 4.6, Leading zero omitted, Abs format (unit mm)*
G04 Created by KiCad (PCBNEW (6.0.0)) date 2023-03-29 21:01:20*
%MOMM*%
%LPD*%
G01*
G04 APERTURE LIST*
%ADD10C,0.150000*%
%ADD11C,0.120000*%
%ADD12C,0.127000*%
%ADD13C,0.200000*%
G04 APERTURE END LIST*
D10*
X137000000Y-106500000D02*
X137000000Y-104000000D01*
X137000000Y-95500000D02*
X137000000Y-92900000D01*
X137000000Y-106500000D02*
X117100000Y-106500000D01*
X137000000Y-69000000D02*
X117100000Y-69000000D01*
X140000000Y-109500000D02*
X140000000Y-104000000D01*
X117100000Y-66000000D02*
X140000000Y-66000000D01*
X140000000Y-109500000D02*
X117100000Y-109500000D01*
X140000000Y-92900000D02*
X140000000Y-95500000D01*
X140000000Y-66000000D02*
X140000000Y-83000000D01*
X137000000Y-83000000D02*
X137000000Y-69000000D01*
X124371428Y-125752380D02*
X124371428Y-124752380D01*
X124942857Y-125752380D01*
X124942857Y-124752380D01*
X125800000Y-125704761D02*
X125704761Y-125752380D01*
X125514285Y-125752380D01*
X125419047Y-125704761D01*
X125371428Y-125609523D01*
X125371428Y-125228571D01*
X125419047Y-125133333D01*
X125514285Y-125085714D01*
X125704761Y-125085714D01*
X125800000Y-125133333D01*
X125847619Y-125228571D01*
X125847619Y-125323809D01*
X125371428Y-125419047D01*
X126180952Y-125085714D02*
X126371428Y-125752380D01*
X126561904Y-125276190D01*
X126752380Y-125752380D01*
X126942857Y-125085714D01*
X127180952Y-125085714D02*
X127561904Y-125085714D01*
X127323809Y-124752380D02*
X127323809Y-125609523D01*
X127371428Y-125704761D01*
X127466666Y-125752380D01*
X127561904Y-125752380D01*
X128038095Y-125752380D02*
X127942857Y-125704761D01*
X127895238Y-125657142D01*
X127847619Y-125561904D01*
X127847619Y-125276190D01*
X127895238Y-125180952D01*
X127942857Y-125133333D01*
X128038095Y-125085714D01*
X128180952Y-125085714D01*
X128276190Y-125133333D01*
X128323809Y-125180952D01*
X128371428Y-125276190D01*
X128371428Y-125561904D01*
X128323809Y-125657142D01*
X128276190Y-125704761D01*
X128180952Y-125752380D01*
X128038095Y-125752380D01*
X128800000Y-125085714D02*
X128800000Y-125752380D01*
X128800000Y-125180952D02*
X128847619Y-125133333D01*
X128942857Y-125085714D01*
X129085714Y-125085714D01*
X129180952Y-125133333D01*
X129228571Y-125228571D01*
X129228571Y-125752380D01*
X125119047Y-59452380D02*
X125119047Y-58452380D01*
X125547619Y-59404761D02*
X125642857Y-59452380D01*
X125833333Y-59452380D01*
X125928571Y-59404761D01*
X125976190Y-59309523D01*
X125976190Y-59261904D01*
X125928571Y-59166666D01*
X125833333Y-59119047D01*
X125690476Y-59119047D01*
X125595238Y-59071428D01*
X125547619Y-58976190D01*
X125547619Y-58928571D01*
X125595238Y-58833333D01*
X125690476Y-58785714D01*
X125833333Y-58785714D01*
X125928571Y-58833333D01*
X126547619Y-59452380D02*
X126452380Y-59404761D01*
X126404761Y-59357142D01*
X126357142Y-59261904D01*
X126357142Y-58976190D01*
X126404761Y-58880952D01*
X126452380Y-58833333D01*
X126547619Y-58785714D01*
X126690476Y-58785714D01*
X126785714Y-58833333D01*
X126833333Y-58880952D01*
X126880952Y-58976190D01*
X126880952Y-59261904D01*
X126833333Y-59357142D01*
X126785714Y-59404761D01*
X126690476Y-59452380D01*
X126547619Y-59452380D01*
X127452380Y-59452380D02*
X127357142Y-59404761D01*
X127309523Y-59309523D01*
X127309523Y-58452380D01*
X128261904Y-59452380D02*
X128261904Y-58928571D01*
X128214285Y-58833333D01*
X128119047Y-58785714D01*
X127928571Y-58785714D01*
X127833333Y-58833333D01*
X128261904Y-59404761D02*
X128166666Y-59452380D01*
X127928571Y-59452380D01*
X127833333Y-59404761D01*
X127785714Y-59309523D01*
X127785714Y-59214285D01*
X127833333Y-59119047D01*
X127928571Y-59071428D01*
X128166666Y-59071428D01*
X128261904Y-59023809D01*
X128595238Y-58785714D02*
X128976190Y-58785714D01*
X128738095Y-58452380D02*
X128738095Y-59309523D01*
X128785714Y-59404761D01*
X128880952Y-59452380D01*
X128976190Y-59452380D01*
X129690476Y-59404761D02*
X129595238Y-59452380D01*
X129404761Y-59452380D01*
X129309523Y-59404761D01*
X129261904Y-59309523D01*
X129261904Y-58928571D01*
X129309523Y-58833333D01*
X129404761Y-58785714D01*
X129595238Y-58785714D01*
X129690476Y-58833333D01*
X129738095Y-58928571D01*
X129738095Y-59023809D01*
X129261904Y-59119047D01*
X130595238Y-59452380D02*
X130595238Y-58452380D01*
X130595238Y-59404761D02*
X130500000Y-59452380D01*
X130309523Y-59452380D01*
X130214285Y-59404761D01*
X130166666Y-59357142D01*
X130119047Y-59261904D01*
X130119047Y-58976190D01*
X130166666Y-58880952D01*
X130214285Y-58833333D01*
X130309523Y-58785714D01*
X130500000Y-58785714D01*
X130595238Y-58833333D01*
X131690476Y-58452380D02*
X132023809Y-59452380D01*
X132357142Y-58452380D01*
X133404761Y-58404761D02*
X132547619Y-59690476D01*
X133738095Y-59452380D02*
X133738095Y-58452380D01*
X134928571Y-59404761D02*
X135071428Y-59452380D01*
X135309523Y-59452380D01*
X135404761Y-59404761D01*
X135452380Y-59357142D01*
X135500000Y-59261904D01*
X135500000Y-59166666D01*
X135452380Y-59071428D01*
X135404761Y-59023809D01*
X135309523Y-58976190D01*
X135119047Y-58928571D01*
X135023809Y-58880952D01*
X134976190Y-58833333D01*
X134928571Y-58738095D01*
X134928571Y-58642857D01*
X134976190Y-58547619D01*
X135023809Y-58500000D01*
X135119047Y-58452380D01*
X135357142Y-58452380D01*
X135500000Y-58500000D01*
X136309523Y-59404761D02*
X136214285Y-59452380D01*
X136023809Y-59452380D01*
X135928571Y-59404761D01*
X135880952Y-59309523D01*
X135880952Y-58928571D01*
X135928571Y-58833333D01*
X136023809Y-58785714D01*
X136214285Y-58785714D01*
X136309523Y-58833333D01*
X136357142Y-58928571D01*
X136357142Y-59023809D01*
X135880952Y-59119047D01*
X136785714Y-58785714D02*
X136785714Y-59452380D01*
X136785714Y-58880952D02*
X136833333Y-58833333D01*
X136928571Y-58785714D01*
X137071428Y-58785714D01*
X137166666Y-58833333D01*
X137214285Y-58928571D01*
X137214285Y-59452380D01*
X137642857Y-59404761D02*
X137738095Y-59452380D01*
X137928571Y-59452380D01*
X138023809Y-59404761D01*
X138071428Y-59309523D01*
X138071428Y-59261904D01*
X138023809Y-59166666D01*
X137928571Y-59119047D01*
X137785714Y-59119047D01*
X137690476Y-59071428D01*
X137642857Y-58976190D01*
X137642857Y-58928571D01*
X137690476Y-58833333D01*
X137785714Y-58785714D01*
X137928571Y-58785714D01*
X138023809Y-58833333D01*
X138880952Y-59404761D02*
X138785714Y-59452380D01*
X138595238Y-59452380D01*
X138500000Y-59404761D01*
X138452380Y-59309523D01*
X138452380Y-58928571D01*
X138500000Y-58833333D01*
X138595238Y-58785714D01*
X138785714Y-58785714D01*
X138880952Y-58833333D01*
X138928571Y-58928571D01*
X138928571Y-59023809D01*
X138452380Y-59119047D01*
X119369047Y-111912380D02*
X118797619Y-111912380D01*
X119083333Y-111912380D02*
X119083333Y-110912380D01*
X118988095Y-111055238D01*
X118892857Y-111150476D01*
X118797619Y-111198095D01*
X119750000Y-111007619D02*
X119797619Y-110960000D01*
X119892857Y-110912380D01*
X120130952Y-110912380D01*
X120226190Y-110960000D01*
X120273809Y-111007619D01*
X120321428Y-111102857D01*
X120321428Y-111198095D01*
X120273809Y-111340952D01*
X119702380Y-111912380D01*
X120321428Y-111912380D01*
X120607142Y-110912380D02*
X120940476Y-111912380D01*
X121273809Y-110912380D01*
X122369047Y-111912380D02*
X122369047Y-110912380D01*
X122845238Y-111245714D02*
X122845238Y-111912380D01*
X122845238Y-111340952D02*
X122892857Y-111293333D01*
X122988095Y-111245714D01*
X123130952Y-111245714D01*
X123226190Y-111293333D01*
X123273809Y-111388571D01*
X123273809Y-111912380D01*
X123750000Y-111245714D02*
X123750000Y-112245714D01*
X123750000Y-111293333D02*
X123845238Y-111245714D01*
X124035714Y-111245714D01*
X124130952Y-111293333D01*
X124178571Y-111340952D01*
X124226190Y-111436190D01*
X124226190Y-111721904D01*
X124178571Y-111817142D01*
X124130952Y-111864761D01*
X124035714Y-111912380D01*
X123845238Y-111912380D01*
X123750000Y-111864761D01*
X125083333Y-111245714D02*
X125083333Y-111912380D01*
X124654761Y-111245714D02*
X124654761Y-111769523D01*
X124702380Y-111864761D01*
X124797619Y-111912380D01*
X124940476Y-111912380D01*
X125035714Y-111864761D01*
X125083333Y-111817142D01*
X125416666Y-111245714D02*
X125797619Y-111245714D01*
X125559523Y-110912380D02*
X125559523Y-111769523D01*
X125607142Y-111864761D01*
X125702380Y-111912380D01*
X125797619Y-111912380D01*
X147297619Y-59726190D02*
X147297619Y-59916666D01*
X147250000Y-60011904D01*
X147154761Y-60107142D01*
X146964285Y-60154761D01*
X146630952Y-60154761D01*
X146440476Y-60107142D01*
X146345238Y-60011904D01*
X146297619Y-59916666D01*
X146297619Y-59726190D01*
X146345238Y-59630952D01*
X146440476Y-59535714D01*
X146630952Y-59488095D01*
X146964285Y-59488095D01*
X147154761Y-59535714D01*
X147250000Y-59630952D01*
X147297619Y-59726190D01*
X146964285Y-61011904D02*
X146297619Y-61011904D01*
X146964285Y-60583333D02*
X146440476Y-60583333D01*
X146345238Y-60630952D01*
X146297619Y-60726190D01*
X146297619Y-60869047D01*
X146345238Y-60964285D01*
X146392857Y-61011904D01*
X146964285Y-61345238D02*
X146964285Y-61726190D01*
X147297619Y-61488095D02*
X146440476Y-61488095D01*
X146345238Y-61535714D01*
X146297619Y-61630952D01*
X146297619Y-61726190D01*
X146964285Y-62059523D02*
X145964285Y-62059523D01*
X146916666Y-62059523D02*
X146964285Y-62154761D01*
X146964285Y-62345238D01*
X146916666Y-62440476D01*
X146869047Y-62488095D01*
X146773809Y-62535714D01*
X146488095Y-62535714D01*
X146392857Y-62488095D01*
X146345238Y-62440476D01*
X146297619Y-62345238D01*
X146297619Y-62154761D01*
X146345238Y-62059523D01*
X146964285Y-63392857D02*
X146297619Y-63392857D01*
X146964285Y-62964285D02*
X146440476Y-62964285D01*
X146345238Y-63011904D01*
X146297619Y-63107142D01*
X146297619Y-63250000D01*
X146345238Y-63345238D01*
X146392857Y-63392857D01*
X146964285Y-63726190D02*
X146964285Y-64107142D01*
X147297619Y-63869047D02*
X146440476Y-63869047D01*
X146345238Y-63916666D01*
X146297619Y-64011904D01*
X146297619Y-64107142D01*
X118571428Y-69252380D02*
X118904761Y-70252380D01*
X119238095Y-69252380D01*
X119714285Y-70252380D02*
X119619047Y-70204761D01*
X119571428Y-70157142D01*
X119523809Y-70061904D01*
X119523809Y-69776190D01*
X119571428Y-69680952D01*
X119619047Y-69633333D01*
X119714285Y-69585714D01*
X119857142Y-69585714D01*
X119952380Y-69633333D01*
X120000000Y-69680952D01*
X120047619Y-69776190D01*
X120047619Y-70061904D01*
X120000000Y-70157142D01*
X119952380Y-70204761D01*
X119857142Y-70252380D01*
X119714285Y-70252380D01*
X120619047Y-70252380D02*
X120523809Y-70204761D01*
X120476190Y-70109523D01*
X120476190Y-69252380D01*
X120857142Y-69585714D02*
X121238095Y-69585714D01*
X121000000Y-69252380D02*
X121000000Y-70109523D01*
X121047619Y-70204761D01*
X121142857Y-70252380D01*
X121238095Y-70252380D01*
X122000000Y-70252380D02*
X122000000Y-69728571D01*
X121952380Y-69633333D01*
X121857142Y-69585714D01*
X121666666Y-69585714D01*
X121571428Y-69633333D01*
X122000000Y-70204761D02*
X121904761Y-70252380D01*
X121666666Y-70252380D01*
X121571428Y-70204761D01*
X121523809Y-70109523D01*
X121523809Y-70014285D01*
X121571428Y-69919047D01*
X121666666Y-69871428D01*
X121904761Y-69871428D01*
X122000000Y-69823809D01*
X122904761Y-69585714D02*
X122904761Y-70395238D01*
X122857142Y-70490476D01*
X122809523Y-70538095D01*
X122714285Y-70585714D01*
X122571428Y-70585714D01*
X122476190Y-70538095D01*
X122904761Y-70204761D02*
X122809523Y-70252380D01*
X122619047Y-70252380D01*
X122523809Y-70204761D01*
X122476190Y-70157142D01*
X122428571Y-70061904D01*
X122428571Y-69776190D01*
X122476190Y-69680952D01*
X122523809Y-69633333D01*
X122619047Y-69585714D01*
X122809523Y-69585714D01*
X122904761Y-69633333D01*
X123761904Y-70204761D02*
X123666666Y-70252380D01*
X123476190Y-70252380D01*
X123380952Y-70204761D01*
X123333333Y-70109523D01*
X123333333Y-69728571D01*
X123380952Y-69633333D01*
X123476190Y-69585714D01*
X123666666Y-69585714D01*
X123761904Y-69633333D01*
X123809523Y-69728571D01*
X123809523Y-69823809D01*
X123333333Y-69919047D01*
X125000000Y-70252380D02*
X125000000Y-69252380D01*
X125476190Y-69585714D02*
X125476190Y-70252380D01*
X125476190Y-69680952D02*
X125523809Y-69633333D01*
X125619047Y-69585714D01*
X125761904Y-69585714D01*
X125857142Y-69633333D01*
X125904761Y-69728571D01*
X125904761Y-70252380D01*
X126380952Y-69585714D02*
X126380952Y-70585714D01*
X126380952Y-69633333D02*
X126476190Y-69585714D01*
X126666666Y-69585714D01*
X126761904Y-69633333D01*
X126809523Y-69680952D01*
X126857142Y-69776190D01*
X126857142Y-70061904D01*
X126809523Y-70157142D01*
X126761904Y-70204761D01*
X126666666Y-70252380D01*
X126476190Y-70252380D01*
X126380952Y-70204761D01*
X127714285Y-69585714D02*
X127714285Y-70252380D01*
X127285714Y-69585714D02*
X127285714Y-70109523D01*
X127333333Y-70204761D01*
X127428571Y-70252380D01*
X127571428Y-70252380D01*
X127666666Y-70204761D01*
X127714285Y-70157142D01*
X128047619Y-69585714D02*
X128428571Y-69585714D01*
X128190476Y-69252380D02*
X128190476Y-70109523D01*
X128238095Y-70204761D01*
X128333333Y-70252380D01*
X128428571Y-70252380D01*
X145271428Y-125752380D02*
X144938095Y-125276190D01*
X144700000Y-125752380D02*
X144700000Y-124752380D01*
X145080952Y-124752380D01*
X145176190Y-124800000D01*
X145223809Y-124847619D01*
X145271428Y-124942857D01*
X145271428Y-125085714D01*
X145223809Y-125180952D01*
X145176190Y-125228571D01*
X145080952Y-125276190D01*
X144700000Y-125276190D01*
X145700000Y-125228571D02*
X146033333Y-125228571D01*
X146176190Y-125752380D02*
X145700000Y-125752380D01*
X145700000Y-124752380D01*
X146176190Y-124752380D01*
X146461904Y-124752380D02*
X146795238Y-125752380D01*
X147128571Y-124752380D01*
X148747619Y-125752380D02*
X148176190Y-125752380D01*
X148461904Y-125752380D02*
X148461904Y-124752380D01*
X148366666Y-124895238D01*
X148271428Y-124990476D01*
X148176190Y-125038095D01*
X119209523Y-76957142D02*
X119161904Y-77004761D01*
X119019047Y-77052380D01*
X118923809Y-77052380D01*
X118780952Y-77004761D01*
X118685714Y-76909523D01*
X118638095Y-76814285D01*
X118590476Y-76623809D01*
X118590476Y-76480952D01*
X118638095Y-76290476D01*
X118685714Y-76195238D01*
X118780952Y-76100000D01*
X118923809Y-76052380D01*
X119019047Y-76052380D01*
X119161904Y-76100000D01*
X119209523Y-76147619D01*
X120066666Y-76385714D02*
X120066666Y-77052380D01*
X119638095Y-76385714D02*
X119638095Y-76909523D01*
X119685714Y-77004761D01*
X119780952Y-77052380D01*
X119923809Y-77052380D01*
X120019047Y-77004761D01*
X120066666Y-76957142D01*
X120542857Y-77052380D02*
X120542857Y-76385714D01*
X120542857Y-76576190D02*
X120590476Y-76480952D01*
X120638095Y-76433333D01*
X120733333Y-76385714D01*
X120828571Y-76385714D01*
X121161904Y-77052380D02*
X121161904Y-76385714D01*
X121161904Y-76576190D02*
X121209523Y-76480952D01*
X121257142Y-76433333D01*
X121352380Y-76385714D01*
X121447619Y-76385714D01*
X122161904Y-77004761D02*
X122066666Y-77052380D01*
X121876190Y-77052380D01*
X121780952Y-77004761D01*
X121733333Y-76909523D01*
X121733333Y-76528571D01*
X121780952Y-76433333D01*
X121876190Y-76385714D01*
X122066666Y-76385714D01*
X122161904Y-76433333D01*
X122209523Y-76528571D01*
X122209523Y-76623809D01*
X121733333Y-76719047D01*
X122638095Y-76385714D02*
X122638095Y-77052380D01*
X122638095Y-76480952D02*
X122685714Y-76433333D01*
X122780952Y-76385714D01*
X122923809Y-76385714D01*
X123019047Y-76433333D01*
X123066666Y-76528571D01*
X123066666Y-77052380D01*
X123400000Y-76385714D02*
X123780952Y-76385714D01*
X123542857Y-76052380D02*
X123542857Y-76909523D01*
X123590476Y-77004761D01*
X123685714Y-77052380D01*
X123780952Y-77052380D01*
X124876190Y-77052380D02*
X124876190Y-76052380D01*
X125352380Y-76385714D02*
X125352380Y-77052380D01*
X125352380Y-76480952D02*
X125400000Y-76433333D01*
X125495238Y-76385714D01*
X125638095Y-76385714D01*
X125733333Y-76433333D01*
X125780952Y-76528571D01*
X125780952Y-77052380D01*
X126257142Y-76385714D02*
X126257142Y-77385714D01*
X126257142Y-76433333D02*
X126352380Y-76385714D01*
X126542857Y-76385714D01*
X126638095Y-76433333D01*
X126685714Y-76480952D01*
X126733333Y-76576190D01*
X126733333Y-76861904D01*
X126685714Y-76957142D01*
X126638095Y-77004761D01*
X126542857Y-77052380D01*
X126352380Y-77052380D01*
X126257142Y-77004761D01*
X127590476Y-76385714D02*
X127590476Y-77052380D01*
X127161904Y-76385714D02*
X127161904Y-76909523D01*
X127209523Y-77004761D01*
X127304761Y-77052380D01*
X127447619Y-77052380D01*
X127542857Y-77004761D01*
X127590476Y-76957142D01*
X127923809Y-76385714D02*
X128304761Y-76385714D01*
X128066666Y-76052380D02*
X128066666Y-76909523D01*
X128114285Y-77004761D01*
X128209523Y-77052380D01*
X128304761Y-77052380D01*
X117285714Y-67452380D02*
X117285714Y-66452380D01*
X117285714Y-66928571D02*
X117857142Y-66928571D01*
X117857142Y-67452380D02*
X117857142Y-66452380D01*
X118190476Y-66452380D02*
X118523809Y-67452380D01*
X118857142Y-66452380D01*
%TO.C,R9*%
X152533333Y-77352380D02*
X152200000Y-76876190D01*
X151961904Y-77352380D02*
X151961904Y-76352380D01*
X152342857Y-76352380D01*
X152438095Y-76400000D01*
X152485714Y-76447619D01*
X152533333Y-76542857D01*
X152533333Y-76685714D01*
X152485714Y-76780952D01*
X152438095Y-76828571D01*
X152342857Y-76876190D01*
X151961904Y-76876190D01*
X153009523Y-77352380D02*
X153200000Y-77352380D01*
X153295238Y-77304761D01*
X153342857Y-77257142D01*
X153438095Y-77114285D01*
X153485714Y-76923809D01*
X153485714Y-76542857D01*
X153438095Y-76447619D01*
X153390476Y-76400000D01*
X153295238Y-76352380D01*
X153104761Y-76352380D01*
X153009523Y-76400000D01*
X152961904Y-76447619D01*
X152914285Y-76542857D01*
X152914285Y-76780952D01*
X152961904Y-76876190D01*
X153009523Y-76923809D01*
X153104761Y-76971428D01*
X153295238Y-76971428D01*
X153390476Y-76923809D01*
X153438095Y-76876190D01*
X153485714Y-76780952D01*
%TO.C,R15*%
X121957142Y-84752380D02*
X121623809Y-84276190D01*
X121385714Y-84752380D02*
X121385714Y-83752380D01*
X121766666Y-83752380D01*
X121861904Y-83800000D01*
X121909523Y-83847619D01*
X121957142Y-83942857D01*
X121957142Y-84085714D01*
X121909523Y-84180952D01*
X121861904Y-84228571D01*
X121766666Y-84276190D01*
X121385714Y-84276190D01*
X122909523Y-84752380D02*
X122338095Y-84752380D01*
X122623809Y-84752380D02*
X122623809Y-83752380D01*
X122528571Y-83895238D01*
X122433333Y-83990476D01*
X122338095Y-84038095D01*
X123814285Y-83752380D02*
X123338095Y-83752380D01*
X123290476Y-84228571D01*
X123338095Y-84180952D01*
X123433333Y-84133333D01*
X123671428Y-84133333D01*
X123766666Y-84180952D01*
X123814285Y-84228571D01*
X123861904Y-84323809D01*
X123861904Y-84561904D01*
X123814285Y-84657142D01*
X123766666Y-84704761D01*
X123671428Y-84752380D01*
X123433333Y-84752380D01*
X123338095Y-84704761D01*
X123290476Y-84657142D01*
%TO.C,C5*%
X138933333Y-116317142D02*
X138885714Y-116364761D01*
X138742857Y-116412380D01*
X138647619Y-116412380D01*
X138504761Y-116364761D01*
X138409523Y-116269523D01*
X138361904Y-116174285D01*
X138314285Y-115983809D01*
X138314285Y-115840952D01*
X138361904Y-115650476D01*
X138409523Y-115555238D01*
X138504761Y-115460000D01*
X138647619Y-115412380D01*
X138742857Y-115412380D01*
X138885714Y-115460000D01*
X138933333Y-115507619D01*
X139838095Y-115412380D02*
X139361904Y-115412380D01*
X139314285Y-115888571D01*
X139361904Y-115840952D01*
X139457142Y-115793333D01*
X139695238Y-115793333D01*
X139790476Y-115840952D01*
X139838095Y-115888571D01*
X139885714Y-115983809D01*
X139885714Y-116221904D01*
X139838095Y-116317142D01*
X139790476Y-116364761D01*
X139695238Y-116412380D01*
X139457142Y-116412380D01*
X139361904Y-116364761D01*
X139314285Y-116317142D01*
%TO.C,U2*%
X148638095Y-105402380D02*
X148638095Y-106211904D01*
X148685714Y-106307142D01*
X148733333Y-106354761D01*
X148828571Y-106402380D01*
X149019047Y-106402380D01*
X149114285Y-106354761D01*
X149161904Y-106307142D01*
X149209523Y-106211904D01*
X149209523Y-105402380D01*
X149638095Y-105497619D02*
X149685714Y-105450000D01*
X149780952Y-105402380D01*
X150019047Y-105402380D01*
X150114285Y-105450000D01*
X150161904Y-105497619D01*
X150209523Y-105592857D01*
X150209523Y-105688095D01*
X150161904Y-105830952D01*
X149590476Y-106402380D01*
X150209523Y-106402380D01*
%TO.C,J1*%
X119166666Y-74852380D02*
X119166666Y-75566666D01*
X119119047Y-75709523D01*
X119023809Y-75804761D01*
X118880952Y-75852380D01*
X118785714Y-75852380D01*
X120166666Y-75852380D02*
X119595238Y-75852380D01*
X119880952Y-75852380D02*
X119880952Y-74852380D01*
X119785714Y-74995238D01*
X119690476Y-75090476D01*
X119595238Y-75138095D01*
%TO.C,D2*%
X136261904Y-120402380D02*
X136261904Y-119402380D01*
X136500000Y-119402380D01*
X136642857Y-119450000D01*
X136738095Y-119545238D01*
X136785714Y-119640476D01*
X136833333Y-119830952D01*
X136833333Y-119973809D01*
X136785714Y-120164285D01*
X136738095Y-120259523D01*
X136642857Y-120354761D01*
X136500000Y-120402380D01*
X136261904Y-120402380D01*
X137214285Y-119497619D02*
X137261904Y-119450000D01*
X137357142Y-119402380D01*
X137595238Y-119402380D01*
X137690476Y-119450000D01*
X137738095Y-119497619D01*
X137785714Y-119592857D01*
X137785714Y-119688095D01*
X137738095Y-119830952D01*
X137166666Y-120402380D01*
X137785714Y-120402380D01*
%TO.C,R6*%
X154833333Y-94552380D02*
X154500000Y-94076190D01*
X154261904Y-94552380D02*
X154261904Y-93552380D01*
X154642857Y-93552380D01*
X154738095Y-93600000D01*
X154785714Y-93647619D01*
X154833333Y-93742857D01*
X154833333Y-93885714D01*
X154785714Y-93980952D01*
X154738095Y-94028571D01*
X154642857Y-94076190D01*
X154261904Y-94076190D01*
X155690476Y-93552380D02*
X155500000Y-93552380D01*
X155404761Y-93600000D01*
X155357142Y-93647619D01*
X155261904Y-93790476D01*
X155214285Y-93980952D01*
X155214285Y-94361904D01*
X155261904Y-94457142D01*
X155309523Y-94504761D01*
X155404761Y-94552380D01*
X155595238Y-94552380D01*
X155690476Y-94504761D01*
X155738095Y-94457142D01*
X155785714Y-94361904D01*
X155785714Y-94123809D01*
X155738095Y-94028571D01*
X155690476Y-93980952D01*
X155595238Y-93933333D01*
X155404761Y-93933333D01*
X155309523Y-93980952D01*
X155261904Y-94028571D01*
X155214285Y-94123809D01*
%TO.C,C3*%
X136633333Y-116317142D02*
X136585714Y-116364761D01*
X136442857Y-116412380D01*
X136347619Y-116412380D01*
X136204761Y-116364761D01*
X136109523Y-116269523D01*
X136061904Y-116174285D01*
X136014285Y-115983809D01*
X136014285Y-115840952D01*
X136061904Y-115650476D01*
X136109523Y-115555238D01*
X136204761Y-115460000D01*
X136347619Y-115412380D01*
X136442857Y-115412380D01*
X136585714Y-115460000D01*
X136633333Y-115507619D01*
X136966666Y-115412380D02*
X137585714Y-115412380D01*
X137252380Y-115793333D01*
X137395238Y-115793333D01*
X137490476Y-115840952D01*
X137538095Y-115888571D01*
X137585714Y-115983809D01*
X137585714Y-116221904D01*
X137538095Y-116317142D01*
X137490476Y-116364761D01*
X137395238Y-116412380D01*
X137109523Y-116412380D01*
X137014285Y-116364761D01*
X136966666Y-116317142D01*
%TO.C,U3*%
X152578095Y-83302380D02*
X152578095Y-84111904D01*
X152625714Y-84207142D01*
X152673333Y-84254761D01*
X152768571Y-84302380D01*
X152959047Y-84302380D01*
X153054285Y-84254761D01*
X153101904Y-84207142D01*
X153149523Y-84111904D01*
X153149523Y-83302380D01*
X153530476Y-83302380D02*
X154149523Y-83302380D01*
X153816190Y-83683333D01*
X153959047Y-83683333D01*
X154054285Y-83730952D01*
X154101904Y-83778571D01*
X154149523Y-83873809D01*
X154149523Y-84111904D01*
X154101904Y-84207142D01*
X154054285Y-84254761D01*
X153959047Y-84302380D01*
X153673333Y-84302380D01*
X153578095Y-84254761D01*
X153530476Y-84207142D01*
%TO.C,U1*%
X133688095Y-81952380D02*
X133688095Y-82761904D01*
X133735714Y-82857142D01*
X133783333Y-82904761D01*
X133878571Y-82952380D01*
X134069047Y-82952380D01*
X134164285Y-82904761D01*
X134211904Y-82857142D01*
X134259523Y-82761904D01*
X134259523Y-81952380D01*
X135259523Y-82952380D02*
X134688095Y-82952380D01*
X134973809Y-82952380D02*
X134973809Y-81952380D01*
X134878571Y-82095238D01*
X134783333Y-82190476D01*
X134688095Y-82238095D01*
%TO.C,H4*%
X148238095Y-122452380D02*
X148238095Y-121452380D01*
X148238095Y-121928571D02*
X148809523Y-121928571D01*
X148809523Y-122452380D02*
X148809523Y-121452380D01*
X149714285Y-121785714D02*
X149714285Y-122452380D01*
X149476190Y-121404761D02*
X149238095Y-122119047D01*
X149857142Y-122119047D01*
%TO.C,C6*%
X141233333Y-79307142D02*
X141185714Y-79354761D01*
X141042857Y-79402380D01*
X140947619Y-79402380D01*
X140804761Y-79354761D01*
X140709523Y-79259523D01*
X140661904Y-79164285D01*
X140614285Y-78973809D01*
X140614285Y-78830952D01*
X140661904Y-78640476D01*
X140709523Y-78545238D01*
X140804761Y-78450000D01*
X140947619Y-78402380D01*
X141042857Y-78402380D01*
X141185714Y-78450000D01*
X141233333Y-78497619D01*
X142090476Y-78402380D02*
X141900000Y-78402380D01*
X141804761Y-78450000D01*
X141757142Y-78497619D01*
X141661904Y-78640476D01*
X141614285Y-78830952D01*
X141614285Y-79211904D01*
X141661904Y-79307142D01*
X141709523Y-79354761D01*
X141804761Y-79402380D01*
X141995238Y-79402380D01*
X142090476Y-79354761D01*
X142138095Y-79307142D01*
X142185714Y-79211904D01*
X142185714Y-78973809D01*
X142138095Y-78878571D01*
X142090476Y-78830952D01*
X141995238Y-78783333D01*
X141804761Y-78783333D01*
X141709523Y-78830952D01*
X141661904Y-78878571D01*
X141614285Y-78973809D01*
%TO.C,C4*%
X134383333Y-79307142D02*
X134335714Y-79354761D01*
X134192857Y-79402380D01*
X134097619Y-79402380D01*
X133954761Y-79354761D01*
X133859523Y-79259523D01*
X133811904Y-79164285D01*
X133764285Y-78973809D01*
X133764285Y-78830952D01*
X133811904Y-78640476D01*
X133859523Y-78545238D01*
X133954761Y-78450000D01*
X134097619Y-78402380D01*
X134192857Y-78402380D01*
X134335714Y-78450000D01*
X134383333Y-78497619D01*
X135240476Y-78735714D02*
X135240476Y-79402380D01*
X135002380Y-78354761D02*
X134764285Y-79069047D01*
X135383333Y-79069047D01*
%TO.C,C9*%
X147333333Y-92257142D02*
X147285714Y-92304761D01*
X147142857Y-92352380D01*
X147047619Y-92352380D01*
X146904761Y-92304761D01*
X146809523Y-92209523D01*
X146761904Y-92114285D01*
X146714285Y-91923809D01*
X146714285Y-91780952D01*
X146761904Y-91590476D01*
X146809523Y-91495238D01*
X146904761Y-91400000D01*
X147047619Y-91352380D01*
X147142857Y-91352380D01*
X147285714Y-91400000D01*
X147333333Y-91447619D01*
X147809523Y-92352380D02*
X148000000Y-92352380D01*
X148095238Y-92304761D01*
X148142857Y-92257142D01*
X148238095Y-92114285D01*
X148285714Y-91923809D01*
X148285714Y-91542857D01*
X148238095Y-91447619D01*
X148190476Y-91400000D01*
X148095238Y-91352380D01*
X147904761Y-91352380D01*
X147809523Y-91400000D01*
X147761904Y-91447619D01*
X147714285Y-91542857D01*
X147714285Y-91780952D01*
X147761904Y-91876190D01*
X147809523Y-91923809D01*
X147904761Y-91971428D01*
X148095238Y-91971428D01*
X148190476Y-91923809D01*
X148238095Y-91876190D01*
X148285714Y-91780952D01*
%TO.C,C10*%
X155457142Y-80557142D02*
X155409523Y-80604761D01*
X155266666Y-80652380D01*
X155171428Y-80652380D01*
X155028571Y-80604761D01*
X154933333Y-80509523D01*
X154885714Y-80414285D01*
X154838095Y-80223809D01*
X154838095Y-80080952D01*
X154885714Y-79890476D01*
X154933333Y-79795238D01*
X155028571Y-79700000D01*
X155171428Y-79652380D01*
X155266666Y-79652380D01*
X155409523Y-79700000D01*
X155457142Y-79747619D01*
X156409523Y-80652380D02*
X155838095Y-80652380D01*
X156123809Y-80652380D02*
X156123809Y-79652380D01*
X156028571Y-79795238D01*
X155933333Y-79890476D01*
X155838095Y-79938095D01*
X157028571Y-79652380D02*
X157123809Y-79652380D01*
X157219047Y-79700000D01*
X157266666Y-79747619D01*
X157314285Y-79842857D01*
X157361904Y-80033333D01*
X157361904Y-80271428D01*
X157314285Y-80461904D01*
X157266666Y-80557142D01*
X157219047Y-80604761D01*
X157123809Y-80652380D01*
X157028571Y-80652380D01*
X156933333Y-80604761D01*
X156885714Y-80557142D01*
X156838095Y-80461904D01*
X156790476Y-80271428D01*
X156790476Y-80033333D01*
X156838095Y-79842857D01*
X156885714Y-79747619D01*
X156933333Y-79700000D01*
X157028571Y-79652380D01*
%TO.C,C8*%
X149733333Y-91507142D02*
X149685714Y-91554761D01*
X149542857Y-91602380D01*
X149447619Y-91602380D01*
X149304761Y-91554761D01*
X149209523Y-91459523D01*
X149161904Y-91364285D01*
X149114285Y-91173809D01*
X149114285Y-91030952D01*
X149161904Y-90840476D01*
X149209523Y-90745238D01*
X149304761Y-90650000D01*
X149447619Y-90602380D01*
X149542857Y-90602380D01*
X149685714Y-90650000D01*
X149733333Y-90697619D01*
X150304761Y-91030952D02*
X150209523Y-90983333D01*
X150161904Y-90935714D01*
X150114285Y-90840476D01*
X150114285Y-90792857D01*
X150161904Y-90697619D01*
X150209523Y-90650000D01*
X150304761Y-90602380D01*
X150495238Y-90602380D01*
X150590476Y-90650000D01*
X150638095Y-90697619D01*
X150685714Y-90792857D01*
X150685714Y-90840476D01*
X150638095Y-90935714D01*
X150590476Y-90983333D01*
X150495238Y-91030952D01*
X150304761Y-91030952D01*
X150209523Y-91078571D01*
X150161904Y-91126190D01*
X150114285Y-91221428D01*
X150114285Y-91411904D01*
X150161904Y-91507142D01*
X150209523Y-91554761D01*
X150304761Y-91602380D01*
X150495238Y-91602380D01*
X150590476Y-91554761D01*
X150638095Y-91507142D01*
X150685714Y-91411904D01*
X150685714Y-91221428D01*
X150638095Y-91126190D01*
X150590476Y-91078571D01*
X150495238Y-91030952D01*
%TO.C,H3*%
X125238095Y-122452380D02*
X125238095Y-121452380D01*
X125238095Y-121928571D02*
X125809523Y-121928571D01*
X125809523Y-122452380D02*
X125809523Y-121452380D01*
X126190476Y-121452380D02*
X126809523Y-121452380D01*
X126476190Y-121833333D01*
X126619047Y-121833333D01*
X126714285Y-121880952D01*
X126761904Y-121928571D01*
X126809523Y-122023809D01*
X126809523Y-122261904D01*
X126761904Y-122357142D01*
X126714285Y-122404761D01*
X126619047Y-122452380D01*
X126333333Y-122452380D01*
X126238095Y-122404761D01*
X126190476Y-122357142D01*
%TO.C,J4*%
X119166666Y-81702380D02*
X119166666Y-82416666D01*
X119119047Y-82559523D01*
X119023809Y-82654761D01*
X118880952Y-82702380D01*
X118785714Y-82702380D01*
X120071428Y-82035714D02*
X120071428Y-82702380D01*
X119833333Y-81654761D02*
X119595238Y-82369047D01*
X120214285Y-82369047D01*
%TO.C,R16*%
X121957142Y-88114880D02*
X121623809Y-87638690D01*
X121385714Y-88114880D02*
X121385714Y-87114880D01*
X121766666Y-87114880D01*
X121861904Y-87162500D01*
X121909523Y-87210119D01*
X121957142Y-87305357D01*
X121957142Y-87448214D01*
X121909523Y-87543452D01*
X121861904Y-87591071D01*
X121766666Y-87638690D01*
X121385714Y-87638690D01*
X122909523Y-88114880D02*
X122338095Y-88114880D01*
X122623809Y-88114880D02*
X122623809Y-87114880D01*
X122528571Y-87257738D01*
X122433333Y-87352976D01*
X122338095Y-87400595D01*
X123766666Y-87114880D02*
X123576190Y-87114880D01*
X123480952Y-87162500D01*
X123433333Y-87210119D01*
X123338095Y-87352976D01*
X123290476Y-87543452D01*
X123290476Y-87924404D01*
X123338095Y-88019642D01*
X123385714Y-88067261D01*
X123480952Y-88114880D01*
X123671428Y-88114880D01*
X123766666Y-88067261D01*
X123814285Y-88019642D01*
X123861904Y-87924404D01*
X123861904Y-87686309D01*
X123814285Y-87591071D01*
X123766666Y-87543452D01*
X123671428Y-87495833D01*
X123480952Y-87495833D01*
X123385714Y-87543452D01*
X123338095Y-87591071D01*
X123290476Y-87686309D01*
%TO.C,H1*%
X125238095Y-62452380D02*
X125238095Y-61452380D01*
X125238095Y-61928571D02*
X125809523Y-61928571D01*
X125809523Y-62452380D02*
X125809523Y-61452380D01*
X126809523Y-62452380D02*
X126238095Y-62452380D01*
X126523809Y-62452380D02*
X126523809Y-61452380D01*
X126428571Y-61595238D01*
X126333333Y-61690476D01*
X126238095Y-61738095D01*
%TO.C,R14*%
X121932142Y-94902380D02*
X121598809Y-94426190D01*
X121360714Y-94902380D02*
X121360714Y-93902380D01*
X121741666Y-93902380D01*
X121836904Y-93950000D01*
X121884523Y-93997619D01*
X121932142Y-94092857D01*
X121932142Y-94235714D01*
X121884523Y-94330952D01*
X121836904Y-94378571D01*
X121741666Y-94426190D01*
X121360714Y-94426190D01*
X122884523Y-94902380D02*
X122313095Y-94902380D01*
X122598809Y-94902380D02*
X122598809Y-93902380D01*
X122503571Y-94045238D01*
X122408333Y-94140476D01*
X122313095Y-94188095D01*
X123741666Y-94235714D02*
X123741666Y-94902380D01*
X123503571Y-93854761D02*
X123265476Y-94569047D01*
X123884523Y-94569047D01*
%TO.C,PS1*%
X146485714Y-99992380D02*
X146485714Y-98992380D01*
X146866666Y-98992380D01*
X146961904Y-99040000D01*
X147009523Y-99087619D01*
X147057142Y-99182857D01*
X147057142Y-99325714D01*
X147009523Y-99420952D01*
X146961904Y-99468571D01*
X146866666Y-99516190D01*
X146485714Y-99516190D01*
X147438095Y-99944761D02*
X147580952Y-99992380D01*
X147819047Y-99992380D01*
X147914285Y-99944761D01*
X147961904Y-99897142D01*
X148009523Y-99801904D01*
X148009523Y-99706666D01*
X147961904Y-99611428D01*
X147914285Y-99563809D01*
X147819047Y-99516190D01*
X147628571Y-99468571D01*
X147533333Y-99420952D01*
X147485714Y-99373333D01*
X147438095Y-99278095D01*
X147438095Y-99182857D01*
X147485714Y-99087619D01*
X147533333Y-99040000D01*
X147628571Y-98992380D01*
X147866666Y-98992380D01*
X148009523Y-99040000D01*
X148961904Y-99992380D02*
X148390476Y-99992380D01*
X148676190Y-99992380D02*
X148676190Y-98992380D01*
X148580952Y-99135238D01*
X148485714Y-99230476D01*
X148390476Y-99278095D01*
%TO.C,R5*%
X150173333Y-84692380D02*
X149840000Y-84216190D01*
X149601904Y-84692380D02*
X149601904Y-83692380D01*
X149982857Y-83692380D01*
X150078095Y-83740000D01*
X150125714Y-83787619D01*
X150173333Y-83882857D01*
X150173333Y-84025714D01*
X150125714Y-84120952D01*
X150078095Y-84168571D01*
X149982857Y-84216190D01*
X149601904Y-84216190D01*
X151078095Y-83692380D02*
X150601904Y-83692380D01*
X150554285Y-84168571D01*
X150601904Y-84120952D01*
X150697142Y-84073333D01*
X150935238Y-84073333D01*
X151030476Y-84120952D01*
X151078095Y-84168571D01*
X151125714Y-84263809D01*
X151125714Y-84501904D01*
X151078095Y-84597142D01*
X151030476Y-84644761D01*
X150935238Y-84692380D01*
X150697142Y-84692380D01*
X150601904Y-84644761D01*
X150554285Y-84597142D01*
%TO.C,R7*%
X150183333Y-81352380D02*
X149850000Y-80876190D01*
X149611904Y-81352380D02*
X149611904Y-80352380D01*
X149992857Y-80352380D01*
X150088095Y-80400000D01*
X150135714Y-80447619D01*
X150183333Y-80542857D01*
X150183333Y-80685714D01*
X150135714Y-80780952D01*
X150088095Y-80828571D01*
X149992857Y-80876190D01*
X149611904Y-80876190D01*
X150516666Y-80352380D02*
X151183333Y-80352380D01*
X150754761Y-81352380D01*
%TO.C,R17*%
X125557142Y-105952380D02*
X125223809Y-105476190D01*
X124985714Y-105952380D02*
X124985714Y-104952380D01*
X125366666Y-104952380D01*
X125461904Y-105000000D01*
X125509523Y-105047619D01*
X125557142Y-105142857D01*
X125557142Y-105285714D01*
X125509523Y-105380952D01*
X125461904Y-105428571D01*
X125366666Y-105476190D01*
X124985714Y-105476190D01*
X126509523Y-105952380D02*
X125938095Y-105952380D01*
X126223809Y-105952380D02*
X126223809Y-104952380D01*
X126128571Y-105095238D01*
X126033333Y-105190476D01*
X125938095Y-105238095D01*
X126842857Y-104952380D02*
X127509523Y-104952380D01*
X127080952Y-105952380D01*
%TO.C,R8*%
X154773333Y-91242380D02*
X154440000Y-90766190D01*
X154201904Y-91242380D02*
X154201904Y-90242380D01*
X154582857Y-90242380D01*
X154678095Y-90290000D01*
X154725714Y-90337619D01*
X154773333Y-90432857D01*
X154773333Y-90575714D01*
X154725714Y-90670952D01*
X154678095Y-90718571D01*
X154582857Y-90766190D01*
X154201904Y-90766190D01*
X155344761Y-90670952D02*
X155249523Y-90623333D01*
X155201904Y-90575714D01*
X155154285Y-90480476D01*
X155154285Y-90432857D01*
X155201904Y-90337619D01*
X155249523Y-90290000D01*
X155344761Y-90242380D01*
X155535238Y-90242380D01*
X155630476Y-90290000D01*
X155678095Y-90337619D01*
X155725714Y-90432857D01*
X155725714Y-90480476D01*
X155678095Y-90575714D01*
X155630476Y-90623333D01*
X155535238Y-90670952D01*
X155344761Y-90670952D01*
X155249523Y-90718571D01*
X155201904Y-90766190D01*
X155154285Y-90861428D01*
X155154285Y-91051904D01*
X155201904Y-91147142D01*
X155249523Y-91194761D01*
X155344761Y-91242380D01*
X155535238Y-91242380D01*
X155630476Y-91194761D01*
X155678095Y-91147142D01*
X155725714Y-91051904D01*
X155725714Y-90861428D01*
X155678095Y-90766190D01*
X155630476Y-90718571D01*
X155535238Y-90670952D01*
%TO.C,D3*%
X150061904Y-68892380D02*
X150061904Y-67892380D01*
X150300000Y-67892380D01*
X150442857Y-67940000D01*
X150538095Y-68035238D01*
X150585714Y-68130476D01*
X150633333Y-68320952D01*
X150633333Y-68463809D01*
X150585714Y-68654285D01*
X150538095Y-68749523D01*
X150442857Y-68844761D01*
X150300000Y-68892380D01*
X150061904Y-68892380D01*
X150966666Y-67892380D02*
X151585714Y-67892380D01*
X151252380Y-68273333D01*
X151395238Y-68273333D01*
X151490476Y-68320952D01*
X151538095Y-68368571D01*
X151585714Y-68463809D01*
X151585714Y-68701904D01*
X151538095Y-68797142D01*
X151490476Y-68844761D01*
X151395238Y-68892380D01*
X151109523Y-68892380D01*
X151014285Y-68844761D01*
X150966666Y-68797142D01*
%TO.C,R4*%
X146120833Y-84602380D02*
X145787500Y-84126190D01*
X145549404Y-84602380D02*
X145549404Y-83602380D01*
X145930357Y-83602380D01*
X146025595Y-83650000D01*
X146073214Y-83697619D01*
X146120833Y-83792857D01*
X146120833Y-83935714D01*
X146073214Y-84030952D01*
X146025595Y-84078571D01*
X145930357Y-84126190D01*
X145549404Y-84126190D01*
X146977976Y-83935714D02*
X146977976Y-84602380D01*
X146739880Y-83554761D02*
X146501785Y-84269047D01*
X147120833Y-84269047D01*
%TO.C,R10*%
X125257142Y-86152380D02*
X124923809Y-85676190D01*
X124685714Y-86152380D02*
X124685714Y-85152380D01*
X125066666Y-85152380D01*
X125161904Y-85200000D01*
X125209523Y-85247619D01*
X125257142Y-85342857D01*
X125257142Y-85485714D01*
X125209523Y-85580952D01*
X125161904Y-85628571D01*
X125066666Y-85676190D01*
X124685714Y-85676190D01*
X126209523Y-86152380D02*
X125638095Y-86152380D01*
X125923809Y-86152380D02*
X125923809Y-85152380D01*
X125828571Y-85295238D01*
X125733333Y-85390476D01*
X125638095Y-85438095D01*
X126828571Y-85152380D02*
X126923809Y-85152380D01*
X127019047Y-85200000D01*
X127066666Y-85247619D01*
X127114285Y-85342857D01*
X127161904Y-85533333D01*
X127161904Y-85771428D01*
X127114285Y-85961904D01*
X127066666Y-86057142D01*
X127019047Y-86104761D01*
X126923809Y-86152380D01*
X126828571Y-86152380D01*
X126733333Y-86104761D01*
X126685714Y-86057142D01*
X126638095Y-85961904D01*
X126590476Y-85771428D01*
X126590476Y-85533333D01*
X126638095Y-85342857D01*
X126685714Y-85247619D01*
X126733333Y-85200000D01*
X126828571Y-85152380D01*
%TO.C,R12*%
X149452380Y-76242857D02*
X148976190Y-76576190D01*
X149452380Y-76814285D02*
X148452380Y-76814285D01*
X148452380Y-76433333D01*
X148500000Y-76338095D01*
X148547619Y-76290476D01*
X148642857Y-76242857D01*
X148785714Y-76242857D01*
X148880952Y-76290476D01*
X148928571Y-76338095D01*
X148976190Y-76433333D01*
X148976190Y-76814285D01*
X149452380Y-75290476D02*
X149452380Y-75861904D01*
X149452380Y-75576190D02*
X148452380Y-75576190D01*
X148595238Y-75671428D01*
X148690476Y-75766666D01*
X148738095Y-75861904D01*
X148547619Y-74909523D02*
X148500000Y-74861904D01*
X148452380Y-74766666D01*
X148452380Y-74528571D01*
X148500000Y-74433333D01*
X148547619Y-74385714D01*
X148642857Y-74338095D01*
X148738095Y-74338095D01*
X148880952Y-74385714D01*
X149452380Y-74957142D01*
X149452380Y-74338095D01*
%TO.C,R3*%
X146893333Y-90052380D02*
X146560000Y-89576190D01*
X146321904Y-90052380D02*
X146321904Y-89052380D01*
X146702857Y-89052380D01*
X146798095Y-89100000D01*
X146845714Y-89147619D01*
X146893333Y-89242857D01*
X146893333Y-89385714D01*
X146845714Y-89480952D01*
X146798095Y-89528571D01*
X146702857Y-89576190D01*
X146321904Y-89576190D01*
X147226666Y-89052380D02*
X147845714Y-89052380D01*
X147512380Y-89433333D01*
X147655238Y-89433333D01*
X147750476Y-89480952D01*
X147798095Y-89528571D01*
X147845714Y-89623809D01*
X147845714Y-89861904D01*
X147798095Y-89957142D01*
X147750476Y-90004761D01*
X147655238Y-90052380D01*
X147369523Y-90052380D01*
X147274285Y-90004761D01*
X147226666Y-89957142D01*
%TO.C,C2*%
X134333333Y-116317142D02*
X134285714Y-116364761D01*
X134142857Y-116412380D01*
X134047619Y-116412380D01*
X133904761Y-116364761D01*
X133809523Y-116269523D01*
X133761904Y-116174285D01*
X133714285Y-115983809D01*
X133714285Y-115840952D01*
X133761904Y-115650476D01*
X133809523Y-115555238D01*
X133904761Y-115460000D01*
X134047619Y-115412380D01*
X134142857Y-115412380D01*
X134285714Y-115460000D01*
X134333333Y-115507619D01*
X134714285Y-115507619D02*
X134761904Y-115460000D01*
X134857142Y-115412380D01*
X135095238Y-115412380D01*
X135190476Y-115460000D01*
X135238095Y-115507619D01*
X135285714Y-115602857D01*
X135285714Y-115698095D01*
X135238095Y-115840952D01*
X134666666Y-116412380D01*
X135285714Y-116412380D01*
%TO.C,C1*%
X126533333Y-92944642D02*
X126485714Y-92992261D01*
X126342857Y-93039880D01*
X126247619Y-93039880D01*
X126104761Y-92992261D01*
X126009523Y-92897023D01*
X125961904Y-92801785D01*
X125914285Y-92611309D01*
X125914285Y-92468452D01*
X125961904Y-92277976D01*
X126009523Y-92182738D01*
X126104761Y-92087500D01*
X126247619Y-92039880D01*
X126342857Y-92039880D01*
X126485714Y-92087500D01*
X126533333Y-92135119D01*
X127485714Y-93039880D02*
X126914285Y-93039880D01*
X127200000Y-93039880D02*
X127200000Y-92039880D01*
X127104761Y-92182738D01*
X127009523Y-92277976D01*
X126914285Y-92325595D01*
%TO.C,F1*%
X131566666Y-120428571D02*
X131233333Y-120428571D01*
X131233333Y-120952380D02*
X131233333Y-119952380D01*
X131709523Y-119952380D01*
X132614285Y-120952380D02*
X132042857Y-120952380D01*
X132328571Y-120952380D02*
X132328571Y-119952380D01*
X132233333Y-120095238D01*
X132138095Y-120190476D01*
X132042857Y-120238095D01*
%TO.C,J3*%
X143466666Y-73092380D02*
X143466666Y-73806666D01*
X143419047Y-73949523D01*
X143323809Y-74044761D01*
X143180952Y-74092380D01*
X143085714Y-74092380D01*
X143847619Y-73092380D02*
X144466666Y-73092380D01*
X144133333Y-73473333D01*
X144276190Y-73473333D01*
X144371428Y-73520952D01*
X144419047Y-73568571D01*
X144466666Y-73663809D01*
X144466666Y-73901904D01*
X144419047Y-73997142D01*
X144371428Y-74044761D01*
X144276190Y-74092380D01*
X143990476Y-74092380D01*
X143895238Y-74044761D01*
X143847619Y-73997142D01*
%TO.C,D1*%
X128461904Y-92939880D02*
X128461904Y-91939880D01*
X128700000Y-91939880D01*
X128842857Y-91987500D01*
X128938095Y-92082738D01*
X128985714Y-92177976D01*
X129033333Y-92368452D01*
X129033333Y-92511309D01*
X128985714Y-92701785D01*
X128938095Y-92797023D01*
X128842857Y-92892261D01*
X128700000Y-92939880D01*
X128461904Y-92939880D01*
X129985714Y-92939880D02*
X129414285Y-92939880D01*
X129700000Y-92939880D02*
X129700000Y-91939880D01*
X129604761Y-92082738D01*
X129509523Y-92177976D01*
X129414285Y-92225595D01*
%TO.C,R1*%
X121908333Y-98602380D02*
X121575000Y-98126190D01*
X121336904Y-98602380D02*
X121336904Y-97602380D01*
X121717857Y-97602380D01*
X121813095Y-97650000D01*
X121860714Y-97697619D01*
X121908333Y-97792857D01*
X121908333Y-97935714D01*
X121860714Y-98030952D01*
X121813095Y-98078571D01*
X121717857Y-98126190D01*
X121336904Y-98126190D01*
X122860714Y-98602380D02*
X122289285Y-98602380D01*
X122575000Y-98602380D02*
X122575000Y-97602380D01*
X122479761Y-97745238D01*
X122384523Y-97840476D01*
X122289285Y-97888095D01*
%TO.C,R11*%
X130252380Y-95642857D02*
X129776190Y-95976190D01*
X130252380Y-96214285D02*
X129252380Y-96214285D01*
X129252380Y-95833333D01*
X129300000Y-95738095D01*
X129347619Y-95690476D01*
X129442857Y-95642857D01*
X129585714Y-95642857D01*
X129680952Y-95690476D01*
X129728571Y-95738095D01*
X129776190Y-95833333D01*
X129776190Y-96214285D01*
X130252380Y-94690476D02*
X130252380Y-95261904D01*
X130252380Y-94976190D02*
X129252380Y-94976190D01*
X129395238Y-95071428D01*
X129490476Y-95166666D01*
X129538095Y-95261904D01*
X130252380Y-93738095D02*
X130252380Y-94309523D01*
X130252380Y-94023809D02*
X129252380Y-94023809D01*
X129395238Y-94119047D01*
X129490476Y-94214285D01*
X129538095Y-94309523D01*
%TO.C,R2*%
X118408333Y-103802380D02*
X118075000Y-103326190D01*
X117836904Y-103802380D02*
X117836904Y-102802380D01*
X118217857Y-102802380D01*
X118313095Y-102850000D01*
X118360714Y-102897619D01*
X118408333Y-102992857D01*
X118408333Y-103135714D01*
X118360714Y-103230952D01*
X118313095Y-103278571D01*
X118217857Y-103326190D01*
X117836904Y-103326190D01*
X118789285Y-102897619D02*
X118836904Y-102850000D01*
X118932142Y-102802380D01*
X119170238Y-102802380D01*
X119265476Y-102850000D01*
X119313095Y-102897619D01*
X119360714Y-102992857D01*
X119360714Y-103088095D01*
X119313095Y-103230952D01*
X118741666Y-103802380D01*
X119360714Y-103802380D01*
%TO.C,C11*%
X128257142Y-102157142D02*
X128209523Y-102204761D01*
X128066666Y-102252380D01*
X127971428Y-102252380D01*
X127828571Y-102204761D01*
X127733333Y-102109523D01*
X127685714Y-102014285D01*
X127638095Y-101823809D01*
X127638095Y-101680952D01*
X127685714Y-101490476D01*
X127733333Y-101395238D01*
X127828571Y-101300000D01*
X127971428Y-101252380D01*
X128066666Y-101252380D01*
X128209523Y-101300000D01*
X128257142Y-101347619D01*
X129209523Y-102252380D02*
X128638095Y-102252380D01*
X128923809Y-102252380D02*
X128923809Y-101252380D01*
X128828571Y-101395238D01*
X128733333Y-101490476D01*
X128638095Y-101538095D01*
X130161904Y-102252380D02*
X129590476Y-102252380D01*
X129876190Y-102252380D02*
X129876190Y-101252380D01*
X129780952Y-101395238D01*
X129685714Y-101490476D01*
X129590476Y-101538095D01*
%TO.C,H2*%
X148238095Y-62452380D02*
X148238095Y-61452380D01*
X148238095Y-61928571D02*
X148809523Y-61928571D01*
X148809523Y-62452380D02*
X148809523Y-61452380D01*
X149238095Y-61547619D02*
X149285714Y-61500000D01*
X149380952Y-61452380D01*
X149619047Y-61452380D01*
X149714285Y-61500000D01*
X149761904Y-61547619D01*
X149809523Y-61642857D01*
X149809523Y-61738095D01*
X149761904Y-61880952D01*
X149190476Y-62452380D01*
X149809523Y-62452380D01*
%TO.C,C7*%
X141433333Y-120807142D02*
X141385714Y-120854761D01*
X141242857Y-120902380D01*
X141147619Y-120902380D01*
X141004761Y-120854761D01*
X140909523Y-120759523D01*
X140861904Y-120664285D01*
X140814285Y-120473809D01*
X140814285Y-120330952D01*
X140861904Y-120140476D01*
X140909523Y-120045238D01*
X141004761Y-119950000D01*
X141147619Y-119902380D01*
X141242857Y-119902380D01*
X141385714Y-119950000D01*
X141433333Y-119997619D01*
X141766666Y-119902380D02*
X142433333Y-119902380D01*
X142004761Y-120902380D01*
%TO.C,R13*%
X121944642Y-91252380D02*
X121611309Y-90776190D01*
X121373214Y-91252380D02*
X121373214Y-90252380D01*
X121754166Y-90252380D01*
X121849404Y-90300000D01*
X121897023Y-90347619D01*
X121944642Y-90442857D01*
X121944642Y-90585714D01*
X121897023Y-90680952D01*
X121849404Y-90728571D01*
X121754166Y-90776190D01*
X121373214Y-90776190D01*
X122897023Y-91252380D02*
X122325595Y-91252380D01*
X122611309Y-91252380D02*
X122611309Y-90252380D01*
X122516071Y-90395238D01*
X122420833Y-90490476D01*
X122325595Y-90538095D01*
X123230357Y-90252380D02*
X123849404Y-90252380D01*
X123516071Y-90633333D01*
X123658928Y-90633333D01*
X123754166Y-90680952D01*
X123801785Y-90728571D01*
X123849404Y-90823809D01*
X123849404Y-91061904D01*
X123801785Y-91157142D01*
X123754166Y-91204761D01*
X123658928Y-91252380D01*
X123373214Y-91252380D01*
X123277976Y-91204761D01*
X123230357Y-91157142D01*
%TO.C,J2*%
X125016666Y-116812380D02*
X125016666Y-117526666D01*
X124969047Y-117669523D01*
X124873809Y-117764761D01*
X124730952Y-117812380D01*
X124635714Y-117812380D01*
X125445238Y-116907619D02*
X125492857Y-116860000D01*
X125588095Y-116812380D01*
X125826190Y-116812380D01*
X125921428Y-116860000D01*
X125969047Y-116907619D01*
X126016666Y-117002857D01*
X126016666Y-117098095D01*
X125969047Y-117240952D01*
X125397619Y-117812380D01*
X126016666Y-117812380D01*
D11*
%TO.C,R9*%
X153235000Y-79427064D02*
X153235000Y-78972936D01*
X151765000Y-79427064D02*
X151765000Y-78972936D01*
%TO.C,R15*%
X119727064Y-83465000D02*
X119272936Y-83465000D01*
X119727064Y-84935000D02*
X119272936Y-84935000D01*
%TO.C,C5*%
X138365000Y-113248748D02*
X138365000Y-113771252D01*
X139835000Y-113248748D02*
X139835000Y-113771252D01*
%TO.C,U2*%
X147950000Y-107400000D02*
X146450000Y-107400000D01*
X146450000Y-117800000D02*
X146450000Y-115990000D01*
X146450000Y-107400000D02*
X146450000Y-109210000D01*
X146450000Y-109210000D02*
X141325000Y-109210000D01*
X147950000Y-117800000D02*
X146450000Y-117800000D01*
X146450000Y-115990000D02*
X145350000Y-115990000D01*
D12*
%TO.C,J1*%
X128620000Y-74635000D02*
X118710000Y-74635000D01*
X127910000Y-75610000D02*
X127610000Y-75110000D01*
X127610000Y-75110000D02*
X127310000Y-75610000D01*
X128620000Y-74635000D02*
X128620000Y-73910000D01*
X118710000Y-70785000D02*
X128620000Y-70785000D01*
X127310000Y-75610000D02*
X127910000Y-75610000D01*
X118710000Y-74635000D02*
X118710000Y-70785000D01*
X128620000Y-70785000D02*
X128620000Y-71510000D01*
D11*
%TO.C,D2*%
X135900000Y-117950000D02*
X133900000Y-117950000D01*
X133900000Y-117950000D02*
X133900000Y-121850000D01*
X135900000Y-117950000D02*
X135900000Y-121850000D01*
%TO.C,R6*%
X154772936Y-91665000D02*
X155227064Y-91665000D01*
X154772936Y-93135000D02*
X155227064Y-93135000D01*
%TO.C,C3*%
X136065000Y-113248748D02*
X136065000Y-113771252D01*
X137535000Y-113248748D02*
X137535000Y-113771252D01*
%TO.C,U3*%
X154440000Y-87810000D02*
X155240000Y-87810000D01*
X154440000Y-84690000D02*
X152640000Y-84690000D01*
X154440000Y-84690000D02*
X155240000Y-84690000D01*
X154440000Y-87810000D02*
X153640000Y-87810000D01*
%TO.C,U1*%
X140170000Y-83315000D02*
X140170000Y-83605000D01*
X133330000Y-92685000D02*
X133330000Y-92395000D01*
X136750000Y-83315000D02*
X133330000Y-83315000D01*
X136750000Y-92685000D02*
X133330000Y-92685000D01*
X136750000Y-92685000D02*
X140170000Y-92685000D01*
X136750000Y-83315000D02*
X140170000Y-83315000D01*
X133330000Y-83605000D02*
X131050000Y-83605000D01*
X133330000Y-83315000D02*
X133330000Y-83605000D01*
X140170000Y-92685000D02*
X140170000Y-92395000D01*
%TO.C,C6*%
X140665000Y-81561252D02*
X140665000Y-81038748D01*
X142135000Y-81561252D02*
X142135000Y-81038748D01*
%TO.C,C4*%
X134338748Y-79965000D02*
X134861252Y-79965000D01*
X134338748Y-81435000D02*
X134861252Y-81435000D01*
%TO.C,C9*%
X144538748Y-90665000D02*
X145061252Y-90665000D01*
X144538748Y-92135000D02*
X145061252Y-92135000D01*
%TO.C,C10*%
X154965000Y-82861252D02*
X154965000Y-82338748D01*
X156435000Y-82861252D02*
X156435000Y-82338748D01*
%TO.C,C8*%
X149165000Y-88488748D02*
X149165000Y-89011252D01*
X150635000Y-88488748D02*
X150635000Y-89011252D01*
D12*
%TO.C,J4*%
X128620000Y-77575000D02*
X128620000Y-78300000D01*
X127610000Y-81900000D02*
X127310000Y-82400000D01*
X118710000Y-81425000D02*
X118710000Y-77575000D01*
X128620000Y-81425000D02*
X118710000Y-81425000D01*
X127910000Y-82400000D02*
X127610000Y-81900000D01*
X128620000Y-81425000D02*
X128620000Y-80700000D01*
X118710000Y-77575000D02*
X128620000Y-77575000D01*
X127310000Y-82400000D02*
X127910000Y-82400000D01*
D11*
%TO.C,R16*%
X119272936Y-88297500D02*
X119727064Y-88297500D01*
X119272936Y-86827500D02*
X119727064Y-86827500D01*
%TO.C,R14*%
X119247936Y-95185000D02*
X119702064Y-95185000D01*
X119247936Y-93715000D02*
X119702064Y-93715000D01*
D12*
%TO.C,PS1*%
X132900000Y-95500000D02*
X134860000Y-95500000D01*
X132900000Y-104000000D02*
X132900000Y-95500000D01*
X146100000Y-95500000D02*
X144140000Y-95500000D01*
X144140000Y-104000000D02*
X146100000Y-104000000D01*
X146100000Y-104000000D02*
X146100000Y-95500000D01*
X134860000Y-104000000D02*
X132900000Y-104000000D01*
D13*
X144100000Y-93000000D02*
G75*
G03*
X144100000Y-93000000I-100000J0D01*
G01*
D11*
%TO.C,R5*%
X150112936Y-85155000D02*
X150567064Y-85155000D01*
X150112936Y-86625000D02*
X150567064Y-86625000D01*
%TO.C,R7*%
X150477064Y-83235000D02*
X150022936Y-83235000D01*
X150477064Y-81765000D02*
X150022936Y-81765000D01*
%TO.C,R17*%
X125972936Y-103065000D02*
X126427064Y-103065000D01*
X125972936Y-104535000D02*
X126427064Y-104535000D01*
%TO.C,R8*%
X155167064Y-88355000D02*
X154712936Y-88355000D01*
X155167064Y-89825000D02*
X154712936Y-89825000D01*
%TO.C,D3*%
X149700000Y-73690000D02*
X149700000Y-69790000D01*
X149700000Y-73690000D02*
X151700000Y-73690000D01*
X151700000Y-73690000D02*
X151700000Y-69790000D01*
%TO.C,R4*%
X146060436Y-85065000D02*
X146514564Y-85065000D01*
X146060436Y-86535000D02*
X146514564Y-86535000D01*
%TO.C,R10*%
X125772936Y-86565000D02*
X126227064Y-86565000D01*
X125772936Y-88035000D02*
X126227064Y-88035000D01*
%TO.C,R12*%
X151435000Y-75827064D02*
X151435000Y-75372936D01*
X149965000Y-75827064D02*
X149965000Y-75372936D01*
%TO.C,R3*%
X146060436Y-88635000D02*
X146514564Y-88635000D01*
X146060436Y-87165000D02*
X146514564Y-87165000D01*
%TO.C,C2*%
X135235000Y-113248748D02*
X135235000Y-113771252D01*
X133765000Y-113248748D02*
X133765000Y-113771252D01*
%TO.C,C1*%
X126065000Y-89838748D02*
X126065000Y-90361252D01*
X127535000Y-89838748D02*
X127535000Y-90361252D01*
%TO.C,F1*%
X131641422Y-119510000D02*
X132158578Y-119510000D01*
X131641422Y-118090000D02*
X132158578Y-118090000D01*
D12*
%TO.C,J3*%
X141875000Y-69320000D02*
X142600000Y-69320000D01*
X140900000Y-68610000D02*
X141400000Y-68310000D01*
X141875000Y-69320000D02*
X141875000Y-59410000D01*
X145725000Y-69320000D02*
X145000000Y-69320000D01*
X145725000Y-59410000D02*
X145725000Y-69320000D01*
X141875000Y-59410000D02*
X145725000Y-59410000D01*
X141400000Y-68310000D02*
X140900000Y-68010000D01*
X140900000Y-68010000D02*
X140900000Y-68610000D01*
D11*
%TO.C,D1*%
X130200000Y-87150000D02*
X130200000Y-91050000D01*
X130200000Y-87150000D02*
X128200000Y-87150000D01*
X128200000Y-87150000D02*
X128200000Y-91050000D01*
%TO.C,R1*%
X119714564Y-97365000D02*
X119260436Y-97365000D01*
X119714564Y-98835000D02*
X119260436Y-98835000D01*
%TO.C,R11*%
X128835000Y-95227064D02*
X128835000Y-94772936D01*
X127365000Y-95227064D02*
X127365000Y-94772936D01*
%TO.C,R2*%
X117840000Y-100722936D02*
X117840000Y-101177064D01*
X119310000Y-100722936D02*
X119310000Y-101177064D01*
%TO.C,C11*%
X132135000Y-102161252D02*
X132135000Y-101638748D01*
X130665000Y-102161252D02*
X130665000Y-101638748D01*
%TO.C,C7*%
X144335000Y-120088748D02*
X144335000Y-120611252D01*
X142865000Y-120088748D02*
X142865000Y-120611252D01*
%TO.C,R13*%
X119714564Y-91535000D02*
X119260436Y-91535000D01*
X119714564Y-90065000D02*
X119260436Y-90065000D01*
D12*
%TO.C,J2*%
X118710000Y-116385000D02*
X118710000Y-112535000D01*
X127310000Y-117360000D02*
X127910000Y-117360000D01*
X128620000Y-112535000D02*
X128620000Y-113260000D01*
X128620000Y-116385000D02*
X118710000Y-116385000D01*
X128620000Y-116385000D02*
X128620000Y-115660000D01*
X127910000Y-117360000D02*
X127610000Y-116860000D01*
X127610000Y-116860000D02*
X127310000Y-117360000D01*
X118710000Y-112535000D02*
X128620000Y-112535000D01*
%TD*%
M02*
