M48
; DRILL file {KiCad (6.0.0)} date Wed Mar 29 21:02:00 2023
; FORMAT={-:-/ absolute / inch / decimal}
; #@! TF.CreationDate,2023-03-29T21:02:00-06:00
; #@! TF.GenerationSoftware,Kicad,Pcbnew,(6.0.0)
; #@! TF.FileFunction,MixedPlating,1,2
FMAT,2
INCH
; #@! TA.AperFunction,Plated,PTH,ViaDrill
T1C0.0157
; #@! TA.AperFunction,Plated,PTH,ComponentDrill
T2C0.0197
; #@! TA.AperFunction,Plated,PTH,ComponentDrill
T3C0.0402
; #@! TA.AperFunction,Plated,PTH,ComponentDrill
T4C0.1260
; #@! TA.AperFunction,NonPlated,NPTH,ComponentDrill
T5C0.1181
%
G90
G05
T1
X5.1614Y-3.7165
X5.2953Y-3.3268
X5.311Y-4.0039
X5.311Y-4.8543
X5.3976Y-4.6102
X5.6339Y-3.165
X5.6535Y-4.8248
X5.6732Y-3.5276
X5.8248Y-3.248
X5.874Y-3.6378
X5.9858Y-3.3146
X6.0039Y-2.7461
X6.0118Y-4.1693
X6.126Y-3.1118
T2
X4.6693Y-2.4409
X4.6693Y-4.8031
X4.697Y-2.3741
X4.697Y-2.5078
X4.697Y-4.7363
X4.697Y-4.87
X4.7638Y-2.3465
X4.7638Y-2.5354
X4.7638Y-4.7087
X4.7638Y-4.8976
X4.8306Y-2.3741
X4.8306Y-2.5078
X4.8306Y-4.7363
X4.8306Y-4.87
X4.8583Y-2.4409
X4.8583Y-4.8031
X5.9685Y-2.4409
X5.9685Y-4.8031
X5.9962Y-2.3741
X5.9962Y-2.5078
X5.9962Y-4.7363
X5.9962Y-4.87
X6.063Y-2.3465
X6.063Y-2.5354
X6.063Y-4.7087
X6.063Y-4.8976
X6.1298Y-2.3741
X6.1298Y-2.5078
X6.1298Y-4.7363
X6.1298Y-4.87
X6.1575Y-2.4409
X6.1575Y-4.8031
T3
X5.024Y-2.8626
X5.024Y-3.1299
X5.024Y-4.5063
X5.1421Y-2.8626
X5.1421Y-3.1299
X5.1421Y-4.5063
X5.6614Y-2.6894
X5.6614Y-2.8075
T4
X4.7638Y-2.4409
X4.7638Y-4.8031
X6.063Y-2.4409
X6.063Y-4.8031
T5
X4.8547Y-2.8626
X4.8547Y-3.1299
X4.8547Y-4.5063
X5.6614Y-2.5201
T0
M30
